<svg id="Gateway_Asan_Pardakht_Mono" data-name="Gateway / Asan Pardakht / Mono" xmlns="http://www.w3.org/2000/svg" width="48" height="48" viewBox="0 0 48 48">
  <rect id="Boundary" width="48" height="48" fill="none"/>
  <path id="Fill_1"  d="M19.7,38.714h-.191A8.321,8.321,0,0,1,13.27,36.1,7.665,7.665,0,0,1,11.7,33.554a4.338,4.338,0,0,0,3.158,1.506c1.467,0,2.977-.822,4.487-2.444a7.236,7.236,0,0,1,4.828-2.39,4.091,4.091,0,0,1,2.516.857,1.733,1.733,0,0,1,.671,1.408,5.817,5.817,0,0,1-2.121,4.046A7.746,7.746,0,0,1,19.7,38.714Zm-4.845-4.155h-.074a3.261,3.261,0,0,1-.724-.095,3.483,3.483,0,0,1-.811-.308,4.3,4.3,0,0,1-.98-.717c-.067-.068-.114-.118-.157-.168-.108-.127-.239-.285-.4-.482l-.005-.007c.148-.444.559-.676,1.222-.691h.045a6.284,6.284,0,0,1,3.044,1.367l.057.038c.343.227.559.367.784.5a4.294,4.294,0,0,1-1.673.545A3.09,3.09,0,0,1,14.858,34.559Zm16.753-3.975a6.776,6.776,0,0,1-.752-.038,5.569,5.569,0,0,0,3.28-2.577c.882-1.673.79-3.874-.271-6.541A10.147,10.147,0,0,1,33.2,16.64a5.37,5.37,0,0,1,2.851-4.307,2,2,0,0,1,.94-.233,3.835,3.835,0,0,1,2.679,1.525,8.41,8.41,0,0,1,1.755,3.249,9.646,9.646,0,0,1-.6,7.612A10.087,10.087,0,0,1,31.612,30.584ZM30.1,30.219h0c-.362-.276-.7-.819-.242-1.843.5-1.134,1.87-1.959,3.191-2.756l.05-.032c.43-.26.786-.477,1.121-.7a5.545,5.545,0,0,1-.31,2.38,3.962,3.962,0,0,1-.209.463,4.336,4.336,0,0,1-.565.829,4.733,4.733,0,0,1-.965.841,5.093,5.093,0,0,1-1.387.647c-.258.069-.5.13-.684.175Zm-14.333-.1h0c-.162,0-.326,0-.5-.005-3.861-.086-7.1-.914-11.3-4.766A13.581,13.581,0,0,1,1.058,21.42,8.909,8.909,0,0,1,.012,17.1a3.469,3.469,0,0,1,1.444-2.769,8.194,8.194,0,0,1,4.784-1.541,11.2,11.2,0,0,1,5.612,1.674,16.938,16.938,0,0,1,4.187,3.46c3,3.46,6.053,5.214,9.08,5.214a8.683,8.683,0,0,0,6.15-2.791v.006a15.279,15.279,0,0,1-3.232,4.879,15.6,15.6,0,0,1-4.764,3.358A18.061,18.061,0,0,1,15.767,30.117Zm9.347-7.478a7.284,7.284,0,0,1-.815-.046c-.222-.025-.447-.06-.67-.105a9.773,9.773,0,0,1-3.23-1.345c.691-.357,1.41-.8,2.172-1.261l.022-.013.029-.018c2.026-1.241,4.121-2.524,6.045-2.524.071,0,.152,0,.241.007,2.038.12,2.477,1.212,2.486,2.108l-.518.6-.05.056-.037.039a8.345,8.345,0,0,1-1.984,1.518,7.9,7.9,0,0,1-1.988.786,7.209,7.209,0,0,1-1.532.2C25.228,22.639,25.17,22.639,25.114,22.639Zm-2.267-5.313a8.2,8.2,0,0,1-4.785-1.541,3.468,3.468,0,0,1-1.444-2.768A8.9,8.9,0,0,1,17.663,8.7,13.542,13.542,0,0,1,20.57,4.771C24.77.919,28.007.092,31.868.005c.168,0,.337-.005.5-.005a18.036,18.036,0,0,1,7.507,1.526,15.569,15.569,0,0,1,4.764,3.358,15.294,15.294,0,0,1,3.231,4.883,8.819,8.819,0,0,0-6.148-2.79c-3.027,0-6.082,1.754-9.08,5.214a16.971,16.971,0,0,1-4.186,3.46A11.2,11.2,0,0,1,22.847,17.326Zm22.426-4.535c-1.922,0-4.018-1.283-6.046-2.524-.779-.477-1.515-.927-2.221-1.292a9.512,9.512,0,0,1,3.6-1.412,7.593,7.593,0,0,1,.867-.081c.081,0,.164,0,.245,0a7.25,7.25,0,0,1,1.338.125,7.709,7.709,0,0,1,1.981.669,8.709,8.709,0,0,1,2.189,1.545c.079.078.143.143.2.207.168.186.348.39.569.642-.006.9-.442,2-2.486,2.119C45.435,12.788,45.354,12.791,45.273,12.791Z" transform="translate(0 5)" fill="#1650e9"/>
</svg>
