<svg id="Bank_Ayandeh_Mono" data-name="Bank / Ayandeh / Mono" xmlns="http://www.w3.org/2000/svg" width="48" height="48" viewBox="0 0 48 48">
  <rect id="Boundary" width="48" height="48" transform="translate(0)" fill="none"/>
  <path id="Shape" d="M41.321,48H6.679A6.714,6.714,0,0,1,0,41.322V6.68A6.616,6.616,0,0,1,1.952,1.957,6.726,6.726,0,0,1,6.675,0H41.321A6.716,6.716,0,0,1,48,6.679V41.322A6.714,6.714,0,0,1,41.321,48ZM8.5,24.107a5.177,5.177,0,0,0-4.294,1.954C3.034,27.517,2.291,29.861,2,33.027v7.891a5.13,5.13,0,0,0,1.47,3.594A4.968,4.968,0,0,0,7.024,46H40.972a4.974,4.974,0,0,0,3.56-1.488A5.068,5.068,0,0,0,46,40.918V22a26.314,26.314,0,0,1-5.513,7.789,13.711,13.711,0,0,1-3.858,2.524,12.321,12.321,0,0,1-4.784.967c-2.865,0-6.751-2.107-10.866-4.338l-.006,0C16.59,26.563,12.059,24.107,8.5,24.107ZM7.06,2l0,0A4.989,4.989,0,0,0,3.514,3.489,5.1,5.1,0,0,0,2,7.043V26c2.485-4.868,6.656-11.338,14.144-11.338,2.874,0,6.778,2.137,10.911,4.4,4.392,2.4,8.933,4.889,12.483,4.889a5.11,5.11,0,0,0,4.323-2.039c1.171-1.523,1.891-3.974,2.139-7.285V7.043A5.039,5.039,0,0,0,40.976,2Z" transform="translate(0)" fill="#1650e9"/>
</svg>
