<svg id="Bank_Bank_Markazi_Mono" data-name="Bank / Bank Markazi / Mono" xmlns="http://www.w3.org/2000/svg" width="48" height="48" viewBox="0 0 48 48">
  <rect id="Boundary" width="48" height="48" fill="none"/>
  <path id="Shape" d="M24,48a2.345,2.345,0,0,1-1.671-.692L17.991,42.97H22.5a3.49,3.49,0,0,0,2.484-1.029L35.969,30.952l.049,6.008L25.671,47.308A2.344,2.344,0,0,1,24,48Zm17.662-6.337h-8.5l3.188-3.188A3.486,3.486,0,0,0,37.38,36V20.452l4.283,4.215v17Zm-18.329,0h-17v-8.5l3.189,3.188A3.53,3.53,0,0,0,12,37.38H27.548l-4.214,4.283ZM11.04,36.018h0L.692,25.671A2.379,2.379,0,0,1,0,24a2.348,2.348,0,0,1,.692-1.671L5.03,17.991V22.5A3.49,3.49,0,0,0,6.059,24.98l10.99,10.989Zm12.96-1A11.016,11.016,0,1,1,35.016,24,11.029,11.029,0,0,1,24,35.016ZM42.97,30.009V25.5a3.489,3.489,0,0,0-1.029-2.483L30.952,12.03l6.008-.049L47.308,22.329a2.363,2.363,0,0,1,0,3.342L43.08,29.9l-.109.109ZM10.621,27.548l0,0L6.337,23.333v-17h8.5L11.647,9.526A3.482,3.482,0,0,0,10.621,12V27.548Zm1.409-10.5v0l-.049-6.007L22.329.692A2.348,2.348,0,0,1,24,0a2.379,2.379,0,0,1,1.67.692L30.009,5.03H25.5A3.489,3.489,0,0,0,23.02,6.059L12.032,17.047Zm29.632-2.213,0,0-3.186-3.187A3.485,3.485,0,0,0,36,10.621H20.452l4.215-4.284h17v8.5Z" fill="#1650e9"/>
</svg>
