<svg id="Bank_Caspian_Mono" data-name="Bank / Caspian / Mono" xmlns="http://www.w3.org/2000/svg" width="48" height="48" viewBox="0 0 48 48">
  <rect id="Boundary" width="48" height="48" fill="none"/>
  <path id="Shape" d="M31.511-29.224h-.323a2.925,2.925,0,0,1-.733,1.438,1.672,1.672,0,0,1-.5-.095,1.835,1.835,0,0,1-.465-.213,3.465,3.465,0,0,0,.91-.505,2.045,2.045,0,0,0,.49-.625,1.687,1.687,0,0,1-1.078-.235,1.771,1.771,0,0,1,.243-.953,1.042,1.042,0,0,1,.373-.375.631.631,0,0,1,.45.2,1.159,1.159,0,0,1,.313.68h.4q.1,0,.29-.35a3,3,0,0,1,.393-.588.933.933,0,0,1,.725.245,1.112,1.112,0,0,1,.2.745,1.671,1.671,0,0,1-.455.71,1.189,1.189,0,0,1-.823-.405Q31.739-29.224,31.511-29.224ZM12.918-31.166l-.313.678a.814.814,0,0,0-.277-.053q-.434,0-.7.617.013.091.292.17l.507.142q.272.1.272.256a2.822,2.822,0,0,1-.22.94,3.8,3.8,0,0,1-1.942.554,1.149,1.149,0,0,1-.724-.206.8.8,0,0,1-.287-.668,2.122,2.122,0,0,1,.14-.681,3.121,3.121,0,0,1,.271-.592.192.192,0,0,1,.194.092,1.553,1.553,0,0,0-.207.749q0,.615.82.615a3.863,3.863,0,0,0,.843-.117,2.8,2.8,0,0,0,.8-.287,1.91,1.91,0,0,0-.662-.246.749.749,0,0,1-.476-.246,2.272,2.272,0,0,1,.106-.508q.37-1.3,1.156-1.3A1.069,1.069,0,0,1,12.918-31.166Zm1.45,1.76a2,2,0,0,1-.272.833,3.037,3.037,0,0,1-.535.777,1.365,1.365,0,0,1-.478-.122,1.386,1.386,0,0,1-.429-.246,4.266,4.266,0,0,0,.835-.49A1.351,1.351,0,0,0,14-29.247a1.158,1.158,0,0,0-.478-.556l.357-.678a1.379,1.379,0,0,1,.34.493A1.451,1.451,0,0,1,14.368-29.407Zm2,1-.416.386-.409-.4.424-.381Zm1.7-.815a.547.547,0,0,1-.391-.18.726.726,0,0,1-.209-.378.663.663,0,0,1-.22.373.58.58,0,0,1-.393.185h-.207a.547.547,0,0,1-.39-.18.725.725,0,0,1-.209-.378.663.663,0,0,1-.22.373.58.58,0,0,1-.393.185h-.075a.615.615,0,0,1-.644-.4,4.919,4.919,0,0,1-.135-1.212q-.016-.465-.039-.645a2.186,2.186,0,0,0-.165-.622l.473-.488a1.256,1.256,0,0,1,.147.571q.01.14.01.592v.749a1.736,1.736,0,0,0,.049.488.346.346,0,0,0,.352.272.468.468,0,0,0,.411-.229.748.748,0,0,0,.122-.419h.22a.78.78,0,0,0,.116.444.446.446,0,0,0,.4.2h.153a.468.468,0,0,0,.411-.229.747.747,0,0,0,.122-.419h.22a.78.78,0,0,0,.116.444.447.447,0,0,0,.4.2h.191q.07,0,.287-.023a.588.588,0,0,1-.31-.533.928.928,0,0,1,.383-.683,1.019,1.019,0,0,1,.631-.307A.83.83,0,0,1,20-31q.047.079.008.079a.242.242,0,0,1-.07-.018,1.123,1.123,0,0,0-.372-.053,1.232,1.232,0,0,0-.755.211.854.854,0,0,0,.582.716l.975-.249-.3.64q-.509.112-1.35.32A3.668,3.668,0,0,1,18.071-29.226Zm.08-2.344-.357.351-.362-.312L17.1-31.2l-.38-.328.357-.358.362.317.331-.333ZM20.865-32.6a4.906,4.906,0,0,1,.067.932,14.267,14.267,0,0,1-.186,2.192l-.261.386,0-.955a6.866,6.866,0,0,0-.23-2.032Zm5.6,3.372h-.133a.513.513,0,0,1-.38-.18.743.743,0,0,1-.192-.385.747.747,0,0,1-.2.375.58.58,0,0,1-.433.19q-.4,0-.51-.505-.205.5-.565.5a.464.464,0,0,1-.363-.172.762.762,0,0,1-.158-.3.652.652,0,0,1-.6.478H22.8q-.435,0-.593-.725a1.511,1.511,0,0,1-.225.5,1.23,1.23,0,0,1-1.043-.353q.1-.383.18-.6A2.762,2.762,0,0,1,22-30.892a2.071,2.071,0,0,0-.085-.27l.3-.445a1.641,1.641,0,0,1,.2.66q.09.62.115.708.095.33.315.33h.04v0h.1a.407.407,0,0,0,.362-.218.747.747,0,0,0,.11-.4h.225q0,.615.4.615a.407.407,0,0,0,.388-.24.807.807,0,0,0,.085-.375h.225a1.146,1.146,0,0,0,.055.415.322.322,0,0,0,.328.2.446.446,0,0,0,.413-.243.759.759,0,0,0,.1-.38h.225q0,.623.433.623H26.4l-.14-.005h.253a.393.393,0,0,0,.372-.247.83.83,0,0,0,.083-.368h.222q0,.618.46.618a.467.467,0,0,0,.44-.238.756.756,0,0,0,.093-.38h.225q0,.615.4.615a.7.7,0,0,0,.475-.153,2.305,2.305,0,0,0-.32-.53l.385-.505a1.044,1.044,0,0,1,.18.318,1.133,1.133,0,0,1,.1.41,1.466,1.466,0,0,1-.088.363q-.04.123-.138.36a.8.8,0,0,1-.258.293.626.626,0,0,1-.365.13.463.463,0,0,1-.347-.16.638.638,0,0,1-.175-.35.6.6,0,0,1-.62.51q-.353,0-.555-.508Q26.825-29.224,26.462-29.224Zm-4.274-.823-.11-.555a1.556,1.556,0,0,0-.72.385.775.775,0,0,0,.613.182A1.766,1.766,0,0,0,22.188-30.047Zm8.65.228a1.023,1.023,0,0,0-.185-.275.4.4,0,0,0-.28-.153q-.07,0-.153.125a.557.557,0,0,0-.088.19q.028.083.2.13a.916.916,0,0,0,.248.035A.568.568,0,0,0,30.838-29.819Zm1.978.173a.935.935,0,0,0,.005-.095.554.554,0,0,0-.505-.58.494.494,0,0,0-.2.29A1.134,1.134,0,0,0,32.816-29.647ZM16.532-16.868H14.964A1.128,1.128,0,0,1,13.836-18h0a.226.226,0,0,1,.226-.226h3.457a.249.249,0,0,1,.249.249v2.344a.227.227,0,0,1-.227.227h0a1.008,1.008,0,0,1-1.008-1.008Zm10.985-4.765c-.039,1.062.607,1.5,1.209,1.156.547-.309,1.1-2.178,1.523-3.768.194-.725.368-1.392.481-1.826a.681.681,0,0,1,.66-.511H32.7a.342.342,0,0,1,.277.141.342.342,0,0,1,.049.307c-.354,1.083-1.291,3.878-2.068,5.572a2.227,2.227,0,0,1-2.345,1.584,1.393,1.393,0,0,1-.993-.488,1.892,1.892,0,0,1-.331-1.586l.02-.063c-.082.194-.163.379-.243.552a2.227,2.227,0,0,1-2.345,1.584,1.393,1.393,0,0,1-.994-.488,2.071,2.071,0,0,1-.393-1.184l-.043.087a2.481,2.481,0,0,1-2.345,1.584A2.249,2.249,0,0,1,19.3-19.49a3.471,3.471,0,0,1-.8-1.805c-.108.26-.215.506-.319.733a2.227,2.227,0,0,1-2.345,1.584,1.644,1.644,0,0,1-.994-.488,2.985,2.985,0,0,1-.577-1.518c-.063.146-.126.287-.187.421a2.227,2.227,0,0,1-2.345,1.584,1.644,1.644,0,0,1-.994-.488,3.19,3.19,0,0,1-.6-1.794c-.1.248-.206.485-.306.7a6.8,6.8,0,0,1-2.636,3.3c-3.3,2.27-6.828.577-7.167-2.395-.181-1.583.706-3.853,2.16-5.8.279-.374,1.19-.158,1.19-.158-.114.866-3.3,3.822-2,6.715.4.9,2.35,1.117,3.791.483A5.223,5.223,0,0,0,7.4-20.525a16.419,16.419,0,0,0,1.52-3.715c.194-.725.368-1.392.481-1.826a.681.681,0,0,1,.66-.511H11.57a.342.342,0,0,1,.277.141.342.342,0,0,1,.049.307c-.249.761-.786,2.369-1.353,3.845-.12,1.57.668,2.167,1.3,1.808.547-.309,1.1-2.178,1.523-3.768.194-.725.368-1.392.481-1.826a.681.681,0,0,1,.66-.511h1.305a.342.342,0,0,1,.277.141.342.342,0,0,1,.049.307c-.271.83-.885,2.667-1.507,4.242.029,1.276.735,1.743,1.316,1.415.547-.309,1.1-2.178,1.523-3.768.194-.725.368-1.392.481-1.826a.681.681,0,0,1,.66-.511h1.305a.342.342,0,0,1,.277.141.342.342,0,0,1,.049.307c-.257.785-.82,2.471-1.407,3.985-.026,1.135.632,2.01,1.99,1.65.79-.21,1.331-2.156,1.756-3.745.194-.725.368-1.392.481-1.826a.681.681,0,0,1,.66-.511h1.313a.342.342,0,0,1,.276.139.342.342,0,0,1,.052.3c-.291.933-1.006,3.152-1.729,4.819.086.831.661,1.147,1.2.843s1.1-2.178,1.523-3.768c.194-.725.368-1.392.481-1.826a.681.681,0,0,1,.66-.511H28.8a.342.342,0,0,1,.277.141.342.342,0,0,1,.049.307C28.842-25.258,28.174-23.261,27.517-21.633ZM13.325-17.974v.857a.249.249,0,0,1-.249.249H10.262A1.128,1.128,0,0,1,9.133-18h0a.226.226,0,0,1,.066-.16.226.226,0,0,1,.16-.066h3.717A.249.249,0,0,1,13.325-17.974ZM46.766-29.48a13.9,13.9,0,0,0-4.313.18,6.472,6.472,0,0,0-4.211,2.6c5.348-.56,4.315,3.262,3.215,5a6.027,6.027,0,0,1-5.09,2.821c-.341,0-2.558-.22-3.149-2.074-.6-1.885-.068-3.721.546-5.558A21.485,21.485,0,0,1,36.1-31.335a1.308,1.308,0,0,1,1.147-.63l1.672.036a.208.208,0,0,1,.186.124.208.208,0,0,1-.033.221c-2.085,2.443-3.762,5.178-4.051,7.093-.278,1.839.631,3.662,2.679,3.626,2.756-.048,4.218-2.289,3.908-2.978-.667-1.483-3.53-1.37-4.875-1.216a.415.415,0,0,1-.373-.178.416.416,0,0,1-.035-.412,10.829,10.829,0,0,1,2.09-3.019,12.606,12.606,0,0,1,5.108-2.7,15.171,15.171,0,0,1,4.1-.374.385.385,0,0,1,.279.129.385.385,0,0,1,.1.292,3.433,3.433,0,0,1-.478,1.582A.714.714,0,0,1,46.766-29.48ZM7.856-25.92,7.4-24.665a1.456,1.456,0,0,1-1.368.958H5.693a.9.9,0,0,1-.741-.386.9.9,0,0,1-.109-.828l.267-.733a1.539,1.539,0,0,1,1.446-1.012h.778a.556.556,0,0,1,.455.237A.556.556,0,0,1,7.856-25.92Z" transform="translate(0 48)" fill="#1650e9" fill-rule="evenodd"/>
</svg>
