<svg id="Bank_Dey_Mono" data-name="Bank / Dey / Mono" xmlns="http://www.w3.org/2000/svg" width="48" height="48" viewBox="0 0 48 48">
  <rect id="Boundary" width="48" height="48" transform="translate(0)" fill="none"/>
  <path id="Shape" d="M38.953,25c-5.4-.028-10.511-3.892-14.381-7.3l2.215-2.214.073.063c2.569,2.2,6.4,5.484,9.593,6.092.235.021.472.035.707.035v0a.157.157,0,0,1,.046,0h.01a3.87,3.87,0,0,0-.016-7.739V7.015a10.1,10.1,0,0,0-5.413,1.8,22.929,22.929,0,0,0-2.42,1.8c-3.8,3.193-6.916,7.119-10.767,10.264-.623.509-1.255.987-1.9,1.426-.473.322-.953.625-1.44.9A12.741,12.741,0,0,1,9,25,8.993,8.993,0,1,1,9,7.015a14.824,14.824,0,0,1,6.8,1.8,25.754,25.754,0,0,1,2.8,1.706l.132.093c.081.057.193.116.316.2l.644.437.012.009L18,13.716c-2.552-1.854-5.727-3.56-8.967-3.56A5.779,5.779,0,0,0,3.948,13.1a5.844,5.844,0,0,0,0,5.881,5.743,5.743,0,0,0,5.01,2.7c7.632,0,11.975-9.529,15.647-14.658q.572-.8,1.2-1.545a18.606,18.606,0,0,1,1.8-1.878A13.666,13.666,0,0,1,37.134,0H37.2V7.015h1.847a8.993,8.993,0,0,1,0,17.986Zm-1.747-3.326Z" transform="translate(0 11)" fill="#1650e9"/>
</svg>
