<svg id="Gateway_Digipay_Mono" data-name="Gateway / Digipay / Mono" xmlns="http://www.w3.org/2000/svg" width="48" height="48" viewBox="0 0 48 48">
  <rect id="Boundary" width="48" height="48" fill="none"/>
  <path id="Shape" d="M39.975,18.667H24.888V33.778h7.987a7.106,7.106,0,0,0,7.1-7.111ZM41.75,8.889V26.667a8.882,8.882,0,0,1-8.875,8.889H24.888v3.556A8.882,8.882,0,0,1,16.013,48H6.25V25.778a8.891,8.891,0,0,1,5-8,8.891,8.891,0,0,1-5-8V0H32.875A8.882,8.882,0,0,1,41.75,8.889ZM23.112,39.111V18.667H15.125a7.106,7.106,0,0,0-7.1,7.111V46.222h7.988A7.106,7.106,0,0,0,23.112,39.111ZM39.975,16.889v-8a7.106,7.106,0,0,0-7.1-7.111H8.025v8a7.106,7.106,0,0,0,7.1,7.111Z" fill="#1650e9" fill-rule="evenodd"/>
</svg>
