<svg id="Bank_Eghtesad_Novin_Mono" data-name="Bank / Eghtesad Novin / Mono" xmlns="http://www.w3.org/2000/svg"  viewBox="0 0 48 48">
  <rect id="Boundary" width="48" height="48" fill="none"/>
  <path id="Shape" d="M40.5-15A7.5,7.5,0,0,1,48-7.5,7.5,7.5,0,0,1,40.5,0,7.5,7.5,0,0,1,33-7.5,7.5,7.5,0,0,1,40.5-15ZM34.138-47.581a.532.532,0,0,1,.52-.419H47.8a.2.2,0,0,1,.17.094.2.2,0,0,1,.012.194L25.425-.284a.5.5,0,0,1-.45.284H24.42a.5.5,0,0,1-.388-.186.5.5,0,0,1-.1-.419Zm-7.578,0A.532.532,0,0,1,27.079-48h3.989a.531.531,0,0,1,.414.2.533.533,0,0,1,.105.447L21.386-.393A.5.5,0,0,1,20.9,0H16.841a.5.5,0,0,1-.388-.186.5.5,0,0,1-.1-.419ZM22.566-47.7a.531.531,0,0,1,.48-.3h.417a.531.531,0,0,1,.414.2.533.533,0,0,1,.106.447L13.78-.393A.5.5,0,0,1,13.294,0H.2a.2.2,0,0,1-.17-.094A.2.2,0,0,1,.02-.288ZM7.5-48A7.5,7.5,0,0,1,15-40.5,7.5,7.5,0,0,1,7.5-33,7.5,7.5,0,0,1,0-40.5,7.5,7.5,0,0,1,7.5-48Z" transform="translate(0 48)" fill="#1650e9" fill-rule="evenodd"/>
</svg>
