<svg id="Bank_Futurebank_Mono" data-name="Bank / Futurebank / Mono" xmlns="http://www.w3.org/2000/svg" width="48" height="48" viewBox="0 0 48 48">
  <rect id="Boundary" width="48" height="48" fill="none"/>
  <path id="Shape" d="M0,12.461a84.259,84.259,0,0,1,25.88-.609A68.1,68.1,0,0,1,40.768,35.292,74.023,74.023,0,0,0,0,12.461ZM9.718,4.913c7.833-1.079,13-.78,20.9.4,4.6,3.959,11.916,11.839,14.7,19.12C35.1,13.545,28.277,8.059,9.718,4.913ZM14.631,0A139.725,139.725,0,0,1,35.084,1.894a88.457,88.457,0,0,1,12.3,13.574C35.178,4.88,33.19,3.146,14.631,0Z" transform="translate(0 6)" fill="#1650e9"/>
</svg>
