<svg id="Bank_Gardeshgari_Mono" data-name="Bank / Gardeshgari / Mono" xmlns="http://www.w3.org/2000/svg" width="48" height="48" viewBox="0 0 48 48">
  <rect id="Boundary" width="48" height="48" fill="none"/>
  <path id="Shape" d="M-1342.38,1735.569l-9.085-15.736-1.462,2.531,7.66,13.2H-1351l-7.69-13.319,7.636-13.225h5.829l-3.326,5.759,9.133,15.819,15.287-.006-2.87,4.972Zm4.419-7.466-2.915-5.049h6.651l9.133-15.818-7.649-13.236H-1327l7.69,13.319-9.085,15.736h2.922l7.606-13.235,2.867,4.965-7.69,13.319Zm-6.868-13.23a5.831,5.831,0,0,1,5.828-5.828,5.832,5.832,0,0,1,5.829,5.828A5.832,5.832,0,0,1-1339,1720.7,5.832,5.832,0,0,1-1344.829,1714.874Zm-18.171-.089,7.69-13.319h18.17l-1.461-2.531-15.267.031L-1351,1694h15.379l7.636,13.225-2.914,5.048-3.326-5.759h-18.266l-7.638,13.243Z" transform="translate(1363 -1690.785)" fill="#1650e9"/>
</svg>
