<svg id="Bank_Ghavamin_Mono" data-name="Bank / Ghavamin / Mono" xmlns="http://www.w3.org/2000/svg" width="48" height="48" viewBox="0 0 48 48">
  <rect id="Boundary" width="48" height="48" fill="none"/>
  <path id="Shape" d="M25.473,32.58a8.893,8.893,0,0,1-9.061-14.119C16.718,15.452,18.811,10,29.964,10,45.368,10,46,21.2,46,21.2V44.693S45.522,48,43.165,48H18.18L10,40.582H36.71V21.342a10.346,10.346,0,0,0-10.366-7.247,11.589,11.589,0,0,0-6.282,1.6A8.89,8.89,0,0,1,29.45,30.438C28.814,33.517,26.15,38,16.036,38,.632,38,0,26.812,0,26.812V3.307S.478,0,2.835,0H27.82L36,7.418H9.29v19.24a10.346,10.346,0,0,0,10.366,7.247,11.934,11.934,0,0,0,5.816-1.325Z" transform="translate(1)" fill="#1650e9"/>
</svg>
