<svg id="Bank_Hekmat_Mono" data-name="Bank / Hekmat / Mono" xmlns="http://www.w3.org/2000/svg" width="48" height="48" viewBox="0 0 48 48">
  <rect id="Boundary" width="48" height="48" fill="none"/>
  <path id="Shape" d="M16.279,46.137A1.82,1.82,0,1,1,18.1,48,1.845,1.845,0,0,1,16.279,46.137Zm9.049-3.677a1.82,1.82,0,1,1,1.82,1.864A1.845,1.845,0,0,1,25.328,42.459Zm-18.05,0A1.82,1.82,0,1,1,9.1,44.323,1.846,1.846,0,0,1,7.278,42.459Zm7.23-5.54A3.493,3.493,0,1,1,18,40.5,3.542,3.542,0,0,1,14.508,36.919Zm10.919-7.454a3.493,3.493,0,1,1,3.491,3.576A3.541,3.541,0,0,1,25.427,29.465Zm-21.689,0A3.542,3.542,0,0,1,7.23,25.889a3.577,3.577,0,0,1,0,7.152A3.542,3.542,0,0,1,3.738,29.465Zm8.951-5.54a5.362,5.362,0,1,1,5.361,5.49A5.437,5.437,0,0,1,12.688,23.925Zm12.59-7.253a5.362,5.362,0,1,1,5.361,5.49A5.437,5.437,0,0,1,25.278,16.672ZM0,16.571a5.437,5.437,0,0,1,5.36-5.49,5.492,5.492,0,0,1,0,10.98A5.437,5.437,0,0,1,0,16.571ZM10.82,7.4A7.332,7.332,0,0,1,18.049,0a7.332,7.332,0,0,1,7.229,7.4,7.332,7.332,0,0,1-7.229,7.4A7.332,7.332,0,0,1,10.82,7.4Z" transform="translate(6)" fill="#1650e9"/>
</svg>
