<svg id="Gateway_Hesabit_Mono" data-name="Gateway / Hesabit / Mono" xmlns="http://www.w3.org/2000/svg" width="48" height="48.005" viewBox="0 0 48 48.005">
  <rect id="Boundary" width="48" height="48" fill="none"/>
  <path id="Shape" d="M24,48A24,24,0,1,1,48,24,24,24,0,0,1,24,48ZM15.51,14.938H13.26a1.519,1.519,0,0,0,0,3.037H15.51a1.519,1.519,0,0,0,0-3.037Zm0,9.112H13.26a1.519,1.519,0,0,0,0,3.037H15.51a1.519,1.519,0,0,0,0-3.037Zm0,9.112H13.26a1.519,1.519,0,0,0,0,3.037H15.51a1.519,1.519,0,0,0,0-3.037ZM35.362,14.936H20.233a1.519,1.519,0,0,0,0,3.037H35.362a1.519,1.519,0,0,0,0-3.037Zm0,9.112H20.233a1.519,1.519,0,0,0,0,3.037H35.362a1.519,1.519,0,0,0,0-3.037Z" fill="#1650e9" fill-rule="evenodd"/>
</svg>
