<svg id="Gateway_IDpay_Mono" data-name="Gateway / IDpay / Mono" xmlns="http://www.w3.org/2000/svg" width="48" height="48" viewBox="0 0 48 48">
  <rect id="Boundary" width="48" height="48" fill="none"/>
  <path id="Shape" d="M44.063,27H9.4a1.8,1.8,0,0,1-1.2-.434c-.575-.462-.509-1.215-.432-2.086.019-.216.038-.439.048-.663L8.247,19H1.094A1.049,1.049,0,0,1,0,17.909a1.27,1.27,0,0,1,1.14-1.372c1.644-.078,3.577-.115,5.912-.115,1.9,0,3.811.024,5.656.047h.007l1.581.019a1.763,1.763,0,0,0,1.921-1.88,1.491,1.491,0,0,0-.865-1.3,10.623,10.623,0,0,0-2.731-.179c-.893,0-1.886.018-3,.039l-.153,0c-.975.018-1.9.035-2.652.035a8.1,8.1,0,0,1-1.693-.091.781.781,0,0,1-.487-.385,1.153,1.153,0,0,1-.089-.916,1.222,1.222,0,0,1,1.2-.868H47.183c0,.211-.011.374-.023.547s-.025.363-.025.61c-.018.336-.066.726-.117,1.139a17.729,17.729,0,0,0-.171,2.14,10.23,10.23,0,0,1-.1,1.157,9.5,9.5,0,0,0-.1,1.109c-.121.949-.208,2.167-.291,3.344-.082,1.158-.167,2.355-.285,3.309-.041.272-.058.487-.074.677a1.862,1.862,0,0,1-.407,1.2A1.822,1.822,0,0,1,44.063,27ZM38.734,14.079h0l-.288,3.279h3.217l.239-3.279H38.734Zm8.738-8.534H9.447L9.783,1.88A1.955,1.955,0,0,1,11.752,0H46.416A1.582,1.582,0,0,1,48,1.495l-.239,3.23c-.009.1-.015.191-.02.272C47.718,5.351,47.706,5.545,47.472,5.545Zm-41.242,0H1.285A.953.953,0,0,1,.233,4.6a1.24,1.24,0,0,1,1-1.323H6.663a.84.84,0,0,1,.772.59,1.207,1.207,0,0,1-.34,1.339A1.416,1.416,0,0,1,6.231,5.545Z" transform="translate(0 10.5)" fill="#1650e9"/>
</svg>
