<svg id="Bank_Iran_Venezuela_Mono" data-name="Bank / Iran Venezuela / Mono" xmlns="http://www.w3.org/2000/svg" width="48" height="48.001" viewBox="0 0 48 48.001">
  <rect id="Boundary" width="48" height="48" transform="translate(0 0)" fill="none"/>
  <path id="Shape" d="M25.522,48h0L0,48V0H48V48H35.963l-3.2-6.122L23.015,23.171h8.193l10.67,20.366V26.109a17.947,17.947,0,0,1-3.471,8.679L31.813,22.171H21.364L30.99,40.59c-.335.141-.671.271-1,.387L20.164,22.171H12L22.322,41.878A17.794,17.794,0,0,1,16.363,40.3,18.049,18.049,0,0,1,6.123,26.109V41.878h16.2L25.521,48ZM26.11,6.123a17.839,17.839,0,0,1,5.808,1.71,18.094,18.094,0,0,1,8.249,8.249,17.841,17.841,0,0,1,1.711,5.809V6.123Zm-19.987,0V21.892A18,18,0,0,1,21.892,6.123ZM32.515,48h-5.9L13.651,23.171h5.907L32.514,48Z" transform="translate(0 0)" fill="#1650e9"/>
</svg>
