<svg id="Bank_Iran_Zamin_Mono" data-name="Bank / Iran Zamin / Mono" xmlns="http://www.w3.org/2000/svg" width="48.001" height="48" viewBox="0 0 48.001 48">
  <rect id="Boundary" width="48" height="48" transform="translate(0.001)" fill="none"/>
  <path id="Shape" d="M6.836,41.231C27.174,49.508,42.194,33.407,34.491,16.2,48.2,31.931,36.9,48,22.431,48,17.307,48,11.786,45.986,6.836,41.231ZM16.4,13.314C37.841-5.08,59.422,22.5,41.089,41.3,49.551,20.989,33.646,5.766,16.4,13.314ZM7.013,6.425C-1.58,26.676,14.226,42,31.519,34.566c-4.963,4.2-9.92,5.969-14.382,5.97C2.218,40.538-7.192,20.8,7.013,6.425ZM15,24a9,9,0,1,1,9,9A9.017,9.017,0,0,1,15,24ZM42.714,8.31C23.25-1.864,6.775,12.737,12.816,30.6-3.649,7.628,25.584-11.6,42.714,8.31Z" transform="translate(0.001)" fill="#1650e9"/>
</svg>
