<svg id="Bank_Khavar_Mianeh_Mono" data-name="Bank / Khavar Mianeh / Mono" xmlns="http://www.w3.org/2000/svg" width="48" height="48" viewBox="0 0 48 48">
  <rect id="Boundary" width="48" height="48" fill="none"/>
  <path id="Shape" d="M0,37.535,17.971,23.469,0,32.509V25.841L25.9,15.7a8.862,8.862,0,0,0,3.495,5.06L13.352,48H6.59L20.981,27.129,0,48ZM47.951,47.89,37.139,21.941a8.868,8.868,0,0,0,5.18-4.378L48,20.958v3.181l-3.632-1.805L48,27.194v4.132l-5.8-5.384L48,35.949V48ZM38,48l-3.64-17.446L34.124,48H28.718L29.973,30.9,25.112,48h-6.55L29.9,21.083a8.85,8.85,0,0,0,6.573,1.041L43.3,48ZM0,15.964,16.846,13.7,0,12.62V7.565L18.023,9.906,0,4.715V0H5.743L26.622,9.455a8.862,8.862,0,0,0-.84,5.7L0,22.086Zm42.6,1.009a8.856,8.856,0,0,0,.068-6.736L48,8.949v2.327l-3.181.862L48,12.747v2.335l-2.513.1,2.513.93v3.132ZM37.786,5.335,40.71,0h3.249L40.524,5.6,45.692,0H48V2.474L42.225,7.112,48,4.225V7.708L42.466,9.781A8.857,8.857,0,0,0,37.786,5.335ZM11.2,0h7.95l5.144,3.649L20.957,0h4.036l2.021,2.511L25.894,0h3.055l2.1,5.372a8.88,8.88,0,0,0-4.171,3.619ZM30.245,0h2.577l.6,2.215L33.5,0h2.367L35.7,2.849,36.579,0h2.776L37.369,5.179A8.863,8.863,0,0,0,31.5,5.2Z" fill="#1650e9"/>
</svg>
