<svg id="Bank_Kosar_Mono" data-name="Bank / Kosar / Mono" xmlns="http://www.w3.org/2000/svg" width="48" height="48" viewBox="0 0 48 48">
  <rect id="Boundary" width="48" height="48" transform="translate(0)" fill="none"/>
  <path id="Shape" d="M37.174,37.7A17.781,17.781,0,0,1,8.252,31.278a.437.437,0,0,0-.7-.165L.142,37.874a.435.435,0,0,0-.021.622,25.214,25.214,0,0,0,38-1.592.062.062,0,0,0-.1-.08Q37.617,37.269,37.174,37.7ZM27.748,14.21a17.781,17.781,0,0,1,8.891,28.26.436.436,0,0,0,.208.69l9.56,3.033a.438.438,0,0,0,.55-.292A25.22,25.22,0,0,0,26.578,13.789a.062.062,0,0,0-.072.061.064.064,0,0,0,.049.062Q27.155,14.039,27.748,14.21ZM24.265,20A8.793,8.793,0,1,1,17,30.095,8.8,8.8,0,0,1,24.265,20ZM12.117,34.121A17.782,17.782,0,0,1,32.141,12.29a.44.44,0,0,0,.5-.436.44.44,0,0,0-.009-.089L30.483,1.971a.438.438,0,0,0-.529-.33,25.212,25.212,0,0,0-17.621,33.7.064.064,0,0,0,.074.038.062.062,0,0,0,.046-.06.061.061,0,0,0,0-.021C12.327,34.913,12.215,34.517,12.117,34.121Z" transform="translate(0 0.003)" fill="#1650e9" fill-rule="evenodd"/>
</svg>
