<svg id="Bank_Mehr_Eghtesad_Mono" data-name="Bank / Mehr Eghtesad / Mono" xmlns="http://www.w3.org/2000/svg" width="48" height="48" viewBox="0 0 48 48">
  <rect id="Boundary" width="48" height="48" fill="none"/>
  <path id="Shape" d="M18.682,42.7,31.964,29.348c3.9-3.926,10.559-2.3,13.08,3.426-2.641-.237-5.216-.647-7.405,1.584L23.978,48Zm-5.055-5.012L0,24.012l5.3-5.3,13.335,13.3c3.921,3.909,2.3,10.57-3.422,13.095C15.445,42.457,15.855,39.879,13.627,37.688ZM16.5,24A7.5,7.5,0,1,1,24,31.5,7.5,7.5,0,0,1,16.5,24Zm12.87-8.019c-3.921-3.909-2.3-10.571,3.421-13.1-.235,2.645-.645,5.223,1.582,7.414L48,23.977l-5.295,5.3ZM2.989,15.226c2.644.236,5.218.646,7.406-1.584L24.056,0l5.3,5.3L16.07,18.652A7.164,7.164,0,0,1,10.93,20.8,8.87,8.87,0,0,1,2.989,15.226Z" fill="#1650e9"/>
</svg>
