<svg id="Bank_Melall_Mono" data-name="Bank / Melall / Mono" xmlns="http://www.w3.org/2000/svg" width="48" height="48" viewBox="0 0 48 48">
  <rect id="Boundary" width="48" height="48" fill="none"/>
  <path id="Shape" d="M11.885,37.506a18,18,0,0,0,24.229,0,12.24,12.24,0,0,1-24.229,0Zm4.567.111a2.966,2.966,0,0,1-.587-4.027,12.951,12.951,0,0,1,1.292-2c.265-.134.565-.048,1.034.3A10.043,10.043,0,0,0,22.6,33.7c.651.1.913.29.913.647a27.067,27.067,0,0,1-.782,2.993A3.136,3.136,0,0,1,19.764,39,4.707,4.707,0,0,1,16.452,37.616Zm9.415.488c-.535-.53-.642-.771-1.037-2.336-.466-1.845-.444-1.915.681-2.082A10.084,10.084,0,0,0,29.953,31.8c.553-.423.888-.376,1.234.173,1.2,1.91,1.491,2.55,1.49,3.309C32.671,37.409,30.34,39,28.217,39A3.269,3.269,0,0,1,25.867,38.1ZM42.089,24a18.186,18.186,0,0,0-4.6-12.118,12.24,12.24,0,0,1,0,24.234A18.183,18.183,0,0,0,42.089,24ZM0,24A12.249,12.249,0,0,1,10.511,11.883a18.26,18.26,0,0,0,0,24.234A12.248,12.248,0,0,1,0,24Zm24.046,9A9.274,9.274,0,0,1,18.8,31.374a8.8,8.8,0,0,1-3.409-4.719A9.029,9.029,0,0,1,16.6,18.887a8.8,8.8,0,0,1,6.616-3.859c.229-.018.472-.027.726-.027a8.983,8.983,0,0,1,7.91,4.657,8.9,8.9,0,0,1-.242,9.139,8.776,8.776,0,0,1-3.363,3.172A9.078,9.078,0,0,1,24.047,33Zm-2.488-4.213c-.014.023.013.1.082.221a9.769,9.769,0,0,0,1.625,2.056.018.018,0,0,0,.01,0,18.208,18.208,0,0,0,.014-2.235,4.457,4.457,0,0,0-1.126-.086A1.788,1.788,0,0,0,21.559,28.787Zm6.115.246a11.145,11.145,0,0,1-.952,1.571c-.178.248-.265.382-.242.427q.008.016.038.016a2.7,2.7,0,0,0,.661-.274,8.119,8.119,0,0,0,2.539-1.918.072.072,0,0,0,0-.056,3.911,3.911,0,0,0-.971-.052H27.8Zm-9.38-.217a8.386,8.386,0,0,0,2.86,2.125c.01,0,.016,0,.019-.009.02-.036-.071-.19-.421-.715-.248-.379-.533-.852-.634-1.056l-.2-.414H19.1C18.453,28.748,18.293,28.761,18.293,28.816Zm6.419.952c0,.771.013.995.056.995l.006,0a10.015,10.015,0,0,0,1.4-1.935.052.052,0,0,0,0-.036,3.526,3.526,0,0,0-.744-.042h-.718Zm-4.4-5.059a8.762,8.762,0,0,0,.4,2.229l.127.416,1.229-.014,1.229-.014.014-1.221c.007-.661,0-1.26-.014-1.333l-.028-.112H21.8A10.186,10.186,0,0,0,20.309,24.71Zm8.565-.011a2.368,2.368,0,0,0-.057.361,15.268,15.268,0,0,1-.328,1.878c-.051.177-.1.357-.1.377a9.049,9.049,0,0,0,1.165.038h1.165l.178-.427a7.568,7.568,0,0,0,.54-2.2,11.131,11.131,0,0,0-1.6-.067A5.809,5.809,0,0,0,28.875,24.7Zm-4.129-.005c-.018.019-.033.624-.033,1.347v1.312h2.176l.158-.545a8.841,8.841,0,0,0,.362-1.8l.014-.324L26.1,24.674l-.486,0A7.807,7.807,0,0,0,24.746,24.693Zm-8.159,0a5.2,5.2,0,0,0,.54,2.3l.166.362h1.023a7,7,0,0,0,1.023-.038c0-.026-.088-.382-.117-.5l-.008-.031-.017-.07,0-.014a13.863,13.863,0,0,1-.313-1.84l-.014-.175-1.123-.013-.424,0A5.6,5.6,0,0,0,16.586,24.693Zm4.359-4.228a8.734,8.734,0,0,0-.636,2.8,6.05,6.05,0,0,0,1.163.057,10.506,10.506,0,0,0,1.817-.086c.016-.044.031-.683.031-1.366s-.014-1.322-.031-1.367a7.472,7.472,0,0,0-1.492-.086A3.738,3.738,0,0,0,20.945,20.465Zm-3.74.346a6.423,6.423,0,0,0-.639,2.42c.023.061.1.077.555.077.127,0,.292,0,.517,0h.092l1.131-.013.059-.524a10.164,10.164,0,0,1,.35-1.778,1.739,1.739,0,0,0,.1-.5c-.022-.055-.218-.068-1-.068H17.4Zm7.529-.324c-.014.04-.019.723-.011,1.434l.013,1.37,1.333.013c.294,0,.5,0,.661,0,.58,0,.681-.019.7-.064a9.833,9.833,0,0,0-.568-2.62l-.085-.174-1.009-.014c-.119,0-.25,0-.454,0h0C24.9,20.434,24.75,20.448,24.735,20.488Zm3.625.074c.017.084.091.387.155.636a14.445,14.445,0,0,1,.315,1.795l.037.3h2.587l-.016-.2a7.82,7.82,0,0,0-.644-2.268l-.184-.373-2.276-.027Zm-6.642-1.7c-.055.1-.076.156-.064.175a1.73,1.73,0,0,0,.622.053A3.6,3.6,0,0,0,23.288,19c.016-.044.031-.544.031-1.068a5.771,5.771,0,0,0-.047-1.019l-.008,0A9.71,9.71,0,0,0,21.718,18.859Zm4.759-1.912c-.025.05.094.22.311.529l.017.024c.217.31.518.789.671,1.068l.281.511h.887a3.239,3.239,0,0,0,.921-.055.057.057,0,0,0,0-.047,7.651,7.651,0,0,0-2.345-1.768l-.031-.014a3.071,3.071,0,0,0-.677-.266A.04.04,0,0,0,26.477,16.947Zm-5.93.383A7.6,7.6,0,0,0,18.419,19a.048.048,0,0,0,0,.038,3.7,3.7,0,0,0,.795.045h.768l.181-.362a13.541,13.541,0,0,1,.947-1.486.277.277,0,0,0,.067-.138c0-.024,0-.049-.031-.049A2.777,2.777,0,0,0,20.547,17.33Zm4.213-.087c-.049.049-.046.281-.038.787v.09l.013.934.643.014.186,0a1.95,1.95,0,0,0,.5-.033,7.005,7.005,0,0,0-.991-1.5l-.031-.039c-.134-.164-.215-.262-.263-.262A.031.031,0,0,0,24.76,17.243Zm8.074,14.449c-1.528-.912-1.577-1-.967-1.834a10.053,10.053,0,0,0,1.856-4.53c.068-.479.173-.663.44-.779a1.246,1.246,0,0,1,.192-.073c.129-.009,2.774.7,3.016.807,2.089.931,2.191,4.427.184,6.339A3.041,3.041,0,0,1,35.461,32.7,5.507,5.507,0,0,1,32.834,31.693ZM9.938,25.83c.52-.524.692-.6,2.313-1.016,1.77-.456,1.922-.415,2.052.555a10.047,10.047,0,0,0,1.829,4.455c.393.528.455.822.232,1.11a20.424,20.424,0,0,1-2.691,1.576,2.766,2.766,0,0,1-.933.164C9.878,32.674,7.668,28.111,9.938,25.83Zm2.237-2.676c-1.786-.452-2.372-.815-2.809-1.742a4.666,4.666,0,0,1,2.472-5.963c1.012-.346,1.6-.193,3.4.888,1.472.879,1.517.974.895,1.823a9.873,9.873,0,0,0-1.83,4.434c-.082.6-.159.856-.62.856A7.583,7.583,0,0,1,12.175,23.154Zm21.543-.531a10.029,10.029,0,0,0-1.844-4.475c-.611-.827-.557-.935.907-1.811a6.69,6.69,0,0,1,1.859-.949c2.485-.615,4.886,2.425,4.236,5.364-.3,1.348-.977,1.885-3.047,2.4a7.562,7.562,0,0,1-1.5.292C33.88,23.449,33.8,23.207,33.719,22.623ZM16.375,15.254c-1-1.67-1.048-1.81-1.007-2.715a2.743,2.743,0,0,1,.908-1.972A4.314,4.314,0,0,1,19.039,9.05a3.526,3.526,0,0,1,3.131.865c.546.553.634.752,1.026,2.333.458,1.847.446,1.882-.737,2.072a9.823,9.823,0,0,0-3.848,1.5l-.695.476a.885.885,0,0,1-.463.2C17.164,16.5,16.914,16.16,16.375,15.254Zm13.573.941a9.87,9.87,0,0,0-4.383-1.877c-1.192-.192-1.211-.25-.717-2.163.572-2.211,1.193-2.907,2.769-3.1a4.592,4.592,0,0,1,4.624,2.153c.806,1.248.536,2.429-1.129,4.949a.613.613,0,0,1-.518.315A1.107,1.107,0,0,1,29.948,16.2ZM24,5.807a17.964,17.964,0,0,0-12.115,4.687,12.24,12.24,0,0,1,24.229,0A17.964,17.964,0,0,0,24,5.807Z" fill="#1650e9"/>
</svg>
