<svg id="Bank_Mellat_Mono" data-name="Bank / Mellat / Mono" xmlns="http://www.w3.org/2000/svg" width="48" height="48.001" viewBox="0 0 48 48.001">
  <rect id="Boundary" width="48" height="48" fill="none"/>
  <path id="Shape" d="M12.562,47.5l-.065-.038-2.619-1.5L.81,40.753a1.539,1.539,0,0,1-.632-.575A1.7,1.7,0,0,1,0,39.326V25.736a3.807,3.807,0,0,1,1.92-3.164l1.739-1,3.315-1.9.151-.087v.175L7.115,36.305a.764.764,0,0,0,.1.366.533.533,0,0,0,.18.188.479.479,0,0,0,.251.068h.005a.814.814,0,0,0,.385-.12l8.25-4.739.076-.043.054.069,0,.005.058.076.059.076.007.01.059.074.059.072.015.019.063.075.061.071,0,0,.066.074.065.073.011.012.065.07.067.07,0,.005a8.712,8.712,0,0,0,.965.87c.067.052.135.1.2.152l.037.027c.056.04.111.08.167.118l.081.055.08.053.011.008.072.047.074.046.032.021.072.044.072.043.024.015.106.061.021.012.022.012.023.014.077.044.08.042.011.006.082.043.083.042.01.005c.251.127.509.242.768.343.057.022.107.042.153.059s.079.03.124.046l.029.01.012,0,.087.03.088.03.013,0,.079.025.08.024.04.014.078.022.079.022.03.008.077.021.079.021.047.012.069.017.068.017.069.015.063.014.062.014.083.016.06.012.059.012.065.012.07.013.069.012.053.008.074.012.073.011.043.005c.169.023.344.041.519.054l.1.008.1.006h.03l.064,0,.063,0,.088,0,.1,0h.313l.057,0,.058,0,.094,0,.106,0,.1-.007.11-.008.1-.008.105-.01.079-.009.02,0,.114-.014.1-.014.1-.014.112-.019.015,0,.08-.014c.059-.009.112-.019.167-.031l.038-.007.092-.019.1-.021.1-.022.067-.016.065-.015.069-.018.032-.008.1-.027.089-.024.12-.035.083-.025.051-.016.065-.021.092-.032.113-.04.088-.031.111-.041.093-.036.112-.044.088-.037.107-.046.094-.042.106-.049.091-.043.086-.042.015-.007.011-.005.014-.007.068-.033.112-.059.018-.01.066-.034.1-.053.1-.054.1-.058.1-.059.1-.059.1-.062.005,0h0l.09-.058.094-.064.094-.064.088-.062c.139-.1.254-.188.359-.273l.085-.068.084-.069,0,0,.084-.07.082-.072c.075-.065.151-.134.232-.211l.044-.042.044-.044,0,0h0l.078-.076.076-.076.036-.037c.025-.025.049-.049.071-.075l.021-.022.021-.022.077-.084.07-.078.072-.083.068-.08,0,0,.066-.078.065-.081.01-.012.062-.079.063-.082,0,0,.054-.073.078.045,6.073,3.487.151.087-.151.087L18.119,46.489l-1.739,1a3.858,3.858,0,0,1-3.818.015Zm18.055-.018-1.739-1-3.315-1.9-.152-.087.152-.086,14.412-8.267a.767.767,0,0,0,.271-.265.515.515,0,0,0,.074-.249.468.468,0,0,0-.069-.254.8.8,0,0,0-.3-.273L31.7,30.362l-.077-.044.034-.081,0-.006.038-.088.036-.089,0-.012.034-.088.033-.086.009-.023.033-.091.032-.089.033-.1.031-.093.005-.015.029-.091.027-.092,0-.006A8.826,8.826,0,0,0,32.287,28c.012-.087.022-.17.031-.249s.017-.166.024-.248l.008-.1.005-.1V27.3l0-.085,0-.086v-.039l0-.085,0-.083v-.029c0-.036,0-.077,0-.122v-.076l0-.088,0-.09V26.5l0-.092,0-.093v-.011c-.014-.278-.043-.559-.085-.833-.008-.06-.017-.113-.025-.161s-.018-.1-.029-.159l0-.013-.018-.09-.019-.09,0-.014-.018-.081-.019-.082-.01-.041-.018-.078-.02-.08-.008-.03-.021-.076-.021-.079-.013-.046-.02-.069-.021-.067-.02-.067-.02-.061-.02-.061-.026-.079-.02-.058-.02-.057-.023-.061-.024-.067L31.8,23.64l-.019-.049-.027-.069-.027-.068-.017-.041c-.068-.167-.138-.322-.212-.475l-.046-.092-.044-.091-.014-.027-.029-.056-.03-.056-.042-.077-.046-.084-.008-.014-.045-.078c-.023-.04-.038-.066-.053-.091l0-.007-.047-.079-.03-.048-.031-.049-.05-.079-.057-.089-.058-.086-.062-.09-.054-.078-.063-.086-.047-.063-.012-.016-.069-.092-.059-.077-.063-.079-.072-.088-.01-.012L30.3,21.09l-.111-.129-.026-.029-.062-.07-.065-.071-.068-.071-.047-.049-.046-.049-.05-.05-.023-.022-.072-.072-.067-.064-.09-.087-.064-.058c-.025-.023-.05-.047-.09-.081l-.072-.065-.092-.077-.072-.06-.091-.075-.078-.062-.094-.073-.076-.059-.094-.069-.084-.06-.1-.067-.082-.056-.079-.052-.014-.009-.011-.007-.014-.009-.064-.041-.105-.068-.019-.011-.062-.039-.094-.057-.094-.056-.1-.056L27.73,19l-.1-.053-.1-.052-.005,0-.1-.049-.1-.05-.1-.048-.1-.045c-.14-.063-.276-.12-.417-.174l-.1-.04-.1-.037-.005,0-.1-.037-.1-.035c-.1-.034-.2-.066-.3-.095l-.059-.016-.059-.016-.111-.031-.105-.027-.038-.009-.085-.021-.029-.007-.029-.006-.03-.006-.111-.024-.1-.022-.107-.021-.105-.019-.106-.018-.1-.015-.015,0-.1-.014-.1-.013h-.006l-.091-.01v-7.24l.152.087L43.339,21.57l1.74,1A3.838,3.838,0,0,1,47,25.851v13.5a1.531,1.531,0,0,1-.184.832,1.718,1.718,0,0,1-.653.579L34.331,47.556a3.9,3.9,0,0,1-1.8.442A3.852,3.852,0,0,1,30.617,47.485ZM9.037,33.945V10.3a3.836,3.836,0,0,1,1.894-3.3L11,6.97l2.619-1.5L22.684.257a1.567,1.567,0,0,1,.8-.257H23.5a1.73,1.73,0,0,1,.83.274l11.831,6.8a3.8,3.8,0,0,1,1.8,3.235v5.98l-.151-.086L23.4,7.914a.771.771,0,0,0-.366-.1.551.551,0,0,0-.255.061.472.472,0,0,0-.186.187.8.8,0,0,0-.088.391v9.565l-.087.012h-.007l-.1.013-.1.013-.013,0-.094.014-.092.014-.025,0-.1.016-.094.017-.005,0-.1.018-.1.021-.016,0-.093.021-.094.022-.007,0a8.615,8.615,0,0,0-1.24.4l-.232.1c-.068.03-.141.062-.228.1l-.089.042-.086.042-.013.005-.076.039-.077.04L19.326,19l-.075.04-.074.041-.025.014-.106.061-.022.012L19,19.175l-.023.013-.076.045-.077.048-.011.006-.078.049-.078.05-.009.006c-.231.149-.461.313-.683.489l-.048.039-.026.021-.054.043c-.038.031-.08.067-.125.105L17.7,20.1l-.07.06-.068.061-.011.009-.061.056-.062.057-.031.029-.059.056-.059.057-.022.022-.058.056-.057.058-.034.035-.049.051-.049.051-.049.051-.042.047-.043.047-.056.063-.041.046-.04.046L16.7,21.1l-.046.054-.045.054-.033.041-.047.058-.046.057-.027.035c-.116.15-.217.288-.307.42l-.058.086-.057.084-.016.026-.034.053-.034.053-.046.074-.05.083-.008.014-.046.077-.017.029c-.006.011-.011.02-.016.028l-.02.035,0,.007-.045.08-.027.05-.028.049-.043.084-.049.094-.046.093-.049.1-.041.087-.044.1-.031.072-.054.124-.037.09-.038.094c-.008.022-.015.04-.022.055s-.014.036-.02.051l0,.014-.029.076c-.016.043-.03.082-.043.121l-.014.04-.013.036-.03.089-.029.092-.029.093-.02.066-.019.064-.019.067-.009.031-.026.1-.023.089-.03.121-.019.085c-.008.031-.015.065-.026.118l-.02.095-.022.118-.016.092-.02.116-.015.1-.016.117-.013.1-.014.115-.011.1-.01.117-.008.1-.007.111v.013l0,.016,0,.076,0,.124v.021l0,.074,0,.109v.223l0,.114,0,.113.005.114v.005l.006.107.007.113.01.113.01.106c.016.158.036.309.058.446l.016.108.02.106v.005l.019.108.022.107c.021.1.043.2.068.306l.015.059.015.059.029.111.029.1.023.075.022.074.008.029L15,29.43l.035.108.033.1.036.1.035.1,0,0,.036.1.037.1.006.014.037.094.04.095,0,.005.037.083-.079.046L9.187,33.861l-.149.085h0ZM16.5,26.717a7,7,0,1,1,7,7A7,7,0,0,1,16.5,26.717Z" transform="translate(0.5)" fill="#1650e9"/>
</svg>
