<svg id="Bank_Noor_Mono" data-name="Bank / Noor / Mono" xmlns="http://www.w3.org/2000/svg" width="48" height="48" viewBox="0 0 48 48">
  <rect id="Boundary" width="48" height="48" fill="none"/>
  <path id="Shape" d="M16.681,48a.985.985,0,0,1-.985-.986V45.842a.985.985,0,0,1,.985-.986H29.387a.985.985,0,0,1,.985.986v1.172a.985.985,0,0,1-.985.986Zm6.8-17.006s4.635-5.222,9.028-7.69C37.689,20.392,45.5,21.068,45.5,21.068a20.537,20.537,0,0,0-9.958,7.364c-3.356,4.92-5.439,15.1-5.439,15.1A75.911,75.911,0,0,0,23.479,30.993ZM15.727,43.421a14.961,14.961,0,0,1-2.394-5.486c-.7-3.44-1.833-7.526-3.589-9.777C6.419,23.9,0,21.249,0,21.249s12.087-2,19.464,7.3c3.579,4.513,8.825,14.862,8.829,14.872Zm1.008-22.534A6.016,6.016,0,1,1,22.75,27,6.072,6.072,0,0,1,16.735,20.886ZM4.6,18.58a2.536,2.536,0,0,1-1.767-3.1A2.506,2.506,0,0,1,5.248,13.6a2.406,2.406,0,0,1,.648.086c2.556.694,7.19,3.323,9.725,4.828a7.481,7.481,0,0,0-.212.806H15.3l-.646,0C11.929,19.328,7,19.231,4.6,18.58Zm26.226.747-.737,0a7.986,7.986,0,0,0-.212-.806c2.537-1.507,7.173-4.135,9.725-4.828a2.364,2.364,0,0,1,.644-.086h.026a2.511,2.511,0,0,1,2.39,1.877,2.538,2.538,0,0,1-1.767,3.1c-2.379.648-7.267.746-9.97.747ZM16.289,17.015c-2.79-.94-7.8-2.737-9.992-4.223a2.554,2.554,0,0,1-.689-3.511,2.477,2.477,0,0,1,3.465-.7c2.2,1.49,5.753,5.487,7.673,7.736-.161.221-.315.454-.457.695h0Zm12.883-.067a8.185,8.185,0,0,0-.465-.688C30.626,14,34.173,9.992,36.368,8.5a2.478,2.478,0,0,1,3.467.69,2.555,2.555,0,0,1-.681,3.513c-2.189,1.49-7.192,3.3-9.98,4.247ZM17.873,15.1C15.54,13.3,11.387,9.958,9.78,7.823a2.557,2.557,0,0,1,.472-3.548,2.478,2.478,0,0,1,3.5.479c1.6,2.132,3.681,7.075,4.777,9.832a7.548,7.548,0,0,0-.657.511h0Zm9.71-.036a7.276,7.276,0,0,0-.651-.5c1.1-2.767,3.19-7.724,4.793-9.853a2.476,2.476,0,0,1,3.5-.476A2.556,2.556,0,0,1,35.7,7.78c-1.671,2.219-6.231,5.831-8.114,7.281h0Zm-2.044-1.25h0a7.574,7.574,0,0,0-.789-.272c.166-2.97.57-8.329,1.409-10.857A2.5,2.5,0,0,1,28.527.958a2.447,2.447,0,0,1,.8.132A2.543,2.543,0,0,1,30.9,4.3c-.842,2.533-3.716,7.047-5.355,9.513h0Zm-5.58,0C18.318,11.342,15.44,6.824,14.6,4.3a2.544,2.544,0,0,1,1.571-3.207,2.44,2.44,0,0,1,.8-.132,2.5,2.5,0,0,1,2.369,1.724c.842,2.534,1.246,7.889,1.411,10.857a7.438,7.438,0,0,0-.789.271Zm2.372-.534h0c-.778-2.869-2.081-8.08-2.081-10.744a2.5,2.5,0,1,1,5,0c0,2.671-1.3,7.878-2.081,10.744-.133-.007-.274-.011-.418-.011s-.285,0-.418.012Z" transform="translate(1.25)" fill="#1650e9"/>
</svg>
