<svg id="Bank_Pasargad_Mono" data-name="Bank / Pasargad / Mono" xmlns="http://www.w3.org/2000/svg" width="48" height="48" viewBox="0 0 48 48">
  <rect id="Boundary" width="48" height="48" fill="none"/>
  <path id="Shape" d="M4.355-47.418l.069.358h25.4l.062-.35a4.188,4.188,0,0,0,.062-.47V-48H4.286v.112A4.04,4.04,0,0,0,4.355-47.418Zm.686,4.229c.049.289.141.849.2,1.244s.147.918.187,1.161.124.774.186,1.179c.127.836.114.807.337.758A2.027,2.027,0,0,0,7.135-40.08c.186-.5.338-.564.338-.144a2.122,2.122,0,0,1-1.468,1.765c-.168.041-.18.1-.118.543l.036.257h22.4l.036-.263c.02-.144.04-.3.045-.341s-.1-.111-.3-.17a2.113,2.113,0,0,1-1.555-1.822l.017-.291.154.12a.386.386,0,0,1,.154.232c0,.483.625,1.138,1.306,1.37l.311.106.031-.176c.017-.1.055-.338.084-.536s.092-.6.14-.885.139-.861.2-1.272.15-.958.191-1.217c.171-1.063.32-2,.425-2.682.061-.4.125-.812.143-.926l.033-.207H17.126c-6.939,0-12.616.007-12.616.015C4.51-46.527,4.911-43.95,5.041-43.189Zm2.805-2.134c-.016.094-.058.383-.095.641-.091.643-.179.817-.244.484-.252-1.288-.149-1.807.274-1.388A.282.282,0,0,1,7.846-45.323Zm4.438,1.25a3.116,3.116,0,0,1-.171-1.519.216.216,0,0,1,.337,0A3.027,3.027,0,0,1,12.284-44.074Zm4.921-1.07c-.033.178-.079.483-.1.678-.047.407-.157.506-.209.188-.019-.116-.057-.323-.084-.46-.114-.576-.12-.758-.026-.851a.246.246,0,0,1,.385.016C17.254-45.48,17.259-45.426,17.206-45.144Zm4.547,1.054c-.144.047-.33-1.273-.207-1.467a.214.214,0,0,1,.372,0A4.186,4.186,0,0,1,21.753-44.09Zm4.912-1.027c-.037.224-.084.55-.1.725-.045.4-.167.431-.216.055-.019-.144-.058-.367-.087-.495-.151-.659.021-1.02.367-.769C26.725-45.529,26.728-45.5,26.665-45.117Zm-19.407.485c.06.2.122.4.138.454a.1.1,0,0,1-.06.123,3.1,3.1,0,0,1-.758-1.024c0-.293.341-.359.48-.092A3.957,3.957,0,0,1,7.258-44.632Zm1.289-.262a3.14,3.14,0,0,0-.317.447c-.281.442-.295.455-.4.386a2.982,2.982,0,0,1,.356-1.188.225.225,0,0,1,.338-.03C8.6-45.205,8.616-44.923,8.547-44.894Zm3.4.873a8.243,8.243,0,0,1-.607-.92c-.151-.279.129-.538.347-.322C11.93-45.022,12.142-44.012,11.947-44.021Zm.7-.006c-.118.141-.17-.109-.079-.378.057-.167.131-.409.165-.537.093-.358.318-.511.494-.337C13.354-45.148,13.075-44.545,12.642-44.027Zm4.1-.258c.092.348-.066.311-.345-.081-.417-.585-.459-.677-.385-.838a.226.226,0,0,1,.4-.041A7.685,7.685,0,0,1,16.746-44.285Zm1.038-.414c-.141.207-.292.445-.336.528-.085.162-.119.177-.234.1-.053-.033-.058-.082-.019-.179.03-.073.11-.316.179-.538.177-.573.38-.723.576-.427C18.037-45.08,18.031-45.062,17.784-44.7Zm3.506-.225a2.543,2.543,0,0,0,.107.325c.128.281.159.517.07.55-.047.018-.09.026-.095.018s-.152-.227-.327-.487a2.3,2.3,0,0,1-.319-.583.225.225,0,0,1,.413-.14A.908.908,0,0,1,21.29-44.924Zm.777.9c-.192.007.023-1.008.264-1.246a.22.22,0,0,1,.372.094A2.812,2.812,0,0,1,22.067-44.021Zm4.194-.119c0,.278-.618-.4-.8-.881-.078-.208.255-.425.39-.255A7.941,7.941,0,0,1,26.261-44.14Zm1.23-.974a10.794,10.794,0,0,1-.7,1.1c-.169,0-.171-.077-.017-.542.088-.264.159-.5.159-.532a.276.276,0,0,1,.457-.162A.309.309,0,0,1,27.491-45.114Zm-20.647.875c.389.539.322.638-.156.234-.171-.144-.416-.348-.545-.454-.238-.194-.3-.362-.168-.489s.312-.073.475.157C6.536-44.668,6.714-44.42,6.844-44.239Zm1.915,0c-.169.134-.383.312-.475.4-.288.262-.234.029.116-.5.484-.729.569-.793.774-.589C9.346-44.757,9.28-44.647,8.759-44.235Zm2.74.32c-.108-.094-.34-.284-.516-.421-.35-.273-.418-.392-.322-.569.134-.248.326-.126.737.466C11.875-43.751,11.913-43.552,11.5-43.915Zm1.817-.2c-.092.07-.231.184-.307.253-.322.29-.3.119.069-.444.447-.691.554-.786.748-.66C14.055-44.822,13.9-44.561,13.317-44.12Zm3,0c.251.319.2.5-.066.253-.077-.069-.322-.271-.545-.449-.409-.326-.491-.479-.338-.631s.315-.074.555.279C16.053-44.478,16.23-44.232,16.317-44.121Zm1.836-.119c-.169.137-.383.317-.475.4-.263.239-.246.044.035-.39.51-.788.628-.885.842-.694C18.733-44.762,18.673-44.66,18.153-44.24Zm3.039.445a4.129,4.129,0,0,1-1.138-.928c0-.3.3-.385.483-.139A3.541,3.541,0,0,1,21.192-43.794Zm1.48-.256c-.556.46-.585.4-.134-.29s.569-.783.748-.607S23.39-44.644,22.673-44.051Zm3.242.26c-.014.087-.051.071-.246-.1-.126-.113-.371-.318-.543-.455-.347-.276-.41-.384-.319-.551a.272.272,0,0,1,.365-.07A5.214,5.214,0,0,1,25.914-43.791Zm1.926-.635c-.146.115-.291.235-.322.267a2.029,2.029,0,0,1-.567.4,3.755,3.755,0,0,1,.854-1.255.509.509,0,0,1,.191.057C28.191-44.855,28.131-44.654,27.841-44.426Zm-20.213,1.6.158-.209a8.658,8.658,0,0,1,1.63-1.477c.1,0,.091.034-.117.438a5.1,5.1,0,0,0-.54,1.718,2.9,2.9,0,0,1-.514,1.4c-.136.191-.164.19-.39-.014s-.306-.207-.559,0l-.2.165-.141-.139a2.3,2.3,0,0,1-.5-1.186,5.9,5.9,0,0,0-.522-1.819c-.4-.837-.268-.785.9.353Zm9.234-.111c.12.157.128.16.182.055a15.228,15.228,0,0,1,1.661-1.592c.219-.125.22-.068.008.348a5.723,5.723,0,0,0-.609,2.023c-.132.884-.554,1.442-.858,1.135-.211-.213-.3-.213-.561,0l-.208.169-.148-.156a2.747,2.747,0,0,1-.53-1.421,4.967,4.967,0,0,0-.528-1.691c-.3-.577-.231-.611.306-.146A17.86,17.86,0,0,1,16.862-42.941Zm10.711.864a2.544,2.544,0,0,1-.489,1.124l-.137.162-.216-.176c-.266-.217-.291-.217-.556-.009l-.212.167-.134-.124a2.484,2.484,0,0,1-.516-1.183,5.8,5.8,0,0,0-.637-2.1c-.182-.337-.116-.377.213-.13a14.453,14.453,0,0,1,1.5,1.484c.024.064.061.044.157-.083a11.9,11.9,0,0,1,1.363-1.322c.447-.36.516-.323.264.14A5.6,5.6,0,0,0,27.573-42.077Zm-15.384-.837.093.137.1-.137a9.27,9.27,0,0,1,1.732-1.6c.083,0,.065.05-.251.719a4.742,4.742,0,0,0-.4,1.442A2.979,2.979,0,0,1,13.09-41.2c-.287.43-.266.42-.533.229s-.384-.184-.6.032c-.181.177-.191.173-.42-.169a2.674,2.674,0,0,1-.424-1.224,4.679,4.679,0,0,0-.4-1.462c-.405-.856-.39-.9.154-.432A14.322,14.322,0,0,1,12.189-42.914Zm9.266-.208.267.315.194-.232a8.838,8.838,0,0,1,1.637-1.477c.09,0,.065.076-.187.581a4.788,4.788,0,0,0-.469,1.6,2.592,2.592,0,0,1-.535,1.374l-.146.151-.226-.164c-.281-.2-.321-.2-.548,0s-.239.217-.476-.149a3.387,3.387,0,0,1-.459-1.455,3.917,3.917,0,0,0-.458-1.425c-.306-.638-.289-.654.239-.222A8.545,8.545,0,0,1,21.455-43.122ZM7.778-43.335l-.2.213-.191-.213c-.357-.4.02-.84.44-.514C8.025-43.7,8.015-43.59,7.778-43.335Zm4.7,0-.192.215-.2-.215c-.264-.29-.16-.63.193-.63a.463.463,0,0,1,.254.136C12.715-43.651,12.708-43.592,12.477-43.333Zm4.695-.007-.2.209-.194-.209c-.262-.282-.154-.623.2-.623a.463.463,0,0,1,.254.136C17.413-43.65,17.405-43.589,17.171-43.34Zm4.745.008-.2.217-.185-.217c-.362-.424.04-.869.448-.5C22.168-43.651,22.161-43.592,21.917-43.332Zm4.964-.3-.212.269-.212.269-.207-.225c-.39-.424.056-.88.465-.476ZM7.389-40.658c-.255.163-.265.039-.017-.2.213-.206.213-.206.212-.048C7.584-40.827,7.516-40.74,7.389-40.658Zm.255-.2,0-.135.168.159a.522.522,0,0,1,.168.263C7.977-40.406,7.648-40.69,7.644-40.863Zm4.37.057c.151-.146.188-.161.2-.084a.34.34,0,0,1-.13.231C11.857-40.448,11.788-40.586,12.014-40.806Zm.629.271a.687.687,0,0,1-.361-.342c0-.137.05-.126.235.048C12.656-40.7,12.726-40.535,12.643-40.535Zm4.07-.274c.152-.154.185-.168.2-.086a.327.327,0,0,1-.123.229C16.507-40.4,16.438-40.529,16.713-40.808Zm.322-.079c0-.1.025-.088.2.076.129.124.177.206.141.242C17.3-40.494,17.035-40.741,17.035-40.887Zm4.431.079c.144-.14.186-.157.2-.086.01.049-.048.151-.129.225C21.252-40.408,21.185-40.536,21.466-40.808Zm.627.274a.687.687,0,0,1-.361-.342c0-.137.05-.126.235.048C22.106-40.7,22.176-40.535,22.093-40.535Zm4.093-.286c.149-.154.16-.157.177-.05a.313.313,0,0,1-.14.249C26-40.432,25.971-40.6,26.186-40.821Zm.47.178c-.186-.131-.254-.387-.073-.274a.959.959,0,0,1,.2.2C26.924-40.533,26.863-40.5,26.656-40.643Zm-14.8.462a.565.565,0,0,1,.2-.292l.165-.121v.279a1.1,1.1,0,0,1-.052.375c-.028.053-.105.212-.17.354-.907,1.975-4.178,1.451-4.351-.7l-.027-.328.173.135a.765.765,0,0,1,.234.347A2,2,0,0,0,11.859-40.18Zm3.322,1.38c.677-.195,1.351-.891,1.351-1.4a.378.378,0,0,1,.168-.228l.168-.118v.306a2.237,2.237,0,0,1-2.237,1.913,2.312,2.312,0,0,1-2.283-1.957l-.025-.326.144.1a.693.693,0,0,1,.206.271A2.01,2.01,0,0,0,15.181-38.8Zm2.271-1.256a2.033,2.033,0,0,0,1.9,1.346c.876,0,1.931-.8,1.931-1.466a.341.341,0,0,1,.168-.247l.168-.118v.279a2.238,2.238,0,0,1-2.259,1.94,2.313,2.313,0,0,1-2.316-1.963l-.025-.332.132.111a1.792,1.792,0,0,1,.2.194A.715.715,0,0,1,17.452-40.056Zm8.525-.011a.95.95,0,0,1,.233-.387l.175-.163-.022.36a2.346,2.346,0,0,1-3.6,1.548,2.253,2.253,0,0,1-.979-1.592V-40.6l.136.1a1.152,1.152,0,0,1,.26.431C22.844-38.291,25.513-38.293,25.977-40.067ZM6.055-36.9l.034.125,11.051-.014L28.19-36.8l.017-.18.018-.18h-11.1c-8.845,0-11.1.014-11.1.069A1.02,1.02,0,0,0,6.055-36.9Zm.382,2.336c.042.258.128.794.191,1.189.154.974.319,1.993.427,2.627.049.289.137.836.2,1.216s.146.928.2,1.217.139.836.2,1.216l.223,1.382c.061.38.15.928.2,1.217s.133.824.191,1.189.146.9.2,1.189.138.836.2,1.217.147.928.2,1.217.138.836.2,1.217c.12.746.29,1.791.413,2.544.042.259.128.793.191,1.189a28.777,28.777,0,0,0,.741,3.429c.167.554.465,1.423.55,1.6.028.061.117.267.2.459a12.961,12.961,0,0,0,3.859,5.23l.391.3A11.33,11.33,0,0,0,18.669-2.18c1.288.318,1.267.316,4.425.34,2.8.021,3.289,0,2.706-.126a3.366,3.366,0,0,1-2.112-2.144c-.712-2.247,1.946-3.571,5.087-2.532,1.632.54,2.777.049,2.76-1.183-.017-1.159-1.015-2.258-2.791-3.073a12.131,12.131,0,0,1-1.139-.548c-.015-.016-.135-.1-.267-.189a5.6,5.6,0,0,1-2.053-3.876,14.653,14.653,0,0,1,.163-4.064c.018-.046.072-.344.12-.664s.122-.792.163-1.051l.194-1.217c.066-.41.169-1.07.23-1.465s.146-.93.189-1.189.131-.806.2-1.217.154-.971.2-1.244c.124-.777.3-1.925.421-2.682.059-.38.147-.928.2-1.217s.137-.837.2-1.217.145-.928.192-1.216.134-.849.194-1.244c.1-.687.149-.956.205-1.23l.025-.124H17.148c-6.059,0-11.016.019-11.015.042C6.134-36.467,6.312-35.329,6.437-34.562Zm11.515,5.013a1.03,1.03,0,0,0-.078.217c0,.024-.072.244-.161.489s-.241.673-.34.95l-.178.5-.6.032a5.972,5.972,0,0,0-.723.069l-.126.037v-1.462c0-1.707.037-1.908.383-2.089a3.47,3.47,0,0,1,1.677-.025C18.216-30.665,18.264-30.242,17.952-29.549Zm2.629-.14.073.243L19.82-28.4c-.459.578-.865,1.092-.9,1.143-.064.086-.1.085-.514-.013a3.967,3.967,0,0,0-.684-.106h-.238l.09-.207c.049-.114.252-.643.45-1.175.581-1.561.571-1.541.8-1.659a1.292,1.292,0,0,1,1.076.022A1.112,1.112,0,0,1,20.581-29.69Zm-5.112.206c0,.421.016,1.1.037,1.519.034.709.03.756-.07.789a3.517,3.517,0,0,0-.973.479c0,.17-.174-.12-.722-1.2-.761-1.506-.785-1.63-.388-1.983.538-.478,1.719-.758,2-.476C15.458-30.26,15.469-30.175,15.469-29.483Zm5.955,2.471c-.277.144-.528.28-.559.3-.08.057-.922.5-.952.5a.821.821,0,0,1-.135-.215,1.954,1.954,0,0,0-.611-.6,8.713,8.713,0,0,1,.559-.75c1.306-1.657,1.6-1.82,2.2-1.231C22.762-28.179,22.626-27.639,21.424-27.012Zm-7.7-.252.4.8-.243.25a6.488,6.488,0,0,0-.436.507l-.194.257-.224-.2c-.123-.111-.371-.326-.552-.479-1.29-1.087-1.315-1.113-1.281-1.319a2.042,2.042,0,0,1,.487-1.155,2,2,0,0,1,1.115-.367c.071,0,.159.121.315.45C13.234-28.27,13.51-27.7,13.729-27.264Zm-1.782,1.088.643.546a2.245,2.245,0,0,1,.486.486c-.01.033-.065.162-.122.286a4.747,4.747,0,0,0-.177.459c-.094.3.038.334-1.5-.417-1.642-.8-1.719-.885-1.452-1.574.216-.559.583-.8.987-.648A7.624,7.624,0,0,1,11.947-26.176Zm5.215-.126A3.37,3.37,0,0,0,17.4-24.87c.125.3.111.476-.04.533-.069.026-.264.1-.433.17s-.345.134-.391.148c-.161.048-.978-.814-1.176-1.241l-.172-.37a.794.794,0,0,1,.3-1.032,3.232,3.232,0,0,1,1.642-.152A1.079,1.079,0,0,1,17.161-26.3Zm2.158.788a1.38,1.38,0,0,0-.2.718l-.027.409h-.6c-.681,0-.669.008-.874-.608a4,4,0,0,1-.025-1.774,1.872,1.872,0,0,1,1.081.145C19.46-26.314,19.619-26.04,19.319-25.514Zm-3.364,1.448.31.269-.188.25c-.1.137-.215.3-.248.351-.065.109-.609.01-.972-.178a.678.678,0,0,0-.2-.074,4.665,4.665,0,0,1-.9-.553c-.6-.5-.532-.994.245-1.759.378-.372.512-.33.832.264A5.148,5.148,0,0,0,15.955-24.065Zm15.8-.948a11.974,11.974,0,0,0-4.468,4.58c-.061.122-.2.389-.311.594a13.427,13.427,0,0,0-.7,1.645,11.744,11.744,0,0,0-.406,1.649,4.487,4.487,0,0,0,.72,3.826c.558.631,1.011.894,2.975,1.724a8.911,8.911,0,0,1,.867.432,3.442,3.442,0,0,1,1.62,4.274c-.1.256-.2.226,1.12.337a11.035,11.035,0,0,1,3.011.517c.256.127.255.215.009-2.279-.045-.456-.132-1.365-.193-2.018s-.161-1.712-.221-2.35-.137-1.472-.17-1.852-.073-.794-.09-.919l-.03-.228-.557-.026c-.442-.021-.581-.048-.674-.131l-.117-.1.208-.173.208-.173-.441-.039c-.92-.082-1.261-.462-.716-.8l.263-.162-.276-.038a1.02,1.02,0,0,1-.969-.935c0-.2.007-.212.145-.177.169.042.637-.017.637-.08,0-.024-.1-.081-.216-.128a1.138,1.138,0,0,1-.623-.617c-.081-.244-.055-.282.3-.444.479-.217.549-.469.131-.469-.871,0-.88-1.113-.017-2.035.366-.391.391-.529.115-.619a1.885,1.885,0,0,1-.949-1.393c-.014-.935,2.125-1.5,2.536-.669.108.218.508.277.508.075,0-.145.228-.4.471-.531s.249-.153-.006-.3a4.864,4.864,0,0,0-2.589-.272A3.894,3.894,0,0,0,31.752-25.013Zm-19.842.878.719.329-.034.243a5.121,5.121,0,0,0-.034.573v.33l-.182-.033c-.1-.018-.484-.083-.853-.144a9.752,9.752,0,0,1-2.18-.443c-.274-.225-.19-1.146.137-1.491.214-.227.363-.218,1.1.07C10.917-24.571,11.515-24.316,11.91-24.135Zm22.964.453c-.192.177-.246.159-.475-.156a1.179,1.179,0,0,0-1.872-.069l-.248.219.173.365c.587,1.24,1.681,1.468,2.376.495.839-1.174,1.575-1.416,2.282-.75a.67.67,0,0,0,.318.186,3.659,3.659,0,0,1,.938.63c.178.2.252.217.252.071a3.13,3.13,0,0,0-1.12-1.128,2.667,2.667,0,0,1-.531-.359c-.672-.59-.84-.593-1.493-.029C35.218-23.987,34.948-23.75,34.874-23.682Zm-19.628.7.475.122v.494a3.145,3.145,0,0,0,.044.613c.052.144-.06.164-1.3.239-1.107.066-1.267-.066-1.4-1.166-.129-1.052.045-1.6.372-1.181A3.538,3.538,0,0,0,15.246-22.981Zm3.914-.783c0,.8.748,2.077,2.982,5.113,1.577,2.142,2.777,4.1,2.777,4.523a1.1,1.1,0,0,0,.08.211c.2.44.7,1.759.949,2.5.357,1.075.391,1.191.675,2.269a6.964,6.964,0,0,0,.6,1.819c.052.092.043.1-.073.069a3.46,3.46,0,0,0-2.8.567l-.237.216.018-.736a17.268,17.268,0,0,0-.57-4.443,14.609,14.609,0,0,0-2.4-4.422c-.257-.33-.452-.574-.512-.64-.031-.034-.182-.211-.335-.393-.478-.567-.915-1.047-1.711-1.878-.234-.244-.556-.593-.717-.776s-.46-.515-.665-.74c-.641-.7-.832-.948-.9-1.175-.348-1.148.191-1.979,1.477-2.277a5.73,5.73,0,0,1,1.16,0C19.138-23.934,19.16-23.913,19.16-23.764Zm16.006,2.512a.785.785,0,0,0,1.1.021,2.3,2.3,0,0,1,1.921-1.11c.257,0,.261-.042.028-.261a1.282,1.282,0,0,0-1-.395c-.286.016-.329.005-.329-.081,0-.35-.7-.505-1.118-.248C35.035-22.872,34.7-21.713,35.166-21.251Zm1.608-1.45c0,.047.082.059.276.041.318-.03.674.023.674.1,0,.029-.054.053-.12.053a2.65,2.65,0,0,0-.956.454c-.13.1-.21.135-.21.089s-.094-.123-.21-.184c-.317-.167-.307-.525.014-.525.117,0,.124.019.1.253l-.029.253.189-.018c.179-.017.19-.03.207-.251.031-.426-.237-.606-.686-.459a.539.539,0,0,0,.082,1.047l.228.032-.21.213c-.358.364-.74.251-.787-.231-.087-.9.86-1.664,1.329-1.075A.512.512,0,0,1,36.773-22.7ZM12-22.423c.586.048.6.053.638.309a2.431,2.431,0,0,0,.432.916,1.943,1.943,0,0,1,.16.254c0,.046-3.258.087-3.374.042-.3-.115-.372-.257-.372-.7,0-.954.266-1.1,1.705-.909C11.407-22.48,11.772-22.441,12-22.423Zm21.458,2.47c.41-.093.187.573-.383,1.139-.171.17-.221.253-.177.3a2.777,2.777,0,0,0,1.044.118c.353-.069-.011.576-.509.9-.364.239-.335.309.146.343a1.6,1.6,0,0,0,.619-.071.752.752,0,0,1,.322-.062c.075.074-.117.5-.357.788-.351.426-.093.512.788.264.492-.139.509-.1.19.435-.2.329-.184.347.232.335a1.447,1.447,0,0,0,1.128-.613c.092-.137.09-.14-.224-.4A5.1,5.1,0,0,1,34.5-19.41a10.975,10.975,0,0,1-.063-2.53c.055-.243-.008-.235-.617.072C32.352-21.125,32.072-19.638,33.46-19.953Zm3.4-1.532a7.85,7.85,0,0,1-.671.542c-.748.521-1.015.992-.727,1.277.492.487,1.537-.459,1.537-1.39,0-.454.489-.743,1.594-.944.259-.047.24-.051-.252-.053a4.21,4.21,0,0,0-.615.026A2.414,2.414,0,0,0,36.857-21.485Zm1.532-.081c.8,0,1.627.626,1.627,1.226,0,.34.126.4.2.1a5.227,5.227,0,0,1,.164-.548,1.317,1.317,0,0,0,.076-.47l-.017-.226-.391-.031a1.847,1.847,0,0,1-.627-.152,2.672,2.672,0,0,0-1.4-.052Q37.537-21.567,38.389-21.567Zm-22,.869c.3.333.383.284-.872.54-1.155.235-1.007.236-1.281-.008-.667-.6-.526-.973.4-1.075.288-.031.65-.077.8-.1s.3-.047.336-.05.123.089.206.2S16.248-20.852,16.388-20.7ZM37-19.908a2.543,2.543,0,0,1-.388.487l-.2.183.643-.025a5.278,5.278,0,0,0,1.572-.289,3.918,3.918,0,0,1,1-.206c.143.037.149-.13.019-.513-.267-.782-.773-1.094-1.416-.872A2.6,2.6,0,0,0,37-19.908Zm-23.1.028c.186.058.123.12-.212.209-.177.047-.5.139-.713.206a10.779,10.779,0,0,1-2.3.417,1.23,1.23,0,0,1-.689-.964c0-.305.145-.357,1.4-.5.627-.07,1.177-.134,1.223-.143.418-.082.717-.028.776.141A1.4,1.4,0,0,0,13.906-19.879Zm3.538.841-1.1.286c-.8.208-.84.213-1.075.134-.482-.163-.773-.831-.452-1.039a17.4,17.4,0,0,1,2.023-.468,2.732,2.732,0,0,1,.466.463C17.789-19.112,17.786-19.127,17.444-19.038Zm20.112.017c-2.029.018-2.668,1.347-1.1,2.3.246.149.265.178.266.384a.477.477,0,0,0,.4.526c.584.156.987-.145,1.085-.812a2.025,2.025,0,0,1,.491-1c.158-.212.229-.35.188-.366-.122-.045-.252.041-.448.295-.6.785-1.9.84-2.281.1-.354-.686.213-1.059,1.617-1.064.989,0,.984-.005,1.075.328.073.267.243.158.6-.383.591-.892.586-1.091-.017-.762A3.767,3.767,0,0,1,37.556-19.021Zm-22.7.594.2.047-.335.088c-.185.048-.65.18-1.034.292-.777.226-1.388.4-1.665.468-.793.2-1.338-.95-.559-1.18s2.344-.606,2.65-.636c.035,0,.09.1.124.231A1.033,1.033,0,0,0,14.854-18.427Zm3.938.383.15.177-.3.083c-.371.1-1.517.412-1.778.478-.607.154-1.007-.083-1.007-.6,0-.394.052-.432.895-.654l.923-.245c.313-.087.374-.063.671.26C18.51-18.364,18.709-18.141,18.792-18.044Zm18.165-.136a1.744,1.744,0,0,1,1.024.29l.183.138.116-.146c.313-.394-.622-.682-1.422-.438C36.541-18.238,36.58-18.177,36.957-18.18Zm-21.11,1.09c.161,0,.052.113-.168.168-.131.033-.3.083-.377.11s-.278.087-.447.131-.622.173-1.006.287c-1.106.326-1.3.307-1.545-.155a.781.781,0,0,1,.019-.656c.053-.052,1.526-.493,2.2-.658.231-.056.495-.125.587-.153.187-.056.249-.008.251.2C15.358-17.526,15.649-17.094,15.847-17.089Zm2.977.8-.753.22c-.723.212-1.149.008-1.149-.549,0-.415-.018-.406,1.729-.862a3.621,3.621,0,0,0,.438-.131,7.179,7.179,0,0,1,.87.887C20.015-16.626,20.09-16.655,18.824-16.287Zm-1.91.481c.178.07-.081.159-2.376.816-.685.2-1.011.107-1.193-.326-.169-.4,0-.648.552-.785.2-.051.5-.13.649-.176,1.715-.516,1.807-.519,1.921-.074A.762.762,0,0,0,16.914-15.806Zm4.134.456-.4.121c-.22.067-.588.175-.819.241s-.47.142-.531.169c-.586.256-1.013.207-1.244-.141-.292-.441-.125-.776.461-.925.185-.047.512-.139.727-.2,1.032-.312.849-.361,1.512.4Zm-3.1.851c.19.049.013.116-1.33.5l-.895.259c-.839.245-1.028.232-1.258-.086a.547.547,0,0,1,.307-.93c.236-.059,1.183-.333,2.293-.662.185-.055.419.164.419.393A.756.756,0,0,0,17.946-14.5Zm3.66.576-.893.26a6.939,6.939,0,0,0-.755.255.743.743,0,0,1-1.078-.634c0-.214.128-.447.245-.447a13.715,13.715,0,0,0,1.432-.417c.323-.1.607-.186.631-.188a2.783,2.783,0,0,1,.377.507C21.968-13.973,21.964-14.028,21.606-13.923Zm-2.727.718c.15.072.126.083-.663.314-.45.132-1.057.313-1.349.4-1.017.316-1.417.247-1.561-.268-.12-.432.01-.6.583-.751.751-.2,2.572-.731,2.572-.753v.348A.643.643,0,0,0,18.879-13.206Zm3.647.352.091.225-.625.181c-.343.1-.763.232-.932.3-.714.266-1.185.154-1.343-.319-.178-.535-.053-.608,2.07-1.211.293-.083.276-.094.486.3C22.362-13.215,22.476-12.977,22.526-12.854Zm-2.905.968c.267.112.27.111-1.775.693l-.8.229c-.53.154-.892-.064-.95-.572-.035-.306.08-.491.333-.54.173-.033.475-.118,1.3-.365.185-.055.524-.154.755-.22s.47-.142.531-.168c.2-.087.224-.061.224.262A.643.643,0,0,0,19.621-11.885ZM23.1-11.3c.033.108,0,.13-.371.238-.224.065-.634.194-.911.286-.856.285-1.13.258-1.372-.135-.183-.3-.1-.813.136-.813A7.632,7.632,0,0,0,21.536-12a4.028,4.028,0,0,1,1.215-.31,4.036,4.036,0,0,1,.176.476C23-11.606,23.078-11.366,23.1-11.3Zm-2.777.859.182.067-.518.158c-.285.087-.681.2-.881.258s-.628.177-.951.273c-.895.263-1.146.218-1.368-.245-.2-.425-.049-.664.524-.806.2-.051.508-.133.677-.184.359-.107.9-.26,1.37-.39a3.118,3.118,0,0,0,.419-.138c.069-.039.089.012.112.3a1.024,1.024,0,0,0,.14.493A.757.757,0,0,0,20.32-10.441Zm3.089.776c0,.022-.107.067-.237.1-.365.1-.763.216-1.132.342-.6.207-.963.112-1.176-.309-.132-.262-.066-.595.135-.673.178-.069,2.037-.616,2.141-.63.021,0,.053.041.071.1C23.244-10.634,23.409-9.741,23.409-9.666ZM20.73-9c.223.083.205.133-.074.2a2.977,2.977,0,0,0-.35.109c-.213.093-2.349.667-2.48.666-.566,0-.877-1.022-.348-1.142.156-.035.383-.1,1.123-.319,1.9-.562,1.771-.543,1.744-.262A.8.8,0,0,0,20.73-9Zm2.823.461.037.452-.244.063a6.2,6.2,0,0,0-1.045.351.924.924,0,0,1-.825-.077c-.515-.476-.4-.9.311-1.1.231-.067.684-.2,1.007-.305s.6-.187.623-.19.05.076.067.174S23.533-8.783,23.553-8.534ZM21.109-7.509l.188.115-.216.07c-.223.072-.854.258-1.586.469-.231.066-.53.156-.665.2-.63.2-.972.137-1.144-.221-.189-.393-.081-.723.267-.818.126-.034.379-.107.564-.162s.524-.154.755-.22c.712-.2.914-.263,1.174-.345.138-.044.264-.083.28-.087s.019.107.008.247A.785.785,0,0,0,21.109-7.509Zm2.4,1.035c-.255.1-1.414.448-1.487.447-.673-.008-.931-1.022-.306-1.2l.717-.208c.277-.08.6-.18.727-.22.386-.128.4-.12.439.257C23.667-6.738,23.647-6.528,23.507-6.474Zm-2.171.544.2.085-.252.07c-.138.038-.428.123-.643.187s-.517.152-.671.194c-.812.221-1.077.3-1.22.355a.721.721,0,0,1-1.011-.509c-.081-.427.03-.524.861-.745.354-.094.97-.269,1.37-.389.972-.291.923-.294.923.066A.657.657,0,0,0,21.336-5.93Zm3.4,1.589c0,1.147.674,1.857,2.089,2.193l.531.126,7.7.018,7.7.018v-.127a.483.483,0,0,0-.127-.265c-.07-.076-.226-.258-.347-.406-.207-.253-.233-.267-.434-.24a.4.4,0,0,1-.374-.1.6.6,0,0,0-.454-.133h-.294l.034.359.034.359H40.42c-.308,0-.4-.022-.524-.124L39.64-2.88a4.717,4.717,0,0,0-2.559-.742,8.483,8.483,0,0,1-1.286-.2,16.272,16.272,0,0,0-1.957-.356c-.338-.046-.791-.11-1.007-.141s-.806-.081-1.314-.11a24.139,24.139,0,0,1-2.712-.252c-.865-.175-1.655-.049-1.738.277a.811.811,0,0,0,.527.919l.243.124,3.168-.01c3.536-.012,4.668.05,5.137.282s.4.246-2.4.28c-1.453.018-3.258.063-4.012.1-2.87.142-3.97-.319-3.97-1.664,0-.918,1.071-1.313,2.516-.928A11.159,11.159,0,0,0,31.294-5a15.819,15.819,0,0,1,4.445.522,2.568,2.568,0,0,0,1.4.334,4.644,4.644,0,0,1,2.044.431l.6.3c.523.265.672-.032.272-.542-.669-.852-.135-1.018.685-.213.513.5.607.529.376.1-.1-.182-.125-.284-.086-.323.068-.067,0-.135.9.906,1.019,1.186,1.109,1.272,1.326,1.272a.207.207,0,0,0,.108-.381A1.769,1.769,0,0,1,43.119-3a1.269,1.269,0,0,0-.952-.9c-.278-.08-.286-.089-.493-.526C41.4-4.993,41-5.2,40.659-4.956c-.095.068-.122.06-.257-.083q-.356-.377-1.278.064l-.468.224-.871-.017a4.028,4.028,0,0,1-1.478-.2c-1.114-.336-1.247-.353-5.963-.784a8.332,8.332,0,0,1-1.23-.22,14,14,0,0,0-1.873-.352,2.457,2.457,0,0,0-.559.058C25.47-6.023,24.733-5.3,24.731-4.341ZM23.355-5.03v.2l-.562.182c-.8.259-1.189.152-1.319-.364-.114-.45.007-.548,1.042-.844.231-.066.57-.165.755-.22.409-.122.382-.169.222.386A3.555,3.555,0,0,0,23.355-5.03ZM21.6-4.309c.059,0-.043.048-.227.1s-.524.153-.755.222c-1.024.306-1.906.553-2.013.563A.608.608,0,0,1,18.293-4.6c.185-.051.65-.184,1.035-.3,1.379-.4,1.594-.461,1.634-.465.022,0,.026.068.008.157A.85.85,0,0,0,21.6-4.309ZM3-.608H45l-.016-.567-.016-.567L23.983-1.756,3-1.77V-.608ZM3,0H45l-.018-.18-.018-.18L23.983-.373,3-.387V0Z" transform="translate(0 48)" fill="#1650e9" fill-rule="evenodd"/>
</svg>
