<svg id="Gateway_Pay.ir_Mono" data-name="Gateway / Pay.ir / Mono" xmlns="http://www.w3.org/2000/svg" width="48" height="48" viewBox="0 0 48 48">
  <rect id="Boundary" width="48" height="48" fill="none"/>
  <path id="Shape" d="M25.126,23.277H21.3l2.894-5.55L20.921,5.339h3.847L26.33,13.2l3.994-7.859h3.849L25.126,23.276Zm18.506-3.851H40.116s0-.036,0-.089.005-.1.009-.17l.026-.468.008-.152c.03-.555.072-1.338.121-2.249l0-.031.074-1.359.01-.178.009-.155.155-2.856.153-2.824a3.186,3.186,0,0,1,3.181-3.012H48l-.044,2.844h-.016l-.279,0-.413.005h-.082l-.144,0-.266,0-1.235.015a1.4,1.4,0,0,0-1.376,1.319l-.512,9.348Zm-4.62,0H35.5s0-.019,0-.04v-.023l.005-.094.014-.28v-.005l.041-.753.051-.939c.149-2.752.4-7.465.533-9.829a1.673,1.673,0,0,1,1.669-1.581h1.94l-.743,13.543Zm-6.933,0a1.888,1.888,0,1,1,1.887-1.888A1.89,1.89,0,0,1,32.08,19.426Zm-28.412,0H0s0-.008,0-.013l0-.021,0-.026,0-.014c.007-.056.017-.143.03-.259l.107-.948,0-.037.4-3.512,0-.023c.453-4,.77-6.808.971-8.6A6.455,6.455,0,0,1,3.236,2.593,6.232,6.232,0,0,1,7.889.561h.132c2.2.041,3.811.613,4.776,1.7,1.331,1.5,1.121,3.616,1.021,4.634l0,.02,0,.037v.014c-.012.116-.023.237-.028.328A5.461,5.461,0,0,1,11.441,11.6a7.924,7.924,0,0,1-3.017,1.341,23.46,23.46,0,0,1-3.551.217c-.292,0-.487,0-.521,0l-.685,6.267ZM7.753,3.959H7.747a2.056,2.056,0,0,0-1.534.661C4.758,6.142,4.9,9.841,4.9,9.878H4.91c.177.016.65.052,1.206.052A4.559,4.559,0,0,0,8.141,9.6l.026-.016A3.039,3.039,0,0,0,9.774,6.755V6.723A4.274,4.274,0,0,0,9.556,5,1.758,1.758,0,0,0,7.823,3.96ZM13.9,19.286h-.032a4.755,4.755,0,0,1-3.582-1.331,3.493,3.493,0,0,1-.86-2.75,2.815,2.815,0,0,1,1.3-2.229c1.253-.9,3.521-1.531,6.741-1.887a3.033,3.033,0,0,0-2.646-3.55l0-2.182h.016c.05,0,.2-.014.431-.014a6.405,6.405,0,0,1,4.4,1.589,5.49,5.49,0,0,1,1.443,4.051,10.409,10.409,0,0,1-1.394,5.037,6.742,6.742,0,0,1-2.2,2.3A6.788,6.788,0,0,1,13.9,19.286Zm3.055-5.828c-3.086.354-3.985,1.109-4.2,1.681a1.189,1.189,0,0,0,.282,1.157,1.271,1.271,0,0,0,.886.273c1.123,0,2.589-.815,3.029-3.11ZM38.327,3.976a1.988,1.988,0,1,1,1.988-1.988A1.99,1.99,0,0,1,38.327,3.976Z" transform="translate(0 12)" fill="#1650e9"/>
</svg>
