<svg id="Bank_Postbank_Mono" data-name="Bank / Postbank / Mono" xmlns="http://www.w3.org/2000/svg" width="48" height="48" viewBox="0 0 48 48">
  <rect id="Boundary" width="48" height="48" fill="none"/>
  <path id="Shape" d="M27.023,0A24.076,24.076,0,1,1,2.04,14.2L3.28,15.8l.072.089a5.421,5.421,0,0,0,.516.523,3.38,3.38,0,0,0,.816.513,2.914,2.914,0,0,0,.536.169,9.587,9.587,0,0,0,2.248.123c.48-.022.822-.049.822-.049A5.533,5.533,0,0,1,13.443,19.4c.748.883,8.066,10.673,8.066,10.673l3.639-3.658s-3.055-3.911-4.411-5.664a34.238,34.238,0,0,0-3.283-3.935c-1.463-1.238-4.7-1.385-5.44-1.513a8.287,8.287,0,0,1-4.362-2.014A9.225,9.225,0,0,1,7,12.548L4.662,9.661A24.309,24.309,0,0,1,6.606,7.33L9.131,10.6A14.239,14.239,0,0,0,10.39,12.09a5.536,5.536,0,0,0,3.058,1.442c3.735.675,5.774.853,6.958,2.23,1.421,1.651,1.695,2.029,2.882,3.566.437.566,3.87,5.073,3.87,5.073l3.526-3.548s-2.257-2.92-3.569-4.651a15.417,15.417,0,0,0-2.407-2.711c-1.545-1.111-2.92-.946-4.322-1.1a10.039,10.039,0,0,1-3.758-.844s-.624-.139-1.913-1.806S13.065,7.6,13.065,7.6L10.3,4.14a24.056,24.056,0,0,1,2.548-1.561l2.725,3.549,1.361,1.781c1.961,2.514,3.229,2.543,4.536,2.7,2.073.247,4.026.115,5.714,1.393a11.313,11.313,0,0,1,2.191,2.433c1.061,1.372,3.349,4.36,3.349,4.36l3.529-3.549s-2.032-2.637-2.821-3.638a5.826,5.826,0,0,0-1.378-1.185c-1.053-.688-2.1-.9-4.8-1.3s-3.572-.869-4.846-2.268c-.609-.669-.946-1.144-1.356-1.674L17.521.7a23.7,23.7,0,0,1,3.391-.7l2.405,3.334a8.728,8.728,0,0,0,3.577,3.18c2.466,1.1,4.329.844,6.018,1.282a6.542,6.542,0,0,1,.967.336,3.479,3.479,0,0,1,1.223.974c.558.632,1.047,1.249,1.159,1.394l2.093,2.62,3.488-3.505S41.036,8.59,40.4,7.779a3.128,3.128,0,0,0-.9-.886,3.476,3.476,0,0,0-1.036-.426,12.957,12.957,0,0,0-2.393-.255c-3.145-.126-4.306-.377-6.307-2.783L28.277,1.622Z" fill="#1650e9"/>
</svg>
