<svg id="Bank_Refah_Mono" data-name="Bank / Refah / Mono" xmlns="http://www.w3.org/2000/svg" width="48" height="48" viewBox="0 0 48 48">
  <rect id="Boundary" width="48" height="48" fill="none"/>
  <path id="Shape" d="M24,42a6,6,0,1,1,6-6A6.007,6.007,0,0,1,24,42ZM43.369,28.47H4.631A17.228,17.228,0,0,1,0,16.881,17.132,17.132,0,0,1,4.14,5.863H17.427a14.09,14.09,0,0,0-5.8,4.529A11.193,11.193,0,0,0,9.4,17.033a10.943,10.943,0,0,0,1.532,5.58,13.275,13.275,0,0,0,4.1,4.29H32.963a13.288,13.288,0,0,0,4.1-4.29,10.95,10.95,0,0,0,1.531-5.58,11.193,11.193,0,0,0-2.228-6.641,14.085,14.085,0,0,0-5.8-4.529H43.86A17.128,17.128,0,0,1,48,16.881a17.236,17.236,0,0,1-4.63,11.588ZM25.424,22.607H11.973c5.273-2.008,8.68-6.5,8.68-11.437a11.191,11.191,0,0,0-2.227-6.641A14.089,14.089,0,0,0,12.629,0H25.916a17.135,17.135,0,0,1,4.14,11.02,17.226,17.226,0,0,1-4.631,11.587Z" transform="translate(0 3)" fill="#1650e9"/>
</svg>
