<svg id="Bank_Resalat_Mono" data-name="Bank / Resalat / Mono" xmlns="http://www.w3.org/2000/svg" width="48.003" height="48" viewBox="0 0 48.003 48">
  <rect id="Boundary" width="48" height="48" transform="translate(0.003)" fill="none"/>
  <path id="Shape" d="M14.588,47.5h0a8.428,8.428,0,0,1-7.212-4.091,16.624,16.624,0,0,1-1.4-2.52,7.826,7.826,0,0,1-4.936-3.94c-2.429-4.167-.048-8.265,1.527-10.977C.1,31.1.849,33.636,1.512,34.69a3.418,3.418,0,0,0,3.073,1.536c1.274,0,3.962-.483,7.648-3.719L24.654,20.071a6.386,6.386,0,0,1,4.387-1.905,5.157,5.157,0,0,1,.595.034A11.678,11.678,0,0,1,34.322,20a10.534,10.534,0,0,0,1.076.585,1.2,1.2,0,0,0,.474.1.755.755,0,0,0,.641-.3.581.581,0,0,0,.036-.56A7.929,7.929,0,0,0,34.7,17.5c-3.057-3.062-6.831-6.654-6.869-6.69-2.115-2.035-3.082-3.979-2.957-5.942A5.421,5.421,0,0,1,29.738,0c-1.01,1.2-1.144,2.4-.374,3.371L40.194,14.217a6.516,6.516,0,0,1,1.268,5.37,4.143,4.143,0,0,1-3.1,3.014,2.9,2.9,0,0,1-.844.125,3.573,3.573,0,0,1-1-.153,10.247,10.247,0,0,0-2.835-.464,4.567,4.567,0,0,0-3.333,1.247c-1.8,1.774-5.9,5.892-9.19,9.2-2.651,2.666-4.941,4.968-5.343,5.352a11.829,11.829,0,0,1-2.645,1.852A11.706,11.706,0,0,1,8.28,41.1a2.847,2.847,0,0,0,2.975,2.155c2.1,0,4.934-1.433,7.781-3.932l.28-.28L31.457,26.883a6.873,6.873,0,0,1,4.865-1.873h.117a5.314,5.314,0,0,1,3.134.936A5.117,5.117,0,0,1,41.9,29.31a3.944,3.944,0,0,0-1.976-.659,4.068,4.068,0,0,0-2.766,1.515c-2.444,2.4-8.594,8.585-12.043,12.055a.878.878,0,0,0,.33.7,2.684,2.684,0,0,0,1.567.435,2.737,2.737,0,0,0,1.937-.682l9.529-9.54a6.468,6.468,0,0,1,4.652-1.972h.1a3.838,3.838,0,0,1,2.648.881A5.393,5.393,0,0,1,48,35.792a2.887,2.887,0,0,0-1.638-.648,3.347,3.347,0,0,0-2.192,1.272c-1.5,1.475-4.587,4.561-9.179,9.175a6.982,6.982,0,0,1-4.7,1.781,7.206,7.206,0,0,1-2.412-.419c-1.685-.6-2.862-2.316-3.641-3.454l-.157-.229C23.94,43.777,19.421,47.5,14.588,47.5ZM7.941,28.36A3.866,3.866,0,1,1,9.794,21.1a3.859,3.859,0,1,1,1.534,1.537A3.868,3.868,0,0,1,7.941,28.36Z" transform="translate(0.003 0.25)" fill="#1650e9"/>
</svg>
