<svg id="Gateway_Sadad_Mono" data-name="Gateway / Sadad / Mono" xmlns="http://www.w3.org/2000/svg" width="48" height="48" viewBox="0 0 48 48">
  <rect id="Boundary" width="48" height="48" fill="none"/>
  <path id="Shape" d="M21.713,48h0a35.176,35.176,0,0,1-8.461-1.416c-1.591-.4-3.235-.816-4.832-1.077A11.908,11.908,0,0,0,12.911,41.6a15.8,15.8,0,0,0,2.306-5.154c1.048-4.081.619-8.156-.378-9.592.309,3.4.177,5.7-1.4,8.857l-.059-.05C9.672,32.523,7.63,30.794,0,27.688q.05-.38.1-.771a24.371,24.371,0,0,1,1.8-7.445,18.759,18.759,0,0,1,7.043-7.757c5.165,6.506,8.375,11.952,10.409,17.658,1.841,5.164,2.786,10.729,3.16,18.608C22.244,47.994,21.975,48,21.713,48Zm10.218-.524h0A72.935,72.935,0,0,1,21.207,27.28,69.682,69.682,0,0,1,18.4,15.065,106.061,106.061,0,0,1,17.443.118C18.691.039,19.891,0,21.011,0A27.512,27.512,0,0,1,32.329,2.011a25.9,25.9,0,0,1,6.429,4.4c.585.5,1.191,1.018,1.811,1.512a64.229,64.229,0,0,0-8.032,21.9C28.49,27.933,26.343,26.034,23.7,22a8.358,8.358,0,0,0,1.576,3.7,22.016,22.016,0,0,0,4,4.4c2.3,1.952,7.067,5.228,13.168,5.228A16.98,16.98,0,0,0,46,34.964,89.371,89.371,0,0,1,31.932,47.475Z" transform="translate(1)" fill="#1650e9"/>
</svg>
