<svg id="Bank_Saderat_Mono" data-name="Bank / Saderat / Mono" xmlns="http://www.w3.org/2000/svg" width="48" height="48" viewBox="0 0 48 48">
  <rect id="Boundary" width="48" height="48" fill="none"/>
  <path id="Shape" d="M13.482,48C8.113,48,2.547,45.9,0,39.876V0H15.69V41.348c1.841,4.271,5.85,3.726,10.669,1.035C25.613,45.2,19.679,48,13.485,48ZM31.31,48V6.652c-1.84-4.27-5.85-3.726-10.669-1.035C22.034.358,41.514-4.841,47,8.123V48Zm-15.5-24A7.685,7.685,0,1,1,23.5,31.633,7.674,7.674,0,0,1,15.815,24Z" transform="translate(0.5)" fill="#1650e9"/>
</svg>
