<svg id="Bank_Saman_Mono" data-name="Bank / Saman / Mono" xmlns="http://www.w3.org/2000/svg" width="48" height="48" viewBox="0 0 48 48">
  <rect id="Boundary" width="48" height="48" fill="none"/>
  <path id="Shape" d="M20.1,47.5h0a21.66,21.66,0,0,1-4.99-4.03c.125-.093.223-.168.347-.267a6.1,6.1,0,0,0,.681-.636,4.055,4.055,0,0,0,.284-.329c.053-.069.126-.163.2-.27l.005-.007c.1-.139.2-.284.338-.485a14.885,14.885,0,0,0,.823-1.436c.114-.229.225-.472.33-.724l.025-.06.007-.018.016-.039.012-.03c.007-.016.02-.049.02-.049.257.261.418.42.6.585a19.086,19.086,0,0,0,1.651,1.372c.2.148.415.3.648.463l.076.051.02.014.023.015.008.005c.067.045.149.1.234.156.158.1.327.2.5.3a12.627,12.627,0,0,0,1.158.578c.12.056.249.11.493.207l.1.038.072.028A13.4,13.4,0,0,1,20.1,47.5ZM10.628,45.3h0a17.5,17.5,0,0,1-2.191-4.763c.107-.014.212-.03.377-.06a6.071,6.071,0,0,0,.783-.2c.14-.05.252-.092.352-.133l.014-.006c.115-.049.183-.08.261-.118.142-.066.254-.121.376-.184a11.494,11.494,0,0,0,1.645-1.04c.048-.036.094-.072.14-.109l.043-.033.18-.145c.062.223.128.443.238.784a14.3,14.3,0,0,0,.67,1.679c.089.193.166.35.265.544l.007.014.007.014.017.033.031.06c.037.071.075.142.109.2.1.182.173.3.24.407a10.852,10.852,0,0,0,.78,1.067l.043.051.03.035.066.076A11.888,11.888,0,0,1,10.628,45.3ZM32.164,44.6h0c-1.251-.1-2.44-.247-3.535-.424a24.085,24.085,0,0,1-4.847-1.243c.073-.162.14-.321.2-.486a7.812,7.812,0,0,0,.324-1.074c.041-.184.075-.37.1-.551s.04-.359.053-.5.031-.366.041-.632a13.863,13.863,0,0,0-.047-1.937c-.03-.312-.065-.6-.1-.856-.013-.081-.025-.161-.039-.241l.069.018.07.019c.325.091.664.173,1.007.244a24.416,24.416,0,0,0,2.577.428c.242.029.5.055.922.093l.07.005.067.005.03,0,.044,0h.014l.047,0,.063,0,.021,0,.033,0,.061,0,.16.01c.145.014.394.022.762.022h.1c.556,0,1.1-.026,1.656-.08.364-.035.624-.065.817-.092l-.008-.045c-.063-.314-.115-.546-.16-.712a8.915,8.915,0,0,0-.488-1.369c-.084-.182-.158-.333-.222-.449-.078-.145-.154-.28-.24-.425-.162-.274-.352-.576-.564-.9a19.254,19.254,0,0,0-1.31-1.71c-.224-.254-.45-.5-.691-.75l-.076-.076-.076-.077c.506-.134.869-.235,1.215-.339.961-.291,1.878-.61,2.726-.948.453-.175.931-.375,1.419-.593.3-.135.477-.213.661-.3.2-.095.417-.2.661-.327A23.342,23.342,0,0,0,38.4,26.717c.1-.068.194-.137.291-.206l-.043-.036-.044-.035c-.246-.2-.5-.388-.764-.576A11.271,11.271,0,0,0,36.384,25c-.176-.088-.366-.177-.567-.265-.166-.073-.343-.145-.556-.228-.333-.131-.712-.269-1.126-.411-.786-.263-1.6-.493-2.419-.682-.272-.063-.636-.137-1.113-.226l-.079-.014-.059-.01-.117-.02-.213-.035-.041-.006.069-.066c.343-.32.676-.643.991-.96.728-.734,1.454-1.535,2.159-2.38.341-.408.66-.808.95-1.188.156-.2.3-.4.431-.574.164-.226.309-.435.433-.621a20.343,20.343,0,0,0,1.061-1.781c.161-.306.318-.62.465-.933.04-.084.078-.168.117-.253h-.135l-.318,0c-.3,0-.557,0-.757.014a19.63,19.63,0,0,0-2.059.194c-.231.035-.489.081-.787.14-.182.035-.4.081-.715.156-.389.089-.82.2-1.319.329-.913.247-1.786.519-2.594.808-.362.129-.757.278-1.172.443l-.11.045-.154.062-.26.108.028-.084c.123-.375.245-.776.364-1.194a27.634,27.634,0,0,0,.634-2.849c.055-.32.111-.712.173-1.2.026-.209.044-.389.058-.534l.006-.062c.019-.212.031-.414.039-.618a12.307,12.307,0,0,0-.056-1.707c-.03-.284-.073-.592-.128-.914l0-.023a.137.137,0,0,1,0-.018l0-.011a38.123,38.123,0,0,1,6.854-3.006c1.521-.514,3.192-.993,4.966-1.426a31.76,31.76,0,0,1-2.55,11.35A29.938,29.938,0,0,1,48,17.089a47.452,47.452,0,0,1-9.311,9.421,18.582,18.582,0,0,1,5.177,7.553A44.14,44.14,0,0,1,32.9,37.354a14.944,14.944,0,0,1-.734,7.246ZM15.188,42.778h0a8.68,8.68,0,0,1-.7-1.022c-.079-.136-.161-.287-.257-.475s-.182-.366-.281-.576a15.532,15.532,0,0,1-.593-1.483c-.066-.185-.146-.44-.236-.759l-.049-.173-.08-.121c.258-.241.48-.461.661-.654.268-.286.523-.581.757-.875.157-.191.341-.439.546-.737a6.354,6.354,0,0,0,.435-.734l.038-.082a7.414,7.414,0,0,0,.365.774c.118.225.294.525.539.916.225.354.492.733.792,1.127a9.929,9.929,0,0,0,.7.83l-.1.247-.02.047c-.089.221-.209.487-.357.791a13.2,13.2,0,0,1-.761,1.337c-.122.186-.237.353-.353.508-.135.179-.221.289-.307.392a5.98,5.98,0,0,1-.647.648l-.088.074Zm8.323-.494h0l-.032-.014-.015-.006-.012,0-.041-.018-.013-.006-.011,0c-.08-.035-.171-.074-.278-.125l-.073-.033-.023-.011c-.372-.176-.689-.342-.943-.495l-.014-.008-.061-.037-.026-.015-.022-.014-.058-.035c-.058-.036-.109-.067-.156-.1s-.113-.074-.166-.11l-.016-.011-.024-.016L21.5,41.2l-.013-.009-.036-.024-.005,0-.039-.026-.06-.041-.016-.012c-.231-.155-.494-.346-.782-.567a18.933,18.933,0,0,1-1.862-1.629l-.277-.283,0-.007c.149-.425.271-.831.363-1.207a12.215,12.215,0,0,0,.328-2.047c.021-.262.031-.564.03-.9,0-.013,0-.025,0-.038v-.036c0-.014,0-.027,0-.04V34.3c.275.183.59.381.964.6a13.2,13.2,0,0,0,1.549.8,16.739,16.739,0,0,0,1.676.652c.15.05.279.089.335.1l.032.01.035.011.061.019.05.292.009.058c.044.278.078.535.1.764A13.762,13.762,0,0,1,24,39.608c-.009.294-.024.54-.046.732-.017.167-.038.367-.077.62a7.87,7.87,0,0,1-.369,1.323ZM7.435,40.595a9.873,9.873,0,0,1-1.677-.145,12.184,12.184,0,0,1-1.59-.356,15.517,15.517,0,0,1-.015-4.724A11.727,11.727,0,0,1,.592,33a14.255,14.255,0,0,1,1.814-4.246,7.2,7.2,0,0,0,.9.879c.069.057.149.118.3.222.081.056.151.1.235.157.124.082.239.154.374.23a12.867,12.867,0,0,0,1.148.589c.2.085.4.167.625.249l.157.055c-.115.152-.243.332-.415.584a13.1,13.1,0,0,0-.741,1.26c-.075.146-.155.31-.245.5l-.007.015-.01.021-.025.057c-.025.055-.052.115-.079.178-.047.111-.085.208-.12.308A7.319,7.319,0,0,0,4.186,35.2c-.012.057-.023.112-.033.169l.1.037.011,0,.059.022.016.005.061.022.048.016.05.017a5.476,5.476,0,0,0,.742.187c.131.022.245.039.348.049.068.007.135.013.194.017l.037,0h.01l.041,0,.032,0h.007c.1.009.23.013.428.015H6.5A10.992,10.992,0,0,0,7.692,35.7c.211-.026.413-.056.584-.086l.166-.031c-.046.242-.078.416-.114.644a14.034,14.034,0,0,0-.143,1.428c-.013.233-.02.5-.019.784,0,.24.007.434.02.608a9.641,9.641,0,0,0,.206,1.307l.022.089.023.09A9.207,9.207,0,0,1,7.435,40.595Zm1.383-.634h0a8.807,8.807,0,0,1-.137-1.006c-.01-.1-.014-.262-.014-.518,0-.293,0-.468.009-.569.016-.355.053-.791.109-1.3.021-.169.055-.374.095-.612l0-.015L8.9,35.86c.006-.032.012-.062.017-.091l.06-.3a11.6,11.6,0,0,0,1.47-.494c.2-.081.433-.188.715-.328a7.971,7.971,0,0,0,.924-.539l.087-.062a6.043,6.043,0,0,0-.048.871c0,.339.013.666.039,1,.026.352.069.739.13,1.148.054.359.111.656.174.908l-.211.173c-.22.183-.422.337-.6.457a11.017,11.017,0,0,1-1.208.743c-.124.067-.267.139-.437.218l-.008,0-.016.007-.007,0-.018.008c-.113.053-.225.1-.342.148a5.722,5.722,0,0,1-.8.232Zm9.2-1.757h0L18,38.181l-.04-.047-.036-.041-.025-.029-.039-.045-.023-.028-.009-.011-.007-.009-.006-.008-.031-.037c-.243-.3-.434-.548-.569-.739s-.334-.484-.587-.881c-.176-.278-.318-.527-.425-.741a6.228,6.228,0,0,1-.293-.622l-.182-.469a8.712,8.712,0,0,0,.782-2.927A8.854,8.854,0,0,0,18.62,33.92l.008.464c0,.132,0,.237,0,.355-.005.33-.023.621-.051.863a11.111,11.111,0,0,1-.346,1.892c-.073.258-.144.5-.211.708Zm-5.126-.633v0l0-.006a15.9,15.9,0,0,1-.238-1.833c-.017-.34-.026-.587-.027-.753a7.324,7.324,0,0,1,.028-.735l0-.022c0-.01,0-.017,0-.024s0-.024,0-.046l.063-.512a8.614,8.614,0,0,0,1.909-2.083,8.758,8.758,0,0,0,.532,2.879l-.208.466-.007.016a4.691,4.691,0,0,1-.314.554c-.126.2-.259.385-.406.578-.244.317-.46.583-.644.788s-.415.458-.695.734ZM30.4,37.025c-.18,0-.264,0-.332,0-.206,0-.382-.012-.523-.022-.216-.014-.369-.026-.545-.041-.51-.043-.912-.086-1.228-.13-.794-.1-1.561-.233-2.279-.4-.332-.076-.631-.149-.914-.223l-.059-.016-.284-.076a9.829,9.829,0,0,0-.281-1.107,15.384,15.384,0,0,0-.663-1.717c-.128-.29-.3-.628-.5-1-.062-.112-.129-.232-.2-.348s-.149-.232-.21-.317c-.013-.016-.026-.033-.04-.049l.07,0,.07,0c.221.019.54.029.976.029h.04c.538,0,1.167-.036,1.87-.1a24.161,24.161,0,0,0,2.474-.387c.2-.038.414-.085.646-.143l.265.266.05.049.049.05c.256.264.482.509.671.728a16.955,16.955,0,0,1,1.354,1.783c.132.2.289.45.466.75.07.118.14.24.231.409.038.067.091.173.172.343a7.987,7.987,0,0,1,.544,1.562l-.034,0c-.243.027-.451.045-.675.058C31.126,37.011,30.727,37.025,30.4,37.025Zm-6.706-1.07h0l-.048-.014c-.228-.072-.469-.155-.759-.26-.4-.146-.8-.313-1.193-.5-.444-.208-.873-.431-1.274-.665-.219-.129-.432-.258-.653-.4l-.018-.011-.018-.012-.012-.008-.06-.039,0,0-.1-.067-.451-.3a8.659,8.659,0,0,0-.822-3.138,10.027,10.027,0,0,0,3.359.963l.338.4,0,.006.013.015c.047.062.094.134.15.226.065.107.118.2.183.314.149.272.292.555.437.864.176.382.346.788.506,1.209a11.672,11.672,0,0,1,.427,1.414Zm-17.2-.688H6.343c-.178,0-.3-.007-.408-.015-.143-.008-.259-.018-.387-.033a4.569,4.569,0,0,1-.816-.178h0l0-.005a5.89,5.89,0,0,1,.292-.948c.065-.167.139-.328.209-.477.1-.2.174-.359.239-.481a9.584,9.584,0,0,1,.623-1.059c.085-.133.181-.272.294-.426l.1-.139.146-.194c.1.03.252.07.48.124a6.648,6.648,0,0,0,.721.124c.257.035.539.06.841.074.163.009.344.013.539.013.176,0,.338,0,.482-.011l.143-.009.133-.011-.033.055c-.087.137-.188.314-.318.557a12.131,12.131,0,0,0-.992,2.543c-.028.1-.05.192-.071.276l-.293.056c-.212.04-.425.072-.634.1A10.28,10.28,0,0,1,6.489,35.267Zm2.625-.36h0a12.076,12.076,0,0,1,.523-1.538,10.465,10.465,0,0,1,.457-.959c.082-.149.154-.276.243-.425q.092-.153.186-.305l.044-.072.046-.074a7.687,7.687,0,0,0,2.507-.889,8.726,8.726,0,0,0-.866,2.723l-.413.294a8.776,8.776,0,0,1-1.184.667,10.735,10.735,0,0,1-1.543.578Zm.1-3.76H9.107c-.208,0-.468-.015-.77-.037-.215-.016-.487-.05-.809-.1-.268-.05-.432-.085-.548-.118l.006-.007c.126-.147.219-.253.3-.333.225-.246.479-.5.756-.746.227-.2.481-.409.756-.612.171-.123.28-.2.392-.272l.148-.1.11-.068.079-.049.207-.128a6.875,6.875,0,0,0,2.524.495h.033a8.555,8.555,0,0,0-1.959,2.011l-.437.038-.04,0C9.7,31.14,9.491,31.147,9.216,31.147ZM23.5,31.111h-.049c-.291,0-.53-.006-.729-.017l-.1-.005-.1-.005-.546-.035a8.807,8.807,0,0,0-2.537-2.3,12.468,12.468,0,0,0,3.853-1.036l.531.211c.219.089.374.155.487.207.422.193.775.37,1.048.526a14.962,14.962,0,0,1,1.955,1.3c.216.167.456.368.735.614l-.025.006a24.325,24.325,0,0,1-3.022.467C24.518,31.088,24.016,31.11,23.5,31.111ZM6.473,30.72h0l-.239-.084c-.241-.087-.43-.161-.595-.232a9.987,9.987,0,0,1-1.1-.55c-.145-.083-.285-.168-.429-.263-.173-.113-.278-.185-.374-.259a5.61,5.61,0,0,1-.6-.523L3.1,28.766l-.041-.041,0-.005A5.72,5.72,0,0,1,3.68,28c.122-.118.246-.227.389-.343.113-.093.252-.2.453-.355.3-.221.615-.432.938-.625.164-.1.334-.192.521-.291.075-.04.075-.04.15-.077l.2-.1.016.017a11.086,11.086,0,0,0,.909.859,8.917,8.917,0,0,0,1.066.781c.161.1.328.2.526.308l.08.042.08.041.04.021.06.03.06.03-.053.032c-.171.108-.341.221-.519.346a9.838,9.838,0,0,0-1.134.935,11.372,11.372,0,0,0-.818.859c-.072.084-.126.149-.178.212Zm22.164-.285h0l-.1-.089A14.616,14.616,0,0,0,27.3,29.321a15.5,15.5,0,0,0-2.2-1.372c-.327-.165-.666-.319-1.008-.46l-.169-.068c.237-.114.513-.254.843-.429a22.952,22.952,0,0,0,2.109-1.3c.758-.523,1.513-1.1,2.245-1.727l.057-.049.041-.036.068-.058.074-.064.07-.06.06-.053.131-.116.483.076.083.014c.415.069.8.142,1.171.222a23.244,23.244,0,0,1,2.707.753c.356.122.7.248,1.018.373l.025.01c.182.071.334.133.464.19.175.077.325.146.446.2a10.649,10.649,0,0,1,1.134.633c.184.118.36.237.537.363l.164.12-.023.015-.058.039a21.711,21.711,0,0,1-2.314,1.379c-.161.084-.336.168-.565.278l-.02.01c-.268.126-.475.219-.651.294-.346.155-.755.327-1.216.512-.847.337-1.637.621-2.348.846-.327.1-.723.223-1.211.361l-.059.016-.049.014-.09.024-.042.011-.1.026-.467.121ZM2.407,28.752h0A15.729,15.729,0,0,1,0,24.512a12.914,12.914,0,0,1,3.518-3.252A9.8,9.8,0,0,0,4,22.706c.054.121.114.252.185.4.051.1.1.2.154.293.1.18.177.322.249.446.263.442.535.858.811,1.236.137.187.289.382.466.6l.12.142c-.153.074-.359.182-.627.334a11.687,11.687,0,0,0-1.246.827c-.136.1-.259.2-.4.317-.086.073-.156.132-.223.192-.1.1-.176.164-.237.225a6.919,6.919,0,0,0-.751.9l-.032.047-.064.093ZM9.7,28.034h0l-.36-.176-.05-.024-.05-.026c-.277-.146-.528-.291-.745-.431A9.854,9.854,0,0,1,6.821,25.99l.038-.016c.262-.1.5-.192.707-.258a9.44,9.44,0,0,1,1.681-.372c.112-.013.226-.022.333-.03l.024,0h.028l.27-.017.389-.021a7.331,7.331,0,0,0,2.02,1.921,7.527,7.527,0,0,0-2.612.84Zm13.558-.851h0a10.645,10.645,0,0,0-3.337-.56c-.146,0-.249,0-.354.007a13.92,13.92,0,0,0,3.046-2.866l.577-.1q.309-.054.62-.105l.046-.007.046-.007.037-.005c.131-.021.241-.039.355-.053.138-.02.293-.038.49-.057a18.607,18.607,0,0,1,1.922-.094,20.1,20.1,0,0,1,2.239.122l-.057.048c-.326.28-.641.538-.962.791a25.248,25.248,0,0,1-2.847,1.946c-.33.192-.691.388-1.1.6l-.094.046-.088.043-.534.257ZM6.464,25.6h0l-.1-.112c-.17-.2-.321-.386-.448-.555a12.688,12.688,0,0,1-.842-1.254c-.114-.193-.209-.362-.291-.515-.111-.209-.185-.356-.247-.491a8.843,8.843,0,0,1-.427-1.159,5.634,5.634,0,0,1,.931-.37c.132-.038.307-.078.519-.119s.4-.069.587-.094A10.4,10.4,0,0,1,7.4,20.848h.04c.238,0,.447.008.619.023l.292.022c.021.084.043.175.07.279A13.673,13.673,0,0,0,9.451,23.9c.129.254.276.515.437.774l.018.028.017.027.032.051a.039.039,0,0,0-.023-.007.108.108,0,0,0-.049.016l.076,0c-.28.014-.492.028-.688.048-.152.015-.307.039-.41.055a10.019,10.019,0,0,0-1.9.5c-.176.067-.346.135-.5.2Zm6.76-.167h0a6.847,6.847,0,0,0-2.666-.637l-.209-.328c-.132-.207-.263-.434-.39-.673a12.525,12.525,0,0,1-.79-1.876c-.107-.319-.2-.639-.278-.951l.032.005c.206.035.374.068.515.1a8.907,8.907,0,0,1,1.054.3,8.43,8.43,0,0,1,.989.427c.126.064.27.143.439.241l.04.024.007,0,.059.035.366.227a9.35,9.35,0,0,0,.832,3.094Zm5.372-.567,0,0a12.669,12.669,0,0,0,1.3-3.694l.523-.434c.258-.212.523-.42.811-.634a23.623,23.623,0,0,1,2.312-1.5c.392-.224.812-.449,1.247-.669.119-.061.261-.131.475-.233l.07-.033.081-.039.028-.014.035-.016.046-.022a25.937,25.937,0,0,1-1.292,2.821,18.557,18.557,0,0,1-1.407,2.275l-.1.137-.418.543A12.97,12.97,0,0,0,18.6,24.862Zm-3.735-.625,0,0a7.4,7.4,0,0,0-2-2.169l-.024-.456c-.011-.224-.017-.429-.018-.625a16.334,16.334,0,0,1,.108-1.931,21.243,21.243,0,0,1,.36-2.146l.006.006c.173.174.331.342.47.5a10.8,10.8,0,0,1,.79,1.012,10.635,10.635,0,0,1,.658,1.088c.095.18.193.383.292.6l.224.507a12.206,12.206,0,0,0-.867,3.613ZM16.843,24v0h0a9.71,9.71,0,0,0-.613-3.415l.245-.434.055-.1.064-.114c.23-.413.476-.853.723-1.281.31-.539.625-1.062.961-1.6.393-.621.764-1.168,1.134-1.672l.017-.023,0-.006,0-.005.006-.008v0l0,.006a16.8,16.8,0,0,1,.223,2.468c.008.341,0,.7-.009,1.087-.016.439-.049.835-.1,1.211l-.008.057-.008.056c-.033.221-.066.43-.112.7a13.961,13.961,0,0,0-2.588,3.07Zm6.228-.82h0l.044-.059.016-.022.015-.02c.048-.063.093-.122.138-.184.24-.33.476-.685.72-1.085s.49-.832.726-1.282a26.435,26.435,0,0,0,1.326-2.935c.04-.1.078-.21.116-.314l.5-.21.085-.036c.415-.171.828-.332,1.228-.479.974-.357,1.992-.676,3.024-.947.421-.111.827-.21,1.207-.3.105-.024.325-.074.536-.116.187-.038.374-.073.572-.107a17.7,17.7,0,0,1,2.657-.241l-.015.03a20.09,20.09,0,0,1-1.327,2.271c-.12.177-.233.338-.346.493s-.244.331-.423.563c-.264.343-.534.683-.8,1.01-.724.88-1.486,1.725-2.265,2.511-.268.271-.564.56-.905.881l-.44.409c-.271-.034-.533-.064-.778-.086-.664-.061-1.327-.092-1.972-.092a19.6,19.6,0,0,0-2.139.115l-.04,0c-.091.01-.193.022-.3.036-.23.032-.461.07-.7.109l-.458.078ZM12.343,21.714h0c-.214-.132-.421-.249-.634-.358a8.954,8.954,0,0,0-1.565-.62,9.514,9.514,0,0,0-1.209-.27c-.058-.009-.115-.018-.173-.025l-.046-.218L8.7,20.168a19.318,19.318,0,0,1-.346-2.626c-.019-.309-.032-.6-.038-.887s-.007-.517,0-.737a13.473,13.473,0,0,1,.124-1.38c.012-.081.023-.162.036-.243A5.1,5.1,0,0,1,9.52,14.5a5.505,5.505,0,0,1,.543.208c.194.084.383.173.562.264a10.121,10.121,0,0,1,1.237.742c.189.132.378.273.577.431l.04.032.04.032.08.066.12.1.084.071.031.026.035.03-.009.037c-.007.032-.014.064-.021.1l-.015.065-.01.044c-.157.7-.278,1.4-.359,2.071a17.563,17.563,0,0,0-.132,1.921c0,.254,0,.521.014.818,0,.052.005.1.009.157Zm-8.824-.455h0l-.01-.041a23.285,23.285,0,0,1-.5-6.128,15.644,15.644,0,0,1,1.849-.764,9.828,9.828,0,0,1,3.078-.556H8.06a15.913,15.913,0,0,0-.235,1.966c-.008.187-.012.347-.013.49s0,.287.005.44c.007.234.016.455.028.715A19.827,19.827,0,0,0,8.178,20.1c.019.094.038.187.058.281-.213-.02-.463-.031-.743-.034H7.4a10.4,10.4,0,0,0-1.466.1c-.176.024-.347.053-.522.088l-.037.007-.059.012-.054.012c-.056.011-.1.022-.149.033-.13.031-.239.061-.326.089a5.041,5.041,0,0,0-.8.319c-.118.057-.235.117-.366.189l-.026.014-.014.008-.008,0-.008,0-.018.01-.029.017Zm16.507-.853h0a.019.019,0,0,0,0-.015l0-.017a12.422,12.422,0,0,0,.133-1.455c.02-.5.018-1.012,0-1.537-.023-.542-.069-1.071-.134-1.571-.046-.356-.1-.686-.172-1.011l.291-.346.056-.067c.295-.346.563-.651.82-.932.667-.73,1.384-1.451,2.133-2.144.365-.338.716-.652,1.045-.935.129-.112.266-.23.4-.339.176-.146.337-.276.493-.4.388-.3.811-.608,1.256-.905.238-.159.474-.311.721-.464l.027-.016.027-.017.006.049c.028.239.048.486.062.732a11.777,11.777,0,0,1,0,1.222c-.008.163-.02.326-.035.484s-.035.336-.059.527c-.042.343-.089.678-.14,1a26.943,26.943,0,0,1-.6,2.807c-.113.417-.24.841-.377,1.26-.065.2-.13.393-.2.59-.17.075-.352.159-.543.248a26.1,26.1,0,0,0-3.77,2.161c-.381.265-.758.545-1.12.833l-.161.131-.151.124h0Zm-4.035-.425v0c-.13-.294-.268-.575-.41-.837A11.237,11.237,0,0,0,13.59,16.5c-.056-.055-.114-.112-.172-.166l.084-.319c.082-.312.168-.618.255-.91.221-.737.484-1.5.784-2.268.134-.343.277-.691.438-1.065.125-.287.292-.666.481-1.041a19.861,19.861,0,0,1,1.075-1.873l.023.023c.108.106.211.214.306.32a6.309,6.309,0,0,1,.546.708c.142.214.266.435.368.624.111.205.221.422.337.662a15.839,15.839,0,0,1,.832,2.14c.083.267.16.543.237.845l.115.464.01.039c-.354.456-.716.966-1.108,1.562-.516.785-1.044,1.66-1.662,2.755l-.2.355,0,0c-.115.206-.229.411-.345.616ZM13,15.961h0l-.04-.033c-.209-.176-.423-.343-.635-.5A10.931,10.931,0,0,0,11,14.6c-.257-.135-.5-.254-.734-.352-.135-.06-.243-.1-.35-.143S9.7,14.032,9.58,14a5.43,5.43,0,0,0-.938-.188c-.159-.016-.306-.027-.451-.034l-.13,0a35.216,35.216,0,0,1,2.673-7.9,11.02,11.02,0,0,1,5.7,2.234c-.187.278-.315.473-.441.672-.336.533-.626,1.038-.886,1.542-.107.206-.218.434-.33.676-.045.1-.088.193-.129.285l-.049.109-.014.033-.013.029-.022.049c-.118.272-.225.526-.327.776-.3.747-.568,1.481-.791,2.18-.1.315-.2.632-.284.941-.027.095-.053.189-.078.284l-.057.212-.005.021c-.005.022-.01.04-.013.047ZM19.7,14.2v0l-.016-.066c-.084-.338-.171-.654-.26-.939a16.375,16.375,0,0,0-.8-2.082c-.129-.276-.266-.548-.407-.81-.085-.157-.154-.28-.218-.387-.075-.127-.148-.243-.22-.345a6.75,6.75,0,0,0-.734-.9c-.14-.146-.3-.3-.49-.463l-.121-.1A47.182,47.182,0,0,1,23.844,0,16.106,16.106,0,0,1,27.5,7.425c-.3.178-.563.334-.815.491-.57.355-1.106.721-1.594,1.089-.248.186-.49.376-.719.564-.165.136-.325.274-.431.365l-.031.027L23.87,10c-.294.255-.537.47-.765.677-.7.635-1.4,1.32-2.079,2.038-.263.279-.553.6-.861.948l-.234.27-.1.119-.051.06-.076.089Z" transform="translate(0 0.25)" fill="#1650e9"/>
</svg>
