<svg id="Bank_Sanat_Madan_Mono" data-name="Bank / Sanat Madan / Mono" xmlns="http://www.w3.org/2000/svg" width="48" height="48.001" viewBox="0 0 48 48.001">
  <rect id="Boundary" width="48" height="48" fill="none"/>
  <path id="Shape" d="M48,48H0V0H13.009L24,10.992,34.991,0H48V48ZM5.5,29.5V42.5H42.5l0-24,0-13.01H37.267l-9.382,9.382L31.513,18.5l10.99,0L37.009,24H29.237l3.885,3.885L24,37.009,16.487,29.5Zm0-24v24L10.991,24h7.772l-3.886-3.886,5.237-5.236L10.732,5.5ZM24,18.764h0L18.763,24,24,29.236,29.237,24,24,18.764Z" fill="#1650e9"/>
</svg>
