<svg id="Bank_Sarmayeh_Mono" data-name="Bank / Sarmayeh / Mono" xmlns="http://www.w3.org/2000/svg" width="48" height="48" viewBox="0 0 48 48">
  <rect id="Boundary" width="48" height="48" fill="none"/>
  <path id="Shape" d="M15.139,41.9a6.029,6.029,0,1,1,6.029,6.029A6.036,6.036,0,0,1,15.139,41.9ZM0,31.9C8.979,21.174,17.959,17.74,26.938,17.57V31.584c-9.952.321-18.765,6.571-26.9,16.349ZM27.637,23.3V16.857l-.713.014A32.081,32.081,0,0,0,8.1,23.215V16.349c9.2-.3,18-5.645,26.9-16.349l.039,16.038a49.774,49.774,0,0,1-7.4,7.265h0Z" transform="translate(6.089 0.067)" fill="#1650e9"/>
</svg>
