<svg id="Bank_Sepah_Mono" data-name="Bank / Sepah / Mono" xmlns="http://www.w3.org/2000/svg" width="48" height="48" viewBox="0 0 48 48">
  <rect id="Boundary" width="48" height="48" fill="none"/>
  <path id="Shape" d="M21.2-3.482a15.949,15.949,0,0,0-6.564,1.505Q14.491-.338,12.12,0A9.386,9.386,0,0,1,8.494-.813c-.759-.23-1.383-1.506-2.152-3.078S4.685-7.323,3.9-8.743a1.063,1.063,0,0,1-.023-1,1.785,1.785,0,0,1,2.14-1.082.837.837,0,0,1,.54.428l.3.584a15.424,15.424,0,0,0,2.964.694l.126-.1c-.028-.016-.054-.035-.08-.051A20.947,20.947,0,0,1,0-26.62,21.168,21.168,0,0,1,20.875-48q.188,0,.375,0h.094l.281,0A21.167,21.167,0,0,1,42.5-26.62,20.947,20.947,0,0,1,32.633-9.278c-.026.016-.052.035-.08.051l.126.1a15.424,15.424,0,0,0,2.964-.694l.3-.584a.838.838,0,0,1,.54-.428,1.785,1.785,0,0,1,2.14,1.082,1.063,1.063,0,0,1-.023,1c-.789,1.42-1.677,3.284-2.445,4.852S34.766-1.043,34.006-.813A9.385,9.385,0,0,1,30.38,0q-2.372-.337-2.513-1.977A15.934,15.934,0,0,0,21.25-3.482ZM7.166-8.989s.563,1.553.866,2.321c.392.994,1.484,3.641,1.484,3.641.256.627.776,1.1-.563,1.8.016.047.033.094.05.156a7.21,7.21,0,0,0,2.332.508c.092-.049.186-.082.265-.115L7.93-8.238C7.544-9.033,7.441-9.076,7.166-8.989Zm28.168,0s-.563,1.553-.866,2.321c-.392.994-1.484,3.641-1.484,3.641-.256.627-.776,1.1.563,1.8-.016.047-.032.094-.05.156a7.21,7.21,0,0,1-2.332.508c-.092-.049-.186-.082-.265-.115L34.57-8.238C34.956-9.033,35.059-9.076,35.334-8.989ZM30.35-9.839a18.258,18.258,0,0,0-9.1-1.858l-.111,0c-4.686-.111-9.318,1.1-11.968,4.246a35.159,35.159,0,0,0,2.863,5.661.723.723,0,0,0,.492.274A13.286,13.286,0,0,1,21.25-4.158h.076a13.245,13.245,0,0,1,8.648,2.638.723.723,0,0,0,.492-.274,35.159,35.159,0,0,0,2.863-5.661A10.227,10.227,0,0,0,30.417-9.8a.867.867,0,0,1-.111.121,3.563,3.563,0,0,1-.489.386,2.92,2.92,0,0,1-.549.287l-.465.191-.477.144c-.16.049-.32.09-.481.125l-.033.009a.247.247,0,0,1-.017.025c-.027.043-.054.082-.08.119s-.051.075-.077.114c-.076.121-.15.243-.222.365L27.3-7.7a3.967,3.967,0,0,0-.228.465c-.066.161-.127.321-.185.481v0a1.083,1.083,0,0,0-.085.479.281.281,0,0,0,.2.241.173.173,0,0,0,.119,0,.326.326,0,0,0,.1-.059.591.591,0,0,0,.087-.092q.04-.052.068-.1.05-.072.078-.056t0,.08a3.585,3.585,0,0,1-.167.319,2.128,2.128,0,0,1-.233.328,1.081,1.081,0,0,1-.27.231.319.319,0,0,1-.279.032.344.344,0,0,1-.2-.167.578.578,0,0,1-.057-.252,1.023,1.023,0,0,1,.037-.279q.038-.14.075-.241h0c.042-.106.09-.215.143-.33s.105-.228.153-.34a.218.218,0,0,0,.034-.1c0-.017-.036,0-.1.043a4.715,4.715,0,0,1-.518.334,2.651,2.651,0,0,1-.544.222,3.058,3.058,0,0,1-.874.122,4.39,4.39,0,0,1-.9-.1,6.165,6.165,0,0,1-.709-.193,6.583,6.583,0,0,1-.733-.3,2.047,2.047,0,0,1-.291-.165.728.728,0,0,1-.2-.2.676.676,0,0,1-.1-.276,1.023,1.023,0,0,1,.032-.373,1.908,1.908,0,0,1,.1-.281A2.325,2.325,0,0,1,22-8.488c.046-.076.084-.109.11-.1s.027.061,0,.151a.611.611,0,0,0-.019.235.406.406,0,0,0,.09.2,1.325,1.325,0,0,0,.455.35q.265.125.535.229A6.368,6.368,0,0,0,25.33-7a2.866,2.866,0,0,0,.469-.023,1.867,1.867,0,0,0,.451-.121,1.562,1.562,0,0,0,.563-.366,1.637,1.637,0,0,0,.312-.4.589.589,0,0,1,.088-.128l.1-.1.223-.227q.082-.082.17-.162c-.01-.008.011-.038.065-.093.07-.06.139-.121.208-.184a.862.862,0,0,1,.232-.152c.072-.03.166-.068.285-.114s.622-.224.776-.286q.463-.187.917-.413l.116-.053Zm3.387,8.216a.618.618,0,0,1-.44-.544c.395-.118.9-.141,1.09.49A.73.73,0,0,1,33.738-1.624Zm-24.975,0a.618.618,0,0,0,.44-.544c-.395-.118-.9-.141-1.09.49A.73.73,0,0,0,8.762-1.624Zm27.852-8.724a1.024,1.024,0,0,1,1.41,1.153L34.613-2.153A1.221,1.221,0,0,0,33.6-2.634Zm-30.729,0a1.024,1.024,0,0,0-1.41,1.153L7.887-2.153A1.221,1.221,0,0,1,8.9-2.634ZM27.274-4a1.045,1.045,0,0,1,.252-.282q.224-.2.267-.187a.4.4,0,0,1,.219.227.4.4,0,0,1,.035.3.612.612,0,0,1-.227.253q-.184.135-.254.11a.9.9,0,0,1-.172-.207l-.1-.132A.093.093,0,0,1,27.274-4Zm-13.045.088a1.693,1.693,0,0,1,.108-.313q.113-.285.146-.29a.367.367,0,0,1,.242.082.342.342,0,0,1,.165.209.617.617,0,0,1-.079.334q-.1.2-.155.214a.166.166,0,0,1-.092-.034l-.127-.08L14.3-3.843Q14.236-3.87,14.229-3.909Zm-.519-.635a1.4,1.4,0,0,1,.116-.351q.124-.306.157-.312a.439.439,0,0,1,.229.067.672.672,0,0,1,.215.161q.059-.136.123-.272c.06-.128.1-.193.112-.2a.426.426,0,0,1,.266.084.372.372,0,0,1,.186.229.6.6,0,0,1-.1.354q-.117.2-.179.212a.278.278,0,0,1-.153-.062,1.663,1.663,0,0,0-.252-.144q-.155.432-.284.452a1.049,1.049,0,0,1-.228-.1A.883.883,0,0,1,13.71-4.544ZM29.18-7.967l.014-.013a.137.137,0,0,1,.045-.032c.011,0,.016,0,.015.017a.3.3,0,0,1-.045.092q-.26.436-.487.9a3.333,3.333,0,0,0-.321.74h0a1.086,1.086,0,0,0-.086.481.281.281,0,0,0,.2.241.174.174,0,0,0,.119,0,.329.329,0,0,0,.1-.059.6.6,0,0,0,.087-.092q.04-.052.068-.1c.034-.048.059-.067.078-.056s.02.037,0,.08a3.585,3.585,0,0,1-.167.32,2.148,2.148,0,0,1-.233.328,1.086,1.086,0,0,1-.27.231.32.32,0,0,1-.28.032.343.343,0,0,1-.2-.167.578.578,0,0,1-.057-.252A1.03,1.03,0,0,1,27.8-5.55c.026-.093.051-.173.075-.241l.009-.008a6.206,6.206,0,0,1,.288-.641c.295-.583-.143.257.434-.844a1.593,1.593,0,0,1,.182-.272c.042-.049.093-.106.152-.171s.126-.132.2-.2l.014-.013Zm-12.315.484q.477-.064.927-.164a5.126,5.126,0,0,0,.885-.284,5.617,5.617,0,0,0,.745-.385q.358-.22.686-.467a9.973,9.973,0,0,0,.863-.73q.4-.382.822-.77.125-.117.251-.223a2.444,2.444,0,0,1,.273-.2q.136-.085.193-.051t0,.169q-.035.1-.075.213a1.35,1.35,0,0,1-.094.2.31.31,0,0,1-.059.081.474.474,0,0,1-.085.062,1.225,1.225,0,0,0-.209.165q-.135.125-.344.324-.244.234-.487.476t-.5.477q-.253.235-.513.457a6.793,6.793,0,0,1-.539.415A6.175,6.175,0,0,1,17-6.66q-.37.053-.635.086a2.516,2.516,0,0,1-.45.023q-.2-.014-.4-.045a2.13,2.13,0,0,1-.389-.1L15-6.74a.225.225,0,0,0-.077-.016.093.093,0,0,0-.064.027.68.68,0,0,0-.077.093q-.042.058-.088.135l-.109.183a.794.794,0,0,1-.3.281.652.652,0,0,1-.406.061c-.083-.014-.158-.029-.225-.045a.48.48,0,0,0-.228.007,1.213,1.213,0,0,0-.222.081A.8.8,0,0,0,13-5.785q-.15.138-.2.126t.049-.194a3.055,3.055,0,0,1,.259-.414,2.252,2.252,0,0,1,.335-.363,1.8,1.8,0,0,1,.208-.156.508.508,0,0,1,.243-.082.7.7,0,0,1,.216.023,1.364,1.364,0,0,0,.219.04.39.39,0,0,0,.216-.029.479.479,0,0,0,.166-.129,1.417,1.417,0,0,0,.149-.184l.13-.193a.579.579,0,0,1,.179-.175.4.4,0,0,1,.257-.009,5.175,5.175,0,0,0,.727.083A3.98,3.98,0,0,0,16.865-7.483ZM27.874-8a1.068,1.068,0,0,1,.251-.277q.223-.2.266-.187a.4.4,0,0,1,.22.227.4.4,0,0,1,.035.3.6.6,0,0,1-.226.25q-.183.133-.253.108a.9.9,0,0,1-.173-.207q-.051-.06-.1-.126A.107.107,0,0,1,27.874-8ZM21.34-47.319h-.09q-.181,0-.362,0A20.481,20.481,0,0,0,.692-26.633,20.271,20.271,0,0,0,10.32-9.8c.061.038.12.076.18.114l.226-.187c-.066-.04-.131-.081-.2-.121a19.446,19.446,0,0,1-6.69-6.866,19.647,19.647,0,0,1-2.757-9.7A19.777,19.777,0,0,1,6.739-40.749a20.166,20.166,0,0,1,14.117-6.1q.2,0,.395,0h.1l.3,0a20.166,20.166,0,0,1,14.117,6.1,19.777,19.777,0,0,1,5.656,14.186,19.646,19.646,0,0,1-2.757,9.7A19.444,19.444,0,0,1,31.97-10c-.065.04-.13.081-.2.121L32-9.687c.06-.038.118-.076.18-.114a20.271,20.271,0,0,0,9.628-16.832,20.481,20.481,0,0,0-20.2-20.683ZM12.7-10.762a3.549,3.549,0,0,1-1.072-.519,3.637,3.637,0,0,1-.926-1.015,4.453,4.453,0,0,0-.8.13l-.009,0a4.355,4.355,0,0,0,.394.47q.079.082.162.16a3.359,3.359,0,0,0,1.211.748,3.137,3.137,0,0,0,.766.149Zm16.98-.074q.1.02.207.033a2.232,2.232,0,0,0,1.053-.1,2.261,2.261,0,0,0,.751-.484q.072-.068.139-.14c.048-.052.093-.105.137-.16h0c-.06-.015-.121-.028-.182-.039a2.829,2.829,0,0,0-.473-.046h-.033a2.346,2.346,0,0,0-.33.025,2.139,2.139,0,0,1-.194.24,2.623,2.623,0,0,1-.975.636l-.1.035Zm-15.915-.38a4.187,4.187,0,0,0-.455-.778,3.2,3.2,0,0,0-.626-.64,3.159,3.159,0,0,0-.919-.473,4.071,4.071,0,0,0-.517-.133,4.486,4.486,0,0,0-.689-.076h-.009l0,.009a4.489,4.489,0,0,0,.274.611,4.085,4.085,0,0,0,.282.45,3.183,3.183,0,0,0,.725.732,3.2,3.2,0,0,0,.85.423,4.037,4.037,0,0,0,.479.126l.039-.017.153-.065c-.2-.133-.389-.272-.58-.412-.216-.163-.43-.327-.637-.5s-.413-.351-.607-.545h0c.25.112.49.239.726.373s.467.273.7.417.453.294.672.451l.1.069Zm15.923.044.034-.014a2.23,2.23,0,0,0,.868-.605,2.263,2.263,0,0,0,.416-.79q.029-.094.052-.191c.016-.068.03-.137.041-.206v0h0c-.068.019-.135.04-.2.063s-.123.046-.184.073a2.229,2.229,0,0,0-.777.541,2.228,2.228,0,0,0-.452.831l-.01.034c.088-.1.179-.2.272-.3.125-.129.252-.256.387-.376a3.939,3.939,0,0,1,.428-.341h0a3.937,3.937,0,0,1-.269.477c-.1.153-.2.3-.31.442C29.891-11.413,29.794-11.29,29.691-11.172Zm.321-1.62a2.528,2.528,0,0,0-.035-.472c-.011-.065-.024-.13-.039-.194s-.035-.136-.056-.2v0h0c-.052.047-.1.1-.151.147s-.09.1-.132.147a2.229,2.229,0,0,0-.452.831,2.228,2.228,0,0,0-.032.946c.009.058.035.167.035.167l0-.016a2.6,2.6,0,0,1,.554-1.071,2.226,2.226,0,0,1,.3-.277Zm-16.081,1.2a4.051,4.051,0,0,0-.171-.6,3.2,3.2,0,0,0-.422-.79,3.152,3.152,0,0,0-.75-.712,4.083,4.083,0,0,0-.479-.283,4.471,4.471,0,0,0-.62-.256l-.009,0v.009a4.5,4.5,0,0,0,.092.664c.006.027.012.054.018.08a3.7,3.7,0,0,1,1.1.474q.119.078.231.166a3.489,3.489,0,0,1,.569.574A4.331,4.331,0,0,1,13.932-11.593ZM32.97-13.4h-.033a2.342,2.342,0,0,0-.33.025,2.165,2.165,0,0,1-.194.24,2.621,2.621,0,0,1-.975.636l-.1.038c.069.014.138.024.207.033a2.232,2.232,0,0,0,1.053-.1,2.26,2.26,0,0,0,.751-.484c.048-.045.094-.092.139-.141s.093-.1.137-.16h0c-.069-.017-.138-.032-.208-.044A2.816,2.816,0,0,0,32.97-13.4Zm-23.078.919c.091-.022.294-.062.312-.065a3.582,3.582,0,0,1-1.059-.691,3.634,3.634,0,0,1-.778-1.132c-.061,0-.122-.007-.183-.009H8.055a4.651,4.651,0,0,0-.47.026l-.026,0H7.549l.044.081a4.3,4.3,0,0,0,.7.931,3.19,3.19,0,0,0,.739.555,3.122,3.122,0,0,0,.858.3h0ZM10.97-13.6a3.2,3.2,0,0,0-.675-.915,3.237,3.237,0,0,0-.809-.538A4.332,4.332,0,0,0,8.392-15.4l-.026,0H8.357l0,.009a4.479,4.479,0,0,0,.188.643,4.1,4.1,0,0,0,.217.484,3.2,3.2,0,0,0,.6.805,3.2,3.2,0,0,0,.828.566q.121.059.246.109-.07-.148-.129-.3c-.036-.093-.1-.272-.093-.266-.159-.16-.316-.322-.468-.489-.183-.2-.361-.4-.526-.623h0c.233.145.453.3.668.469.159.12.313.244.466.371l.061,0h.059A4.585,4.585,0,0,1,10.97-13.6Zm20.422.782a2.222,2.222,0,0,0,.855-.6,2.263,2.263,0,0,0,.417-.79q.029-.094.052-.19c.016-.069.03-.137.041-.207v0h0c-.068.019-.135.04-.2.063s-.123.046-.184.073a2.228,2.228,0,0,0-.777.541,2.091,2.091,0,0,0-.37.6l.17-.029.008-.009c.125-.129.252-.256.387-.376a3.957,3.957,0,0,1,.428-.341h0a3.945,3.945,0,0,1-.269.477c-.1.153-.2.3-.31.442-.078.1-.157.2-.24.3C31.4-12.849,31.395-12.834,31.392-12.818Zm-.537-.412a2.519,2.519,0,0,1,.506-.908,2.236,2.236,0,0,1,.3-.281,2.538,2.538,0,0,0-.035-.472q-.016-.1-.039-.193c-.016-.069-.035-.136-.056-.2v0h0c-.052.047-.1.1-.151.147s-.089.1-.132.147a2.227,2.227,0,0,0-.453.832,2.229,2.229,0,0,0-.032.946l0,.017.006,0ZM11.166-14.5a2.845,2.845,0,0,0-.138-.268,3.224,3.224,0,0,0-.641-.767,4.327,4.327,0,0,0-.976-.65l-.008,0v.009a4.473,4.473,0,0,0,0,.693q0,.03.005.059a3.6,3.6,0,0,1,1.189.772,3.536,3.536,0,0,1,.616.848l0-.024q-.018-.127-.03-.255C11.17-14.2,11.166-14.5,11.166-14.5Zm21.747.526c.053.01.107.018.161.024a2.232,2.232,0,0,0,1.053-.1,2.262,2.262,0,0,0,.751-.484q.072-.068.139-.141c.048-.052.093-.1.137-.16h0c-.069-.017-.138-.032-.208-.044a2.806,2.806,0,0,0-.447-.041h-.033a2.342,2.342,0,0,0-.329.025,2.156,2.156,0,0,1-.194.24,2.622,2.622,0,0,1-.975.636L32.924-14Zm.111-1.007c.1-.1.193-.191.295-.281a3.961,3.961,0,0,1,.428-.341h0a3.946,3.946,0,0,1-.269.477c-.1.153-.2.3-.31.442l-.108.138q-.013.08-.03.159a2.156,2.156,0,0,0,.744-.551,2.26,2.26,0,0,0,.417-.79q.029-.094.052-.191c.016-.068.03-.137.041-.207v0h0q-.1.028-.2.063t-.184.073a2.226,2.226,0,0,0-.777.541,2.047,2.047,0,0,0-.331.511l.01,0C32.83-14.946,33.025-14.981,33.025-14.981Zm-25.093.289a3.743,3.743,0,0,1-1.139-1.1,3.639,3.639,0,0,1-.5-1.28,4.458,4.458,0,0,0-.765-.163l-.026,0H5.495l0,.009a4.476,4.476,0,0,0,.222.632,4.1,4.1,0,0,0,.244.472,3.194,3.194,0,0,0,.64.772,3.182,3.182,0,0,0,.834.51c.141.06.438.155.438.155Zm24.477-.131a2.478,2.478,0,0,1,.481-.835,2.232,2.232,0,0,1,.305-.281,2.529,2.529,0,0,0-.035-.472q-.016-.1-.039-.194c-.016-.068-.035-.136-.056-.2v0h0c-.052.047-.1.1-.151.147s-.09.1-.132.147a2.227,2.227,0,0,0-.453.831,2.205,2.205,0,0,0-.038.907l.011,0,.062-.025Zm-23.742-.84q-.021-.095-.047-.189a3.2,3.2,0,0,0-.353-.823,3.158,3.158,0,0,0-.686-.773,4.067,4.067,0,0,0-.453-.323,4.485,4.485,0,0,0-.6-.308l-.008,0v.009a4.5,4.5,0,0,0,.035.669,4.1,4.1,0,0,0,.1.521,3.181,3.181,0,0,0,.412.945,3.213,3.213,0,0,0,.66.717c.136.111.426.294.426.294q-.044-.143-.078-.288c-.012-.05-.023-.1-.033-.15l-.117-.183c-.142-.229-.283-.46-.414-.7s-.259-.477-.37-.727h0c.193.195.371.4.543.609s.326.409.482.618l-.183-.016.2.017c.108.01.215.027.322.048Q8.587-15.681,8.667-15.663Zm25.822.035-.023.071-.005.015.06,0a2.23,2.23,0,0,0,1.043-.178,2.261,2.261,0,0,0,.713-.537q.067-.073.128-.15c.044-.055.085-.111.125-.169h0a2.933,2.933,0,0,0-.438-.042h-.077a2.416,2.416,0,0,0-.5.056,2.168,2.168,0,0,1-.176.253,2.579,2.579,0,0,1-.843.664ZM9.094-16.246A3.006,3.006,0,0,0,9-16.765a3.169,3.169,0,0,0-.457-.955,4.087,4.087,0,0,0-.33-.415,4.493,4.493,0,0,0-.486-.462L7.721-18.6l0,.009a4.477,4.477,0,0,0-.154.652c0,.027-.008.054-.012.081a3.6,3.6,0,0,1,.98,1.024A3.687,3.687,0,0,1,9-15.573l.082.026q0-.051-.005-.1-.009-.217,0-.433Q9.087-16.165,9.094-16.246Zm25.527-.061c-.005.078-.015.156-.028.233l0,.017a2.074,2.074,0,0,0,.558-.517,2.263,2.263,0,0,0,.358-.818q.022-.1.038-.194c.011-.069.02-.139.026-.209v0h0q-.1.036-.2.078t-.178.086a2.23,2.23,0,0,0-.736.6,2.094,2.094,0,0,0-.326.63c.056-.017.113-.032.17-.045l.007-.009c.115-.138.233-.274.359-.4a3.927,3.927,0,0,1,.4-.372h0a3.945,3.945,0,0,1-.233.5c-.067.125-.14.246-.214.365Zm-.85.033a2.523,2.523,0,0,1,.441-.954,2.241,2.241,0,0,1,.279-.3l.005,0A2.523,2.523,0,0,0,34.428-18q-.023-.1-.053-.19c-.021-.067-.045-.133-.07-.2h0c-.048.051-.1.1-.14.157s-.082.1-.121.156a2.228,2.228,0,0,0-.391.862,2.228,2.228,0,0,0,.037.946l.007.027ZM23-19.662A11.1,11.1,0,0,0,27.347-19a10.1,10.1,0,0,1-5.218.282l-.014.346-.865,1.191-.866-1.191-.014-.346A10.1,10.1,0,0,1,15.153-19a11.1,11.1,0,0,0,4.351-.662,10.113,10.113,0,0,1-4.939-5.849A10.137,10.137,0,0,1,17.6-36.332a11.118,11.118,0,0,0,2.677,15.222l-.336-8.307v-6.535a3.446,3.446,0,0,0,1.313-1.1,3.446,3.446,0,0,0,1.313,1.1v6.535l-.336,8.307A11.118,11.118,0,0,0,24.9-36.332a10.137,10.137,0,0,1,3.032,10.821A10.112,10.112,0,0,1,23-19.662Zm12.8,2.39c.048,0,.1-.006.142-.01a2.23,2.23,0,0,0,1.006-.327,2.26,2.26,0,0,0,.628-.635c.037-.054.072-.11.105-.167s.068-.123.1-.186h-.088c-.059,0-.118,0-.178.006a2.52,2.52,0,0,0-.74.156l0,.006a2.165,2.165,0,0,1-.135.271,2.624,2.624,0,0,1-.814.832l-.012.008ZM4.7-20.412l-.081-.046a4.461,4.461,0,0,0-.65-.3l-.009,0s0,.006,0,.009a4.481,4.481,0,0,0,.069.667,4.093,4.093,0,0,0,.127.515,3.194,3.194,0,0,0,.443.9,3.182,3.182,0,0,0,.692.69,4.079,4.079,0,0,0,.494.313l-.059-.061a3.734,3.734,0,0,1-.841-1.323A3.636,3.636,0,0,1,4.7-20.412ZM6.68-18.353A3.319,3.319,0,0,0,6.5-19.648a3.223,3.223,0,0,0-.491-.871,4.326,4.326,0,0,0-.843-.816L5.16-21.34l0,.009a4.484,4.484,0,0,0-.121.659,4.1,4.1,0,0,0-.023.53,3.2,3.2,0,0,0,.172.988,3.2,3.2,0,0,0,.485.877,4.079,4.079,0,0,0,.334.383q.1.1.212.2v-.02c0-.027,0-.093,0-.093-.1-.245-.187-.493-.273-.743s-.168-.513-.241-.774-.141-.524-.19-.793h0c.143.234.268.475.386.719s.229.49.336.738l.07.168.131.043C6.516-18.421,6.6-18.388,6.68-18.353ZM35.893-18c0,.078,0,.156-.01.234v.008a2.106,2.106,0,0,0,.531-.639,2.264,2.264,0,0,0,.236-.861q.008-.1.009-.2c0-.07,0-.14,0-.21v0h0c-.062.033-.123.068-.182.105s-.11.072-.164.111a2.227,2.227,0,0,0-.641.7,2.105,2.105,0,0,0-.233.678h0q.072-.027.146-.049l.021-.037c.094-.153.191-.3.3-.451a3.956,3.956,0,0,1,.344-.426h0a3.967,3.967,0,0,1-.159.524c-.057.158-.123.312-.191.464Zm-.8.069a2.508,2.508,0,0,1,.3-.976,2.229,2.229,0,0,1,.237-.341,2.539,2.539,0,0,0-.136-.453q-.037-.092-.08-.181c-.03-.063-.064-.125-.1-.186h0c-.041.057-.079.116-.116.176s-.067.114-.1.172a2.228,2.228,0,0,0-.262.91,2.221,2.221,0,0,0,.171.925l.084-.044ZM7.034-18.182a3.969,3.969,0,0,0,.129-.413,3.183,3.183,0,0,0,.1-.918,3.167,3.167,0,0,0-.212-.983,4.306,4.306,0,0,0-.583-1.046l-.016-.021-.006-.007,0,.008a4.482,4.482,0,0,0-.3.6l-.03.076a3.6,3.6,0,0,1,.716,1.223,3.743,3.743,0,0,1,.157,1.456Zm30.015-1.129c.069-.015.136-.032.2-.052a2.23,2.23,0,0,0,.926-.512,2.261,2.261,0,0,0,.5-.742q.039-.091.072-.184c.023-.066.044-.133.062-.2h0c-.069.012-.138.026-.206.042s-.127.033-.19.053a2.448,2.448,0,0,0-.559.254,2.144,2.144,0,0,1-.082.3,2.619,2.619,0,0,1-.642.971C37.1-19.361,37.076-19.336,37.049-19.311Zm-.343-.73.044-.125c.063-.168.129-.335.206-.5a3.951,3.951,0,0,1,.257-.483h0a3.962,3.962,0,0,1-.057.544c-.028.179-.067.354-.108.529-.028.11-.057.22-.089.328,0,.02,0,.04,0,.06v.019a2.218,2.218,0,0,0,.539-.883,2.257,2.257,0,0,0,.068-.89c-.007-.065-.016-.131-.028-.2s-.027-.138-.044-.206v0h0c-.055.044-.108.09-.159.138s-.095.091-.14.139a2.231,2.231,0,0,0-.5.805,2.133,2.133,0,0,0-.1.764l.1-.046Zm-.4.214a2.515,2.515,0,0,1,.1-1.031,2.235,2.235,0,0,1,.168-.379,2.536,2.536,0,0,0-.22-.419q-.053-.083-.113-.162t-.132-.164h0c-.029.064-.056.129-.08.195s-.044.124-.062.187a2.227,2.227,0,0,0-.085.943,2.227,2.227,0,0,0,.346.88h0ZM11.268-32.549a8.492,8.492,0,0,0,3.1,11.6l-.019-.025a11.116,11.116,0,0,1,2.207-15.569A8.494,8.494,0,0,0,11.268-32.549ZM28.146-20.971l-.019.025a8.492,8.492,0,0,0,3.1-11.6,8.494,8.494,0,0,0-5.293-3.99A11.116,11.116,0,0,1,28.146-20.971ZM5.158-21.719c.063.039.174.118.169.114a3.439,3.439,0,0,0,.056-1.587,3.225,3.225,0,0,0-.345-.881A4.32,4.32,0,0,0,4.324-25l-.019-.019L4.3-25.027l0,.008a4.483,4.483,0,0,0-.213.636,4.084,4.084,0,0,0-.1.521,3.2,3.2,0,0,0,.031,1,3.2,3.2,0,0,0,.357.937,4.085,4.085,0,0,0,.291.444q.076.1.159.2l0-.013.015-.063,0-.016c-.064-.259-.117-.521-.168-.783s-.094-.532-.129-.8-.066-.538-.077-.812h0c.108.252.2.508.281.766s.158.517.229.778c.041.156.08.312.117.469ZM3.716-24.173a4.47,4.47,0,0,0-.652-.432l-.023-.012-.008,0v.009a4.483,4.483,0,0,0-.024.692,4.1,4.1,0,0,0,.053.505,3.182,3.182,0,0,0,.326.978,3.2,3.2,0,0,0,.575.755,4.079,4.079,0,0,0,.445.379l-.05-.069A3.734,3.734,0,0,1,3.71-22.8a3.639,3.639,0,0,1,.006-1.374ZM37.9-21.467q.1-.035.2-.077a2.229,2.229,0,0,0,.855-.623,2.259,2.259,0,0,0,.4-.8q.027-.095.048-.192c.015-.069.027-.138.037-.207v0h0c-.067.02-.134.043-.2.068s-.122.049-.182.076a2.442,2.442,0,0,0-.523.322,2.153,2.153,0,0,1-.045.305,2.619,2.619,0,0,1-.515,1.043C37.951-21.522,37.928-21.494,37.9-21.467Zm-32.29,0a4.059,4.059,0,0,0,.281-.558,3.181,3.181,0,0,0,.228-.895,3.171,3.171,0,0,0-.072-1,4.307,4.307,0,0,0-.43-1.117l-.013-.023,0-.008-.006.007a4.486,4.486,0,0,0-.382.55l-.041.071a3.6,3.6,0,0,1,.536,1.312,3.776,3.776,0,0,1-.064,1.528Q5.633-21.539,5.614-21.471Zm31.48-.431a2.509,2.509,0,0,1-.023-1.018,2.229,2.229,0,0,1,.119-.4,2.533,2.533,0,0,0-.27-.389q-.063-.076-.132-.147T36.638-24h0v0c-.021.067-.039.135-.055.2s-.028.129-.039.194a2.226,2.226,0,0,0,.034.946,2.224,2.224,0,0,0,.448.824l.037-.037Zm.94-2.132h0c-.049.051-.1.1-.14.157s-.083.1-.121.156a2.228,2.228,0,0,0-.394.861,2.1,2.1,0,0,0-.009.722q.054-.041.11-.079l.01-.006.012-.055c.042-.175.086-.349.142-.521a3.954,3.954,0,0,1,.195-.512h0a3.987,3.987,0,0,1,.012.548c-.006.181-.022.36-.041.538-.009.074-.019.147-.029.22.008.028.016.057.023.085l.014.055a2.18,2.18,0,0,0,.385-.889,2.263,2.263,0,0,0-.044-.892q-.023-.1-.052-.19c-.021-.067-.044-.133-.07-.2h0Zm.58.433q.092-.051.18-.108a2.231,2.231,0,0,0,.741-.755,2.259,2.259,0,0,0,.264-.853q.011-.1.016-.2c0-.07,0-.14,0-.21v0h0c-.063.031-.125.064-.186.1s-.113.068-.167.105a2.442,2.442,0,0,0-.464.4,2.148,2.148,0,0,1,.006.309,2.622,2.622,0,0,1-.338,1.113Zm-1.423-.268c.057.07.111.144.162.219l.018-.031C37.309-23.74,37.249-23.8,37.192-23.868Zm.905-.643c.01-.12.023-.24.041-.36a3.954,3.954,0,0,1,.108-.537h0a3.937,3.937,0,0,1,.1.538c.024.179.037.359.047.538.006.137.01.274.008.411l.011.036.006-.011a2.23,2.23,0,0,0,.275-1.021,2.263,2.263,0,0,0-.189-.873q-.038-.091-.083-.179c-.031-.063-.065-.124-.1-.184v0h0q-.059.087-.113.178t-.094.174a2.229,2.229,0,0,0-.247.914,2,2,0,0,0,.056.526Zm-.425.412a2.408,2.408,0,0,1-.117-.8,2.24,2.24,0,0,1,.053-.412,2.529,2.529,0,0,0-.33-.339q-.075-.064-.154-.123c-.056-.042-.114-.082-.173-.12h0v0c-.01.07-.017.139-.021.21s-.007.131-.006.2a2.227,2.227,0,0,0,.188.928,2.124,2.124,0,0,0,.44.613l.006-.008.041-.053C37.621-24.037,37.646-24.068,37.672-24.1ZM4.936-24.945q.066-.078.128-.16a3.357,3.357,0,0,0,.626-1.278,3.225,3.225,0,0,0,.066-.944,4.315,4.315,0,0,0-.245-1.146L5.5-28.5l0-.008-.007.006a4.493,4.493,0,0,0-.465.483l-.052.064a3.6,3.6,0,0,1,.322,1.38,3.778,3.778,0,0,1-.305,1.5Q4.964-25.01,4.936-24.945ZM3.49-27.914a4.473,4.473,0,0,0-.575-.53l-.021-.016-.007-.005,0,.009a4.5,4.5,0,0,0-.131.657,4.094,4.094,0,0,0-.031.53,3.2,3.2,0,0,0,.158.99,3.191,3.191,0,0,0,.472.884,4.087,4.087,0,0,0,.344.4l.018.018-.037-.073a3.733,3.733,0,0,1-.412-1.512,3.638,3.638,0,0,1,.224-1.355ZM4.663-25.1a4.066,4.066,0,0,0,.205-.579,3.183,3.183,0,0,0,.115-.916,3.17,3.17,0,0,0-.2-.986,4.073,4.073,0,0,0-.215-.488,4.478,4.478,0,0,0-.366-.588L4.2-28.666l0,.008a4.482,4.482,0,0,0-.32.614,4.056,4.056,0,0,0-.177.5,3.171,3.171,0,0,0-.12,1,3.211,3.211,0,0,0,.2.953A4.07,4.07,0,0,0,4-25.112L4-25.128c.031-.073.063-.145.1-.215l.006-.012.027-.052c-.006-.121-.01-.242-.014-.363-.006-.27-.009-.54,0-.811s.02-.542.053-.814h0c.067.266.115.533.156.8s.074.536.1.8c.016.166.031.332.043.5.038.036.076.073.112.111ZM38.9-25.776q.083-.065.16-.135a2.229,2.229,0,0,0,.611-.864,2.262,2.262,0,0,0,.124-.884q0-.1-.016-.2c-.008-.07-.019-.139-.031-.208v0h0c-.057.041-.113.083-.167.128s-.1.085-.148.131a2.441,2.441,0,0,0-.393.472,2.145,2.145,0,0,1,.056.3,2.622,2.622,0,0,1-.155,1.153Q38.917-25.827,38.9-25.776Zm-.99-.3a2.425,2.425,0,0,1-.264-.81,2.229,2.229,0,0,1-.014-.415,2.54,2.54,0,0,0-.38-.282q-.084-.051-.172-.1c-.062-.032-.126-.062-.19-.09h0v0c0,.07.006.14.012.21s.015.131.025.2a2.229,2.229,0,0,0,.334.886,2.147,2.147,0,0,0,.567.559q.033-.068.07-.135Zm.688-.23q.05.084.1.172a2.174,2.174,0,0,0,.077-.952,2.261,2.261,0,0,0-.326-.831q-.052-.084-.11-.164T38.2-28.25h0v0c-.03.064-.058.128-.083.193s-.045.124-.065.187a2.227,2.227,0,0,0-.1.941,2.011,2.011,0,0,0,.152.54l.138-.173c-.01-.131-.018-.261-.02-.393a3.936,3.936,0,0,1,.021-.547h0a3.96,3.96,0,0,1,.186.515c.052.173.094.348.133.523Q38.58-26.386,38.6-26.308Zm.324-1.673q.076-.073.146-.151a2.23,2.23,0,0,0,.518-.922,2.261,2.261,0,0,0,.032-.892q-.015-.1-.036-.194c-.015-.069-.033-.136-.053-.2v0h0c-.053.046-.1.094-.153.144s-.091.1-.134.145a2.447,2.447,0,0,0-.342.51,2.146,2.146,0,0,1,.087.3,2.62,2.62,0,0,1-.035,1.163Q38.933-28.034,38.919-27.981Zm-1.061-.269a2.385,2.385,0,0,1-.3-.707,2.228,2.228,0,0,1-.056-.4v-.007a2.539,2.539,0,0,0-.407-.241q-.089-.042-.181-.079c-.065-.026-.131-.049-.2-.07h0v0c.009.07.02.139.034.208s.028.129.046.192a2.229,2.229,0,0,0,.424.846,2.113,2.113,0,0,0,.565.465l.013-.038c.019-.053.039-.106.061-.158Zm.111-2.119c-.023.066-.044.133-.062.2s-.033.128-.046.192a2.226,2.226,0,0,0,0,.947,1.973,1.973,0,0,0,.164.441l.108-.178.049.047c-.022-.121-.041-.242-.056-.364a3.975,3.975,0,0,1-.036-.546h0a3.963,3.963,0,0,1,.238.493c.07.167.13.336.186.507.047.149.092.3.13.451l.008-.036a2.23,2.23,0,0,0,0-1.058,2.255,2.255,0,0,0-.411-.793q-.061-.078-.127-.152c-.047-.052-.1-.1-.146-.152h0ZM6.144-31.826s-.271.19-.413.269q-.111.062-.226.118a3.588,3.588,0,0,1-.01,1.393,3.778,3.778,0,0,1-.643,1.388q-.041.057-.084.113.082-.061.162-.126a3.357,3.357,0,0,0,.9-1.1,3.226,3.226,0,0,0,.282-.9A4.315,4.315,0,0,0,6.144-31.826ZM4.528-28.745l0,0a3.46,3.46,0,0,0,.68-1.474,3.235,3.235,0,0,0,.015-.972,4.332,4.332,0,0,0-.3-1.106l-.01-.024,0-.008-.006.006a4.482,4.482,0,0,0-.44.506,4.086,4.086,0,0,0-.289.445,3.2,3.2,0,0,0-.354.938,3.194,3.194,0,0,0-.028,1,4.087,4.087,0,0,0,.1.521q.014.053.029.106c.042-.068.086-.134.133-.2l.011-.015c.03-.171.064-.341.1-.511.057-.264.116-.527.186-.789s.145-.522.239-.78h0c0,.274-.011.545-.033.815s-.052.538-.086.806c-.026.184-.052.367-.083.55.041.052.081.106.119.161Zm-.941-3.7,0,.007a4.5,4.5,0,0,0-.279.609,4.094,4.094,0,0,0-.152.508,3.2,3.2,0,0,0-.075,1,3.2,3.2,0,0,0,.255.969,4.1,4.1,0,0,0,.242.472l.015.024q-.01-.041-.02-.082a3.7,3.7,0,0,1-.039-1.628,3.661,3.661,0,0,1,.518-1.205,4.44,4.44,0,0,0-.454-.668l-.006-.007Zm34,2.269a2.383,2.383,0,0,1-.367-.649,2.234,2.234,0,0,1-.1-.395v-.007a2.527,2.527,0,0,0-.433-.192c-.062-.021-.125-.04-.189-.057s-.136-.033-.205-.047h0v0c.017.068.036.136.058.2s.043.124.068.185a2.23,2.23,0,0,0,.52.791,2.1,2.1,0,0,0,.607.392q.018-.109.044-.215Zm1.1.161q.066-.081.127-.167a2.231,2.231,0,0,0,.406-.977,2.261,2.261,0,0,0-.073-.89q-.026-.1-.059-.189c-.023-.066-.049-.132-.076-.2v0h0c-.047.052-.092.106-.135.161s-.079.105-.116.16a2.448,2.448,0,0,0-.28.546,2.169,2.169,0,0,1,.121.284,2.621,2.621,0,0,1,.1,1.159C38.7-30.084,38.69-30.048,38.685-30.012Zm-.278-.347a2.153,2.153,0,0,0-.137-.9,2.265,2.265,0,0,0-.5-.739q-.069-.07-.144-.135c-.053-.047-.107-.091-.163-.134h0v0c-.015.069-.028.137-.039.207s-.017.13-.022.2a2.226,2.226,0,0,0,.111.94,1.959,1.959,0,0,0,.19.381v0q.024-.063.052-.125l.006-.013.088-.187-.029.061c-.018-.066-.036-.132-.052-.2a3.954,3.954,0,0,1-.1-.538h0a3.95,3.95,0,0,1,.295.462c.089.157.168.319.244.481l.03.068q.077.078.148.161ZM37.112-32.1a2.337,2.337,0,0,1-.39-.54,2.223,2.223,0,0,1-.153-.378l0-.007a2.525,2.525,0,0,0-.454-.135c-.064-.013-.129-.024-.195-.032s-.14-.016-.21-.02h0v0q.039.1.083.193t.091.175a2.228,2.228,0,0,0,.617.718,2.07,2.07,0,0,0,.586.291v0q.006-.093.017-.186Q37.106-32.06,37.112-32.1ZM6.205-32.261a3.05,3.05,0,0,0,.452-.475,3.168,3.168,0,0,0,.465-.891,4.3,4.3,0,0,0,.22-1.177l0-.035-.009,0a4.477,4.477,0,0,0-.614.268l-.072.039a3.6,3.6,0,0,1-.232,1.4,3.719,3.719,0,0,1-.773,1.182l.022-.014q.1-.066.208-.127C5.975-32.148,6.205-32.261,6.205-32.261Zm32.074.239c.037-.059.072-.12.1-.182a2.229,2.229,0,0,0,.278-1.02,2.26,2.26,0,0,0-.186-.873q-.038-.091-.082-.18c-.031-.063-.065-.124-.1-.185h0c-.04.058-.078.117-.114.177s-.065.115-.095.173a2.443,2.443,0,0,0-.208.577,2.142,2.142,0,0,1,.156.266,2.621,2.621,0,0,1,.249,1.137C38.281-32.094,38.28-32.058,38.279-32.022ZM5.341-32.085a4.019,4.019,0,0,0,.339-.385,3.185,3.185,0,0,0,.457-.8,3.171,3.171,0,0,0,.2-.986,4.3,4.3,0,0,0-.118-1.191l-.006-.026,0-.009-.007.005a4.485,4.485,0,0,0-.515.429,4.082,4.082,0,0,0-.356.393,3.182,3.182,0,0,0-.509.9,3.208,3.208,0,0,0-.178.958q-.006.148,0,.3c.062-.063.127-.125.193-.184l.177-.148.006.011.005-.013c.1-.251.2-.5.31-.749s.226-.493.361-.732h0c-.04.271-.1.536-.162.8s-.137.523-.213.782c-.033.108-.067.215-.1.322l.02.049Q5.294-32.227,5.341-32.085Zm32.624-.165a2.2,2.2,0,0,0-.256-.961,2.262,2.262,0,0,0-.591-.669c-.052-.041-.105-.079-.16-.116s-.118-.076-.179-.112h0a0,0,0,0,0,0,0c-.006.07-.011.14-.012.21s0,.132,0,.2a2.228,2.228,0,0,0,.23.918,1.917,1.917,0,0,0,.193.3l.092-.28.019.011c-.02-.049-.04-.1-.059-.148a3.935,3.935,0,0,1-.167-.521h0a3.938,3.938,0,0,1,.351.42c.108.145.208.295.3.446.04.065.079.13.118.2l.027.024C37.906-32.306,37.936-32.279,37.965-32.25Zm-32.7-2.811a4.47,4.47,0,0,0-.328-.71l-.013-.023,0-.008-.006.007a4.5,4.5,0,0,0-.384.577,4.089,4.089,0,0,0-.22.458,3.194,3.194,0,0,0-.234.975,3.2,3.2,0,0,0,.1,1,4.1,4.1,0,0,0,.163.5l.01.026s0-.052-.007-.084a3.705,3.705,0,0,1,.222-1.614A3.662,3.662,0,0,1,5.263-35.061Zm31.19,1.2a2.4,2.4,0,0,1-.6-.524,2.239,2.239,0,0,1-.225-.341s-.117-.025-.174-.032c-.08-.009-.16-.014-.24-.016h-.09c-.056,0-.112,0-.168.007s-.14.012-.209.022h0a2.821,2.821,0,0,0,.207.283,2.23,2.23,0,0,0,.835.649,2.148,2.148,0,0,0,.67.156c0-.051,0-.186,0-.2Zm.5-2.426c-.014.039-.147.717-.148.8a2.157,2.157,0,0,1,.206.23,2.621,2.621,0,0,1,.469,1.065q.011.053.021.107c.025-.065.047-.132.066-.2a2.228,2.228,0,0,0,.071-1.055,2.26,2.26,0,0,0-.355-.819q-.055-.082-.116-.16t-.135-.161h0v0C37.005-36.423,36.98-36.357,36.957-36.291Zm.2,2.05a2.2,2.2,0,0,0-.444-.9A2.262,2.262,0,0,0,36-35.685c-.059-.029-.119-.057-.18-.082s-.131-.052-.2-.074h0v0c.008.07.018.139.03.208s.025.129.042.193a2.23,2.23,0,0,0,.407.854,2.009,2.009,0,0,0,.379.358l.039-.225c-.069-.1-.137-.195-.2-.3a3.941,3.941,0,0,1-.267-.478h0a3.961,3.961,0,0,1,.427.343c.135.12.262.248.386.377.056.061.113.122.168.184Q37.092-34.283,37.153-34.241ZM6.533-35.463c.029.127.079.378.079.378a3.361,3.361,0,0,0,1.005-1.007,3.228,3.228,0,0,0,.367-.872,4.322,4.322,0,0,0,.138-1.164v-.036l-.008,0a4.5,4.5,0,0,0-.6.307,4.09,4.09,0,0,0-.434.306,3.2,3.2,0,0,0-.677.74,3.2,3.2,0,0,0-.4.92q-.026.1-.046.195h0c.073-.053.147-.1.223-.153l.2-.118.029.085c.142-.211.287-.421.441-.626s.328-.431.511-.636h0c-.1.256-.213.5-.333.745s-.248.481-.379.717l-.123.213Zm1.116.213,0,.093a2.9,2.9,0,0,0,.373-.284,3.251,3.251,0,0,0,.623-.778,4.334,4.334,0,0,0,.439-1.06l0-.009H9.082a4.48,4.48,0,0,0-.68.134l-.057.016a3.6,3.6,0,0,1-.531,1.314,3.506,3.506,0,0,1-.656.718c.095-.035.191-.067.288-.093Zm27.7-.266a2.345,2.345,0,0,1-.515-.428,2.247,2.247,0,0,1-.245-.334,2.518,2.518,0,0,0-.286-.022h-.064a2.969,2.969,0,0,0-.528.053h0a2.87,2.87,0,0,0,.221.272,2.229,2.229,0,0,0,.867.606,2.117,2.117,0,0,0,.617.119v0C35.4-35.33,35.353-35.516,35.353-35.516ZM7.107-37.957q-.009-.069-.019-.137a4.493,4.493,0,0,0-.154-.652l0-.009-.007.006a4.322,4.322,0,0,0-.8.857,3.209,3.209,0,0,0-.455.922,3.2,3.2,0,0,0-.122.995,4.1,4.1,0,0,0,.049.528l0,.028v0q.005-.04.011-.081a3.734,3.734,0,0,1,.533-1.474A3.639,3.639,0,0,1,7.107-37.957Zm29.5,1.719a2.07,2.07,0,0,0-.038-.753,2.262,2.262,0,0,0-.4-.8q-.059-.079-.124-.154c-.046-.053-.094-.1-.143-.154h0v0c-.024.066-.046.132-.066.2s-.035.127-.049.191a2.438,2.438,0,0,0-.058.611l0,0a2.148,2.148,0,0,1,.212.215,2.622,2.622,0,0,1,.522,1.04c.007.028.015.057.021.086l.009.006c0-.013.013-.049.013-.049A2.935,2.935,0,0,1,36.612-36.238Zm-2.083-1.143c.011.069.025.138.041.207s.032.128.051.191a2.231,2.231,0,0,0,.45.833,1.907,1.907,0,0,0,.226.214v0c0-.028,0-.306,0-.306l.051.011-.065-.089a3.985,3.985,0,0,1-.291-.464h0a3.952,3.952,0,0,1,.444.32c.141.114.274.234.4.357l.029.029.125.052.111.052a2.137,2.137,0,0,0-.451-.763,2.26,2.26,0,0,0-.738-.5q-.09-.04-.184-.073c-.066-.024-.133-.045-.2-.064h0Zm-1.39-.334c-.068,0-.136,0-.2.01-.088.007-.175.019-.262.034h0a2.821,2.821,0,0,0,.216.276,2.232,2.232,0,0,0,.857.62,2.144,2.144,0,0,0,.667.132c-.033-.08-.062-.162-.087-.245l0-.01a2.359,2.359,0,0,1-.53-.451,2.232,2.232,0,0,1-.236-.333l0-.006A1.917,1.917,0,0,0,33.139-37.715Zm-9.653.563a1.6,1.6,0,0,1-2.236-.39,1.6,1.6,0,0,1-2.236.39,1.6,1.6,0,0,1-.567-1.907,1.515,1.515,0,0,0,1.771,1.209,1.515,1.515,0,0,0,1.032-.731,1.515,1.515,0,0,0,1.032.731,1.516,1.516,0,0,0,1.771-1.209A1.6,1.6,0,0,1,23.486-37.152Zm12.1-.968a1.879,1.879,0,0,0-.04-.247,2.264,2.264,0,0,0-.383-.807q-.058-.08-.121-.156c-.045-.054-.092-.106-.141-.157h0v0c-.025.066-.049.132-.07.2s-.037.127-.052.191a2.443,2.443,0,0,0-.069.61,2.175,2.175,0,0,1,.213.223,2.557,2.557,0,0,1,.468.912l.037.023a2.937,2.937,0,0,1,.093-.572C35.537-37.971,35.584-38.12,35.584-38.12Zm-2.077-.671c.01.069.022.139.037.207s.03.128.048.191a2.228,2.228,0,0,0,.436.84,1.886,1.886,0,0,0,.188.189q-.014-.094-.021-.188l-.012-.22.025,0a3.777,3.777,0,0,1-.253-.424h0a3.966,3.966,0,0,1,.439.328c.068.057.134.115.2.175l.02.006q.141.04.278.092l.092.036a2.032,2.032,0,0,0-.365-.578,2.262,2.262,0,0,0-.729-.515q-.09-.041-.182-.076c-.066-.025-.132-.047-.2-.067h0ZM9.281-37.615h.008a3,3,0,0,0,.448-.218,3.16,3.16,0,0,0,.782-.675,4.066,4.066,0,0,0,.317-.43,4.48,4.48,0,0,0,.328-.61l0-.008c-.051,0-.1,0-.154,0h-.067c-.082,0-.163,0-.245.009q-.148.01-.3.029A3.6,3.6,0,0,1,9.681-38.3a3.67,3.67,0,0,1-1.067.779l.017,0q.146-.03.294-.051c.114-.016.228-.029.343-.034Zm-.854-.166q.167-.08.326-.175a3.2,3.2,0,0,0,.7-.56,3.157,3.157,0,0,0,.562-.867,4.077,4.077,0,0,0,.184-.5,4.477,4.477,0,0,0,.144-.678v-.009l-.009,0a4.492,4.492,0,0,0-.636.212,4.088,4.088,0,0,0-.475.236,3.2,3.2,0,0,0-.782.628,3.186,3.186,0,0,0-.523.825q-.067.151-.122.307L7.88-38.4c.1-.048.211-.091.32-.129l.012,0,.08-.026c.178-.193.358-.383.545-.567s.391-.376.6-.55h0c-.136.238-.287.464-.443.685s-.318.437-.484.651l-.083.1c0,.054,0,.108,0,.162Q8.435-37.927,8.427-37.781Zm24.916-.364a2.477,2.477,0,0,1-.74-.6,2.242,2.242,0,0,1-.23-.345q-.085-.015-.171-.025c-.08-.009-.16-.013-.24-.015H31.9c-.057,0-.114,0-.171.006-.079.005-.158.014-.236.025h0a2.841,2.841,0,0,0,.208.282,2.231,2.231,0,0,0,.839.644,2.113,2.113,0,0,0,.612.147h.035c.068,0,.135,0,.2.008Q33.365-38.082,33.343-38.146ZM9.31-40.522a4.467,4.467,0,0,0-.047-.78l0-.026v-.009l-.008,0a4.478,4.478,0,0,0-.55.383,4.087,4.087,0,0,0-.389.36,3.182,3.182,0,0,0-.585.849,3.208,3.208,0,0,0-.261.939,4.087,4.087,0,0,0-.032.558v0l.024-.078a3.705,3.705,0,0,1,.795-1.422A3.666,3.666,0,0,1,9.31-40.522Zm24.44,1.48a1.971,1.971,0,0,0-.3-.467,2.265,2.265,0,0,0-.715-.535q-.089-.044-.18-.081c-.065-.027-.131-.051-.2-.073h0v0c.008.07.018.139.031.208s.026.129.043.193a2.229,2.229,0,0,0,.413.852,2,2,0,0,0,.379.354,2.918,2.918,0,0,1-.046-.343h0q-.06-.086-.117-.175a3.965,3.965,0,0,1-.27-.476h0a3.949,3.949,0,0,1,.43.34l.1.086.054.01c.077.015.152.035.227.057C33.649-39.076,33.7-39.059,33.75-39.042Zm.6.284a2.175,2.175,0,0,0,.038-.958,2.257,2.257,0,0,0-.36-.817q-.056-.082-.117-.159c-.043-.055-.089-.109-.136-.161h0c-.027.065-.052.13-.075.2s-.04.125-.057.189a2.44,2.44,0,0,0-.086.608s.145.149.207.229a2.469,2.469,0,0,1,.395.762Q34.251-38.817,34.346-38.758Zm-2.168-.8a2.43,2.43,0,0,1-.7-.5,2.231,2.231,0,0,1-.253-.32l0-.006h0c-.067-.007-.135-.011-.2-.012h-.049a2.907,2.907,0,0,0-.622.073h0a2.838,2.838,0,0,0,.23.265,2.232,2.232,0,0,0,.887.576q.087.028.175.048c.076-.007.153-.01.229-.012h.1c.085,0,.17.006.254.015q-.021-.057-.04-.115Zm.418-.891a1.966,1.966,0,0,0-.329-.435,2.263,2.263,0,0,0-.755-.477q-.092-.036-.186-.067c-.067-.022-.135-.04-.2-.057h0v0q.02.1.047.205t.058.189a2.231,2.231,0,0,0,.478.817,1.978,1.978,0,0,0,.371.3v-.008a3,3,0,0,1-.037-.3v-.007q-.066-.081-.13-.164A3.984,3.984,0,0,1,31.6-40.9h0a3.93,3.93,0,0,1,.455.305l.008.006.168.036c.076.017.151.039.225.063Q32.527-40.471,32.6-40.445Zm.608.31a2.21,2.21,0,0,0-.025-1.025,2.261,2.261,0,0,0-.423-.786q-.062-.077-.129-.149c-.048-.052-.1-.1-.149-.149h0v0c-.022.067-.042.134-.059.2s-.03.128-.042.193a2.441,2.441,0,0,0-.038.613,2.159,2.159,0,0,1,.224.212,2.5,2.5,0,0,1,.477.787Q33.122-40.189,33.2-40.135Zm-22.529-.621c-.006.108-.019.216-.035.323q-.01.063-.021.126a1.93,1.93,0,0,0,.326-.324,2.269,2.269,0,0,0,.389-.806c.017-.064.032-.128.045-.193s.025-.139.034-.208v0h0q-.1.032-.2.071t-.182.079a2.237,2.237,0,0,0-.76.569,1.936,1.936,0,0,0-.206.3l.009,0c.126-.037.253-.069.382-.094l.059-.01a3.921,3.921,0,0,1,.4-.345h0a3.916,3.916,0,0,1-.244.473Z" transform="translate(2.7 48)" fill="#1650e9" fill-rule="evenodd"/>
</svg>
