<svg id="Bank_Shahr_Mono" data-name="Bank / Shahr / Mono" xmlns="http://www.w3.org/2000/svg" width="48" height="48" viewBox="0 0 48 48">
  <rect id="Boundary" width="48" height="48" fill="none"/>
  <path id="Shape" d="M.1,48h0L0,40.225a59.629,59.629,0,0,0,6.028-.778A43.262,43.262,0,0,0,17.5,35.89c.063-.032,6.3-3.24,6.3-5.442a1.178,1.178,0,0,0-.732-1.222,10.955,10.955,0,0,0-4.467-.8c-.318,0-.535.009-.593.012l-.067,7.072c-.378.017-.749.024-1.1.024a16.274,16.274,0,0,1-7.513-1.571,7.463,7.463,0,0,1-4.12-5.651,9.45,9.45,0,0,1,2.308-7.695,21.919,21.919,0,0,1,6.563-5.094A57.871,57.871,0,0,1,35.272,8.944l.632-.087.1,7.774a58.1,58.1,0,0,0-6.028.778A43.251,43.251,0,0,0,18.5,20.968c-.063.032-6.3,3.22-6.3,5.441a1.179,1.179,0,0,0,.733,1.222,10.946,10.946,0,0,0,4.464.8c.32,0,.537-.01.6-.012l.067-7.072c.378-.017.749-.024,1.1-.024a16.275,16.275,0,0,1,7.515,1.571A7.466,7.466,0,0,1,30.8,28.542a9.45,9.45,0,0,1-2.31,7.695,21.944,21.944,0,0,1-6.563,5.094A57.852,57.852,0,0,1,.717,47.915L.1,48Zm8.5-31.532a4.476,4.476,0,1,1,4.428-4.475A4.457,4.457,0,0,1,8.593,16.468Zm9.445-4.58a4.476,4.476,0,1,1,4.426-4.476A4.458,4.458,0,0,1,18.038,11.888ZM28.344,8.951a4.476,4.476,0,1,1,4.43-4.476A4.456,4.456,0,0,1,28.344,8.951Z" transform="translate(6)" fill="#1650e9"/>
</svg>
