<svg id="Gateway_Shaparak_Mono" data-name="Gateway / Shaparak / Mono" xmlns="http://www.w3.org/2000/svg" width="48" height="48" viewBox="0 0 48 48">
  <rect id="Boundary" width="48" height="48" fill="none"/>
  <path id="Shape" d="M24.519,31.654h0l-.065-.065-.1-.1-.1-.1c-.032-.032-.032-.032-.032-.065a1.344,1.344,0,0,1,.13-.259L24.4,31l0-.005c.064-.11.091-.155.118-.155a.141.141,0,0,1,.1.064l.028.033.031.032a.441.441,0,0,1,.1.228.6.6,0,0,1-.094.284l0,.007a1.02,1.02,0,0,0-.091.1l-.005.006,0,0c-.029.034-.043.051-.062.051Zm12.876-.1a.2.2,0,0,1-.131-.065.728.728,0,0,0-.1-.079l-.011-.008a.363.363,0,0,1-.055-.042c-.032,0-.032-.031-.032-.065a.321.321,0,0,1,.037-.089l0-.007.012-.023.008-.017.008-.016c.018-.038.04-.084.061-.139s.05-.086.069-.122l.006-.012.009-.016c.038-.07.059-.109.079-.109a.178.178,0,0,1,.162.1c.017.026.034.049.05.071a.3.3,0,0,1,.079.157.7.7,0,0,1-.1.292C37.49,31.5,37.426,31.557,37.4,31.557Zm-13.168-.584h0a.811.811,0,0,1-.16-.129l-.162-.162a1.3,1.3,0,0,1,.13-.292c.023-.039.042-.073.059-.1l.01-.018,0-.005.013-.025,0-.006c.034-.064.054-.1.074-.1a.3.3,0,0,1,.162.1.415.415,0,0,1,.158.184h.007l.013-.022,0-.005.011-.017q.015-.027.035-.059c.029-.048.051-.086.065-.113l.011-.016.007-.011a.037.037,0,0,0,0-.008l.005-.008.008-.013c.045-.07.069-.106.094-.106a.367.367,0,0,1,.194.1.283.283,0,0,1,.13.228.421.421,0,0,1-.062.187l-.026.056,0,0L25,30.631l-.006.013-.01.018-.009.019c-.065.1-.13.162-.162.162s-.068-.035-.131-.1a1.238,1.238,0,0,1-.194-.162C24.4,30.823,24.3,30.972,24.227,30.973ZM26.3,30.94a.755.755,0,0,1-.648-.324,1.226,1.226,0,0,1-.2-.714,1.431,1.431,0,0,1,.065-.486,2.592,2.592,0,0,1,.163-.519c.031-.076.061-.146.082-.193l.01-.023a1.744,1.744,0,0,0,.07-.173c.022,0,.03-.017.041-.044s.014-.034.023-.053a.418.418,0,0,0,.061-.114l0-.008c.011-.026.022-.051.032-.073a.164.164,0,0,0,.032-.065.164.164,0,0,1,.032-.065.17.17,0,0,0,.032-.049.17.17,0,0,1,.032-.049l.018-.04,0-.006c.015-.036.022-.051.044-.051s.032.031.032.065a.2.2,0,0,1-.032.13l-.044.106-.057.135-.041.1-.024.059-.042.1c-.049.115-.085.2-.116.281a1.424,1.424,0,0,0-.162.617.718.718,0,0,0,.259.583.763.763,0,0,0,.486.13,1.391,1.391,0,0,0,.908-.292.679.679,0,0,0,.325-.551c0-.035-.07-.1-.227-.163-.175-.1-.26-.2-.26-.292a.981.981,0,0,1,.062-.251l0-.008a1.178,1.178,0,0,1,.13-.292l.1-.162a1.8,1.8,0,0,0,.13-.227.44.44,0,0,0,.1-.227v-.162l.032-.357a1.185,1.185,0,0,0,.031-.189V27a1.245,1.245,0,0,1,.031-.182c.008-.028.014-.056.019-.077l0-.014,0-.008,0-.01v-.006l0-.009,0-.01v-.011a.83.83,0,0,1,.032-.147c.007-.028.013-.051.017-.074l0-.009,0-.019,0-.023a.47.47,0,0,1,.038-.135,1.519,1.519,0,0,1,.162-.324h.032c.022.022.015.04.007.064l0,.005,0,.008v.005a.044.044,0,0,0,0,.014c-.013.086-.024.158-.035.22l0,.011a1.443,1.443,0,0,0-.028.222q-.019.167-.035.292l0,.023v.006l0,.019,0,.034,0,.018v.01l0,.014,0,.014,0,.017v.018a1,1,0,0,0-.009.118.657.657,0,0,0,.162.487.481.481,0,0,0,.293.1.463.463,0,0,0,.389-.194.469.469,0,0,1,.194-.228l.01,0a.525.525,0,0,1,.152-.06.3.3,0,0,0,.139.024.132.132,0,0,0,.089-.024,1.18,1.18,0,0,0,.13-.162.114.114,0,0,1,.032-.065c.032,0,.032,0,.032.032v.1a.338.338,0,0,1-.028.092l0,.006q-.016.042-.035.1a1.055,1.055,0,0,1-.13.26.294.294,0,0,1-.228.1.2.2,0,0,0-.105-.024.3.3,0,0,0-.154.024c-.131.033-.23.167-.356.389a.541.541,0,0,1-.454.324.494.494,0,0,1-.389-.227.164.164,0,0,1-.032-.065.164.164,0,0,0-.032-.065c0,.032-.033.065-.065.1-.025.049-.05.094-.07.132a.45.45,0,0,0-.059.127c0,.034,0,.066.065.1a.716.716,0,0,1,.081.049.715.715,0,0,0,.081.049.451.451,0,0,1,.049.065l.008.012a.39.39,0,0,0,.04.053c.032.032.032.131.032.227a1.807,1.807,0,0,1-.05.383l-.014.071a4.27,4.27,0,0,1-.194.551,1.916,1.916,0,0,1-.649.811l-.01.006a1.317,1.317,0,0,1-.282.156l-.064.016A1.116,1.116,0,0,1,26.3,30.94Zm16.622-.073a.07.07,0,0,1-.049-.024.1.1,0,0,1,.032-.065,1.238,1.238,0,0,1,.194-.162c.088-.059.206-.147.319-.232l.037-.027a2.29,2.29,0,0,0,.422-.39,3.489,3.489,0,0,0,.378-.5l.011-.015c.027-.04.052-.081.079-.127l0-.005.005-.009c.02-.033.044-.074.074-.119l.015-.023a5.215,5.215,0,0,1,.374-.527,2.314,2.314,0,0,1,.486-.487,1.8,1.8,0,0,1,.374-.22l.08-.039c0-.032.031-.032.065-.032h.065a.636.636,0,0,1,.259-.032h.13c.066,0,.1-.035.163-.1a.3.3,0,0,1,.1-.162,1.216,1.216,0,0,0,.162-.2.423.423,0,0,1,.188-.144l.039-.018a.413.413,0,0,1,.194-.032.45.45,0,0,0,.049-.065.451.451,0,0,1,.049-.065.171.171,0,0,0,.026-.034c.012-.018.02-.031.04-.031s.014-.013.019-.013.014.037.014.11a.435.435,0,0,1-.032.162c-.1.224-.193.357-.26.357a.252.252,0,0,0-.065.016.252.252,0,0,1-.065.016.243.243,0,0,0-.13.065.378.378,0,0,0-.162.162,4.143,4.143,0,0,1-.39.584.4.4,0,0,1-.292.1h-.13a.413.413,0,0,0-.194.032.614.614,0,0,0-.249.093l-.008,0a1.529,1.529,0,0,0-.424.357c-.062.106-.14.211-.229.333l-.01.014-.012.015-.139.19-.011.013-.011.013c-.136.163-.3.365-.464.526a3.286,3.286,0,0,1-.389.357l-.293.194a1.052,1.052,0,0,0-.146.065,1.054,1.054,0,0,1-.146.065h-.032c-.032.032-.032.032-.065.032A.07.07,0,0,1,42.925,30.867Zm-13.46,0a.07.07,0,0,1-.049-.024.1.1,0,0,1,.032-.065,1.238,1.238,0,0,1,.194-.162c.088-.059.206-.147.319-.232L30,30.357a2.284,2.284,0,0,0,.422-.39,3.489,3.489,0,0,0,.378-.5l.011-.015c.025-.039.05-.079.079-.127l0-.005.005-.009c.02-.033.044-.074.074-.119l.015-.023a5.218,5.218,0,0,1,.374-.527,2.314,2.314,0,0,1,.486-.487,1.791,1.791,0,0,1,.356-.212l.006,0,.006,0,.086-.041c0-.032.031-.032.065-.032h.065a2.141,2.141,0,0,1,.455-.032c.132,0,.227,0,.259-.032l.065-.065a.247.247,0,0,0,.065-.162v-.616a1.277,1.277,0,0,1,.022-.232l0-.016a.46.46,0,0,0,.008-.076.886.886,0,0,1,.016-.147.888.888,0,0,0,.016-.146c0-.1,0-.162.032-.194a1.347,1.347,0,0,1,.089-.211l0-.006.005-.01a.6.6,0,0,1,.035-.061l0-.005,0-.007a.113.113,0,0,0,.022-.056l.194-.39c0-.013,0-.014.009-.014s.012,0,.024.014v.065l-.13.649c-.009.052-.017.1-.03.159L33.6,26.3l0,.02,0,.009a.717.717,0,0,0-.022.138.416.416,0,0,0-.032.2.976.976,0,0,0,.065.421.2.2,0,0,0,.2.1.293.293,0,0,0,.227-.1.249.249,0,0,0,.1-.227V26.3a.3.3,0,0,1,.009-.052v-.006a.793.793,0,0,0,.022-.168.48.48,0,0,1,.032-.227.881.881,0,0,1,.1-.26q.026-.053.046-.1l0-.008a.646.646,0,0,1,.112-.186.092.092,0,0,0,.062-.031l0,.031a.307.307,0,0,0,.032.13,2.208,2.208,0,0,0-.065.681,3.128,3.128,0,0,1-.1.778c-.011.034-.021.069-.033.116l0,.007,0,.009a2.591,2.591,0,0,1-.092.289l-.005.01a2.577,2.577,0,0,1-.254.445.4.4,0,0,1-.293.194.245.245,0,0,1-.227-.13c-.033,0-.056.023-.1.064l-.011.011,0,0,0,0,0,0,0,0-.005.005a1.238,1.238,0,0,1-.162.194,1.37,1.37,0,0,0-.095.11l-.005.007a1.367,1.367,0,0,1-.095.11l0,0,0,0,0,0,0,0,0,0,0,0,0,0a.5.5,0,0,1-.165.132.12.12,0,0,1-.1.032h-.356a.413.413,0,0,0-.194.032.6.6,0,0,0-.249.093l-.008,0a1.529,1.529,0,0,0-.424.357c-.073.119-.161.24-.245.353l-.144.2-.015.019c-.154.184-.314.375-.472.532a3.286,3.286,0,0,1-.389.357l-.292.194a.827.827,0,0,0-.132.059l-.014.006-.014.006a.827.827,0,0,1-.132.059h-.032c-.032.032-.032.032-.065.032A.07.07,0,0,1,29.465,30.867Zm-1.476-.057a.1.1,0,0,1-.065-.032.352.352,0,0,0-.055-.042l-.011-.007a.83.83,0,0,1-.1-.08l-.1-.1a.811.811,0,0,1,.13-.292l0-.008,0-.005c.035-.06.058-.1.077-.139l0-.007,0-.005c.031-.057.052-.1.071-.1a.293.293,0,0,1,.162.1l.005.005a.845.845,0,0,1,.157.19c.031-.046.055-.084.082-.13l0-.005.008-.014.005-.009c.021-.035.042-.068.064-.1.028-.085.062-.13.1-.13a.244.244,0,0,1,.094.056c.039.03.07.052.1.074a.281.281,0,0,1,.13.228.516.516,0,0,1-.13.292c-.065.1-.13.162-.162.162s-.065-.032-.13-.1c-.015-.015-.03-.032-.042-.047l-.012-.014,0-.005-.008-.01a.291.291,0,0,0-.1-.085C28.148,30.687,28.046,30.811,27.989,30.811ZM1.135,30.227a.363.363,0,0,1-.259-.1c-.109-.055-.162-.182-.162-.389a.291.291,0,0,1,.013-.083l0-.012,0-.005a.4.4,0,0,0,.015-.094.525.525,0,0,0,.028-.093l0-.006v-.005l0-.013,0-.009a.508.508,0,0,1,.03-.1c.013-.024.024-.044.035-.061a.153.153,0,0,0,.03-.069.716.716,0,0,1,.049-.081.714.714,0,0,0,.049-.081.113.113,0,0,0,.032-.065l.032-.032v.032a.116.116,0,0,1-.016.049.116.116,0,0,0-.016.049l-.1.2a.189.189,0,0,1-.011.059l0,.009,0,.014,0,.007,0,.007,0,.005,0,.006a.064.064,0,0,0,0,.021.413.413,0,0,0-.032.194.293.293,0,0,0,.1.227.614.614,0,0,0,.259.065.77.77,0,0,0,.112-.01l.012,0h.005l.011,0,.01,0,.01,0H1.37a.479.479,0,0,1,.09-.013.163.163,0,0,1,.065-.032.164.164,0,0,0,.065-.032c.008-.008.018-.016.028-.024.029-.023.045-.037.046-.053a.027.027,0,0,0-.009-.02l.13-.13a.412.412,0,0,0,.061-.114l0-.008c.011-.025.022-.05.032-.072a.245.245,0,0,0,.032-.13c.014,0,.023-.013.029-.037a.368.368,0,0,0,0-.06V28.9a.252.252,0,0,1,.016-.065.252.252,0,0,0,.016-.065l.005,0c.03-.03.06-.06.092-.06h.13a.69.69,0,0,1,.038-.065l.011-.016.006-.009a.8.8,0,0,0,.043-.072.291.291,0,0,0,.1-.092.372.372,0,0,1,.031-.037l.049-.049.049-.049c0-.032.031-.032.065-.032l.013,0h.006l.005,0,.007,0H2.64c.014,0,.02-.013.02-.041a.12.12,0,0,1,.032.1.454.454,0,0,1-.062.19l0,.006a.63.63,0,0,1-.065.137c-.011.018-.022.036-.032.058A.382.382,0,0,1,2.3,28.9a.25.25,0,0,1-.131.032H2.108c-.032,0-.032,0-.032.032v.065a.116.116,0,0,1-.016.049.116.116,0,0,0-.016.049.85.85,0,0,1-.052.221l0,.013,0,.01,0,.009,0,.007c-.006.014-.012.029-.017.043a.163.163,0,0,1-.009.023l-.005.014,0,.007,0,.006,0,.005-.005.014,0,.01-.007.016-.006.015a.987.987,0,0,1-.1.2,1.071,1.071,0,0,1-.259.324.526.526,0,0,1-.228.13A.413.413,0,0,1,1.135,30.227Zm2.92-.032a.293.293,0,0,1-.26-.13.52.52,0,0,1-.1-.356,1.606,1.606,0,0,1,.058-.332l0-.011,0-.014a.937.937,0,0,0,.093-.2,1.57,1.57,0,0,1,.069-.161.164.164,0,0,0,.032-.065.164.164,0,0,1,.032-.065.419.419,0,0,1,.064-.094l0,.062a.268.268,0,0,1-.023.08l-.005.014-.01.025-.009.023,0,.012L4,29a.12.12,0,0,1-.006.016l0,.012a.833.833,0,0,0-.1.292.413.413,0,0,0-.032.194.366.366,0,0,0,.1.259.25.25,0,0,0,.228.1.4.4,0,0,0,.095-.015l.005,0h.011a.37.37,0,0,1,.084-.014.2.2,0,0,0,.108-.034c.022-.014.037-.022.054-.031a.392.392,0,0,0,.162-.162l0-.01a.524.524,0,0,0,.06-.152l-.032-.032a.112.112,0,0,1-.051-.02l-.009-.005-.013-.008,0,0-.01-.006-.041-.023a.16.16,0,0,0-.035-.026c-.017-.011-.03-.019-.03-.039a.121.121,0,0,1-.032-.1,1.137,1.137,0,0,1,.1-.292.451.451,0,0,0,.049-.065.451.451,0,0,1,.049-.065l.1-.1.065-.065c.029,0,.032-.032.032-.032a.032.032,0,0,0-.032-.032.031.031,0,0,1-.032-.032l.065-.13a.138.138,0,0,1,.031-.1c.034-.033.034-.033.067-.033a.413.413,0,0,0,.194.032c.033.033.065.065.065.1a.127.127,0,0,1-.026.062l-.012.019-.007.014a.305.305,0,0,0-.02.035.449.449,0,0,0-.13.1.53.53,0,0,0-.044.031l-.024.016-.006,0c-.045.032-.066.046-.088.046a.712.712,0,0,0-.162.1l-.065.065c-.065.032-.065.032-.065.065s.012.027.03.038a.212.212,0,0,1,.035.027.17.17,0,0,0,.049.032.17.17,0,0,1,.049.032.16.16,0,0,0,.035.026c.017.011.03.019.03.039v.1a.838.838,0,0,1-.038.214l0,.015,0,.007,0,.006,0,.005v.005l0,.014,0,.014-.011.043c-.023.046-.041.087-.059.127a1.294,1.294,0,0,1-.1.2A.6.6,0,0,1,4.055,30.195Zm-3.47-.163h0C.55,30,.525,29.975.5,29.951l-.014-.012a1.033,1.033,0,0,1-.159-.167.62.62,0,0,1-.162-.324,1.227,1.227,0,0,1-.032-.357,1.321,1.321,0,0,1,.032-.356.858.858,0,0,1,.153-.311,1.011,1.011,0,0,1,.269-.274l.032.032a.543.543,0,0,0-.139.145l-.008.013-.005.007-.012.017-.014.02-.017.026,0,.005a1.125,1.125,0,0,0-.1.383,1.321,1.321,0,0,0-.032.356.625.625,0,0,0,.016.13.624.624,0,0,1,.016.13.6.6,0,0,0,.065.227c.016.033.032.065.05.1l.025.05.008.016.015.031A.325.325,0,0,0,.617,30l-.032.032Zm34.767-.065h-.065c-.011,0-.017,0-.021-.009s0-.043.021-.088a1.888,1.888,0,0,1,.194-.292,1.034,1.034,0,0,1,.357-.292l.011,0a.966.966,0,0,1,.248-.062.092.092,0,0,1,.042.013.208.208,0,0,0,.087.021.088.088,0,0,1,.031.007.341.341,0,0,0,.131.025.272.272,0,0,0,.228-.066.517.517,0,0,0,.13-.227.135.135,0,0,1,.008-.041l0-.012a.358.358,0,0,0,.022-.109.936.936,0,0,1,.007-.1,4.564,4.564,0,0,0,.025-.487v-.227a.714.714,0,0,0,.032-.292c0-.1,0-.194.032-.227l.13-.325.13-.324c0-.032,0-.032.032-.032v.065a1.848,1.848,0,0,0-.035.292l0,.018c0,.065-.013.168-.028.306a1.6,1.6,0,0,0-.032.356v.13a.657.657,0,0,0,.162.487.5.5,0,0,0,.292.1.463.463,0,0,0,.389-.194.469.469,0,0,1,.194-.228l.01,0a.519.519,0,0,1,.153-.06l.13.032c.1,0,.131-.036.194-.13.028-.085.062-.13.1-.13a.113.113,0,0,0,.065.032c.072,0,.136-.085.194-.259,0-.013.006-.014.01-.014l.016,0a.091.091,0,0,0,.039.01.12.12,0,0,0,.1-.032.525.525,0,0,1,.061-.154l0-.009a.416.416,0,0,1,.063-.095c.027.024.034.044.049.117l.005.024,0,.017.008.034-.1.292a.056.056,0,0,0-.006.013l0,.007-.008.019a.31.31,0,0,1-.113.156.711.711,0,0,0-.162.13.174.174,0,0,1-.13.1.163.163,0,0,1-.065.032.164.164,0,0,0-.065.032c-.161.162-.259.26-.324.26h-.163a.849.849,0,0,0-.356.389.542.542,0,0,1-.454.325.406.406,0,0,1-.357-.2h-.032c-.019,0-.039.036-.071.1l0,.005,0,.007c-.025.048-.051.1-.085.152l-.194.292a.769.769,0,0,1-.292.194.806.806,0,0,1-.259.032.514.514,0,0,1-.146-.022.184.184,0,0,0-.049-.01.943.943,0,0,0-.519.129Zm-28.54-.032h0L6.779,29.9a.486.486,0,0,0,.144-.153l0-.005,0-.006.012-.017.03-.045A1.115,1.115,0,0,0,7.1,29.4a1.318,1.318,0,0,0,.038-.374.623.623,0,0,0-.016-.13.623.623,0,0,1-.016-.13.6.6,0,0,0-.065-.227l0-.006L7,28.471l-.021-.041-.042-.085a.325.325,0,0,0-.13-.162l.032-.065c.013.014.024.024.033.032l.009.008.013.013.023.021.02.017.007.006.007.006.007.006.007.006.005,0,0,0a.763.763,0,0,1,.122.136l0,.007a.635.635,0,0,1,.125.252.035.035,0,0,1,0,.008l0,.04,0,.021,0,.018,0,.018,0,.022v.014l0,.012,0,.014a1.438,1.438,0,0,1,.016.189,1.227,1.227,0,0,1-.032.357,1.138,1.138,0,0,1-.42.582Zm7.1-.1a.359.359,0,0,1-.324-.194.919.919,0,0,1-.13-.552,4.627,4.627,0,0,1,.04-.5c0-.041.009-.082.013-.127l0-.05.007-.066c.026-.244.064-.474.09-.625l.005-.032v-.006l0-.008,0-.01,0-.025,0-.026,0-.013.013-.074q.019-.105.038-.219c.012-.036.033-.085.059-.145l.005-.014,0-.006.007-.016.009-.022c.043-.1.094-.231.144-.381a.031.031,0,0,1,.032-.032c.033,0,.033,0,.033.032a2.006,2.006,0,0,0-.033.25l0,.014v.1l0,.014,0,.019c-.012.1-.027.229-.051.384l-.016.1a2.488,2.488,0,0,0-.049.389L13.9,27.9l.031-.031.045-.044.015-.015c.439-.43.773-.754,1.154-1.12A13.729,13.729,0,0,0,16.508,25.3a.068.068,0,0,1,.025,0,.027.027,0,0,1,.023.011c.023.038-.022.176-.146.448a26.342,26.342,0,0,1-2.2,2.173h.1a.65.65,0,0,1,.292.065c.14.069.193.207.162.422a1.411,1.411,0,0,1-.1.583c-.026.054-.053.112-.082.176l0,.01-.006.014a1.72,1.72,0,0,1-.167.319.778.778,0,0,1-.227.227A.368.368,0,0,1,13.913,29.838Zm.26-1.264a.393.393,0,0,0-.26.065.239.239,0,0,0-.13.194.281.281,0,0,0,.1.194.474.474,0,0,0,.228.065.427.427,0,0,0,.454-.259.239.239,0,0,0-.13-.194A.389.389,0,0,0,14.173,28.573Zm26.594,1.232a2.635,2.635,0,0,1-.518-.032.74.74,0,0,1-.422-.1.51.51,0,0,1-.227-.487,2.135,2.135,0,0,1,.032-.454c0-.16.034-.259.065-.259s.065.062.065.162a.293.293,0,0,0,.1.227.6.6,0,0,0,.293.13,2.407,2.407,0,0,0,.583.065h.714c.114-.014.224-.022.321-.029a2.8,2.8,0,0,0,.328-.035c.084-.017.176-.042.283-.072l.026-.007.023-.006c.084-.023.178-.05.283-.076.045-.018.087-.033.127-.048l.018-.006a1.138,1.138,0,0,0,.245-.108.514.514,0,0,0,.259-.162c0-.032.032-.065.1-.13a.763.763,0,0,0,.085-.1l.009-.012a.382.382,0,0,1,.036-.046.666.666,0,0,1,.26-.13.292.292,0,0,1,.162.032.1.1,0,0,0,.043.012c.035,0,.06-.032.086-.109a.409.409,0,0,1,.013-.09.588.588,0,0,0,.019-.137.806.806,0,0,0,.032-.259v-.94l.162-.487.13-.356a.028.028,0,0,1,.006-.02s-.006,0-.006-.013.02-.041.031-.067l0-.005,0-.009a1.168,1.168,0,0,1,.094-.179l.047-.072,0-.007a.789.789,0,0,1,.111-.148c.095-.095.276-.247.648-.552.192-.167.4-.336.637-.522l.032-.026.073-.059.133-.106a4.528,4.528,0,0,0,.616-.519,2.383,2.383,0,0,0,.227-.21c.092-.092.2-.2.325-.309a3.561,3.561,0,0,0,.426-.424l-.014.035-.007.018-.016.036-.013.028c-.016.038-.032.074-.051.112a.906.906,0,0,1-.194.293l0,.005,0,.005,0,.005,0,.005a1.744,1.744,0,0,1-.212.27,1.908,1.908,0,0,1-.193.224l-.04.037-.018.016-.02.018-.006.005-.012.01-.008.007-.013.011-.016.014-.007.006c-.054.047-.135.117-.22.2a.445.445,0,0,0-.1.085.846.846,0,0,1-.126.11c-.058.041-.113.086-.13.1l-.017.013-.01.009,0,0-.025.021-.023.02-.007.006-.021.017c-.031.025-.057.046-.087.068a3.875,3.875,0,0,1-.454.389c-.1.085-.215.17-.311.241l-.021.015-.023.016c-.069.051-.136.1-.2.149l-.486.356-.1.1a.159.159,0,0,1-.045.031l0,0a.155.155,0,0,0-.048.032.607.607,0,0,1-.08.073s.014.007.014.024v.389a1.107,1.107,0,0,0-.032.324c-.015.277-.03.5-.043.68l0,.075c-.01.155-.017.258-.017.317a1.176,1.176,0,0,1-.065.356,1.152,1.152,0,0,1-.13.292.715.715,0,0,1-.162.26c-.065.065-.1.1-.162.1h-.065a.4.4,0,0,0-.1.016.4.4,0,0,1-.1.016l-.027.012-.019.008a.3.3,0,0,0-.117.076.811.811,0,0,0-.071.084l-.01.013-.01.013a.81.81,0,0,1-.071.084,8595.29,8595.29,0,0,1-.194.259c-.064.064-.13.13-.13.2a3.107,3.107,0,0,1-.908.356A5.578,5.578,0,0,1,40.767,29.805Zm-18.259,0h-.1a.031.031,0,0,1-.032-.032c0-.032.033-.065.13-.13l.014-.011a5.764,5.764,0,0,0,.441-.378.681.681,0,0,0,.194-.26c0-.129-.131-.292-.39-.486-.033-.033-.065-.065-.032-.13l.008-.016.013-.025.017-.036c.071-.144.127-.263.2-.424l.012-.025L23,27.827c0-.037.01-.054.033-.054a.166.166,0,0,1,.064.022.818.818,0,0,1,.421.714,1.5,1.5,0,0,1-.081.446l0,.022,0,.01,0,.005,0,.01-.014.049-.022.073a1.66,1.66,0,0,1-.259.357,1.4,1.4,0,0,1-.616.324Zm-6,0a2.98,2.98,0,0,1-.518-.032.661.661,0,0,1-.422-.1.51.51,0,0,1-.227-.487,2.294,2.294,0,0,1,.032-.454c0-.16.034-.259.065-.259s.065.062.065.162a.407.407,0,0,0,.227.324,2.249,2.249,0,0,0,.616.13,5.246,5.246,0,0,0,.681.032c.069,0,.141-.006.236-.015l.016,0,.02,0,.021,0,.02,0,.021,0,.026,0,.028,0,.03,0h.032l.069,0a3.458,3.458,0,0,0,.539-.063l.013,0a3.263,3.263,0,0,0,.552-.13,2.479,2.479,0,0,0,.518-.227,1.132,1.132,0,0,0,.292-.227.023.023,0,0,1,.014-.008c.009,0,.013.012.015.039s0,.059,0,.1h.1a1.475,1.475,0,0,0,.356-.1,2.9,2.9,0,0,0,.552-.357c.194-.162.292-.259.324-.291a.719.719,0,0,0,.079-.1l.008-.011a.352.352,0,0,1,.042-.055c-.036-.036-.066-.065-.1-.065a.167.167,0,0,0-.048-.031l-.009,0-.015-.005a.393.393,0,0,1-.058-.024c-.032-.032-.032-.032-.065-.032-.032-.032-.032-.032-.065-.032a.192.192,0,0,0-.13-.033.247.247,0,0,0-.162.066.323.323,0,0,0-.13.162.1.1,0,0,1-.065.032c-.011,0-.017,0-.021-.009s0-.043.021-.088a.253.253,0,0,1,.065-.163.338.338,0,0,1,.163-.194.6.6,0,0,1,.259-.065.708.708,0,0,1,.324.065.864.864,0,0,0,.26.1.292.292,0,0,0,.162-.032c.032-.032.1-.065.324-.065a.015.015,0,0,1,.012.007c.006.009,0,.03-.012.058a.12.12,0,0,0-.032.1.116.116,0,0,1-.016.049.118.118,0,0,0-.016.049.174.174,0,0,1-.1.13l-.194.13a1.424,1.424,0,0,0-.228.194.318.318,0,0,1-.093.1l0,0-.014.013c-.029.024-.055.048-.083.076l-.518.487-.1.1a.443.443,0,0,0-.13.1.239.239,0,0,1-.194.065l-.259-.065-.227-.065-.031.038,0,0a1.075,1.075,0,0,1-.323.315,1.5,1.5,0,0,1-.518.325l-.141.049-.049.017-.027.01-.019.006c-.094.034-.188.065-.347.113a3.157,3.157,0,0,1-.658.126l-.054,0A6.83,6.83,0,0,1,16.508,29.805Zm-4.8,0h0l-.032-.032c0-.032,0-.032.032-.065a.336.336,0,0,1,.132-.122l.005,0,.008-.005.014-.01a.358.358,0,0,0,.034-.022c.029-.019.061-.039.095-.059l.027-.016.01-.005.017-.011.02-.013.009-.005.019-.012.017-.011.014-.009.013-.008c.036-.023.079-.05.117-.078a2.739,2.739,0,0,0,.292-.26,3,3,0,0,0,.194-.324c.017-.033.034-.071.05-.107l.01-.021,0-.01.006-.014.022-.048.006-.014,0-.009c.028-.067.057-.13.091-.2.027-.052.048-.1.079-.176l0-.006,0-.007.01-.023c.012-.027.024-.056.036-.079a.07.07,0,0,1,.065-.065l.017.015c.012.011.02.017.021.026s-.012.03-.038.056a.768.768,0,0,1-.028.157l0,.008c-.011.046-.023.1-.035.16a2.706,2.706,0,0,1-.107.354l-.005.016c-.016.047-.033.1-.05.148a1.578,1.578,0,0,1-.194.422.584.584,0,0,1-.162.227l-.008,0a1.4,1.4,0,0,1-.316.126,1.1,1.1,0,0,1-.217.066l-.008,0H12a.38.38,0,0,0-.127.029A.434.434,0,0,1,11.709,29.805Zm17.513-.032h-.032c0-.014.02-.036.05-.069l0,0a1.659,1.659,0,0,0,.174-.218c.076-.051.143-.1.2-.137l.045-.031.015-.011c.057-.038.1-.066.129-.082s.044-.04.065-.058l.006-.005A.569.569,0,0,0,30,29.027a1.158,1.158,0,0,0,.127-.281l0-.01h-.065c0,.032,0,.032-.032.032H30a.239.239,0,0,1-.194-.065c-.065-.032-.065-.1-.065-.162a.246.246,0,0,1,.032-.13.652.652,0,0,1,.1-.228c.016-.026.034-.056.054-.092l.01-.018,0-.005,0-.005a.583.583,0,0,1,.092-.139c.065-.065.1-.1.163-.1a.33.33,0,0,1,.227.13.525.525,0,0,1,.1.292v.163a.2.2,0,0,0-.032.13.088.088,0,0,1-.009.033l0,.009a.218.218,0,0,0-.021.087.382.382,0,0,0-.029.081l0,.005a.18.18,0,0,1-.034.076l-.042.1a2.671,2.671,0,0,1-.184.389,1.282,1.282,0,0,1-.163.194.356.356,0,0,0-.124.045l-.01,0-.02.01,0,0,0,0c-.03.014-.063.027-.122.05l-.01,0-.014.005-.019.007-.159.062c-.078.016-.143.032-.19.043l-.008,0A.518.518,0,0,1,29.221,29.773Zm-20.108,0A3.335,3.335,0,0,1,8.5,29.74a1.1,1.1,0,0,1-.518-.227.381.381,0,0,1-.13-.325.245.245,0,0,1,.008-.048l0-.011a.812.812,0,0,0,.023-.168c.011-.047.018-.086.024-.122v-.007l0-.008,0-.024,0-.012a.818.818,0,0,1,.032-.151.514.514,0,0,1,.023-.146.194.194,0,0,0,.01-.049.045.045,0,0,0,.032-.016.042.042,0,0,1,.032-.016.106.106,0,0,1,.032.065c.032.032.032.1.032.194s.056.157.194.227a3.168,3.168,0,0,0,1.2.194,4.542,4.542,0,0,0,.648-.032,1.96,1.96,0,0,0,.681-.1l.2-.065.034-.011.012,0,.014,0c.115-.036.234-.074.324-.111a1.067,1.067,0,0,0,.389-.194A.552.552,0,0,0,12,28.379a1.24,1.24,0,0,1,.094-.128h.014c.021,0,.021.011.021.063a1.649,1.649,0,0,0-.1.292,3.555,3.555,0,0,1-.194.356.546.546,0,0,1-.292.227l-.05.027-.031.016-.005,0-.005,0-.005,0-.005,0-.005,0-.005,0-.01.005-.007,0-.021.011-.019.01a2.4,2.4,0,0,1-.284.138,1.878,1.878,0,0,1-.454.162,3.136,3.136,0,0,1-.74.157l-.027,0H9.86A6.013,6.013,0,0,1,9.113,29.773Zm14.4-.032c-.032,0-.1,0-.1-.032s0-.065.065-.1c0-.028.037-.065.1-.1.014-.006.028-.014.043-.023l.014-.008.006,0,.022-.013.021-.013.024-.014.031-.019.059-.037.1-.063a.706.706,0,0,0,.162-.1,1.242,1.242,0,0,0,.2-.192l.007-.008c.016-.019.035-.041.054-.059.018,0,.031-.028.058-.092l0-.009,0-.005,0-.005,0-.005,0-.005c.019-.046.049-.118.091-.2a1.546,1.546,0,0,1,.15-.313l.006-.011.012-.019c.011-.018.02-.034.026-.047a1.425,1.425,0,0,1,.228-.194.13.13,0,0,0,.06-.029l0,0,.007,0,.007,0,.006,0a.6.6,0,0,1,.109-.053.693.693,0,0,0,.162-.1c.032,0,.1-.062.13-.162s.065-.13.13-.13a.155.155,0,0,1,0,.13c-.125.406-.256.646-.389.714a2.327,2.327,0,0,0-.356.194l-.049.022c-.033.013-.05.02-.05.043a.686.686,0,0,0-.13.227c-.067.168-.131.327-.162.422a.623.623,0,0,1-.324.324.424.424,0,0,1-.119.032l-.01,0h-.007l-.011,0-.019,0-.014,0-.019,0a.365.365,0,0,0-.062.016A1.117,1.117,0,0,1,23.513,29.74Zm11-.162h0v-.032a.855.855,0,0,1,.032-.194l0-.011a1.634,1.634,0,0,0,.062-.379v-.518a1.757,1.757,0,0,1-.006-.391v-.014c0-.036.005-.077.005-.114a.552.552,0,0,1,.032-.227.464.464,0,0,1,.064-.223l.065-.131.031-.062,0-.006a.716.716,0,0,1,.049-.081.607.607,0,0,0,.047-.077l0,.061v1.135a1.231,1.231,0,0,0-.032.325,1.278,1.278,0,0,1-.1.518c-.027.051-.051.109-.076.171l-.008.018-.006.014c-.016.038-.028.066-.04.089a.17.17,0,0,0-.032.049.17.17,0,0,1-.032.049A.111.111,0,0,1,34.509,29.578Zm-28.444-.1h0a.031.031,0,0,1-.032-.032v-.194a.115.115,0,0,0-.13-.13.174.174,0,0,0-.131.1.443.443,0,0,1-.1.13.07.07,0,0,1-.065.065.12.12,0,0,1-.1.032.178.178,0,0,1-.162-.1.624.624,0,0,1-.065-.26,2.086,2.086,0,0,1,.032-.324l.014-.08.006-.036a2.427,2.427,0,0,0,.045-.338c.021,0,.028-.025.038-.059l0-.013a.583.583,0,0,1,.023-.058.382.382,0,0,0,.029-.081l0-.005a.177.177,0,0,1,.034-.076v.162l-.065.39a.413.413,0,0,0-.032.194v.13a.413.413,0,0,0,.032.194.247.247,0,0,0,.162.065c.065,0,.1,0,.13-.032l.065-.065.066-.065a.12.12,0,0,1,.1-.032.169.169,0,0,1,.13.065.042.042,0,0,0,.016.032.042.042,0,0,1,.016.032.449.449,0,0,1,.1-.13c.068-.1.134-.13.162-.13h.065a.045.045,0,0,0,.023-.007l.008,0a.092.092,0,0,1,.066-.021c0-.032,0-.032.032-.065h.032a.412.412,0,0,0,.065-.1c0-.032,0-.032.1-.1v.032a.18.18,0,0,1-.03.1l-.015.024-.005.011a.115.115,0,0,0-.01.018l-.005.01c-.032.064-.065.1-.1.1s-.032,0-.065.032l-.032.032-.032.032h-.13a.2.2,0,0,1-.032.025.162.162,0,0,0-.065.072c-.032.032-.065.065-.065.1-.016.047-.03.085-.042.112l0,.01,0,.007,0,.011-.008.021c-.012.03-.024.063-.036.1a.142.142,0,0,1-.032.1Zm-2.984-.1a.293.293,0,0,1-.227-.1.477.477,0,0,1-.065-.228,2.086,2.086,0,0,1,.032-.324l.013-.08.006-.036a2.364,2.364,0,0,0,.045-.338l.065-.13a.382.382,0,0,0,.029-.081l0-.005a.18.18,0,0,1,.034-.076v.162l-.065.39a.413.413,0,0,0-.032.194v.13a.267.267,0,0,0,.065.194.247.247,0,0,0,.162.065l.163-.259a.449.449,0,0,1,.1-.13.307.307,0,0,0,.035-.02l.013-.007.013-.008a.136.136,0,0,1,.068-.03A.117.117,0,0,0,3.6,28.7a.307.307,0,0,0,.13.032h.065v.032a.115.115,0,0,0-.032.065c0,.021-.011.038-.02.038s-.006,0-.009-.009a.063.063,0,0,1,0-.029c-.021,0-.032.014-.032.032l-.032.032a.171.171,0,0,0-.032.049.17.17,0,0,1-.032.049.53.53,0,0,0-.1.13.331.331,0,0,1-.162.2l-.024.009-.013,0-.019.006-.005,0A.562.562,0,0,1,3.081,29.384Zm.39-.519a.12.12,0,0,0-.1.032c-.019,0-.027.011-.037.027a.172.172,0,0,1-.028.038l-.13.194h.1a.1.1,0,0,1,.065-.032.17.17,0,0,1,.049-.032.17.17,0,0,0,.049-.032A.391.391,0,0,0,3.6,28.9a.114.114,0,0,0-.065-.032Zm18.293.292h0v-.032a.854.854,0,0,1,.032-.194l0-.011,0-.005,0-.011a1.6,1.6,0,0,0,.058-.362v-.519a1.75,1.75,0,0,1-.006-.39.774.774,0,0,0,.006-.128.482.482,0,0,1,.032-.228.456.456,0,0,1,.052-.2c.045-.092.078-.157.111-.222a.716.716,0,0,1,.049-.081.606.606,0,0,0,.047-.077l0,.061v1.135a1.1,1.1,0,0,1-.016.173l0,.013v.005l0,.011a.811.811,0,0,0-.012.122,1.79,1.79,0,0,1-.1.519l0,.008a1.383,1.383,0,0,0-.066.144l-.011.024-.007.018c-.017.041-.03.071-.042.1a.17.17,0,0,0-.032.049.17.17,0,0,1-.032.049.118.118,0,0,1-.064.032ZM3.535,28.313h0L3.5,28.281l-.065-.065a.114.114,0,0,1-.065-.032.031.031,0,0,1-.032-.032.113.113,0,0,0,.032-.065c.029-.029.065-.064.065-.1a.171.171,0,0,0,.032-.049.17.17,0,0,1,.032-.049c.029,0,.032-.032.032-.032l.032.032.065.065c.032.032.032.032.032.065v.065a.116.116,0,0,1-.016.049.116.116,0,0,0-.016.049c0,.032-.033.065-.065.1a.031.031,0,0,1-.032.032Zm6.033-.162a.1.1,0,0,1-.065-.032.715.715,0,0,0-.163-.13l-.1-.1a.811.811,0,0,1,.13-.292c.03-.05.056-.1.081-.144l0-.009c.039-.074.057-.107.077-.107a.293.293,0,0,1,.162.1l.005.005a.845.845,0,0,1,.157.19l0-.007,0,0,0-.006,0,0a.843.843,0,0,0,.048-.076l.017-.028,0-.005.005-.009c.02-.033.044-.074.074-.119l0,0c.021-.044.061-.125.1-.125a.239.239,0,0,1,.194.13.28.28,0,0,1,.131.228.51.51,0,0,1-.131.292c-.065.1-.13.162-.162.162s-.065-.032-.13-.1a.536.536,0,0,1-.053-.059l-.006-.008a.319.319,0,0,0-.1-.094C9.726,28.028,9.625,28.151,9.568,28.151Zm31.492-.065A.1.1,0,0,1,41,28.054a.9.9,0,0,0-.163-.13l-.1-.1a.811.811,0,0,1,.13-.292c.024-.04.052-.088.081-.144l0-.009c.039-.074.057-.107.077-.107a.293.293,0,0,1,.162.1.869.869,0,0,1,.162.2c.025-.038.046-.072.072-.115l.009-.015.016-.027c.02-.033.04-.065.065-.1.028-.085.062-.13.1-.13.065,0,.131.066.194.13a.28.28,0,0,1,.131.228.51.51,0,0,1-.131.292c-.065.1-.13.162-.162.162s-.065-.032-.13-.1a.7.7,0,0,1-.053-.059l-.006-.008,0-.005,0,0,0,0a.3.3,0,0,0-.091-.08C41.218,27.963,41.117,28.086,41.06,28.086Zm-24.195-.162a.1.1,0,0,1-.065-.032.29.29,0,0,0-.041-.032l-.014-.011a.732.732,0,0,1-.107-.086l-.1-.1a.8.8,0,0,1,.131-.292l0-.008,0-.005c.032-.055.058-.1.077-.139.037-.072.056-.107.077-.107a.293.293,0,0,1,.162.1.865.865,0,0,1,.162.194l.011-.017.011-.017.007-.011a.037.037,0,0,0,0-.008l.005-.008.008-.013.018-.029.016-.027,0-.005.008-.014.005-.009c.022-.036.042-.068.064-.1.028-.085.062-.13.1-.13.062,0,.123.059.187.122l.005.005a.286.286,0,0,1,.132.229.517.517,0,0,1-.13.292c-.065.1-.132.162-.163.162s-.065-.032-.13-.1a.569.569,0,0,1-.053-.059l-.006-.008,0-.005,0,0,0,0,0,0,0,0,0,0a.285.285,0,0,0-.08-.068C17.024,27.8,16.922,27.924,16.865,27.924ZM39.57,26.729h0l0,0a.389.389,0,0,1-.194-.13l-.162-.163a1.25,1.25,0,0,1,.13-.292c.061-.153.128-.259.162-.259a.293.293,0,0,1,.162.1.434.434,0,0,1,.162.194c.016-.032.041-.074.065-.113s.049-.081.065-.113a1.154,1.154,0,0,1,.13-.162c.02,0,.052.025.1.059.028.022.06.046.1.071a.28.28,0,0,1,.13.227.573.573,0,0,1-.09.247l-.04.077c-.064.1-.129.163-.162.163s-.065-.033-.13-.1a.681.681,0,0,1-.109-.093.335.335,0,0,0-.085-.069A1.27,1.27,0,0,1,39.57,26.729Zm-34.641,0c-.032,0-.065-.033-.1-.065l-.13-.13a.291.291,0,0,0-.092-.1.372.372,0,0,1-.037-.031c-.032-.032-.065-.065-.065-.1a1.726,1.726,0,0,1,.194-.389c.118-.206.193-.325.227-.325.068,0,.135.072.228.2a.527.527,0,0,1,.13.324.939.939,0,0,1-.162.389C5.038,26.642,4.967,26.725,4.929,26.725Zm32.24-.032h0a1.1,1.1,0,0,1,.089-.186l0-.006.018-.032.008-.015.006-.012,0-.008a.8.8,0,0,1,.163-.227c.061-.046.14-.116.215-.184L37.7,26l.005-.005.009-.007c.15-.133.275-.238.391-.331l.23-.181.074-.058.15-.119c.08-.064.152-.121.225-.176l.041-.031.188-.149a5,5,0,0,0,.617-.519l.227-.227a.88.88,0,0,1,.14-.149l.011-.011.014-.014.005,0L40.046,24c.033-.029.071-.064.105-.1a6.077,6.077,0,0,0,.515-.516l0,.061a.755.755,0,0,0-.042.1l-.007.018c-.021.054-.048.113-.08.176a.949.949,0,0,1-.194.292,1.239,1.239,0,0,1-.292.292,2.012,2.012,0,0,1-.2.227c-.016.016-.035.033-.058.053l-.033.031-.009.007-.013.011-.016.014-.007.006c-.054.047-.135.117-.22.2a.445.445,0,0,0-.1.085.846.846,0,0,1-.126.11,1.7,1.7,0,0,0-.164.13l-.007.005c-.057.049-.106.089-.154.124a5.18,5.18,0,0,1-.409.354l-.016.014-.013.009-.016.014a1.742,1.742,0,0,1-.292.227,1.686,1.686,0,0,1-.227.173l-.009.006-.015.01-.008.005-.486.356c-.034,0-.067.035-.1.066a.138.138,0,0,1-.041.028l-.007,0a.175.175,0,0,0-.05.032.2.2,0,0,1-.1.065Zm-7.623-.455a.2.2,0,0,1-.13-.065.719.719,0,0,0-.1-.079l-.011-.008a.363.363,0,0,1-.055-.042c-.033,0-.033-.031-.033-.065a.446.446,0,0,1,.059-.163l.005-.011.005-.012.008-.017.007-.017c.018-.038.032-.068.046-.1l0-.008,0-.005c.032-.055.058-.1.077-.139l0-.007,0-.005c.031-.057.052-.1.071-.1a.133.133,0,0,1,.046-.012c.052,0,.094.05.116.141l.012.016.024.035.014.019a.307.307,0,0,1,.08.157.67.67,0,0,1-.1.292C29.641,26.177,29.577,26.238,29.546,26.238Zm-8.692,0a.088.088,0,0,1-.031-.007.367.367,0,0,0-.131-.025.717.717,0,0,0-.077-.066l-.012-.009,0,0-.013-.01a.352.352,0,0,1-.055-.042c-.032,0-.032-.031-.032-.065a.723.723,0,0,1,.13-.324l0-.008,0-.005.008-.014c.022-.038.048-.084.068-.124l0-.007,0-.005c.031-.057.052-.1.071-.1a.043.043,0,0,1,.031-.013c.036,0,.091.037.164.11L21,25.54l.024.035.014.019a.307.307,0,0,1,.08.157.529.529,0,0,1-.1.292C20.949,26.177,20.885,26.238,20.854,26.238Zm25.752-.259a.388.388,0,0,1-.194-.13l-.163-.162a.446.446,0,0,1,.058-.126l.006-.012c.027-.049.06-.111.1-.187.1-.16.162-.259.194-.259a.241.241,0,0,1,.147.065l.028.019.02.014a.864.864,0,0,1,.162.194.536.536,0,0,0,.072-.1l0-.006.005-.009.005-.009a.517.517,0,0,1,.076-.1,1.145,1.145,0,0,1,.131-.162.351.351,0,0,1,.194.1.28.28,0,0,1,.13.227.531.531,0,0,1-.13.325c-.1.136-.162.194-.194.194s-.066-.032-.13-.1l-.005-.005a.84.84,0,0,0-.189-.157C46.8,25.856,46.668,25.978,46.606,25.978Zm-6.779-.032h0a.627.627,0,0,1-.127-.1.719.719,0,0,0-.1-.079l-.011-.008a.364.364,0,0,1-.055-.042.16.16,0,0,0-.035-.026c-.017-.011-.03-.019-.03-.039a1.006,1.006,0,0,1,.13-.293l.01-.02.012-.023a1.182,1.182,0,0,1,.14-.248c.065,0,.131.066.194.13a.376.376,0,0,1,.131.259.9.9,0,0,1-.1.292C39.922,25.885,39.858,25.946,39.827,25.946Zm-11.706-.032h0a1.174,1.174,0,0,1,.091-.189c.016-.027.029-.05.039-.07l.044-.069a.806.806,0,0,1,.119-.158c.091-.092.285-.257.648-.551.054-.044.1-.075.134-.1l.011-.008.013-.009.014-.01.01-.007.014-.01a2.239,2.239,0,0,0,.26-.212c.08-.064.152-.121.225-.176l.041-.031.188-.149a5.064,5.064,0,0,0,.617-.519c.042-.042.088-.085.154-.145l.017-.016.031-.029c.154-.14.262-.241.349-.329l.518-.519v.065a.464.464,0,0,1-.07.179l0,0,0,.008-.052.1a1.287,1.287,0,0,1-.194.292l0,.005,0,.005,0,.005,0,.005a1.744,1.744,0,0,1-.212.27,2.012,2.012,0,0,1-.2.227c-.023.023-.051.048-.087.078l0,0-.007.006-.009.008-.022.019c-.053.045-.141.124-.227.21l-.047.033-.023.016,0,0a4.033,4.033,0,0,1-.607.368,5.614,5.614,0,0,1-.454.39,1.515,1.515,0,0,1-.2.156l-.013.009-.007,0,0,0-.009.006-.014.009-.009.006a1.77,1.77,0,0,1-.251.189L28.9,25.3l-.486.39a1.216,1.216,0,0,0-.2.162.2.2,0,0,1-.1.065Zm3.858-.065a.1.1,0,0,1-.066-.032.89.89,0,0,0-.162-.13l-.1-.1a.811.811,0,0,1,.13-.292l0-.008,0-.005c.032-.055.058-.1.077-.139.039-.074.057-.107.077-.107a.294.294,0,0,1,.163.1.865.865,0,0,1,.162.194l.011-.017.011-.017.007-.011a.037.037,0,0,0,0-.008l.005-.008.008-.013.018-.029.016-.027,0-.005.008-.014.005-.009c.021-.035.042-.068.064-.1s.062-.13.1-.13a.239.239,0,0,1,.194.13.284.284,0,0,1,.13.227.517.517,0,0,1-.13.292c-.063.1-.129.163-.162.163s-.065-.032-.13-.1a.653.653,0,0,1-.059-.068l-.005-.007a.323.323,0,0,0-.1-.088C32.134,25.732,32.038,25.849,31.979,25.849ZM4.508,25.784h0a.7.7,0,0,1-.226-.163c-.129-.1-.194-.162-.194-.194a2.617,2.617,0,0,1,.194-.421l0-.01.007-.015,0-.006.013-.025,0-.009c.081-.159.165-.324.2-.324a.407.407,0,0,1,.227.13,1.069,1.069,0,0,1,.194.26c.022-.033.045-.071.07-.114l.022-.036.01-.018a1.524,1.524,0,0,1,.094-.157l.041-.069c.066-.112.094-.157.121-.157a.466.466,0,0,1,.259.162.61.61,0,0,1,.162.325,1,1,0,0,1-.162.421l-.062.078-.016.021-.007.01c-.073.094-.117.15-.141.15s-.1-.066-.162-.13A1.862,1.862,0,0,0,5,25.354l-.009-.007-.006-.005-.017-.014-.017-.014c-.023-.019-.04-.034-.054-.049C4.74,25.609,4.609,25.784,4.508,25.784Zm29.327-.41c-.005,0-.007,0-.007-.013l0-.005,0-.01,0-.006.005-.012.007-.016,0-.006,0-.005,0-.005a1.125,1.125,0,0,1,.1-.193L34,25.031l0-.007a.789.789,0,0,1,.111-.148c1.248-1.057,2.326-1.97,3.146-2.757a.033.033,0,0,1,.021-.006.012.012,0,0,1,.011.006c.013.022-.022.1-.1.227-.007.012-.014.023-.021.035l-.011.019-.012.019-.011.019-.007.012-.011.019,0,.007a1.173,1.173,0,0,1-.15.227,26.369,26.369,0,0,1-2.854,2.433,1.24,1.24,0,0,0-.194.162C33.878,25.344,33.847,25.375,33.835,25.375Zm13.128-.207h0a.633.633,0,0,1-.127-.1c-.017-.017-.033-.031-.049-.045a.324.324,0,0,1-.112-.149.07.07,0,0,1-.065-.065,1.223,1.223,0,0,1,.13-.293c.061-.153.128-.259.162-.259a.284.284,0,0,1,.146.072l.009.006.02.014.008.006.044.031a.337.337,0,0,1,.131.259.564.564,0,0,1-.088.243l-.042.082C47.057,25.106,46.993,25.167,46.962,25.168ZM1.07,24.454a1.3,1.3,0,0,1-.811-.194.572.572,0,0,1-.194-.487,4.361,4.361,0,0,1,.162-1.005c0-.067.034-.1.065-.1s.046.016.046.026S.331,22.7.324,22.7v.13a.488.488,0,0,0,.325.487c.1.032.229.066.356.1a1.873,1.873,0,0,0,.39.032,1.843,1.843,0,0,0,.81-.13,1.356,1.356,0,0,0,.714-.552,1.029,1.029,0,0,0,.162-.454c.044-.461.065-.8.065-1.038a9.5,9.5,0,0,0,.033-1.005A1.8,1.8,0,0,1,3.2,20l0-.014,0-.016,0-.015,0-.019a.2.2,0,0,0,0-.027,2.736,2.736,0,0,0,.185-.388l.042-.1c.056-.1.107-.219.168-.359l.013-.03.006-.014c.017-.041.03-.067.039-.085H3.73v.1A.244.244,0,0,0,3.7,19.2a1.932,1.932,0,0,1-.032.357,2.294,2.294,0,0,0-.032.454c-.032.422-.032.685-.032.811a5.262,5.262,0,0,1-.1,1.07,4.766,4.766,0,0,1-.39,1.233,2.923,2.923,0,0,1-.486.713l-.107.089a1.878,1.878,0,0,1-.38.268A2.177,2.177,0,0,1,1.07,24.454Zm1.946-.032a.191.191,0,0,1-.162-.065c0-.032.032-.065.1-.13a.35.35,0,0,1,.055-.042l.011-.007a.832.832,0,0,0,.1-.08,1.938,1.938,0,0,1,.266-.189l.006,0,.02-.013.021-.014.015-.01.025-.017.02-.013L3.5,23.83l.038-.025a1.607,1.607,0,0,1,.225-.161,1.435,1.435,0,0,0,.392-.325c.027,0,.071-.1.168-.322l0-.006.056-.126a4.283,4.283,0,0,1,.292-.551,2.593,2.593,0,0,1,.293-.259l.068-.038L5.054,22l.005,0,.022-.013.016-.009.012-.006.009-.005.018-.01.012-.006.007,0,.012-.007a.665.665,0,0,1,.087-.047.616.616,0,0,0,.259-.13.65.65,0,0,1,.055-.086l.008-.011.008-.011.007-.012a1.173,1.173,0,0,0,.084-.14l.011-.016.014-.021.013-.021c.042-.065.067-.1.092-.1s.032.065.032.194c-.167.571-.332.88-.518.973-.17.087-.3.156-.362.192l-.012.006-.015.008-.013.008-.042.023-.013.007-.029.015a.449.449,0,0,0-.13.1,1.405,1.405,0,0,0-.192.32l0,.005c-.077.157-.136.309-.174.41-.031.082-.058.152-.085.206a1.02,1.02,0,0,1-.455.455,3.127,3.127,0,0,1-.389.1l-.062.013-.033.007A1.639,1.639,0,0,1,3.016,24.421Zm3.5-.065a.5.5,0,0,1-.486-.292,1.931,1.931,0,0,1-.13-.714,6.526,6.526,0,0,1,.065-1.005l.017-.116.033-.22c.048-.325.106-.709.176-1.092.031-.112.12-.362.292-.811a.1.1,0,0,1,.065-.032c.032,0,.032,0,.032.032-.01.054-.021.135-.03.223l0,.017,0,.022,0,.023,0,.022-.006.052,0,.013-.006.054-.009.084,0,.042c-.017.157-.038.339-.062.55-.017.146-.032.278-.045.4l-.012.1-.005.049,0,.041-.009.077,0,.018,0,.041,0,.017v.009c-.019.175-.032.272-.045.349a1.885,1.885,0,0,0-.032.324V22.9a.846.846,0,0,0,.04.2c0,.011.006.022.009.033l.006.024.01.039a.431.431,0,0,0,.194.227.483.483,0,0,0,.325.1.641.641,0,0,0,.454-.162.921.921,0,0,1,.292-.259h.26c.063,0,.1-.063.159-.19.035-.134.068-.2.1-.2h.065a.435.435,0,0,0,.162.032.174.174,0,0,0,.13-.1.505.505,0,0,0,.1-.194l0-.014q.008-.024.013-.043c.016-.054.022-.072.047-.072s.032.032.032.1a1.07,1.07,0,0,1-.2.617c-.129.193-.26.292-.389.292a.811.811,0,0,1-.13.194c-.04.061-.09.123-.152.123a.118.118,0,0,1-.075-.026.357.357,0,0,0-.163-.032.292.292,0,0,0-.162.032A1.386,1.386,0,0,0,7.07,24,.722.722,0,0,1,6.519,24.357ZM1.589,22.281c-.111,0-.162-.041-.162-.13,0-.033,0-.065.065-.065h.1a.291.291,0,0,0,.227-.1c.059-.029.068-.086.032-.194a.254.254,0,0,1,.065-.259.366.366,0,0,1,.259-.1.087.087,0,0,1,.1.1c0,.087-.053.13-.163.13a.2.2,0,0,0-.194.1.353.353,0,0,0,.032.162.207.207,0,0,1-.032.228C1.852,22.245,1.761,22.281,1.589,22.281Zm11.34-.962a.5.5,0,0,1-.572-.53.365.365,0,0,1,.089-.242.636.636,0,0,1,.462-.179,1.783,1.783,0,0,1,.746.194H48v.518H13.719a1.711,1.711,0,0,1-.648.228A.855.855,0,0,1,12.929,21.319ZM7.492,19.978h0l-.007,0c-.075-.051-.15-.106-.22-.157-.147-.115-.194-.162-.194-.194a1.747,1.747,0,0,1,.194-.422c.043-.076.079-.14.109-.194l0-.006a1.223,1.223,0,0,1,.114-.188.337.337,0,0,1,.228.13,1.053,1.053,0,0,1,.194.259,3.07,3.07,0,0,1,.194-.324l.041-.069c.066-.112.094-.157.121-.157a.466.466,0,0,1,.259.162.609.609,0,0,1,.163.324.857.857,0,0,1-.163.422c-.1.129-.194.227-.227.227a.293.293,0,0,1-.162-.1,1.425,1.425,0,0,0-.259-.227C7.726,19.8,7.594,19.978,7.492,19.978Zm3.566-.062c-.1,0-.581-.024-.581-.489a.479.479,0,0,1,.1-.358.686.686,0,0,1,.55-.194h2.4l1.978.356h4.443a9.675,9.675,0,0,1,2.038-.294l.136,0a7.187,7.187,0,0,1,1.459.162H48v.552H24a12.754,12.754,0,0,1-1.979.259h-.07a6.326,6.326,0,0,1-1.973-.325H15.405l-2.011.324h-2.3A.114.114,0,0,1,11.057,19.916Zm-7.38-1a.011.011,0,0,1-.013-.013,1.405,1.405,0,0,1,.061-.152l.009-.021.009-.022.013-.029c.023-.053.047-.107.07-.166a1.7,1.7,0,0,1,.228-.292,9.307,9.307,0,0,1,.713-.616l.161-.129.007-.005.081-.065.086-.067c.146-.11.284-.221.476-.382.222-.159.436-.342.714-.584.246-.184.488-.394.779-.649.211-.185.354-.325.5-.473l.014-.014.015-.014.027-.026.027-.027.013-.013.013-.013.013-.014.014-.013.014-.014.014-.014.015-.015.015-.015.016-.016.016-.016.018-.018.041-.04.021-.021.015-.016a7.08,7.08,0,0,0,.536-.568.026.026,0,0,1,.014-.009.007.007,0,0,1,.006,0,.146.146,0,0,1-.021.1,2.256,2.256,0,0,1-.421.779L8,15.253a8.1,8.1,0,0,1-.608.671,4.958,4.958,0,0,1-.58.555l-.007.006-.008.007-.007.006-.015.014-.023.021-.008.006c-.112.083-.225.178-.27.219l-.007.006-.025.023-.028.024-.019.016-.021.018-.011.01-.012.01c-.107.092-.228.2-.353.291l-.217.159-.01.007-.008.005a2.764,2.764,0,0,0-.317.25c-.088.059-.206.147-.319.232l-.037.027-.194.146-.2.146-.648.519a.389.389,0,0,1-.065.048.46.46,0,0,0-.066.049.451.451,0,0,1-.065.049.451.451,0,0,0-.065.049A.246.246,0,0,1,3.677,18.921Zm4.237-.045h0a.684.684,0,0,1-.162-.13.869.869,0,0,0-.2-.162l-.13-.13a.832.832,0,0,1,.07-.18l.008-.018.017-.038c.02-.045.042-.1.067-.154l.05-.088.022-.038.008-.014,0-.007c.079-.141.118-.209.143-.209a.466.466,0,0,1,.259.162.517.517,0,0,1,.162.324.878.878,0,0,1-.13.422,1,1,0,0,1-.193.259ZM9.96,18.49c-.177,0-.588-.048-.588-.49a.482.482,0,0,1,.129-.331.727.727,0,0,1,.553-.188h3.665c.036,0,.894.068,1.784.228h1.168a8.594,8.594,0,0,1,1.913-.292h3.437a13.365,13.365,0,0,1,1.784.325H48v.551H23.708c-.008,0-1.406.166-2.075.2H18.487a7.516,7.516,0,0,1-1.914-.292h-.978a13.683,13.683,0,0,1-1.94.292H10.015A.531.531,0,0,1,9.96,18.49Zm-.347-1.461a.54.54,0,0,1-.6-.553.465.465,0,0,1,.111-.334.691.691,0,0,1,.538-.186l.05,0h3.712l.681.162h1.459l.908-.162h5.157a6.377,6.377,0,0,1,1.557.259H48v.552H23.157a12.757,12.757,0,0,1-1.946.227h-4.8l-.94-.194h-1.1l-.973.227H9.665Zm10.8-1.49c-.059,0-.116,0-.172,0H15.017l-.13-.13H12.973l-.162.1H10.086a.7.7,0,0,1-.1.005.866.866,0,0,1-.382-.091.5.5,0,0,1-.236-.465.445.445,0,0,1,.1-.311.661.661,0,0,1,.514-.177h2.984l.2.194h1.427l.325-.194H20.4a12.013,12.013,0,0,1,1.881.324H48v.552H22.217A11.018,11.018,0,0,1,20.409,15.538ZM7.943,14.014c-.176,0-.588-.045-.614-.457a.518.518,0,0,1,.121-.365A.684.684,0,0,1,7.982,13H18.4c.238.026,1.092.124,2.065.292H48v.551H20.336c-.008,0-1.355.163-2.044.163H8Zm-2.777-1.4a.628.628,0,0,1-.448-.157.473.473,0,0,1-.112-.364.59.59,0,0,1,.15-.4.708.708,0,0,1,.537-.189H13.7a6.645,6.645,0,0,1,1.96.357H48v.519H15.567a15.151,15.151,0,0,1-1.978.227H5.222Zm5.31-1.494H3.762c-.007,0-.714-.006-.714-.518a.524.524,0,0,1,.127-.372.8.8,0,0,1,.619-.212H9.437l.422.194h2.854l.39-.194h3.614a8.538,8.538,0,0,1,2.126.358H48V10.9H18.811a12.908,12.908,0,0,1-2.206.194H11.643l-.13-.13h-.941l-.1.161ZM19.2,9.7h-7a3.114,3.114,0,0,1-.876-.194h-.974l-.015,0a8.714,8.714,0,0,1-.958.158H2.562c-.006,0-.552-.006-.552-.487A.441.441,0,0,1,2.1,8.845a.653.653,0,0,1,.527-.185H9.6l.01,0c.3.069.571.137.769.193h.941a6.224,6.224,0,0,1,1.07-.162c.155-.01.814-.014,2.075-.014,1.939,0,4.826.013,4.928.014a4.844,4.844,0,0,1,1.332.259H48v.519H20.692A7.374,7.374,0,0,1,19.2,9.7Zm1.136-1.492H12.422a3.906,3.906,0,0,1-1.233-.259H9.7a4.613,4.613,0,0,1-1.253.229l-.11,0h-6.7a.443.443,0,0,1-.232-.066.43.43,0,0,1-.174-.388.529.529,0,0,1,.108-.376A.48.48,0,0,1,1.719,7.2h6.81a3.683,3.683,0,0,1,1.136.227h1.459A4.613,4.613,0,0,1,12.377,7.2l.11,0h8.079a4.511,4.511,0,0,1,1.358.293H48v.487H21.859A4.513,4.513,0,0,1,20.336,8.205Zm1.07-1.492h-8.4a6.7,6.7,0,0,1-1.3-.292h-3.6a8.92,8.92,0,0,1-1.395.227H1.292l-.039,0a.422.422,0,0,1-.229-.073.455.455,0,0,1-.149-.383A.523.523,0,0,1,1,5.843a.483.483,0,0,1,.366-.135H6.941a10.266,10.266,0,0,1,1.362.26h3.5a3.618,3.618,0,0,1,1.309-.23l.151,0h8.27A3.936,3.936,0,0,1,22.767,6H48v.454H22.735A6.746,6.746,0,0,1,21.406,6.713ZM4.443,5.254H.765c-.063,0-.376-.023-.376-.487,0-.005,0-.518.39-.518H4.67a11.541,11.541,0,0,1,1.363.292h6.746a5.616,5.616,0,0,1,1.427-.292h7.881a5.534,5.534,0,0,1,1.329.227H48v.519H23.351a7.641,7.641,0,0,1-1.46.227H14.076l-.019,0-.008,0c-.17-.03-.768-.136-1.3-.254H6.065A11.156,11.156,0,0,1,4.443,5.254Zm17.968-1.46H15.892a10.84,10.84,0,0,1-1.46-.292H0V3.016H14.594a6.41,6.41,0,0,1,1.589-.259h6.324a7.78,7.78,0,0,1,1.232.292H48V3.5H23.936A5.476,5.476,0,0,1,22.411,3.794ZM22.638,2.3h-3.47a7.443,7.443,0,0,1-1.3-.26H0V1.525H17.9A10.45,10.45,0,0,1,19.427,1.3h3.178l.013,0h.006a13.519,13.519,0,0,1,1.473.225H48v.551H24.227A10.4,10.4,0,0,1,22.638,2.3ZM48,.519H0V0H48V.518Z" transform="translate(0 8.065)" fill="#1650e9"/>
</svg>
