<svg id="Bank_Standard_Chartered_MonoBank_Standard_Chartered_Mono" data-name="Bank / Standard Chartered / MonoBank / Standard Chartered / Mono" xmlns="http://www.w3.org/2000/svg" width="48" height="48" viewBox="0 0 48 48">
  <rect id="Boundary" width="48" height="48" fill="none"/>
  <path id="Shape" d="M28.931,48h0a38.719,38.719,0,0,0-7.968-4.493l-14.2-6.34a12.279,12.279,0,0,1-4.3-2.923,6.432,6.432,0,0,1-1.629-4.42A7.107,7.107,0,0,1,1.944,25.74a8.816,8.816,0,0,1,2.748-2.5l.788-.5a3.079,3.079,0,0,0-.886,2.338c0,2.113,1.752,2.9,3.607,3.734l.253.113,16.519,7.347A10.756,10.756,0,0,1,28.8,38.888a6.478,6.478,0,0,1,1.674,4.418A7.536,7.536,0,0,1,28.932,48ZM5.774,47.543A5.885,5.885,0,0,1,0,41.964l5.967-3.6,9.3,4.2L9.337,46.357A6.8,6.8,0,0,1,5.774,47.543ZM26.233,35.314h0a2.939,2.939,0,0,0,1.076-2.137c0-1.553-.819-2.586-2.738-3.454L6.915,21.876A11.858,11.858,0,0,1,2.682,19.01a6.4,6.4,0,0,1-1.559-4.361,7.537,7.537,0,0,1,1.139-4.166A9.27,9.27,0,0,1,5.335,7.6a3.787,3.787,0,0,0-.649,2.161c0,1.978,1.518,2.815,3.352,3.632l17.183,7.635a11.163,11.163,0,0,1,4,2.756,6.742,6.742,0,0,1,1.655,4.6,6.928,6.928,0,0,1-3.615,6.288l-1.023.648Zm-.509-.216h0l-8.874-3.975,1.6-.9c1.292-.72,1.773-1.181,1.773-1.7a1.087,1.087,0,0,0-.022-.22c1.641.731,3.034,1.36,4.26,1.923l.019.009c.1.049.216.1.328.161s.211.114.311.172a3.293,3.293,0,0,1,1.514,1.568,2.541,2.541,0,0,1,.158.654,2.489,2.489,0,0,1,.005.622,2.145,2.145,0,0,1-.231.7,2.917,2.917,0,0,1-.565.74l-.272.247ZM11.489,29.732h0c-.975-.434-2.021-.9-3.2-1.43L8.2,28.26c-.24-.108-.444-.2-.623-.286s-.3-.147-.418-.207c-.1-.05-.2-.1-.314-.169A3.6,3.6,0,0,1,5.36,26.25a2.376,2.376,0,0,1-.135-.318,2.481,2.481,0,0,1-.121-.6,3.653,3.653,0,0,1,.043-.934,2.387,2.387,0,0,1,.2-.615,2.569,2.569,0,0,1,.253-.409c.049-.064.1-.13.162-.2l.194-.221,8.93,3.968-2.335,1.345c-.672.418-1.088.774-1.088,1.258a.726.726,0,0,0,.029.2ZM25.817,19.84h0l-9.407-4.2L27.344,9a5.729,5.729,0,0,1,2.931,4.837,5.836,5.836,0,0,1-3.317,5.35l-1.14.655Zm-13.994-5.3h0c-1.443-.641-2.715-1.211-3.889-1.743-.146-.067-.3-.139-.453-.213s-.288-.145-.433-.224c-.11-.059-.223-.125-.336-.2a3.254,3.254,0,0,1-1.286-1.3,2.265,2.265,0,0,1-.14-.369,2.738,2.738,0,0,1-.1-.738A3.307,3.307,0,0,1,5.72,7.925l.616-.943L17.656,0a5.682,5.682,0,0,1,2.913,4.854c0,2.283-1.048,3.983-3.3,5.35l-4.563,2.781c-.407.248-.948.649-.948,1.257a.743.743,0,0,0,.063.295Z" transform="translate(8.564)" fill="#1650e9"/>
</svg>
