<svg id="Bank_Taavon_Eslami_Mono" data-name="Bank / Taavon Eslami / Mono" xmlns="http://www.w3.org/2000/svg" width="48" height="48" viewBox="0 0 48 48">
  <rect id="Boundary" width="48" height="48" fill="none"/>
  <path id="Shape" d="M24.849,48h0V42.5A15.325,15.325,0,0,0,37.394,21.345l4.773-2.754a20.82,20.82,0,0,1,.669,15.716,7.519,7.519,0,0,0-.984-.078,6.166,6.166,0,0,0-5.417,9.121A20.665,20.665,0,0,1,24.849,48Zm-3.51-.026h0A20.681,20.681,0,0,1,10.066,43.35a6.166,6.166,0,0,0-5.417-9.121,5.668,5.668,0,0,0-.984.078,20.824,20.824,0,0,1,.6-15.573l4.778,2.757A15.323,15.323,0,0,0,21.339,42.467v5.505Zm20.513-2.933A4.645,4.645,0,1,1,46.5,40.4,4.652,4.652,0,0,1,41.852,45.041Zm-37.2,0A4.645,4.645,0,1,1,9.3,40.4,4.652,4.652,0,0,1,4.649,45.041Zm16.925-4.747h0a13.206,13.206,0,0,1-7.548-3.677,14.4,14.4,0,0,1,2.741-1.68l.04-.018a15.309,15.309,0,0,0,1.435,2.243,14.451,14.451,0,0,0,2.132,2.23,13.093,13.093,0,0,0,1.2.9Zm3.394-.005h0c.37-.248.771-.55,1.193-.9A14.457,14.457,0,0,0,28.5,36.883a16.064,16.064,0,0,0,1.219-1.954l.015.007a13.81,13.81,0,0,1,2.741,1.68,13.015,13.015,0,0,1-7.51,3.672Zm-1.314-.1V33.525a15.53,15.53,0,0,1,1.717.137,15.292,15.292,0,0,1,3.645.961,14.411,14.411,0,0,1-1.433,2.2,13.55,13.55,0,0,1-2.04,2.083,12.55,12.55,0,0,1-1.887,1.283Zm-.807-.017h0a12.006,12.006,0,0,1-1.858-1.265,13.547,13.547,0,0,1-2.04-2.083,14.343,14.343,0,0,1-1.438-2.21,15.186,15.186,0,0,1,3.621-.951c.581-.074,1.143-.119,1.717-.137v6.648Zm10.143-4.09h0a14.7,14.7,0,0,0-2.94-1.813,16.7,16.7,0,0,0,1.525-6.6h4.816a13.122,13.122,0,0,1-3.4,8.413Zm-19.48,0h0a13.129,13.129,0,0,1-3.4-8.413h4.847a16.741,16.741,0,0,0,1.52,6.589l-.025.012a14.721,14.721,0,0,0-2.941,1.813Zm15.835-2.12h0a15.721,15.721,0,0,0-3.874-1.031,16.559,16.559,0,0,0-1.816-.142V27.669h7.152a15.864,15.864,0,0,1-1.462,6.293Zm-12.164-.01h0a15.907,15.907,0,0,1-1.456-6.284h7.123V32.79a17.719,17.719,0,0,0-1.816.142,15.977,15.977,0,0,0-3.849,1.021Zm19.208-7.091H31.573a16.68,16.68,0,0,0-1.525-6.6,15.1,15.1,0,0,0,2.942-1.813,13.119,13.119,0,0,1,3.4,8.413Zm-5.583,0H23.654v-5.12a16.288,16.288,0,0,0,4.273-.674,14.614,14.614,0,0,0,1.418-.5,15.894,15.894,0,0,1,1.462,6.294Zm-7.96,0H15.724a15.829,15.829,0,0,1,1.457-6.284c.43.174.9.339,1.392.49a16.2,16.2,0,0,0,4.273.674v5.119Zm-7.889,0H10.111a13.119,13.119,0,0,1,3.4-8.414,15.292,15.292,0,0,0,2.966,1.824,16.625,16.625,0,0,0-1.52,6.589Zm7.889-5.856h0a15.486,15.486,0,0,1-4.061-.643c-.432-.13-.861-.28-1.275-.446l.014-.027c.009-.018.019-.036.029-.054l.023-.044a14.492,14.492,0,0,1,1.269-1.955,13.743,13.743,0,0,1,2.266-2.315,12.965,12.965,0,0,1,1.735-1.166V21Zm.808,0h0V14.34a12.763,12.763,0,0,1,1.765,1.182,13.7,13.7,0,0,1,2.266,2.315,14.52,14.52,0,0,1,1.269,1.955l.031.058.031.058c-.437.176-.874.329-1.3.456A15.51,15.51,0,0,1,23.655,21.005ZM16.8,19.611h0a14.2,14.2,0,0,1-2.78-1.7,13.2,13.2,0,0,1,7.551-3.678,13.318,13.318,0,0,0-1.073.795,14.376,14.376,0,0,0-2.369,2.477,15.318,15.318,0,0,0-1.315,2.077l-.014.026ZM29.722,19.6h0a15.385,15.385,0,0,0-1.428-2.232,14.4,14.4,0,0,0-2.132-2.229,13.62,13.62,0,0,0-1.2-.9,13.02,13.02,0,0,1,7.514,3.673A14.2,14.2,0,0,1,29.722,19.6ZM10.735,18.417h0L5.976,15.671A20.858,20.858,0,0,1,17.647,7.232a6.174,6.174,0,0,0,11.2,0,20.872,20.872,0,0,1,11.584,8.309l-4.763,2.748a15.33,15.33,0,0,0-24.937.127ZM23.25,9.29A4.645,4.645,0,1,1,27.9,4.645,4.652,4.652,0,0,1,23.25,9.29Z" transform="translate(0.75)" fill="#1650e9"/>
</svg>
