<svg id="Bank_Tejarat_Mono" data-name="Bank / Tejarat / Mono" xmlns="http://www.w3.org/2000/svg" width="48" height="48" viewBox="0 0 48 48">
  <rect id="Boundary" width="48" height="48" transform="translate(0)" fill="none"/>
  <path id="Shape" d="M41.714,0H7.213V-5.426l.675-.792A24.135,24.135,0,0,1,3.3-11.853l8.922,5.109h.986L2.424-13.483q-.518-1.06-.933-2.175L14.306-6.744h.678L.971-17.226A23.837,23.837,0,0,1,.349-19.9L15.986-6.744h.708L.075-22.086Q0-23.033,0-24q0-.212,0-.424l17.37,17.68h.492L.106-26.269A23.917,23.917,0,0,1,.5-28.9L18.517-6.744h.449L.988-30.831q.334-1.126.773-2.2L19.46-6.744h.419L2.641-34.95a23.993,23.993,0,0,1,1.275-2.187L20.353-6.744h.383l-4.22-8.72-.134-.066a2.662,2.662,0,0,1-.608-.423,2.442,2.442,0,0,1-.424-.559c-.148-.261-.261-.54-.391-.81-.041-.08-.082-.158-.127-.236a.412.412,0,0,0-.085-.108c-.058-.047-.12-.089-.179-.136a.7.7,0,0,1-.15-.164.916.916,0,0,1-.07-.166h0a.283.283,0,0,1-.1-.088.251.251,0,0,1-.043-.13.62.62,0,0,1,.007-.078c0-.01,0-.02,0-.03a.245.245,0,0,1,.019-.089c.009-.062.018-.123.03-.185a.588.588,0,0,1,.055-.165.825.825,0,0,1,.393-.313l-2.587-5.346-.084-.027a1.464,1.464,0,0,1-.716-.437A1.018,1.018,0,0,1,11.2-25.2a1.1,1.1,0,0,1-.08-.245,1.742,1.742,0,0,1-.031-.3c0-.1,0-.2-.009-.3a.023.023,0,0,0-.005-.014c-.017-.023-.036-.045-.055-.067-.083-.092-.17-.18-.252-.273a1.6,1.6,0,0,1-.179-.249.881.881,0,0,1-.118-.456.828.828,0,0,1,.038-.209c.038-.106.077-.211.115-.316L5.18-38.887q.737-.93,1.562-1.784L8.3-36.994a2.06,2.06,0,0,1,.031-.347,1.113,1.113,0,0,1,.7-.814.772.772,0,0,1,.422-.048,1.213,1.213,0,0,1,.285.107,1.852,1.852,0,0,1,.24.145L8.4-42.235q.849-.727,1.765-1.375l2.113,6.661c.068-.059.134-.12.2-.181.231-.22.452-.448.682-.67a2.469,2.469,0,0,1,.523-.406l-1.764-6.534a23.927,23.927,0,0,1,2.224-1.148l2.076,9.666.049-.049a1.468,1.468,0,0,0,.152-.188.935.935,0,0,0,.1-.181,1.182,1.182,0,0,0,.057-.45c-.008-.181-.03-.36-.042-.541a1.087,1.087,0,0,1,.06-.484.846.846,0,0,1,.569-.412c.045-.014.091-.025.137-.035.072-.016.144-.028.217-.038l.017,0-1.356-8.094q1.039-.359,2.12-.623l1.044,8.66.384-.015c.263-.008.525-.015.788-.019.183,0,.368,0,.551,0l.1-.008L20.5-47.746q1.152-.169,2.337-.226L23.11-36.66a.6.6,0,0,1,.059.07.828.828,0,0,1,.1.217,2.35,2.35,0,0,1,.105.571c.007.084.011.168.014.252.005.134.008.268.016.4.006.084.013.168.022.253.024.22.049.44.07.66q.007.08.013.16l.005,0c.043-.019.084-.039.124-.062a3.231,3.231,0,0,0,.468-.353c.135-.117.268-.236.4-.352.073-.06.073-.06.147-.119s.155-.114.236-.166l.327-12.841q1.156.058,2.281.223l-.9,12.216a7.134,7.134,0,0,1,1.1-.036,2.9,2.9,0,0,1,.573.085L29.7-47.317q1.08.264,2.12.623L29.772-34.446q.238-.016.475-.027c.144-.006.206-.009.35-.012.194,0,.39,0,.584.009.073.005.146.012.219.024l2.456-11.434a23.952,23.952,0,0,1,2.224,1.148l-3.045,11.28.072.033a3.455,3.455,0,0,1,.332.182,2.186,2.186,0,0,1,.782.8q.022.042.043.085l3.57-11.256q.915.647,1.765,1.375L33.92-26.859a.8.8,0,0,1,.1.327,1.111,1.111,0,0,1-.014.223c-.007.057-.013.115-.019.172-.01.125-.01.125-.017.25a14.4,14.4,0,0,0,.1,2.154l7.188-16.938q.824.852,1.562,1.784L35.286-23.319a1.243,1.243,0,0,1,.561.439,1.014,1.014,0,0,1,.119.24.923.923,0,0,1,.05.287A.894.894,0,0,1,36-22.2l8.08-14.94a24.012,24.012,0,0,1,1.275,2.187L35.411-18.672c.071.058.146.111.222.162.176.114.358.218.534.331l.049.033L46.239-33.034q.438,1.077.773,2.2L36.928-17.32a1.589,1.589,0,0,1,.048.164,4.851,4.851,0,0,1,.075.693c.077.037.16.065.239.1l.011,0L47.5-28.9a23.925,23.925,0,0,1,.4,2.634L35.621-12.776q0,.062,0,.124c0,.118,0,.236.008.354l.032,0,.2-.014c.1,0,.1,0,.2,0H36.1L48-24.424l0,.106q0,.159,0,.318,0,.966-.076,1.914l-11.05,10.2c0,.03-.009.059-.014.087-.009.079-.011.259-.014.338-.006.16-.011.32-.017.48a.582.582,0,0,1-.042.2.217.217,0,0,1-.019.035L47.651-19.9l-.03.171a23.784,23.784,0,0,1-.592,2.507L33.016-6.744h.678l12.814-8.915-.052.139q-.394,1.042-.881,2.036L34.791-6.744h.986L44.7-11.853l-.049.083A24.124,24.124,0,0,1,40.628-6.7l1.086,1.274ZM7.813-.6h33.3V-4.826H7.813ZM30.961-1.924a1.286,1.286,0,0,1-.169.529,1.926,1.926,0,0,1-.334.493.839.839,0,0,1-.3-.077.861.861,0,0,1-.268-.156,2.65,2.65,0,0,0,.521-.311.855.855,0,0,0,.319-.376.732.732,0,0,0-.3-.353l.223-.431a.877.877,0,0,1,.212.313A.933.933,0,0,1,30.961-1.924Zm9.591.589-.26.245-.255-.255.264-.242Zm-7.4-.023-.26.245-.255-.255L32.9-1.61ZM12.432-3.9h.35v1.5a2.057,2.057,0,0,1-.038.452.656.656,0,0,1-.185.332.5.5,0,0,1-.354.125.457.457,0,0,1-.4-.2,1,1,0,0,1-.14-.576L12-2.311a.824.824,0,0,0,.044.288.184.184,0,0,0,.173.128.173.173,0,0,0,.166-.091.946.946,0,0,0,.049-.379Zm2.293,2.369h-.382l-.152-.538h-.7l-.144.538h-.373L13.657-3.9h.372ZM11.473-3.5h-.939v.525h.874v.4h-.874v.645h.972v.4H10.183V-3.9h1.29Zm3.791,1.968h-.351V-3.9h.74a.954.954,0,0,1,.405.064.457.457,0,0,1,.2.227.876.876,0,0,1,.076.373.781.781,0,0,1-.115.44.512.512,0,0,1-.344.219.912.912,0,0,1,.188.2,2.827,2.827,0,0,1,.2.385l.212.462h-.42L15.8-2.043a3.474,3.474,0,0,0-.185-.348.283.283,0,0,0-.106-.1.435.435,0,0,0-.177-.027h-.071Zm2.972,0h-.382L17.7-2.066h-.7l-.144.538h-.373L17.169-3.9h.372ZM19.5-3.5h-.515v1.968h-.351V-3.5h-.516v-.4H19.5ZM21-1.528H20.4V-3.9h.7a1.486,1.486,0,0,1,.308.023.4.4,0,0,1,.182.1.577.577,0,0,1,.134.2.692.692,0,0,1,.053.277.7.7,0,0,1-.066.305.475.475,0,0,1-.179.208.474.474,0,0,1,.245.215.716.716,0,0,1,.085.357.918.918,0,0,1-.055.314.623.623,0,0,1-.151.244.422.422,0,0,1-.236.112Q21.333-1.531,21-1.528Zm2.731,0h-.382l-.152-.538h-.7l-.144.538h-.373L22.66-3.9h.372Zm.516,0h-.326V-3.9h.342l.712,1.582V-3.9H25.3v2.369h-.353l-.7-1.545Zm1.782,0h-.351V-3.9h.351v1.052l.71-1.052h.472l-.655.923.691,1.446h-.455l-.478-1.112-.285.4ZM9.956-3.5H9.441v1.968H9.09V-3.5H8.573v-.4H9.956ZM38.267-1.853h-.1a.545.545,0,0,1-.34-.126,1.509,1.509,0,0,1-.229-.25,1.526,1.526,0,0,0-.224-.247.74.74,0,0,1,.01.121.922.922,0,0,1-.018.174.741.741,0,0,1-.466.281,2.6,2.6,0,0,1-.558.047,2.035,2.035,0,0,1-.65-.068.4.4,0,0,1-.245-.416,1.115,1.115,0,0,1,.2-.6.083.083,0,0,1,.1.053.567.567,0,0,0-.094.3.256.256,0,0,0,.231.26,2.838,2.838,0,0,0,.543.032,3.781,3.781,0,0,0,.556-.029.635.635,0,0,0,.269-.1,1.4,1.4,0,0,0-.652-.524,3.629,3.629,0,0,1,.052-.55,4.831,4.831,0,0,1,1.34-.532l-.194.416a4.313,4.313,0,0,0-.584.2,4.473,4.473,0,0,0-.413.185,2.339,2.339,0,0,1,.581.348,3.106,3.106,0,0,1,.3.279,2.134,2.134,0,0,0,.235.219.431.431,0,0,0,.257.089h.164q.35,0,.35-.1a.849.849,0,0,0-.182-.319l.248-.339a.843.843,0,0,1,.184.513,1.07,1.07,0,0,1-.155.464A.616.616,0,0,1,38.267-1.853Zm1.635,0h-.1a.383.383,0,0,1-.4-.255,3.185,3.185,0,0,1-.084-.769q-.01-.3-.024-.41a1.408,1.408,0,0,0-.1-.4l.3-.31a.808.808,0,0,1,.092.363q.006.089.007.376v.476a1.124,1.124,0,0,0,.031.31.217.217,0,0,0,.219.173h.139q.35,0,.35-.1a.849.849,0,0,0-.182-.319l.248-.339a.843.843,0,0,1,.184.513,1.07,1.07,0,0,1-.155.464A.616.616,0,0,1,39.9-1.853Zm-10.133-.76a.807.807,0,0,1-.092.273.775.775,0,0,1-.15.243,1.529,1.529,0,0,1-.444.142,3.7,3.7,0,0,1-.821.1.954.954,0,0,1-.7-.2.518.518,0,0,1-.121-.372,1.144,1.144,0,0,1,.192-.632l.018,0a.1.1,0,0,1,.1.055,1.011,1.011,0,0,0-.1.355q0,.357.768.356a2.891,2.891,0,0,0,1.092-.166,1.344,1.344,0,0,0-.177-.322l.245-.332a.884.884,0,0,1,.134.266A.8.8,0,0,1,29.769-2.613Zm2.277.76h-.221a.383.383,0,0,1-.4-.255,3.179,3.179,0,0,1-.084-.769q-.01-.3-.024-.41a1.405,1.405,0,0,0-.1-.4l.3-.31a.809.809,0,0,1,.092.363q.006.089.007.376v.476a1.124,1.124,0,0,0,.031.31.217.217,0,0,0,.219.173h.261a1.452,1.452,0,0,0,.431-.053,3.6,3.6,0,0,0,.431-.194,4.365,4.365,0,0,0-.694-.242.152.152,0,0,0-.114.045.782.782,0,0,0-.106.168.118.118,0,0,1-.047.011.078.078,0,0,1-.069-.043A3.971,3.971,0,0,1,32.115-3q.108-.2.208-.2a2.1,2.1,0,0,1,.443.169,1.576,1.576,0,0,0,.551.169,3.521,3.521,0,0,0,.594-.077l-.171.39q-.211.023-.348.052a.375.375,0,0,0,.374.2h.342q.35,0,.35-.1a.849.849,0,0,0-.182-.319l.248-.339a.843.843,0,0,1,.184.513,1.069,1.069,0,0,1-.155.464.616.616,0,0,1-.51.227h-.134a.583.583,0,0,1-.434-.163,1.079,1.079,0,0,1-.224-.419q-.516.365-.614.419A1.2,1.2,0,0,1,32.046-1.853ZM21.039-2.56h-.284v.633h.325a1.174,1.174,0,0,0,.241-.015.211.211,0,0,0,.128-.095.363.363,0,0,0,.049-.2.394.394,0,0,0-.038-.181.233.233,0,0,0-.11-.108A.89.89,0,0,0,21.039-2.56Zm2.042.1-.24-.879-.235.879Zm-9,0-.24-.879-.235.879Zm3.511,0-.24-.879-.235.879ZM15.539-3.5h-.274v.6h.26a1,1,0,0,0,.316-.029.208.208,0,0,0,.1-.1.394.394,0,0,0,.036-.178.354.354,0,0,0-.047-.193.2.2,0,0,0-.132-.093A2.172,2.172,0,0,0,15.539-3.5ZM20.958-3.5h-.2v.548h.23a2.274,2.274,0,0,0,.255-.008.21.21,0,0,0,.142-.085.306.306,0,0,0,.052-.185.323.323,0,0,0-.045-.179.186.186,0,0,0-.132-.083Q21.206-3.5,20.958-3.5Zm7.618.219-.239.226L28.1-3.295l.243-.218Zm.59-.031-.239.224-.234-.236.245-.219Zm9.79-.221-.26.245-.255-.255.264-.242Zm-4.019.013-.222.223-.226-.2-.206.208L34.044-3.5l.222-.227.226.2.206-.211ZM21.509-6.744l-1.251-3.387-.029,0-.09-.017a.283.283,0,0,1-.116-.056.252.252,0,0,1-.072-.277.284.284,0,0,1,.074-.105l.048-.04-.412-1.116a.671.671,0,0,1-.128.065,1.024,1.024,0,0,1-.184.051c-.032.006-.064.01-.1.014a.982.982,0,0,1-.182,0l2.067,4.872Zm.351,0h.318l-.886-3.282c-.162-.008-.323-.019-.484-.034Zm.691,0h.318L22.324-10h-.147l-.326,0Zm.635,0h.318L23.267-10h-.053l-.42,0Zm.984,0,.084-3.288a.518.518,0,0,1-.378.032c-.029,0-.058,0-.087,0h-.033l.079,3.259Zm.642,0,.544-4.511c-.009.023-.018.047-.027.07a1.009,1.009,0,0,1-.077.145,1.672,1.672,0,0,1-.4.387l-.079.055-.283,3.853Zm.635,0,1.219-5.676c-.028.061-.056.122-.085.183s-.035.071-.073.14a.949.949,0,0,1-.529.5l-.039.009-.811,4.84Zm.372,0h.318l1.392-4.388a.312.312,0,0,1-.06-.057.437.437,0,0,1-.072-.149.864.864,0,0,1-.014-.37c0-.029.011-.067.017-.1.013-.065.027-.13.039-.2.02-.135.036-.271.05-.406a4.942,4.942,0,0,0,.028-.509c0-.036,0-.072,0-.109Zm.67,0h.371l1.616-3.809a.425.425,0,0,1-.081-.023.4.4,0,0,1-.234-.252A.637.637,0,0,1,28.14-11v-.018l-.067-.007Zm.773,0h.383l1.907-3.525a2.393,2.393,0,0,1-.386-.039,1.149,1.149,0,0,1-.16-.039Zm1.276,0L30.932-10.3c-.215,0-.43,0-.645.009L28.121-6.744Zm.942,0,2.941-3.618h-.017c-.234.014-.468.027-.7.038L29.034-6.744Zm1.143,0L34.3-10.487l-.417.027-.4.027-3.356,3.69Zm1.388,0,4.65-3.913a.64.64,0,0,1-.233.055l-.054,0c-.035,0-.07,0-.105,0-.05,0-.095-.006-.146-.01s-.123-.011-.184-.012c-.1,0-.2.011-.3.018l-.166.014L31.305-6.744ZM19.7-12.379l.018,0a.773.773,0,0,1,.082,0l.035.006h0l.033.007h0l.032.008.012,0,.012,0,.015,0,.012,0,.01,0,.013,0,.015.005.02.008.017.007.017.007.02.009.014.006.023.011h0a1.952,1.952,0,0,1,.237.139,1.639,1.639,0,0,1,.375.322,1.052,1.052,0,0,1,.178.956.924.924,0,0,1-.137.294h0c.133.014.265.024.4.032h.018l.116.006h.032l.12.005.047,0,.1,0h.049l.1,0,.108,0,.4,0,.494,0,.482,0h.143l.148,0h.29a1.17,1.17,0,0,1,.146.006l.018,0c.01-.032.021-.063.034-.095a.465.465,0,0,1,.116-.153q.081-.062.165-.12l.143-.1.071-.049.07-.05c.041-.031.081-.063.121-.1l.04-.037.02-.019.02-.019.019-.02.009-.01.01-.011.008-.01.009-.011.013-.017.007-.011a.585.585,0,0,0,.058-.128c.019-.054.038-.108.059-.161s.02-.047.042-.093a.769.769,0,0,1,.118-.17.636.636,0,0,1,.339-.179l.022,0,.026,0c.111-.015.223,0,.334-.016a.121.121,0,0,0,.045-.014L25.9-12.1l.017-.015.005-.005.016-.016.015-.016.014-.017.014-.018,0-.006.013-.018.012-.018.019-.03.014-.023.014-.024.009-.017.04-.075c.075-.149.141-.3.215-.453.043-.082.091-.161.134-.243.052-.1.1-.2.155-.293.03-.052.061-.1.1-.152a1.474,1.474,0,0,1,.122-.151,1.258,1.258,0,0,1,.123-.114l.035-.027L27-13.842l.02-.014.011-.007.026-.017,0,0,.035-.022a.638.638,0,0,1,.554-.124.425.425,0,0,1,.118.075h0a.525.525,0,0,1,.093.108.7.7,0,0,1,.087.2,2.148,2.148,0,0,1,.054.4c.012.137.018.274.017.411,0,.119-.008.238-.018.357v.008q0,.04-.007.079c0,.032-.007.065-.01.1v.007l0,.024-.005.047,0,.024,0,.015,0,.02,0,.027-.006.043,0,.019,0,.011,0,.012-.011.085c-.015.109-.043.216-.061.325,0,.03-.007.06-.008.091v.005c.074.007.149.008.224.013l.039,0,.027,0,.033,0,.017,0,.015,0,.023,0h0a.649.649,0,0,1,.105.028.417.417,0,0,1,.259.26.612.612,0,0,1,.025.175h.113a.5.5,0,0,1,.278.1.75.75,0,0,1,.069.061.508.508,0,0,0,.068.064l.016,0,.016,0,.031.007.067.012a2.935,2.935,0,0,0,.546.024h.042l.062,0,.253-.012.065,0,.064,0h0c.192,0,.384,0,.576-.006l.4-.012.147-.006.044,0,.187-.008H31.7l.172-.008.039,0,.183-.01.038,0,.723-.045.542-.036.471-.032.107-.007h0L34.445-11c.136-.01.273-.023.409-.036l.41-.04.047,0,.059-.005.039,0,.06-.005.13-.011q.15-.011.3-.019h.107l.036,0h0c.1.006.19.016.285.019h0c0-.184.014-.369.021-.553l.008-.176-.142.009-.047,0h-.205l-.05,0H35.9l-.031,0-.086.006h-.012l-.048,0-.056,0-.053,0c-.159.015-.318.034-.478.049l-.2.015c-.084,0-.167.006-.251.005h-.043l-.037,0a.89.89,0,0,1-.272-.075c-.1-.045-.194-.1-.3-.148a.7.7,0,0,0-.083-.026l-.025,0h-.008l-.017,0-.01,0-.015,0h-.01l-.015,0-.019,0-.032,0h-.015l-.036,0c-.067-.006-.133-.01-.2-.017s-.056-.008-.112-.018a1.1,1.1,0,0,1-.178-.054,1.588,1.588,0,0,1-.176-.089h0l0,0-.048-.028h0l-.032-.02-.013-.008,0,0-.006,0-.012-.008-.014-.009-.019-.012-.031-.02L32.9-12.3l-.009-.006,0,0-.076-.05-.041-.027-.025-.016-.013-.008-.046-.029a1.528,1.528,0,0,0-.142-.073l-.022-.009-.006,0-.012,0-.023-.007-.009,0a1.494,1.494,0,0,0-.208-.042c-.079-.012-.158-.021-.237-.029-.1-.01-.2-.017-.3-.021h-.008l-.057,0H31.4l-.039,0h-.02l-.039,0h-.018l-.057,0-.065.006-.019,0-.049.006-.018,0-.064.009-.1.014c-.088.013-.175.027-.263.038l-.157.016a2.306,2.306,0,0,1-.457-.006.862.862,0,0,1-.335-.1l-.017-.01,0,0h0l0,0-.007,0,0,0-.009-.006-.016-.011,0,0h0L29.6-12.7l0,0,0,0-.012-.009-.011-.009,0,0,0,0,0,0-.007-.006-.017-.014-.014-.012-.006,0-.005,0-.006-.005-.012-.011-.019-.017-.029-.026c-.033-.029-.066-.058-.1-.085-.133-.1-.276-.193-.411-.293l-.043-.035h0l-.012-.01-.011-.009,0,0-.029-.025h0l0,0-.021-.019,0,0,0,0-.007-.007-.013-.012-.006-.006,0,0-.006-.006-.009-.009-.009-.009-.006-.006,0,0-.006-.006-.013-.014-.007-.007,0,0-.027-.03-.025-.029,0,0-.006-.007-.011-.014-.005-.007,0,0,0-.006-.007-.009-.008-.012-.005-.007,0,0,0-.005-.013-.019,0-.006h0l-.021-.032h0l0-.007-.012-.019,0-.006,0,0,0-.008-.007-.012-.005-.01,0-.007,0-.006,0-.007L28.5-13.71l0-.008,0,0,0,0-.014-.028v-.006l-.013-.028v0l0,0,0-.009-.007-.015,0-.007,0-.007,0-.008,0-.009,0-.012,0-.009,0-.005,0-.005-.006-.018,0-.011v0h0c-.013-.038-.025-.077-.035-.116-.048-.186-.064-.378-.094-.567-.008-.043-.017-.085-.028-.127a.467.467,0,0,0-.078-.167.31.31,0,0,0-.135-.09l-.024-.008h0L27.993-15h0L27.966-15l-.031-.006a.82.82,0,0,0-.125-.013h-.025l-.05,0a1.3,1.3,0,0,0-.48.159l-.071.038c-.155.085-.306.177-.461.261a3.166,3.166,0,0,1-.307.139h0l-.013.005-.025.01-.007,0-.007,0-.013,0-.016.006-.014,0-.011,0-.009,0-.009,0-.022.007-.014,0,0,0-.048.016h0l-.013,0-.028.009-.007,0-.007,0-.013,0-.017.005-.013,0-.011,0-.01,0-.01,0-.02.006-.015,0-.006,0h0l-.038.01-.008,0-.017,0-.026.007h0l-.008,0-.017,0-.015,0h-.005l-.083.019h0l-.043.01-.044.009-.012,0c-.221.046-.445.079-.668.108h0l-.063.008-.224.027-.1.011h0l-.016,0-.027,0h-.009l-.017,0-.023,0h-.028l-.021,0h-.147a1.078,1.078,0,0,1-.427-.08,1.143,1.143,0,0,1-.277-.174l0,0-.012-.01-.013-.011,0,0,0,0-.058-.053,0,0,0,0-.01-.009-.013-.013,0,0,0,0,0,0-.006-.007-.018-.019-.014-.015-.006-.006,0,0-.038-.04,0,0-.006-.006-.019-.021-.008-.009-.01-.011-.036-.041,0,0,0,0h0l-.065-.074-.035-.04-.021-.023-.01-.011-.038-.042c-.032-.033-.065-.065-.1-.1l-.021-.017-.007-.006-.014-.011-.009-.007-.013-.009L23-14.95l-.012-.008-.012-.007-.011-.007-.013-.008-.01-.006-.014-.008L22.923-15l-.017-.009a2.335,2.335,0,0,0-.641-.186l-.1-.019-.045-.009-.014,0-.13-.025c-.084-.018-.167-.037-.25-.06l-.044-.013h0l-.011,0-.021-.007-.009,0-.007,0-.01,0-.014,0-.014-.005-.01,0-.007,0-.009,0-.02-.007-.011,0h-.008l-.033-.013-.005,0-.007,0-.031-.013h0l0,0-.014-.006-.016-.007h0a2.767,2.767,0,0,1-.407-.221,4.709,4.709,0,0,1-.44-.333h0l0,0-.007-.006-.032-.027-.012-.011,0,0-.006-.005-.033-.028-.013-.011,0,0-.006-.005-.077-.067-.025-.021,0,0h0l-.1-.091-.109-.094-.09-.075-.032-.027-.057-.047-.109-.089-.081-.067-.048-.04-.108-.089-.017-.014-.012-.01-.029-.024-.03-.025-.014-.011-.02-.016-.028-.023-.026-.022h0l-.038-.032c-.165-.143-.328-.288-.483-.443a2.3,2.3,0,0,1-.264-.295,2.034,2.034,0,0,1-.276-.615,4.788,4.788,0,0,1-.153-.879c-.009-.1-.009-.206-.017-.308a1.221,1.221,0,0,0-.018-.128.229.229,0,0,0-.052-.114.091.091,0,0,0-.037-.018.367.367,0,0,0-.128.007c-.064.011-.128.024-.192.034l-.07.007h-.053a.762.762,0,0,1-.142-.013,1.486,1.486,0,0,1-.184-.057.842.842,0,0,1-.412-.264,1.48,1.48,0,0,1-.136-.282l-.006-.012a.338.338,0,0,0-.082-.024h-.036l-.015,0h0l-.013,0h0l-.011,0h0l-.014.005h0l-.01,0,0,0-.01.005,0,0-.012.007-.019.013,0,0L16.5-20.3c-.019.015-.037.031-.054.047-.075.075-.142.156-.215.233-.1.1-.211.2-.31.31-.023.026-.046.053-.067.08-.034.048-.066.1-.1.147l-.016.025-.018.028-.029.046-.015.024-.009.014,0,0,0,.007-.017.026-.011.017,0,0,0,0,0,0-.012.018-.019.027c-.028.038-.056.075-.085.111a.885.885,0,0,1-.127.125,1.316,1.316,0,0,1-.25.139l-.126.057-.025.011-.062.029-.005,0-.071.035a.7.7,0,0,0-.086.055l-.014.013c-.008.035-.013.069-.019.1l-.005.037a.962.962,0,0,1,.049.095c.026.063.045.129.072.192a.4.4,0,0,0,.062.057c.054.041.109.08.162.123.034.03.033.029.066.061a.973.973,0,0,1,.065.077c.033.05.063.1.093.152.147.265.264.545.4.817.039.076.078.152.121.226a1.993,1.993,0,0,0,.3.391l.024.023.007.006.024.021a2.457,2.457,0,0,0,.621.384l.086.039.027.012.05.022.125.054.148.063,0,0,.136.059,0,0,.172.077q.1.046.192.1a2.16,2.16,0,0,1,.286.174,2.7,2.7,0,0,1,.49.512q.037.048.074.1h0l.014.02.009.013.011.015.013.018.01.014.013.019.03.045.019.029.015.024.026.044.015.027.018.032.011.02.013.026.011.022.014.03a1.956,1.956,0,0,1,.136.41l.01.05.008.041,0,.016,0,.029,0,.024,0,.021,0,.032,0,.013L19-13.6l.006.051,0,.043h0c.015.166.021.333.025.5,0,.15.014.3.019.451,0,.111,0,.223,0,.334a.729.729,0,0,0,.012.1.5.5,0,0,0,.256-.019l.026-.009.007,0a.46.46,0,0,1,.023-.05.337.337,0,0,1,.06-.077l.017-.014.014-.011.014-.01.016-.01.016-.009.016-.008.017-.007.017-.007.017-.006.017-.005.018,0,.023,0,.017,0,.017,0Zm.674.94.067.211A.524.524,0,0,0,20.372-11.439ZM15.413-35.275a.982.982,0,0,0-.221-.059l-.049-.007-.016,0-.034,0-.019,0-.031,0-.02,0-.032,0H14.7l-.025,0-.026,0-.02,0-.12.011h0l-.045.005-.127.017-.043.007c.016-.125.031-.25.045-.376l.008-.079.008-.083.01-.106.006-.072,0-.041.009-.115c.007-.113.014-.226.018-.339,0-.076,0-.153.005-.229s0-.149,0-.223-.006-.129-.012-.211a1.426,1.426,0,0,0-.095-.459.264.264,0,0,0-.165-.167.307.307,0,0,0-.074,0l-.017,0h-.006l-.011,0-.007,0-.01,0-.007,0-.01,0-.007,0-.01,0-.006,0-.011,0-.006,0-.014.007h0l-.027.014,0,0-.023.013-.02.012-.01.006-.026.018,0,0-.03.022a3.124,3.124,0,0,0-.285.245c-.2.192-.393.39-.591.583-.093.089-.187.176-.284.261q-.12.106-.248.2c-.066.05-.135.1-.2.144-.051.033-.1.065-.157.094a1.644,1.644,0,0,1-.54.195,1.072,1.072,0,0,1-.11.011h-.037a.639.639,0,0,1-.146-.016.682.682,0,0,1-.224-.1,1.568,1.568,0,0,1-.378-.4l-.046-.065,0-.007,0,0-.01-.014c-.1-.144-.2-.292-.3-.436-.056-.076-.112-.15-.172-.224a1.79,1.79,0,0,0-.493-.425,1.279,1.279,0,0,0-.129-.062.279.279,0,0,0-.071-.023.331.331,0,0,0-.15.026.643.643,0,0,0-.264.186.561.561,0,0,0-.116.221.9.9,0,0,0-.022.149c-.008.092-.01.185-.009.278a5.9,5.9,0,0,0,.09.9c.038.227.086.452.144.675l.005.019.024.088,0,.012.025.088,0,.012.022.073.007.022.027.084a4.509,4.509,0,0,0,.2.51l.026.055.009.018.019.037.023.042,0,.007.026.045.015.026.006.009c.013.021.026.041.04.062l.019.028.017.024.017.023.017.022.032.038.028.306.009.093,0,.051.014.143a3.245,3.245,0,0,0,.273,1.117,1.782,1.782,0,0,0,.153.239c.077.1.156.206.238.306l.1.125.021.025.053.064.109.131.053.064.022.026.055.066.037.044.1.123q.145.182.283.367c.062.085.122.17.181.257a1.118,1.118,0,0,1,.149.272,1.36,1.36,0,0,1,.056.376,3.175,3.175,0,0,1-.021.447v.009h0v0l-.008.065a8.175,8.175,0,0,1-.328,1.427q-.066.209-.14.415a2.245,2.245,0,0,0-.084.235.4.4,0,0,0-.005.042.582.582,0,0,0,.174.361c.1.109.2.212.294.323a.745.745,0,0,1,.09.132.671.671,0,0,1,.054.255c0,.109,0,.218.008.327l0,.035v.007l0,.033a.7.7,0,0,0,.04.169.472.472,0,0,0,.131.184.655.655,0,0,0,.068.052l.026.017.027.016.027.015.024.013.007,0,.03.014.01,0,.035.015.037.015.01,0,.018.007.037.014.014,0,.048.016c.058.019.085.027.143.045.218.063.439.118.657.181l.075.023.066.02.017.005.021.007.033.01.025.008.019.007.026.009.017.006.016.006.017.006.019.007.021.008.021.007.014.005.014.005.025.01.025.01.021.009q.066.026.131.055a2.831,2.831,0,0,1,.384.208,2.3,2.3,0,0,1,.2.146.89.89,0,0,1,.144.138,1.053,1.053,0,0,1,.168.632c0,.051,0,.1,0,.154,0,.081-.005.148-.008.233,0,.113,0,.113-.007.226,0,.07,0,.14,0,.21a.577.577,0,0,0,.16.412,1.027,1.027,0,0,0,.143.081.476.476,0,0,1,.047.038.83.83,0,0,1,.182.322,2.329,2.329,0,0,1,.09.373,6.3,6.3,0,0,1,.076.884l0,.087v.39l0,.057v.033c0,.035,0,.07,0,.1l0,.094.127.088.059-.094.06-.093.023-.031.023-.03.02-.025.029-.035c.12-.135.255-.253.378-.384.052-.058.1-.116.156-.173a1.557,1.557,0,0,1,.156-.141.883.883,0,0,1,.114-.074l.017-.009.017-.008.018-.008.017-.007.018-.007.017-.007.025-.009.012,0,.016,0,.025-.006.014,0,.015,0,.025,0,.017,0h.014l.025,0h.067q.033,0,.067.006a.81.81,0,0,1,.18.046.533.533,0,0,1,.173.1.643.643,0,0,1,.15.237,1.139,1.139,0,0,0,.058.135.188.188,0,0,0,.04.032.8.8,0,0,0,.137.06l.052.019.02.007.025.008.029.007a.316.316,0,0,0,.056,0c.089-.01.176-.03.264-.044.042,0,.081-.008.123-.009a.694.694,0,0,1,.18.024.577.577,0,0,1,.113.046.588.588,0,0,1,.112.078.8.8,0,0,1,.228.51c.012.123.013.246.023.369a4.306,4.306,0,0,0,.149.83,1.4,1.4,0,0,0,.233.474c.028.032.058.063.088.094l.079.08.069.067.07.066.028.026.043.039.03.027.042.037.031.027.042.037.03.026.043.038.028.024.046.039.025.021.043.036.06.05.1.084.025.021c.144.119.29.238.434.358.159.136.316.275.477.41a4.313,4.313,0,0,0,.384.284l.051.032.052.031.052.03.026.014.027.014.027.013.027.013.027.013.028.012.028.012.028.011.028.011.028.01.047.016.047.015.019.006.028.008.021.006.027.007.022.006.026.006.024.006.023.005.027.006.051.011c.15.031.3.055.451.086.067.015.133.031.2.049.044.013.088.026.131.041l.022.007.038.013.037.014.037.015.026.011.03.013.017.008.013.006.023.011.007,0,.029.015.032.018.026.015.011.007.017.011.016.01.011.008.022.015.006,0,.027.02.021.016.018.015.033.028.01.008.012.011.017.016.01.009.011.01.015.014.013.012.009.01.012.012.015.016.018.019.018.019.015.016.032.036.023.026h0c.078.087.153.177.233.262.032.032.064.062.1.091a.65.65,0,0,0,.187.114.644.644,0,0,0,.208.03h.049l.04,0,.04,0,.04,0,.04,0,.04,0,.08-.01.22-.027L25-14.608l.075-.01c.212-.029.424-.065.633-.112l.073-.017.047-.012.037-.009.044-.012.044-.012.044-.013.043-.013.045-.014.045-.015.02-.007.025-.009.02-.007.025-.009.019-.007.044-.018.044-.018.026-.011.017-.008.043-.02.043-.021c.195-.1.38-.219.574-.321a2.466,2.466,0,0,1,.318-.137l.022-.007.035-.011.035-.01.036-.009.036-.009.038-.008.035-.007.03,0,.03,0,.031,0,.018,0H27.7l.028,0,.07,0h.091l.027,0,.071.008.027,0,.031.006.031.007.025.006.071.021a.849.849,0,0,1,.339.2.788.788,0,0,1,.127.167,1.036,1.036,0,0,1,.1.234l.005.018.006.024.008.035.01.047.008.039,0,.016,0,.025.006.035.007.049.011.08,0,.034.011.077.006.042,0,.028,0,.015.008.049c.01.047.021.093.034.139l.008.025.009.024.01.024.01.024.011.024.011.023.012.023.013.023.013.022.014.022.014.022.015.021.015.021.016.02.017.02.018.02a1.339,1.339,0,0,0,.159.142c.127.094.26.181.388.274l.036.029.035.03.018.015.079.069.011.009.035.03.035.029.035.028a.406.406,0,0,0,.082.047.552.552,0,0,0,.107.02l.026,0,.026,0,.026,0,.026,0h.115a7.662,7.662,0,0,0,.781-.093c.081-.008.081-.008.162-.014l.085,0h.016l.082,0h.2l.084,0h.011l.177.009h.007l.091.007.153.015a2.13,2.13,0,0,1,.536.109l.032.013h0l.009,0,.041.018.016.008.011.005.013.006.025.013.014.008.023.013.016.009.021.012.018.011.019.011.02.012.017.01.036.023.039.025.022.014.075.05.077.05.036.023.037.023.036.02.038.02.068.033a.688.688,0,0,0,.16.038c.112.012.224.018.336.032a1.423,1.423,0,0,1,.187.04l.023.007.012,0,.022.008h0l.031.012c.106.044.2.1.307.153.023.01.045.018.069.026a.294.294,0,0,0,.04.008c.029,0,.059,0,.088,0h.088c.1,0,.2-.012.3-.021a5.264,5.264,0,0,1,.092-1.384l.011-.056.011-.05.012-.053.006-.024q.028-.12.062-.238a2.124,2.124,0,0,1,.135-.363,3.076,3.076,0,0,1,.5-.671c.061-.067.123-.134.184-.2.027-.03.051-.061.08-.088a.263.263,0,0,1,.044-.029.466.466,0,0,1,.287-.007h.007c.109.025.215.059.324.084a.6.6,0,0,0,.118.015h.013a.169.169,0,0,0,.075-.021.3.3,0,0,0,.091-.091.442.442,0,0,0,.077-.282.227.227,0,0,0-.043-.122.2.2,0,0,0-.059-.046c-.06-.03-.123-.054-.185-.079l-.128-.054a1.338,1.338,0,0,1-.118-.064.383.383,0,0,1-.1-.095.484.484,0,0,1-.066-.209c-.015-.125-.019-.25-.028-.375l0-.032,0-.039-.006-.054a1.231,1.231,0,0,0-.1-.364l-.011-.021,0-.007-.008-.014,0-.008-.007-.013,0-.008-.008-.012,0-.008-.009-.013,0-.007-.011-.016,0,0-.014-.019,0-.006-.01-.013-.006-.007-.009-.011-.006-.007-.009-.011-.007-.007-.006-.006-.027-.028h0l-.028-.028,0,0-.029-.027,0,0-.018-.015-.021-.018-.016-.013-.021-.017-.017-.014-.02-.015-.018-.014-.018-.013c-.03-.022-.061-.043-.092-.064l-.008-.006-.084-.054c-.162-.1-.327-.2-.487-.3-.085-.057-.168-.116-.247-.18l0,0-.007-.006-.017-.014-.011-.009-.006-.005-.006,0-.01-.008-.017-.015-.008-.007,0,0-.036-.033h0l-.03-.028,0,0,0,0-.007-.007-.015-.015-.009-.009-.006-.006-.006-.006-.009-.009-.015-.016-.007-.008,0,0-.033-.036a1.845,1.845,0,0,1-.272-.407l-.02-.042v0h0l-.017-.041v-.005l-.016-.04v-.005l0-.008L34.5-19.1l-.006-.018,0-.007,0-.008-.005-.017,0-.014,0-.007,0-.011-.005-.018,0-.01,0-.007,0-.015,0-.019v-.01l-.005-.021,0-.021-.006-.029a3.5,3.5,0,0,1,.038-1.243c.017-.106.026-.149.047-.271.006-.031.014-.061.023-.091a1.371,1.371,0,0,1,.287-.464c.132-.15.278-.286.414-.431.041-.046.041-.046.081-.092a.6.6,0,0,0,.178-.519.517.517,0,0,0-.052-.126.568.568,0,0,0-.106-.13.846.846,0,0,0-.21-.137l-.037-.017-.029-.012-.028-.011-.007,0-.026-.009-.01,0-.024-.008-.012,0-.023-.007-.014,0-.022-.006-.015,0-.021-.006-.017,0-.019,0-.014,0-.022-.005-.017,0-.021,0-.017,0-.021,0-.017,0-.021,0-.016,0-.022,0-.016,0-.023,0-.015,0h-.011L34.51-23,34.461-23h-.016l-.033,0-.019,0-.03,0h-.021l-.029,0h-.46l-.038,0h-.007l-.043,0-.033,0-.052,0-.019,0q-.091-.61-.143-1.225c-.036-.42-.06-.841-.06-1.262q0-.1,0-.193l0-.066,0-.087,0-.062v-.071l0-.04,0-.031,0-.062c0-.027,0-.053.006-.08.006-.064.013-.128.021-.192,0-.035.01-.069.012-.1a.407.407,0,0,0-.006-.059.7.7,0,0,0-.347-.367l-.088-.056c-.058-.037-.117-.074-.174-.113-.041-.029-.04-.029-.08-.059l-.026-.022,0,0-.005,0-.012-.01-.006-.006-.005,0-.008-.008,0,0h0l-.019-.019h0l0,0-.025-.027,0,0h0l0,0,0-.005,0,0,0,0,0,0,0,0h0l0,0a.348.348,0,0,1-.048-.092.423.423,0,0,1,.01-.246,1.735,1.735,0,0,1,.284-.533c.051-.072.1-.141.159-.21s.112-.14.173-.214c.1-.12.2-.24.292-.363.055-.072.109-.145.161-.219a1.951,1.951,0,0,0,.294-.58,3.174,3.174,0,0,0,.1-.684l0-.076v-.261l0-.048v-.029l0-.053,0-.023-.006-.075,0-.021-.006-.055,0-.031-.005-.045,0-.034-.006-.041-.005-.036-.006-.039-.006-.037-.007-.037-.007-.038-.007-.034q-.011-.055-.023-.109-.018-.083-.04-.165a2,2,0,0,0-.259-.627,1.845,1.845,0,0,0-.6-.537c-.069-.04-.139-.077-.211-.111a1.079,1.079,0,0,0-.12-.052,1.13,1.13,0,0,0-.187-.042c-.16-.021-.322-.029-.483-.047a.521.521,0,0,1-.328-.12.5.5,0,0,1-.085-.168c-.03-.1-.055-.2-.085-.3a.462.462,0,0,0-.107-.189l-.011-.01,0,0-.008-.006,0,0-.007,0-.005,0-.007,0-.005,0-.008,0-.005,0-.008,0-.005,0-.009,0,0,0-.014,0h0l-.01,0-.021,0-.017,0-.012,0-.017,0-.012,0-.027,0a3.1,3.1,0,0,0-.336-.021c-.358-.007-.716.011-1.074.035l-.17.012-.188.014-.068.006c-.021-.035-.043-.069-.065-.1-.043-.062-.088-.121-.135-.181a2.921,2.921,0,0,0-.6-.556,1.864,1.864,0,0,0-.306-.178l-.026-.011-.008,0-.018-.007-.009,0-.019-.007-.007,0-.025-.008-.005,0a1.774,1.774,0,0,0-.267-.059,3.618,3.618,0,0,0-.558-.035,8.249,8.249,0,0,0-.836.052l-.036,0-.113.013-.151.018c-.14.017-.279.036-.419.052-.058.006-.115.011-.172.019-.037.007-.073.015-.109.025a1.962,1.962,0,0,0-.653.378c-.2.165-.4.345-.6.514-.067.055-.067.055-.135.108a2.03,2.03,0,0,1-.568.318l-.037.011-.036.009v.009a2.485,2.485,0,0,1-.051.434q-.011.091-.022.183c-.012.09-.024.18-.04.269-.011.06-.023.119-.037.179a1.58,1.58,0,0,1-.046.157.8.8,0,0,1-.105.206l-.008.01-.006.008v0l0,0-.007.009-.005.005,0,0,0,0-.007.008,0,0,0,0-.006.006-.007.007,0,0h0l-.018.015h0l-.018.014h0l0,0,0,0h0L23.1-32l0,0h0l-.007,0,0,0h0l-.011.006a.415.415,0,0,1-.1.035.364.364,0,0,1-.065.009h-.013a.186.186,0,0,1-.118-.041.461.461,0,0,1-.1-.12c-.013-.02-.025-.041-.037-.062a2.124,2.124,0,0,1-.309.1,3.8,3.8,0,0,1-.765.082c-.181,0-.362,0-.543,0-.155,0-.311,0-.466,0-.124-.006-.246-.017-.369-.032-.09-.012-.181-.026-.271-.041l-.039,0c-.041,0-.083.005-.124.006H19.71a1.13,1.13,0,0,1-.481-.091l-.066-.033c-.054-.006-.107-.01-.161-.012-.125,0-.251.005-.376.006-.055,0-.109,0-.164-.009a.665.665,0,0,1-.2-.052.664.664,0,0,1-.15-.1,1.849,1.849,0,0,1-.18-.185c-.125-.145-.243-.3-.37-.439-.038-.041-.076-.081-.116-.12a.739.739,0,0,0-.429-.233H17l-.113-.034-.086.007h-.012l-.049,0-.1,0h-.033a1.162,1.162,0,0,1-.132-.008.682.682,0,0,1-.206-.055.505.505,0,0,1-.216-.2l-.332-.1c-.058-.137-.126-.269-.185-.4a1.73,1.73,0,0,1-.06-.167,2.607,2.607,0,0,1-.068-.344A1.683,1.683,0,0,1,15.413-35.275Zm2.254,20.351.873,2.058q0-.065,0-.13c0-.107-.007-.214-.012-.321-.006-.086-.013-.171-.023-.256a1.8,1.8,0,0,0-.115-.457,2.188,2.188,0,0,0-.323-.5,1.83,1.83,0,0,0-.389-.388Zm-.581-14.962a3.9,3.9,0,0,1,2.463,3.244,1.07,1.07,0,0,1,.616.237,4.257,4.257,0,0,0-.278.742h-.775a5.012,5.012,0,0,0,0,2.229h.775a4.261,4.261,0,0,0,.416,1.005l-.548.548A5.012,5.012,0,0,0,21.333-20.3l.548-.548a4.257,4.257,0,0,0,1.005.416v.775a5.014,5.014,0,0,0,2.229,0v-.775a4.257,4.257,0,0,0,1.005-.416l1.233,1.233A5.931,5.931,0,0,1,24-18.587a5.964,5.964,0,0,1-5.961-5.961c0-.456.041-.93.063-1.429a2.315,2.315,0,0,0-.523-1.572,9.915,9.915,0,0,0-1.406-1.162ZM30.914-19.21a3.9,3.9,0,0,1-2.463-3.244,1.071,1.071,0,0,1-.616-.237,4.257,4.257,0,0,0,.278-.742h.775a5.012,5.012,0,0,0,0-2.229h-.775a4.261,4.261,0,0,0-.416-1.005l.548-.548a5.012,5.012,0,0,0-1.576-1.576l-.548.548a4.261,4.261,0,0,0-1.005-.416v-.775a5.012,5.012,0,0,0-2.229,0v.775a4.261,4.261,0,0,0-1.005.416l-1.233-1.233A5.931,5.931,0,0,1,24-30.509a5.964,5.964,0,0,1,5.961,5.961c0,.455-.041.93-.062,1.429a2.315,2.315,0,0,0,.523,1.572,9.915,9.915,0,0,0,1.406,1.162Zm4.729-2.32c-.129.144-.272.277-.4.414-.036.04-.071.08-.1.122a.729.729,0,0,0-.119.2,1.985,1.985,0,0,0-.04.209c-.011.062-.017.1-.027.166s-.022.146-.031.221Zm-10.831-7.1a4.162,4.162,0,0,0-1.624,0l.02.634a3.543,3.543,0,0,0-1.086.45l-.434-.463a4.165,4.165,0,0,0-1.149,1.149l.463.434a3.539,3.539,0,0,0-.45,1.086l-.634-.02a4.165,4.165,0,0,0,0,1.624l.634-.02A3.54,3.54,0,0,0,21-22.669l-.463.434a4.165,4.165,0,0,0,1.149,1.149l.434-.463a3.54,3.54,0,0,0,1.086.45l-.02.634a4.165,4.165,0,0,0,1.624,0l-.02-.634a3.54,3.54,0,0,0,1.086-.45l.434.463a4.165,4.165,0,0,0,1.149-1.149L27-22.669a3.54,3.54,0,0,0,.45-1.086l.634.02a4.165,4.165,0,0,0,0-1.624l-.634.02A3.539,3.539,0,0,0,27-26.426l.463-.434a4.165,4.165,0,0,0-1.149-1.149l-.434.463A3.543,3.543,0,0,0,24.792-28Zm-.993,1.814v-.376h.361v.375a1.033,1.033,0,0,0,.6-.372.881.881,0,0,1-.6.757v.772a1.635,1.635,0,0,0,1.066-.6,1.355,1.355,0,0,1-1.066,1.215v.7a1.971,1.971,0,0,0,1.31-.678,1.546,1.546,0,0,1-1.31,1.363v.848a2.43,2.43,0,0,0,1.674-.872A1.916,1.916,0,0,1,24-21.928a1.894,1.894,0,0,1-1.848-1.761,2.369,2.369,0,0,0,1.668.876v-.848a1.527,1.527,0,0,1-1.31-1.368,1.92,1.92,0,0,0,1.31.682v-.7a1.338,1.338,0,0,1-1.066-1.219,1.593,1.593,0,0,0,1.066.607v-.772a.87.87,0,0,1-.6-.76A1.006,1.006,0,0,0,23.82-26.817Zm-9.952,2.939.134.316a1.019,1.019,0,0,0-.015-.127.328.328,0,0,0-.041-.119A.373.373,0,0,0,13.868-23.878Zm4.638-8.812.046.005c.134.007.267,0,.4,0,.066,0,.065,0,.131,0,.359.032.712.1,1.068.154.095.013.189.024.284.033.076.006.152.009.228.01.3,0,.592.006.888,0a3.523,3.523,0,0,0,.6-.056,1.61,1.61,0,0,0,.358-.113.893.893,0,0,0,.329-.234.751.751,0,0,0,.128-.278,1.985,1.985,0,0,0,.055-.481c0-.088,0-.176-.006-.264s-.012-.185-.02-.277c-.027-.279-.062-.558-.087-.838-.016-.22-.018-.44-.03-.66-.005-.074-.012-.147-.02-.221a1.664,1.664,0,0,0-.065-.305.307.307,0,0,0-.043-.1.336.336,0,0,0-.055-.042l-.069-.039c-.117-.058-.236-.111-.352-.171a1.575,1.575,0,0,1-.4-.294,1.822,1.822,0,0,1-.259-.381,2.815,2.815,0,0,1-.212-.479,3.652,3.652,0,0,1-.114-.462l0-.033-.053,0-.034,0h-.009l-.023,0h-.009l-.019,0h-.01l-.04,0c-.1,0-.207,0-.311,0-.227,0-.291,0-.518.007l-.085,0h-.245l-.1,0h-.01l-.072,0h-.17l-.063,0H19.5l-.1,0-.5.021c-.3.008-.609,0-.914,0-.123,0-.247.01-.37.025l-.077.01h0l-.011,0H17.4l-.007,0H17.38l-.008,0h-.011l-.009,0-.006,0h0l-.012,0-.006,0h0l-.02.006a.82.82,0,0,0-.19.08.177.177,0,0,0-.059.045.186.186,0,0,0-.018.061,1.242,1.242,0,0,0,0,.254l0,.019c0,.063.011.126.016.189s.013.147.018.221q0,.031,0,.063a1.632,1.632,0,0,1-.106.7,1.522,1.522,0,0,1-.167.292,2.183,2.183,0,0,1-.254.285l-.013.012,0,0-.008.008-.023.021,0,0-.012.011-.015.014-.012.011-.014.012-.014.012-.012.01-.017.014-.007.006-.05.042c-.079.067-.158.133-.233.2a.8.8,0,0,0-.193.251.837.837,0,0,0-.026.394c.008.077.02.154.034.23a1.413,1.413,0,0,0,.042.188,2.076,2.076,0,0,0,.1.229l.02.042,1,.3h-.031c.048,0,.048,0,.1.01s.045.008.091.019a1.172,1.172,0,0,1,.2.077,1.834,1.834,0,0,1,.542.454h0l.025.029.024.029.024.028.023.028.02.024.079.1.042.051.037.044.023.027.025.029.023.026.021.024c.033.036.066.07.1.1a.137.137,0,0,0,.04.03Zm4.332-15.282Q23.416-48,24-48q.613,0,1.219.03Z" transform="translate(0 48)" fill="#1650e9" fill-rule="evenodd"/>
</svg>
