<svg id="Bank_Tosee_Saderat_Mono" data-name="Bank / Tosee Saderat / Mono" xmlns="http://www.w3.org/2000/svg" width="48" height="48" viewBox="0 0 48 48">
  <rect id="Boundary" width="48" height="48" fill="none"/>
  <path id="Shape" d="M33.941,48H14.059L0,33.941V14.059L14.059,0H33.941L48,14.059V33.941L33.941,48ZM16.959,7h0L7,16.959V31.042L16.959,41H31.042L41,31.042V16.959L31.042,7Zm6.98,33.5h0L12.2,28.758,7.5,24l5.812-5.749H22.7L16.893,24,28.635,35.8l-4.7,4.7ZM34.688,29.749H25.3L31.107,24,19.364,12.2l4.7-4.7L35.8,19.242,40.5,24l-5.812,5.748Z" fill="#1650e9"/>
</svg>
