<svg id="Bank_Tosee_Mono" data-name="Bank / Tosee / Mono" xmlns="http://www.w3.org/2000/svg" width="48" height="48" viewBox="0 0 48 48">
  <rect id="Boundary" width="48" height="48" fill="none"/>
  <path id="Shape" d="M43.091,44H0V18.049H7.015V37.114H36.076V26.139h-.009A11.923,11.923,0,0,1,24.134,14.252a11.711,11.711,0,0,1,.95-4.641l10.9,8.242V10.918l-7.6-5.748A11.9,11.9,0,0,1,46.66,19.72a12.035,12.035,0,0,1-3.569,4.135V18.049H36.076v8.088a11.86,11.86,0,0,0,7.015-2.283V44ZM7.1,17.854v0l0-6.934L21.546,0l6.839,5.17a12.028,12.028,0,0,0-3.3,4.441L21.546,6.935,7.1,17.853Z" transform="translate(0 2)" fill="#1650e9"/>
</svg>
