<svg id="Bank_Tosee_Taavon_Mono" data-name="Bank / Tosee Taavon / Mono" xmlns="http://www.w3.org/2000/svg" width="48" height="48" viewBox="0 0 48 48">
  <rect id="Boundary" width="48" height="48" fill="none"/>
  <path id="Shape" d="M-955.648,1144.735l-2.672-5.043a.919.919,0,0,1,.151-1.109l7.26-6.706a1.372,1.372,0,0,1,1.765-.05,10.125,10.125,0,0,0,4.185,2.017,1.383,1.383,0,0,1,1.11,1.462l-.706,9.782a1.024,1.024,0,0,1-.756.857l-5.648,1.008a4.334,4.334,0,0,1-.807.076A4.442,4.442,0,0,1-955.648,1144.735Zm20.823,2.066-5.647-.958a.962.962,0,0,1-.806-.806l-.807-9.782a1.383,1.383,0,0,1,1.11-1.462,9.443,9.443,0,0,0,4.135-2.067,1.441,1.441,0,0,1,1.814.05l7.312,6.5a1,1,0,0,1,.151,1.159l-2.623,5.042a4.409,4.409,0,0,1-3.864,2.392A4.16,4.16,0,0,1-934.825,1146.8Zm-26.419-10.84-4.235-3.731a4.422,4.422,0,0,1-1.159-5.092l2.269-5.193a1.025,1.025,0,0,1,.958-.555l9.68,1.513a1.33,1.33,0,0,1,1.16,1.412v.2a9.249,9.249,0,0,0,1.058,4.235,1.491,1.491,0,0,1-.5,1.814l-8.067,5.5a.977.977,0,0,1-.519.161A.982.982,0,0,1-961.244,1135.962Zm35.344.05-8.117-5.5a1.34,1.34,0,0,1-.454-1.714,9.212,9.212,0,0,0,1.008-4.235v-.3a1.33,1.33,0,0,1,1.16-1.412l9.68-1.563a.831.831,0,0,1,.958.555l2.269,5.193a4.349,4.349,0,0,1-1.109,5.092l-4.235,3.782a.916.916,0,0,1-.646.262A.883.883,0,0,1-925.9,1136.012Zm-17.142-4.235a7.338,7.338,0,0,1-7.26-7.311,7.273,7.273,0,0,1,7.311-7.26,7.305,7.305,0,0,1,7.26,7.311,7.21,7.21,0,0,1-7.218,7.261Zm-10.336-10.387-9.378-2.723a.961.961,0,0,1-.6-.958l.2-5.7a4.439,4.439,0,0,1,3.127-4.083l5.5-1.563a.985.985,0,0,1,1.058.4l4.942,8.471a1.391,1.391,0,0,1-.3,1.765,9.383,9.383,0,0,0-2.874,3.68,1.442,1.442,0,0,1-1.271.768A1.244,1.244,0,0,1-953.379,1121.39Zm19.009-.806a9.129,9.129,0,0,0-2.875-3.63,1.5,1.5,0,0,1-.353-1.714l4.941-8.521a.928.928,0,0,1,1.059-.4l5.5,1.513a4.422,4.422,0,0,1,3.227,4.033l.2,5.7a.985.985,0,0,1-.656.958l-9.328,2.823a1.154,1.154,0,0,1-.365.057A1.566,1.566,0,0,1-934.37,1120.584Zm-6.3-5.294a8.6,8.6,0,0,0-2.319-.3,12.1,12.1,0,0,0-2.319.252,1.313,1.313,0,0,1-1.563-.807l-3.63-9.125a.957.957,0,0,1,.353-1.11l4.588-3.327a4.309,4.309,0,0,1,5.193,0l4.588,3.378a.933.933,0,0,1,.353,1.059l-3.63,9.125a1.364,1.364,0,0,1-1.291.892A1.538,1.538,0,0,1-940.673,1115.29Z" transform="translate(967 -1099.514)" fill="#1650e9"/>
</svg>
