<svg xmlns="http://www.w3.org/2000/svg" width="49" height="48.996" viewBox="0 0 49 48.996">
  <g id="Gateway_Vandar_Mono" >
    <rect id="Boundary" width="48" height="48" transform="translate(0 0)" fill="none"/>
    <path id="Path_19"  d="M-26.01,799a6.664,6.664,0,0,1-4.747-1.953l-1.07-1.07.129-.038c.209-.061.423-.123.63-.192a25.815,25.815,0,0,0,4.39-1.873,23.487,23.487,0,0,0,3.83-2.611,19,19,0,0,0,3.106-3.3,17.668,17.668,0,0,0,2.188-3.981,17.3,17.3,0,0,0,1.107-4.62,19.079,19.079,0,0,0,0-3.622,22.96,22.96,0,0,0-.716-3.927,21.922,21.922,0,0,0-1.42-3.788,14.284,14.284,0,0,0-2.117-3.21,9.874,9.874,0,0,0-2.832-2.242,7.492,7.492,0,0,0-3.446-.843h-.141a6.343,6.343,0,0,0-2.461.494,7.7,7.7,0,0,0-2.14,1.36,10.458,10.458,0,0,0-1.735,2A12.861,12.861,0,0,0-34.742,768a15.119,15.119,0,0,0-.8,2.632,13.2,13.2,0,0,0-.267,2.63,8.887,8.887,0,0,0,.673,3.578,7.387,7.387,0,0,0,1.905,2.643,9.045,9.045,0,0,0,2.942,1.7,14.3,14.3,0,0,0,3.791.789c.413.028.956.053,1.661.076.67.021,1.315.032,1.918.032a7.663,7.663,0,0,1-1.717,2.525,15.036,15.036,0,0,1-3.053,2.349,25.234,25.234,0,0,1-4.28,2,36.293,36.293,0,0,1-5.4,1.485l-10.678-10.678A6.664,6.664,0,0,1-50,775.015a6.664,6.664,0,0,1,1.953-4.747l17.315-17.315A6.662,6.662,0,0,1-25.986,751a6.662,6.662,0,0,1,4.747,1.953l17.316,17.315A6.667,6.667,0,0,1-2,775a6.666,6.666,0,0,1-1.949,4.725l-17.315,17.315A6.664,6.664,0,0,1-26.01,799Zm4.438-22.7h-1.586c-.621,0-1.274-.021-1.994-.065a18.4,18.4,0,0,1-2.113-.254,9,9,0,0,1-1.9-.553,3.94,3.94,0,0,1-1.381-.932,2.025,2.025,0,0,1-.535-1.444,4.849,4.849,0,0,1,.4-1.866,8.254,8.254,0,0,1,.974-1.777,5.485,5.485,0,0,1,1.277-1.282,1.673,1.673,0,0,1,1.06-.379c.056,0,.111,0,.166.008a4.038,4.038,0,0,1,1.949.975,8.015,8.015,0,0,1,1.56,1.921,14.576,14.576,0,0,1,1.221,2.6,29.459,29.459,0,0,1,.909,3.043Z" transform="translate(50 -751)" fill="#1650e9" stroke="rgba(0,0,0,0)" stroke-width="1"/>
  </g>
</svg>
