<svg id="Gateway_Zarrinpal_Mono" data-name="Gateway / Zarrinpal / Mono" xmlns="http://www.w3.org/2000/svg" width="48" height="48" viewBox="0 0 48 48">
  <rect id="Boundary" width="48" height="48" transform="translate(0 0)" fill="none"/>
  <path id="Shape" d="M6.81,48A6.812,6.812,0,0,1,2,36.368L36.377,2A6.806,6.806,0,1,1,46,11.621L11.624,46A6.746,6.746,0,0,1,6.81,48Zm39.921,0H33.288a1.267,1.267,0,0,1-1.188-.792,1.245,1.245,0,0,1,.269-1.378L45.759,32.385a1.281,1.281,0,0,1,2.2.889L48,46.72a1.219,1.219,0,0,1-.347.892A1.289,1.289,0,0,1,46.732,48ZM1.332,16a1.327,1.327,0,0,1-.891-.349,1.247,1.247,0,0,1-.4-.925L0,1.281A1.286,1.286,0,0,1,1.289,0H14.713A1.264,1.264,0,0,1,15.9.791,1.246,1.246,0,0,1,15.63,2.17L2.239,15.616A1.273,1.273,0,0,1,1.332,16Z" transform="translate(0 0)" fill="#1650e9"/>
</svg>
