<svg xmlns="http://www.w3.org/2000/svg" width="93.014" height="93.014" viewBox="0 0 93.014 93.014">
  <g id="ACCEPT" transform="translate(20124.508 14193.007)">
    <path id="Icon_awesome-check-circle" data-name="Icon awesome-check-circle" d="M93.576,47.069A46.507,46.507,0,1,1,47.069.563,46.507,46.507,0,0,1,93.576,47.069ZM41.69,71.694,76.195,37.189a3,3,0,0,0,0-4.243L71.952,28.7a3,3,0,0,0-4.243,0l-28.14,28.14L26.43,43.7a3,3,0,0,0-4.243,0l-4.243,4.243a3,3,0,0,0,0,4.243l19.5,19.5a3,3,0,0,0,4.243,0Z" transform="translate(-20125.07 -14193.569)" fill="#1650e9"/>
  </g>
</svg>
