<svg xmlns="http://www.w3.org/2000/svg" width="44.268" height="44.268" viewBox="0 0 44.268 44.268">
  <path id="Icon_material-account-circle" data-name="Icon material-account-circle" d="M24.634,2.5A22.134,22.134,0,1,0,46.768,24.634,22.142,22.142,0,0,0,24.634,2.5Zm0,6.64a6.64,6.64,0,1,1-6.64,6.64A6.631,6.631,0,0,1,24.634,9.14Zm0,31.43a15.938,15.938,0,0,1-13.28-7.127c.066-4.4,8.854-6.817,13.28-6.817,4.4,0,13.214,2.413,13.28,6.817A15.938,15.938,0,0,1,24.634,40.57Z" transform="translate(-2.5 -2.5)" fill="#dbe3f1"/>
</svg>
