<svg xmlns="http://www.w3.org/2000/svg"  viewBox="0 0 33.078 31.338">
  <path id="Icon_material-account-balance-wallet" data-name="Icon material-account-balance-wallet" d="M6.241,30.615v1.741a3.492,3.492,0,0,0,3.482,3.482H34.1a3.481,3.481,0,0,0,3.482-3.482V7.982A3.481,3.481,0,0,0,34.1,4.5H9.723A3.492,3.492,0,0,0,6.241,7.982V9.723H21.91A3.481,3.481,0,0,1,25.392,13.2V27.133a3.481,3.481,0,0,1-3.482,3.482ZM21.91,27.133H4.5V13.2H21.91ZM14.946,22.78a2.611,2.611,0,1,0-2.611-2.611A2.608,2.608,0,0,0,14.946,22.78Z" transform="translate(-4.5 -4.5)" fill="current"/>
</svg>
