<svg xmlns="http://www.w3.org/2000/svg" width="12.997" height="10.373" viewBox="0 0 12.997 10.373">
  <path id="Icon_ionic-md-arrow-round-back" data-name="Icon ionic-md-arrow-round-back" d="M14.544,7H5.856L8.45,4.519a1.034,1.034,0,0,0,0-1.412.924.924,0,0,0-1.35,0L2.781,7.294a.952.952,0,0,0-.281.7v.012a.952.952,0,0,0,.281.7L7.1,12.894a.924.924,0,0,0,1.35,0,1.034,1.034,0,0,0,0-1.413L5.853,9h8.688A.978.978,0,0,0,15.5,8,.968.968,0,0,0,14.544,7Z" transform="translate(-2.5 -2.813)" fill="#233a7d"/>
</svg>
