<svg xmlns="http://www.w3.org/2000/svg" xmlns:xlink="http://www.w3.org/1999/xlink" width="280" height="90" viewBox="0 0 280 90">
  <defs>
    <linearGradient id="linear-gradient" x1="0.01" y1="0.976" x2="0.982" y2="0.045" gradientUnits="objectBoundingBox">
      <stop offset="0" stop-color="#eef5ff"/>
      <stop offset="1" stop-color="#fff"/>
    </linearGradient>
    <filter id="Rectangle_2036" x="110" y="46.155" width="49" height="35" filterUnits="userSpaceOnUse">
      <feOffset input="SourceAlpha"/>
      <feGaussianBlur stdDeviation="1" result="blur"/>
      <feFlood flood-opacity="0.071"/>
      <feComposite operator="in" in2="blur"/>
      <feComposite in="SourceGraphic"/>
    </filter>
    <filter id="Rectangle_2037" x="160" y="46.155" width="50" height="35" filterUnits="userSpaceOnUse">
      <feOffset input="SourceAlpha"/>
      <feGaussianBlur stdDeviation="1" result="blur-2"/>
      <feFlood flood-opacity="0.071"/>
      <feComposite operator="in" in2="blur-2"/>
      <feComposite in="SourceGraphic"/>
    </filter>
    <filter id="Rectangle_2039" x="90.5" y="63.155" width="19" height="11" filterUnits="userSpaceOnUse">
      <feOffset input="SourceAlpha"/>
      <feGaussianBlur stdDeviation="1" result="blur-3"/>
      <feFlood flood-opacity="0.161"/>
      <feComposite operator="in" in2="blur-3"/>
      <feComposite in="SourceGraphic"/>
    </filter>
    <filter id="Rectangle_2049" x="143.5" y="54.5" width="19" height="11" filterUnits="userSpaceOnUse">
      <feOffset input="SourceAlpha"/>
      <feGaussianBlur stdDeviation="1" result="blur-4"/>
      <feFlood flood-opacity="0.161"/>
      <feComposite operator="in" in2="blur-4"/>
      <feComposite in="SourceGraphic"/>
    </filter>
    <filter id="Rectangle_2047" x="104.5" y="63.155" width="19" height="11" filterUnits="userSpaceOnUse">
      <feOffset input="SourceAlpha"/>
      <feGaussianBlur stdDeviation="1" result="blur-5"/>
      <feFlood flood-opacity="0.161"/>
      <feComposite operator="in" in2="blur-5"/>
      <feComposite in="SourceGraphic"/>
    </filter>
    <filter id="Rectangle_2048" x="157.5" y="54.5" width="19" height="11" filterUnits="userSpaceOnUse">
      <feOffset input="SourceAlpha"/>
      <feGaussianBlur stdDeviation="1" result="blur-6"/>
      <feFlood flood-opacity="0.161"/>
      <feComposite operator="in" in2="blur-6"/>
      <feComposite in="SourceGraphic"/>
    </filter>
  </defs>
  <g id="Group_14770" data-name="Group 14770" transform="translate(-1000 -162)">
    <g id="Rectangle_2035" data-name="Rectangle 2035" transform="translate(1000 162)" stroke="#fff" stroke-width="2" fill="url(#linear-gradient)">
      <path d="M6,0H274a6,6,0,0,1,6,6V90a0,0,0,0,1,0,0H0a0,0,0,0,1,0,0V6A6,6,0,0,1,6,0Z" stroke="none"/>
      <path d="M6,1H274a5,5,0,0,1,5,5V88a1,1,0,0,1-1,1H2a1,1,0,0,1-1-1V6A5,5,0,0,1,6,1Z" fill="none"/>
    </g>
    <text id="با_دعوت_دوستان_خود_به_رابکس_سود_کنید_" data-name="با دعوت دوستان خود به رابکس سود کنید
" transform="translate(1043 180)" fill="#1650e9" font-size="13" font-family="YekanBakh-Fat, Yekan Bakh Fat" font-weight="900"><tspan x="0" y="12">با دعوت دوستان خود به رابکس سود کنید</tspan><tspan y="12"></tspan></text>
    <path id="Path_12711" data-name="Path 12711" d="M.667,8.566s-2.744-9.95,2.9-8.4S.667,8.566.667,8.566Z" transform="matrix(0.985, 0.174, -0.174, 0.985, 1082.406, 204)" fill="none" stroke="#1650e9" stroke-width="2"/>
    <path id="Path_12712" data-name="Path 12712" d="M5.089,8.521s2.89-9.9-3.056-8.358S5.089,8.521,5.089,8.521Z" transform="matrix(0.985, -0.174, 0.174, 0.985, 1073.736, 205.006)" fill="none" stroke="#1650e9" stroke-width="2"/>
    <g id="Group_14765" data-name="Group 14765" transform="matrix(-0.883, -0.469, 0.469, -0.883, 1208.18, 216.303)" opacity="0.54">
      <path id="Path_12713" data-name="Path 12713" d="M.9,0,.571,1.191A18.639,18.639,0,0,0,.082,3.819C-.141,5.836.09,7.311.769,8.2a2.476,2.476,0,0,0,2.05.978,4.205,4.205,0,0,0,1.1-.162,2.572,2.572,0,0,0,2.116-1.9c.238-1.148-.409-2.544-1.977-4.267A21.691,21.691,0,0,0,1.863.774ZM2.819,7.555a.852.852,0,0,1-.757-.337c-.61-.8-.475-2.775-.21-4.289.316.3.673.651,1.021,1.034,1.633,1.8,1.619,2.621,1.575,2.83-.058.279-.379.5-.955.659A2.6,2.6,0,0,1,2.819,7.555Z" transform="matrix(0.985, -0.174, 0.174, 0.985, 5.734, 1.057)" fill="#dbe3f1"/>
      <path id="Path_12714" data-name="Path 12714" d="M5.4,0l-.94.712a22.4,22.4,0,0,0-2.3,2.054C.5,4.472-.187,5.862.043,7.015c.13.649.62,1.509,2.218,1.923A4.586,4.586,0,0,0,3.4,9.1,2.6,2.6,0,0,0,5.574,8.062c.678-.9.9-2.369.665-4.353a17.682,17.682,0,0,0-.511-2.577Zm-2,7.471a2.975,2.975,0,0,1-.734-.106c-.432-.112-.962-.319-1.032-.668-.041-.2-.042-1.012,1.673-2.788.393-.407.8-.781,1.145-1.087.064.331.126.708.173,1.1a4.853,4.853,0,0,1-.355,3.164A.969.969,0,0,1,3.4,7.471Z" transform="matrix(0.985, 0.174, -0.174, 0.985, 1.58, 0.04)" fill="#dbe3f1"/>
    </g>
    <g id="Group_14767" data-name="Group 14767" transform="matrix(0.883, 0.469, -0.469, 0.883, 1064.34, 232.781)" opacity="0.54">
      <path id="Path_12713-2" data-name="Path 12713" d="M.793,0,.5,1.05A16.424,16.424,0,0,0,.072,3.365,5.469,5.469,0,0,0,.678,7.228a2.182,2.182,0,0,0,1.807.861,3.706,3.706,0,0,0,.973-.143A2.266,2.266,0,0,0,5.322,6.275c.21-1.012-.36-2.241-1.742-3.76A19.113,19.113,0,0,0,1.642.682ZM2.484,6.657a.75.75,0,0,1-.667-.3C1.28,5.655,1.4,3.915,1.632,2.581c.278.262.593.574.9.911C3.971,5.077,3.958,5.8,3.919,5.985c-.051.246-.334.441-.841.581A2.287,2.287,0,0,1,2.484,6.657Z" transform="matrix(0.985, -0.174, 0.174, 0.985, 5.053, 0.931)" fill="#dbe3f1"/>
      <path id="Path_12714-2" data-name="Path 12714" d="M4.757,0,3.928.627A19.739,19.739,0,0,0,1.9,2.437C.444,3.941-.165,5.166.038,6.182c.114.572.546,1.33,1.954,1.694A4.041,4.041,0,0,0,3,8.015,2.292,2.292,0,0,0,4.912,7.1,5.386,5.386,0,0,0,5.5,3.269,15.581,15.581,0,0,0,5.048,1ZM3,6.583a2.622,2.622,0,0,1-.647-.094c-.381-.1-.848-.281-.909-.589-.036-.181-.037-.891,1.475-2.457.346-.359.7-.688,1.009-.958.056.292.111.624.152.972a4.277,4.277,0,0,1-.313,2.788A.854.854,0,0,1,3,6.583Z" transform="matrix(0.985, 0.174, -0.174, 0.985, 1.392, 0.036)" fill="#dbe3f1"/>
    </g>
    <g id="Group_14766" data-name="Group 14766" transform="matrix(-0.883, 0.469, -0.469, -0.883, 1199.203, 242.681)" opacity="0.47">
      <path id="Path_12713-3" data-name="Path 12713" d="M.58,5.911.368,5.144A12,12,0,0,1,.053,3.452,4,4,0,0,1,.5.63,1.594,1.594,0,0,1,1.815,0a2.708,2.708,0,0,1,.711.1A1.656,1.656,0,0,1,3.889,1.325c.153.739-.263,1.638-1.273,2.748A13.967,13.967,0,0,1,1.2,5.413ZM1.815,1.046a.548.548,0,0,0-.488.217,4.413,4.413,0,0,0-.135,2.762c.2-.191.433-.419.657-.666C2.9,2.2,2.892,1.672,2.864,1.537c-.037-.18-.244-.322-.615-.424A1.671,1.671,0,0,0,1.815,1.046Z" transform="matrix(0.985, 0.174, -0.174, 0.985, 4.719, 0)" fill="#dbe3f1"/>
      <path id="Path_12714-3" data-name="Path 12714" d="M3.476,5.857,2.871,5.4A14.425,14.425,0,0,1,1.388,4.077C.324,2.978-.121,2.082.028,1.34.111.922.427.368,1.456.1A2.953,2.953,0,0,1,2.191,0a1.675,1.675,0,0,1,1.4.665,3.936,3.936,0,0,1,.428,2.8,11.386,11.386,0,0,1-.329,1.66ZM2.191,1.046a1.916,1.916,0,0,0-.473.069c-.278.072-.619.205-.664.43-.026.132-.027.651,1.078,1.8.253.262.513.5.737.7.041-.213.081-.456.111-.71a3.125,3.125,0,0,0-.228-2.038A.624.624,0,0,0,2.191,1.046Z" transform="matrix(0.985, -0.174, 0.174, 0.985, 0, 0.708)" fill="#dbe3f1"/>
    </g>
    <g id="Group_14768" data-name="Group 14768" transform="matrix(0.883, -0.469, 0.469, 0.883, 1054.984, 210.164)" opacity="0.54">
      <path id="Path_12713-4" data-name="Path 12713" d="M.631,6.433.4,5.6A13.062,13.062,0,0,1,.057,3.757,4.349,4.349,0,0,1,.539.685,1.735,1.735,0,0,1,1.976,0a2.948,2.948,0,0,1,.774.113A1.8,1.8,0,0,1,4.232,1.443c.167.8-.287,1.783-1.386,2.99A15.2,15.2,0,0,1,1.306,5.891ZM1.976,1.139a.6.6,0,0,0-.531.236c-.427.561-.333,1.945-.147,3.006.221-.208.472-.456.715-.725C3.158,2.4,3.148,1.82,3.117,1.673c-.041-.2-.266-.351-.669-.462A1.819,1.819,0,0,0,1.976,1.139Z" transform="matrix(0.985, 0.174, -0.174, 0.985, 5.136, 0)" fill="#dbe3f1"/>
      <path id="Path_12714-4" data-name="Path 12714" d="M3.783,6.375l-.659-.5A15.7,15.7,0,0,1,1.51,4.437C.353,3.241-.131,2.267.03,1.459.121,1,.464.4,1.584.111A3.214,3.214,0,0,1,2.385,0,1.823,1.823,0,0,1,3.906.724a4.284,4.284,0,0,1,.466,3.051,12.391,12.391,0,0,1-.358,1.806Zm-1.4-5.236a2.085,2.085,0,0,0-.515.075c-.3.078-.674.223-.723.468-.029.144-.029.709,1.173,1.954.275.285.558.547.8.762.045-.232.089-.5.121-.773a3.4,3.4,0,0,0-.249-2.218A.679.679,0,0,0,2.385,1.139Z" transform="matrix(0.985, -0.174, 0.174, 0.985, 0, 0.771)" fill="#dbe3f1"/>
    </g>
    <g transform="matrix(1, 0, 0, 1, 1000, 162)" filter="url(#Rectangle_2036)">
      <g id="Rectangle_2036-2" data-name="Rectangle 2036" transform="translate(116 52.16)" fill="#56b4fc" stroke="#fff" stroke-linejoin="bevel" stroke-width="3">
        <rect width="37" height="23" rx="4" stroke="none"/>
        <rect x="-1.5" y="-1.5" width="40" height="26" rx="5.5" fill="none"/>
      </g>
    </g>
    <rect id="Rectangle_2040" data-name="Rectangle 2040" width="38" height="19" rx="3" transform="translate(1062 218.155)" fill="#1650e9"/>
    <g transform="matrix(1, 0, 0, 1, 1000, 162)" filter="url(#Rectangle_2037)">
      <g id="Rectangle_2037-2" data-name="Rectangle 2037" transform="translate(166 52.16)" fill="#56b4fc" stroke="#fff" stroke-linejoin="bevel" stroke-width="3">
        <rect width="38" height="23" rx="4" stroke="none"/>
        <rect x="-1.5" y="-1.5" width="41" height="26" rx="5.5" fill="none"/>
      </g>
    </g>
    <circle id="Ellipse_3369" data-name="Ellipse 3369" cx="2" cy="2" r="2" transform="translate(1172 228.655)" fill="#fff"/>
    <circle id="Ellipse_3371" data-name="Ellipse 3371" cx="2" cy="2" r="2" transform="translate(1178 228.655)" fill="#fff"/>
    <g id="Ellipse_3372" data-name="Ellipse 3372" transform="translate(1135 220)" fill="#fff" stroke="#fff" stroke-width="1">
      <circle cx="2" cy="2" r="2" stroke="none"/>
      <circle cx="2" cy="2" r="1.5" fill="none"/>
    </g>
    <g transform="matrix(1, 0, 0, 1, 1000, 162)" filter="url(#Rectangle_2039)">
      <g id="Rectangle_2039-2" data-name="Rectangle 2039" transform="translate(95 67.66)" fill="#1650e9" stroke="#fff" stroke-width="1.5">
        <rect width="10" height="2" rx="1" stroke="none"/>
        <rect x="-0.75" y="-0.75" width="11.5" height="3.5" rx="1.75" fill="none"/>
      </g>
    </g>
    <g transform="matrix(1, 0, 0, 1, 1000, 162)" filter="url(#Rectangle_2049)">
      <g id="Rectangle_2049-2" data-name="Rectangle 2049" transform="translate(148 59)" fill="#56b4fc" stroke="#fff" stroke-width="1.5">
        <rect width="10" height="2" rx="1" stroke="none"/>
        <rect x="-0.75" y="-0.75" width="11.5" height="3.5" rx="1.75" fill="none"/>
      </g>
    </g>
    <g transform="matrix(1, 0, 0, 1, 1000, 162)" filter="url(#Rectangle_2047)">
      <g id="Rectangle_2047-2" data-name="Rectangle 2047" transform="translate(109 67.66)" fill="#1650e9" stroke="#fff" stroke-width="1.5">
        <rect width="10" height="2" rx="1" stroke="none"/>
        <rect x="-0.75" y="-0.75" width="11.5" height="3.5" rx="1.75" fill="none"/>
      </g>
    </g>
    <g transform="matrix(1, 0, 0, 1, 1000, 162)" filter="url(#Rectangle_2048)">
      <g id="Rectangle_2048-2" data-name="Rectangle 2048" transform="translate(162 59)" fill="#56b4fc" stroke="#fff" stroke-width="1.5">
        <rect width="10" height="2" rx="1" stroke="none"/>
        <rect x="-0.75" y="-0.75" width="11.5" height="3.5" rx="1.75" fill="none"/>
      </g>
    </g>
    <path id="Rectangle_2041" data-name="Rectangle 2041" d="M3,0H39a3,3,0,0,1,3,3V5a0,0,0,0,1,0,0H0A0,0,0,0,1,0,5V3A3,3,0,0,1,3,0Z" transform="translate(1060 215)" fill="#1650e9"/>
    <line id="Line_592" data-name="Line 592" y1="19" transform="translate(1080.5 216.5)" fill="none" stroke="#fff" stroke-linecap="square" stroke-width="3"/>
    <g id="Ellipse_3370" data-name="Ellipse 3370" transform="translate(1129 220)" fill="#fff" stroke="#fff" stroke-width="1">
      <circle cx="2" cy="2" r="2" stroke="none"/>
      <circle cx="2" cy="2" r="1.5" fill="none"/>
    </g>
    <circle id="Ellipse_3373" data-name="Ellipse 3373" cx="2" cy="2" r="2" transform="translate(1012 174)" fill="rgba(86,180,252,0.7)"/>
    <circle id="Ellipse_3374" data-name="Ellipse 3374" cx="2" cy="2" r="2" transform="translate(1017 174)" fill="rgba(86,180,252,0.7)"/>
    <circle id="Ellipse_3375" data-name="Ellipse 3375" cx="2" cy="2" r="2" transform="translate(1022 174)" fill="rgba(86,180,252,0.7)"/>
    <g id="Rectangle_2046" data-name="Rectangle 2046" transform="translate(1062 220)" fill="#fff" stroke="#fff" stroke-width="1">
      <rect width="38" height="2" stroke="none"/>
      <rect x="0.5" y="0.5" width="37" height="1" fill="none"/>
    </g>
  </g>
</svg>
