<svg id="bch" xmlns="http://www.w3.org/2000/svg" viewBox="0 0 36.824 36.824">
  <circle id="Ellipse_5" data-name="Ellipse 5" cx="18.412" cy="18.412" r="18.412" fill="#f78c18"/>
  <path id="Path_4843" data-name="Path 4843" d="M15.225,5.2c-.893-2.269-3.132-2.474-5.74-1.968L8.556,0,6.586.565l.9,3.153c-.518.147-1.045.311-1.568.472L5.013,1.016,3.044,1.58,3.97,4.817c-.423.131-.84.26-1.249.377l0-.012L0,5.962.6,8.068s1.448-.446,1.43-.412a1.057,1.057,0,0,1,1.381.539l1.059,3.687a1.752,1.752,0,0,1,.212-.046l-.208.06,1.481,5.167a.724.724,0,0,1-.552.865c.031.015-1.434.41-1.434.41L4.257,20.8l2.564-.736c.478-.135.949-.261,1.411-.391l.94,3.274,1.968-.564-.929-3.239q.792-.21,1.579-.437l.923,3.226,1.971-.565L13.747,18.1c3.258-1.14,5.337-2.64,4.733-5.834C17.994,9.7,16.5,8.916,14.486,9a3.169,3.169,0,0,0,.739-3.8ZM14.477,13c.7,2.448-3.567,3.371-4.9,3.755L8.33,12.412c1.335-.383,5.413-1.968,6.145.585ZM11.8,7.138c.638,2.227-2.931,2.969-4.044,3.288L6.633,6.491c1.112-.319,4.505-1.674,5.172.648Z" transform="translate(16.385 3.808) rotate(30)" fill="#fff"/>
</svg>
