<svg xmlns="http://www.w3.org/2000/svg" xmlns:xlink="http://www.w3.org/1999/xlink" width="218.434" height="75" viewBox="0 0 218.434 75">
  <defs>
    <clipPath id="clip-path">
      <rect width="32" height="16" fill="none"/>
    </clipPath>
  </defs>
  <g id="Group_10916" data-name="Group 10916" transform="translate(11012 13626)">
    <g id="Group_10775" data-name="Group 10775" transform="translate(-10864.034 -13625.785)">
      <path id="Icon_metro-file-text" data-name="Icon metro-file-text" d="M60.724,17.014a59.722,59.722,0,0,0-5.741-6.566,59.727,59.727,0,0,0-6.566-5.741c-3.4-2.491-5.044-2.779-5.988-2.779H9.767A5.274,5.274,0,0,0,4.5,7.2v56.9a5.274,5.274,0,0,0,5.268,5.268H58.234A5.274,5.274,0,0,0,63.5,64.095V23c0-.944-.288-2.591-2.779-5.988Z" transform="translate(6.966 -1.928)" fill="rgba(192,208,250,0.5)"/>
      <path id="Icon_metro-file-text-2" data-name="Icon metro-file-text" d="M60.724,17.014a59.722,59.722,0,0,0-5.741-6.566,59.727,59.727,0,0,0-6.566-5.741c-3.4-2.491-5.044-2.779-5.988-2.779H9.767A5.274,5.274,0,0,0,4.5,7.2v56.9a5.274,5.274,0,0,0,5.268,5.268H58.234A5.274,5.274,0,0,0,63.5,64.095V23c0-.944-.288-2.591-2.779-5.988ZM52,13.428a57.479,57.479,0,0,1,4.78,5.359H46.644V8.649A57.42,57.42,0,0,1,52,13.428Zm7.285,50.667a1.068,1.068,0,0,1-1.054,1.054H9.767a1.068,1.068,0,0,1-1.054-1.054V7.2A1.068,1.068,0,0,1,9.767,6.143H42.429V20.894A2.107,2.107,0,0,0,44.537,23H59.288ZM48.751,56.719H19.25a2.107,2.107,0,0,1,0-4.215h29.5a2.107,2.107,0,0,1,0,4.215Zm0-8.429H19.25a2.107,2.107,0,0,1,0-4.215h29.5a2.107,2.107,0,0,1,0,4.215Zm0-8.429H19.25a2.107,2.107,0,0,1,0-4.215h29.5a2.107,2.107,0,0,1,0,4.215Z" transform="translate(-4.499 5.287)" fill="#1652f0"/>
    </g>
    <rect id="Rectangle_1440" data-name="Rectangle 1440" width="101" height="63" rx="1.5" transform="translate(-10993 -13626)" fill="rgba(192,208,250,0.5)"/>
    <g id="Group_10800" data-name="Group 10800" transform="translate(-11012 -13626)">
      <g id="Rectangle_1437" data-name="Rectangle 1437" transform="translate(0 12)" fill="none" stroke="#1652f0" stroke-width="4">
        <rect width="99" height="63" rx="1.5" stroke="none"/>
        <rect x="2" y="2" width="95" height="59" rx="0.5" fill="none"/>
      </g>
      <g id="Group_10799" data-name="Group 10799">
        <g id="Group_10776" data-name="Group 10776" transform="translate(12.001 26)">
          <g id="Ellipse_380" data-name="Ellipse 380" transform="translate(6.999)" fill="none" stroke="#1652f0" stroke-width="4">
            <circle cx="9" cy="9" r="9" stroke="none"/>
            <circle cx="9" cy="9" r="7" fill="none"/>
          </g>
          <g id="Scroll_Group_4" data-name="Scroll Group 4" transform="translate(-0.001 18)" clip-path="url(#clip-path)" style="isolation: isolate">
            <g id="Ellipse_382" data-name="Ellipse 382" fill="none" stroke="#1652f0" stroke-width="4">
              <circle cx="16" cy="16" r="16" stroke="none"/>
              <circle cx="16" cy="16" r="14" fill="none"/>
            </g>
          </g>
        </g>
        <g id="Group_10765" data-name="Group 10765" transform="translate(50.496 24.021)">
          <line id="Line_252" data-name="Line 252" x2="21.544" fill="none" stroke="#1652f0" stroke-width="4"/>
          <line id="Line_253" data-name="Line 253" x2="34.695" transform="translate(0 12.253)" fill="none" stroke="#1652f0" stroke-width="4"/>
          <line id="Line_254" data-name="Line 254" x2="34.695" transform="translate(0 24.504)" fill="none" stroke="#1652f0" stroke-width="4"/>
          <line id="Line_255" data-name="Line 255" x2="34.695" transform="translate(0 36.756)" fill="none" stroke="#1652f0" stroke-width="4"/>
        </g>
      </g>
    </g>
  </g>
</svg>
