<svg id="copy-success" xmlns="http://www.w3.org/2000/svg" width="13.914" height="13.914" viewBox="0 0 13.914 13.914">
  <defs>
    <style>
      .cls-1, .cls-2, .cls-3 {
        fill: none;
      }

      .cls-1, .cls-2 {
        stroke: #292d32;
        stroke-linecap: round;
        stroke-linejoin: round;
        stroke-width: 1.5px;
      }

      .cls-1 {
        opacity: 0.4;
      }

      .cls-3 {
        opacity: 0;
      }
    </style>
  </defs>
  <path id="Vector" class="cls-1" d="M0,5.276V2.841C0,.812.812,0,2.841,0H5.276C7.305,0,8.117.812,8.117,2.841v.638h-1.8c-2.029,0-2.841.812-2.841,2.841v1.8H2.841C.812,8.117,0,7.305,0,5.276Z" transform="translate(1.16 1.16)"/>
  <path id="Vector-2" data-name="Vector" class="cls-2" d="M0,5.276V2.841C0,.812.812,0,2.841,0H5.276C7.305,0,8.117.812,8.117,2.841V5.276c0,2.029-.812,2.841-2.841,2.841H2.841C.812,8.117,0,7.305,0,5.276Z" transform="translate(4.638 4.638)"/>
  <path id="Vector-3" data-name="Vector" class="cls-2" d="M0,1.131,1.131,2.261,3.386,0" transform="translate(7.004 7.566)"/>
  <path id="Vector-4" data-name="Vector" class="cls-3" d="M0,0H13.914V13.914H0Z"/>
</svg>
