<svg xmlns="http://www.w3.org/2000/svg" width="9.903" height="12.379" viewBox="0 0 9.903 12.379">
  <g id="Icon_ionic-ios-copy" data-name="Icon ionic-ios-copy" transform="translate(-4.5 -1.125)">
    <path id="Path_12736" data-name="Path 12736" d="M23.9,3.667H26.2a.154.154,0,0,0,.154-.154h0a.715.715,0,0,0-.256-.546L24.125,1.322a.959.959,0,0,0-.528-.19h0a.189.189,0,0,0-.19.19V3.18A.491.491,0,0,0,23.9,3.667Z" transform="translate(-11.954 -0.004)" fill="#233a7d" opacity="0.44"/>
    <path id="Path_12737" data-name="Path 12737" d="M14.3,3.176V1.125H10.945a.823.823,0,0,0-.82.82v8.613a.823.823,0,0,0,.82.82H17.1a.823.823,0,0,0,.82-.82V4.329H15.457A1.155,1.155,0,0,1,14.3,3.176Z" transform="translate(-3.514)" fill="#233a7d"/>
    <path id="Path_12738" data-name="Path 12738" d="M5.833,14.2V5.625H5.32a.826.826,0,0,0-.82.826v9.086a.826.826,0,0,0,.82.826h6.562a.826.826,0,0,0,.82-.826v-.516H6.653A.826.826,0,0,1,5.833,14.2Z" transform="translate(0 -2.859)" fill="#233a7d" opacity="0.44"/>
  </g>
</svg>
