<svg xmlns="http://www.w3.org/2000/svg" viewBox="0 0 30.446 36">
  <g id="document" transform="translate(-40)">
    <g id="Group_10864" data-name="Group 10864" transform="translate(47.201 25.636)">
      <g id="Group_10863" data-name="Group 10863">
        <path id="Path_10541" data-name="Path 10541" d="M138.131,344H136.71a.71.71,0,1,0,0,1.421h1.421a.71.71,0,1,0,0-1.421Z" transform="translate(-136 -344)" fill="#1652f0"/>
      </g>
    </g>
    <g id="Group_10866" data-name="Group 10866" transform="translate(47.713 25.636)">
      <g id="Group_10865" data-name="Group 10865" transform="translate(0)">
        <path id="Path_10542" data-name="Path 10542" d="M201.76,344H184.71a.71.71,0,1,0,0,1.421h17.05a.71.71,0,1,0,0-1.421Z" transform="translate(-184 -344)" fill="#1652f0"/>
      </g>
    </g>
    <g id="Group_10868" data-name="Group 10868" transform="translate(47.201 22.059)">
      <g id="Group_10867" data-name="Group 10867">
        <path id="Path_10543" data-name="Path 10543" d="M138.131,296H136.71a.71.71,0,1,0,0,1.421h1.421a.71.71,0,1,0,0-1.421Z" transform="translate(-136 -296)" fill="#1652f0"/>
      </g>
    </g>
    <g id="Group_10870" data-name="Group 10870" transform="translate(47.713 22.059)">
      <g id="Group_10869" data-name="Group 10869" transform="translate(0)">
        <path id="Path_10544" data-name="Path 10544" d="M201.76,296H184.71a.71.71,0,1,0,0,1.421h17.05a.71.71,0,1,0,0-1.421Z" transform="translate(-184 -296)" fill="#1652f0"/>
      </g>
    </g>
    <g id="Group_10872" data-name="Group 10872" transform="translate(47.201 18.482)">
      <g id="Group_10871" data-name="Group 10871">
        <path id="Path_10545" data-name="Path 10545" d="M138.131,248H136.71a.71.71,0,1,0,0,1.421h1.421a.71.71,0,1,0,0-1.421Z" transform="translate(-136 -248)" fill="#1652f0"/>
      </g>
    </g>
    <g id="Group_10874" data-name="Group 10874" transform="translate(47.713 18.482)">
      <g id="Group_10873" data-name="Group 10873" transform="translate(0)">
        <path id="Path_10546" data-name="Path 10546" d="M201.76,248H184.71a.71.71,0,1,0,0,1.421h17.05a.71.71,0,1,0,0-1.421Z" transform="translate(-184 -248)" fill="#1652f0"/>
      </g>
    </g>
    <g id="Group_10876" data-name="Group 10876" transform="translate(47.201 14.905)">
      <g id="Group_10875" data-name="Group 10875">
        <path id="Path_10547" data-name="Path 10547" d="M138.131,200H136.71a.71.71,0,1,0,0,1.421h1.421a.71.71,0,1,0,0-1.421Z" transform="translate(-136 -200)" fill="#1652f0"/>
      </g>
    </g>
    <g id="Group_10878" data-name="Group 10878" transform="translate(47.713 14.905)">
      <g id="Group_10877" data-name="Group 10877" transform="translate(0)">
        <path id="Path_10548" data-name="Path 10548" d="M201.76,200H184.71a.71.71,0,1,0,0,1.421h17.05a.71.71,0,0,0,0-1.421Z" transform="translate(-184 -200)" fill="#1652f0"/>
      </g>
    </g>
    <g id="Group_10880" data-name="Group 10880" transform="translate(47.201 11.328)">
      <g id="Group_10879" data-name="Group 10879">
        <path id="Path_10549" data-name="Path 10549" d="M138.131,152H136.71a.71.71,0,1,0,0,1.421h1.421a.71.71,0,1,0,0-1.421Z" transform="translate(-136 -152)" fill="#1652f0"/>
      </g>
    </g>
    <g id="Group_10882" data-name="Group 10882" transform="translate(47.713 11.328)">
      <g id="Group_10881" data-name="Group 10881" transform="translate(0)">
        <path id="Path_10550" data-name="Path 10550" d="M201.76,152H184.71a.71.71,0,1,0,0,1.421h17.05a.71.71,0,0,0,0-1.421Z" transform="translate(-184 -152)" fill="#1652f0"/>
      </g>
    </g>
    <g id="Group_10884" data-name="Group 10884" transform="translate(40)">
      <g id="Group_10883" data-name="Group 10883">
        <path id="Path_10551" data-name="Path 10551" d="M70.438,8.962a.559.559,0,0,0-.031-.154c-.007-.019-.012-.038-.02-.056a.6.6,0,0,0-.122-.176L61.74.176a.609.609,0,0,0-.178-.12c-.019-.008-.038-.013-.057-.02A.614.614,0,0,0,61.347,0c-.01,0-.022,0-.035,0H44.262a.6.6,0,0,0-.609.6V2.4H40.609A.6.6,0,0,0,40,3V35.4a.6.6,0,0,0,.609.6H66.183a.6.6,0,0,0,.609-.6v-3h3.045a.6.6,0,0,0,.609-.6V9C70.446,8.987,70.439,8.975,70.438,8.962ZM61.921,2.048,68.367,8.4H61.921ZM65.574,34.8H41.218V3.6h2.436V31.8a.6.6,0,0,0,.609.6H65.574Zm3.653-3.6H44.871V1.2H60.7V9a.6.6,0,0,0,.609.6h7.916Z" transform="translate(-40)" fill="#1652f0"/>
      </g>
    </g>
    <g id="Group_10886" data-name="Group 10886" transform="translate(47.075 5.337)">
      <g id="Group_10885" data-name="Group 10885">
        <path id="Path_10552" data-name="Path 10552" d="M140.973,72H136.71a.71.71,0,0,0-.71.71v4.262a.71.71,0,0,0,.71.71h4.262a.71.71,0,0,0,.71-.71V72.71A.71.71,0,0,0,140.973,72Zm-.71,4.262h-2.842V73.421h2.842Z" transform="translate(-136 -72)" fill="#1652f0"/>
      </g>
    </g>
  </g>
</svg>
