<svg xmlns="http://www.w3.org/2000/svg" width="15" height="11.998" viewBox="0 0 15 11.998">
  <path id="Exclusion_1" data-name="Exclusion 1" d="M18071.375,18012h-7.867a2.255,2.255,0,0,0,2.242-2.25V18009h7.875a.377.377,0,0,1,.375.377A2.626,2.626,0,0,1,18071.375,18012Zm-7.875-.75a1.5,1.5,0,0,1-1.5-1.5v-8.623a1.841,1.841,0,0,0-.385-1.125h7.889a2.253,2.253,0,0,1,2.25,2.25v6H18065v1.42a1.55,1.55,0,0,1-1.248,1.555A1.354,1.354,0,0,1,18063.5,18011.248Zm.9-8.123v.75h2.25v-.748h-2.25Zm0-1.5v.75h4.5v-.748h-4.5Zm-3.148,1.377h-1.873a.376.376,0,0,1-.377-.373v-1.5a1.125,1.125,0,0,1,2.25,0V18003Z" transform="translate(-18059 -18000)" fill="#1650e9"/>
</svg>
