<svg xmlns="http://www.w3.org/2000/svg" width="13.132" height="8.755" viewBox="0 0 13.132 8.755">
  <g id="eye" transform="translate(-315 -174.623)">
    <path id="Icon_awesome-eye" data-name="Icon awesome-eye" d="M13.053,5.795A7.313,7.313,0,0,0,6.566,1.75,7.314,7.314,0,0,0,.079,5.795a.738.738,0,0,0,0,.666A7.313,7.313,0,0,0,6.566,10.5,7.314,7.314,0,0,0,13.053,6.46a.738.738,0,0,0,0-.666ZM6.566,9.411A3.283,3.283,0,1,1,9.849,6.127,3.283,3.283,0,0,1,6.566,9.411Zm0-5.472a2.173,2.173,0,0,0-.577.086A1.091,1.091,0,0,1,4.464,5.55a2.184,2.184,0,1,0,2.1-1.612Z" transform="translate(315 172.873)" fill="#708599"/>
  </g>
</svg>
