<svg xmlns="http://www.w3.org/2000/svg" viewBox="0 0 18.449 18.449">
  <path id="Icon_ionic-ios-help-circle" data-name="Icon ionic-ios-help-circle" d="M12.6,3.375A9.225,9.225,0,1,0,21.824,12.6,9.223,9.223,0,0,0,12.6,3.375Zm-.191,13.482a.914.914,0,1,1,.954-.914A.926.926,0,0,1,12.409,16.857Zm1.783-4.3c-.772.448-1.033.776-1.033,1.344v.35H11.619l-.013-.381a1.846,1.846,0,0,1,1.047-1.951c.75-.448,1.064-.732,1.064-1.282a1.076,1.076,0,0,0-1.193-.954,1.122,1.122,0,0,0-1.189,1.091H9.761c.031-1.428,1.087-2.439,2.869-2.439,1.663,0,2.807.922,2.807,2.248A2.171,2.171,0,0,1,14.192,12.56Z" transform="translate(-3.375 -3.375)" fill="#7e8b9a"/>
</svg>
