<svg xmlns="http://www.w3.org/2000/svg" width="13.426" height="17" viewBox="0 0 13.426 17">
  <g id="Group_14032" data-name="Group 14032" transform="translate(-291.6 -677.5)">
    <path id="Icon_awesome-file-image" data-name="Icon awesome-file-image" d="M12,3.811V4H8V0h.189a.75.75,0,0,1,.53.22L11.78,3.28A.75.75,0,0,1,12,3.811ZM7.75,5A.752.752,0,0,1,7,4.25V0H.75A.75.75,0,0,0,0,.75v14.5A.75.75,0,0,0,.75,16h10.5a.75.75,0,0,0,.75-.75V5Zm-4.233.5A1.5,1.5,0,1,1,2.017,7,1.5,1.5,0,0,1,3.517,5.5Zm6.5,7.5h-8l.015-1.515L3.267,10.25a.357.357,0,0,1,.515.015L5.017,11.5,8.252,8.265a.375.375,0,0,1,.53,0L10.017,9.5V13Z" transform="translate(293.025 678.5)" fill="rgba(21,81,237,0.3)"/>
    <path id="Icon_awesome-file-image-2" data-name="Icon awesome-file-image" d="M12,3.811V4H8V0h.189a.75.75,0,0,1,.53.22L11.78,3.28A.75.75,0,0,1,12,3.811ZM7.75,5A.752.752,0,0,1,7,4.25V0H.75A.75.75,0,0,0,0,.75v14.5A.75.75,0,0,0,.75,16h10.5a.75.75,0,0,0,.75-.75V5Zm-4.233.5A1.5,1.5,0,1,1,2.017,7,1.5,1.5,0,0,1,3.517,5.5Zm6.5,7.5h-8l.015-1.515L3.267,10.25a.357.357,0,0,1,.515.015L5.017,11.5,8.252,8.265a.375.375,0,0,1,.53,0L10.017,9.5V13Z" transform="translate(291.6 677.5)" fill="#1551ed"/>
  </g>
</svg>
