<svg xmlns="http://www.w3.org/2000/svg" width="81" height="81" viewBox="0 0 81 81">
  <g id="Group_10802" data-name="Group 10802" transform="translate(-0.008 -0.354)" opacity="0.57">
    <circle id="Ellipse_383" data-name="Ellipse 383" cx="40.5" cy="40.5" r="40.5" transform="translate(0.008 0.354)" fill="#708598"/>
    <g id="Group_10801" data-name="Group 10801" transform="translate(12.002 27.426)">
      <path id="Icon_metro-file-text" data-name="Icon metro-file-text" d="M26.793,7.91a23.681,23.681,0,0,0-2.276-2.6,23.683,23.683,0,0,0-2.6-2.276,4.165,4.165,0,0,0-2.374-1.1H6.588A2.091,2.091,0,0,0,4.5,4.017V26.578a2.091,2.091,0,0,0,2.089,2.089H25.806a2.091,2.091,0,0,0,2.089-2.089V10.284a4.165,4.165,0,0,0-1.1-2.374ZM23.335,6.488a22.792,22.792,0,0,1,1.9,2.125H21.21V4.593A22.768,22.768,0,0,1,23.335,6.488Zm2.889,20.09a.423.423,0,0,1-.418.418H6.588a.423.423,0,0,1-.418-.418V4.017A.423.423,0,0,1,6.588,3.6H19.539V9.448a.836.836,0,0,0,.836.836h5.849Zm-4.178-2.925h-11.7a.836.836,0,0,1,0-1.671h11.7a.836.836,0,0,1,0,1.671Zm0-3.342h-11.7a.836.836,0,0,1,0-1.671h11.7a.836.836,0,0,1,0,1.671Zm0-3.342h-11.7a.836.836,0,0,1,0-1.671h11.7a.836.836,0,0,1,0,1.671Z" transform="translate(30.802 -1.928)" fill="#fff"/>
      <path id="Icon_awesome-id-card" data-name="Icon awesome-id-card" d="M28.163,2.25H2.56A2.561,2.561,0,0,0,0,4.81v.853H30.723V4.81A2.561,2.561,0,0,0,28.163,2.25ZM0,23.586a2.561,2.561,0,0,0,2.56,2.56h25.6a2.561,2.561,0,0,0,2.56-2.56V7.371H0ZM18.775,11.211a.428.428,0,0,1,.427-.427h7.681a.428.428,0,0,1,.427.427v.853a.428.428,0,0,1-.427.427H19.2a.428.428,0,0,1-.427-.427Zm0,3.414A.428.428,0,0,1,19.2,14.2h7.681a.428.428,0,0,1,.427.427v.853a.428.428,0,0,1-.427.427H19.2a.428.428,0,0,1-.427-.427Zm0,3.414a.428.428,0,0,1,.427-.427h7.681a.428.428,0,0,1,.427.427v.853a.428.428,0,0,1-.427.427H19.2a.428.428,0,0,1-.427-.427ZM9.388,10.784A3.414,3.414,0,1,1,5.974,14.2,3.417,3.417,0,0,1,9.388,10.784ZM3.579,21.676a3.419,3.419,0,0,1,3.248-2.358h.437a5.494,5.494,0,0,0,4.246,0h.437A3.419,3.419,0,0,1,15.2,21.676a.84.84,0,0,1-.832,1.056H4.411A.842.842,0,0,1,3.579,21.676Z" transform="translate(0 -0.829)" fill="#fff"/>
    </g>
  </g>
</svg>
