<svg xmlns="http://www.w3.org/2000/svg" width="81" height="81" viewBox="0 0 81 81">
  <g id="Group_10787" data-name="Group 10787" transform="translate(-0.002 -0.166)" opacity="0.57">
    <g id="Group_10791" data-name="Group 10791" transform="translate(0.002 0.166)">
      <circle id="Ellipse_383" data-name="Ellipse 383" cx="40.5" cy="40.5" r="40.5" fill="#708598"/>
    </g>
    <g id="Group_10803" data-name="Group 10803" transform="translate(16.529 24.175)">
      <g id="Group_10790" data-name="Group 10790" transform="translate(0 0.508)">
        <path id="Path_10510" data-name="Path 10510" d="M30.954,34.282V30.354A7.854,7.854,0,0,0,23.1,22.5H9.354A7.854,7.854,0,0,0,1.5,30.354v3.927" transform="translate(-1.5 -2.306)" fill="none" stroke="#fff" stroke-linecap="round" stroke-linejoin="round" stroke-width="1"/>
        <path id="Path_10511" data-name="Path 10511" d="M22.459,12.354A7.854,7.854,0,1,1,14.6,4.5,7.854,7.854,0,0,1,22.459,12.354Z" transform="translate(0.124 -4.5)" fill="none" stroke="#fff" stroke-linecap="round" stroke-linejoin="round" stroke-width="1"/>
        <path id="Icon_metro-file-text" data-name="Icon metro-file-text" d="M15.913,4.991a12.125,12.125,0,0,0-1.165-1.333,12.126,12.126,0,0,0-1.333-1.166A2.132,2.132,0,0,0,12.2,1.928H5.568A1.071,1.071,0,0,0,4.5,3V14.549a1.071,1.071,0,0,0,1.07,1.07h9.84a1.071,1.071,0,0,0,1.07-1.07V6.206a2.132,2.132,0,0,0-.564-1.216Zm-1.771-.728a11.669,11.669,0,0,1,.97,1.088H13.055V3.292A11.657,11.657,0,0,1,14.143,4.263Zm1.479,10.286a.217.217,0,0,1-.214.214H5.568a.217.217,0,0,1-.214-.214V3a.217.217,0,0,1,.214-.214H12.2V5.778a.428.428,0,0,0,.428.428h2.995Zm-2.139-1.5H7.493a.428.428,0,0,1,0-.856h5.989a.428.428,0,0,1,0,.856Zm0-1.711H7.493a.428.428,0,0,1,0-.856h5.989a.428.428,0,0,1,0,.856Zm0-1.711H7.493a.428.428,0,0,1,0-.856h5.989a.428.428,0,0,1,0,.856Z" transform="translate(32.126 12.936)" fill="#fff"/>
      </g>
      <path id="Icon_awesome-id-card" data-name="Icon awesome-id-card" d="M13.751,2.25H1.25A1.25,1.25,0,0,0,0,3.5v.417H15V3.5A1.25,1.25,0,0,0,13.751,2.25ZM0,12.667a1.25,1.25,0,0,0,1.25,1.25h12.5A1.25,1.25,0,0,0,15,12.667V4.75H0ZM9.167,6.625a.209.209,0,0,1,.208-.208h3.75a.209.209,0,0,1,.208.208v.417a.209.209,0,0,1-.208.208H9.376a.209.209,0,0,1-.208-.208Zm0,1.667a.209.209,0,0,1,.208-.208h3.75a.209.209,0,0,1,.208.208v.417a.209.209,0,0,1-.208.208H9.376a.209.209,0,0,1-.208-.208Zm0,1.667a.209.209,0,0,1,.208-.208h3.75a.209.209,0,0,1,.208.208v.417a.209.209,0,0,1-.208.208H9.376a.209.209,0,0,1-.208-.208ZM4.584,6.417A1.667,1.667,0,1,1,2.917,8.084,1.668,1.668,0,0,1,4.584,6.417ZM1.748,11.735a1.669,1.669,0,0,1,1.586-1.151h.214a2.683,2.683,0,0,0,2.073,0h.214A1.669,1.669,0,0,1,7.42,11.735a.41.41,0,0,1-.406.516H2.154A.411.411,0,0,1,1.748,11.735Z" transform="translate(27.932 -2.25)" fill="#fff"/>
    </g>
  </g>
</svg>
