<svg xmlns="http://www.w3.org/2000/svg" width="12.203" height="12.205" viewBox="0 0 12.203 12.205">
  <g id="Group" transform="translate(12.203) rotate(90)">
    <g id="Group-2" data-name="Group" transform="translate(0)">
      <path id="Shape" d="M10.375,12.2H1.831A1.833,1.833,0,0,1,0,10.372V6.71a.61.61,0,1,1,1.22,0v3.661a.611.611,0,0,0,.61.61h8.544a.611.611,0,0,0,.61-.61V6.71a.61.61,0,1,1,1.22,0v3.661A1.833,1.833,0,0,1,10.375,12.2ZM6.1,8.541a.611.611,0,0,1-.61-.61V2.078l-1.4,1.4a.613.613,0,0,1-.592.159.613.613,0,0,1-.275-1.025L5.669.174a.611.611,0,0,1,.2-.129.61.61,0,0,1,.464,0,.611.611,0,0,1,.2.129L8.977,2.615a.61.61,0,0,1,0,.867.609.609,0,0,1-.866,0l-1.4-1.4V7.931A.611.611,0,0,1,6.1,8.541Z" fill="current"/>
    </g>
  </g>
</svg>
