<svg xmlns="http://www.w3.org/2000/svg" viewBox="0 0 32.711 37.385">
  <path id="Icon_metro-file-text" data-name="Icon metro-file-text" d="M35.67,10.291a33.109,33.109,0,0,0-3.183-3.64,33.112,33.112,0,0,0-3.64-3.183c-1.883-1.381-2.8-1.54-3.319-1.54H7.419A2.924,2.924,0,0,0,4.5,4.849V36.392a2.924,2.924,0,0,0,2.921,2.921h26.87a2.924,2.924,0,0,0,2.921-2.921V13.611c0-.523-.16-1.437-1.54-3.319ZM30.835,8.3a31.866,31.866,0,0,1,2.65,2.971H27.864V5.654A31.834,31.834,0,0,1,30.835,8.3Zm4.039,28.089a.592.592,0,0,1-.584.584H7.419a.592.592,0,0,1-.584-.584V4.849a.592.592,0,0,1,.584-.584H25.527v8.178A1.168,1.168,0,0,0,26.7,13.611h8.178ZM29.032,32.3H12.677a1.168,1.168,0,1,1,0-2.337H29.032a1.168,1.168,0,1,1,0,2.337Zm0-4.673H12.677a1.168,1.168,0,1,1,0-2.337H29.032a1.168,1.168,0,1,1,0,2.337Zm0-4.673H12.677a1.168,1.168,0,1,1,0-2.337H29.032a1.168,1.168,0,1,1,0,2.337Z" transform="translate(-4.499 -1.928)" fill="#1652f0"/>
</svg>
