<svg xmlns="http://www.w3.org/2000/svg" width="9" height="19" viewBox="0 0 9 19">
  <g id="Group_12889" data-name="Group 12889" transform="translate(-25 -299)">
    <rect id="Rectangle_1703" data-name="Rectangle 1703" width="19" height="9" rx="4.5" transform="translate(25 318) rotate(-90)" fill="#f4f6fa"/>
    <g id="Group_12798" data-name="Group 12798" transform="translate(28.279 313.691) rotate(-90)">
      <path id="Path_12502" data-name="Path 12502" d="M29.441,17.721A1.221,1.221,0,1,1,28.221,16.5,1.221,1.221,0,0,1,29.441,17.721Z" transform="translate(-19.061 -16.5)"/>
      <path id="Path_12503" data-name="Path 12503" d="M29.441,17.721A1.221,1.221,0,1,1,28.221,16.5,1.221,1.221,0,0,1,29.441,17.721Z" transform="translate(-23.03 -16.5)"/>
      <path id="Path_12504" data-name="Path 12504" d="M29.441,17.721A1.221,1.221,0,1,1,28.221,16.5,1.221,1.221,0,0,1,29.441,17.721Z" transform="translate(-27 -16.5)"/>
    </g>
  </g>
</svg>
