<svg xmlns="http://www.w3.org/2000/svg" width="41.045" height="26.679" viewBox="0 0 41.045 26.679">
  <path id="Icon_payment-credit-card" data-name="Icon payment-credit-card" d="M44.446,16.35a2.579,2.579,0,0,1,1.967.846,2.539,2.539,0,0,1,.852,1.952V40.23a2.54,2.54,0,0,1-.852,1.952,2.575,2.575,0,0,1-1.967.846H9.04a2.576,2.576,0,0,1-1.967-.846,2.537,2.537,0,0,1-.852-1.952V19.148A2.538,2.538,0,0,1,7.073,17.2,2.579,2.579,0,0,1,9.04,16.35H44.446ZM9.04,18.562q-.328,0-.394.2a.561.561,0,0,0-.2.391v3.9H45.036v-3.9a.561.561,0,0,0-.2-.391q-.066-.2-.394-.2ZM44.446,40.816q.328,0,.394-.2a.561.561,0,0,0,.2-.391V29.689H8.45V40.23a.561.561,0,0,0,.2.391q.065.2.394.2H44.446ZM10.68,38.6V36.326H15.2V38.6Zm6.754,0V36.326h6.688V38.6Z" transform="translate(-6.221 -16.35)" fill="#1652f0"/>
</svg>
