<svg xmlns="http://www.w3.org/2000/svg"  viewBox="0 0 49 48">
  <g id="Group_10506" data-name="Group 10506" transform="translate(0.396 -0.215)">
    <rect id="Rectangle_1300" data-name="Rectangle 1300" width="49" height="49" rx="15" transform="translate(-0.396 0.215)" fill="#fff"/>
    <path id="Path_10333" data-name="Path 10333" d="M-15.233-16.824A2.726,2.726,0,0,0-13.04-17.6a2.949,2.949,0,0,0,.649-1.965,2.314,2.314,0,0,0-.684-1.79,3.109,3.109,0,0,0-2.158-.632h-1.053v5.158ZM-3.443-4.4H-9.2a2.728,2.728,0,0,1-2.6-1.228L-15.3-11.771l.035.035a2.389,2.389,0,0,0-.3-.4.555.555,0,0,0-.4-.123h-.316V-4.4h-6.772V-26.754h7.825a16.294,16.294,0,0,1,4.369.509,8.06,8.06,0,0,1,2.93,1.421,5.506,5.506,0,0,1,1.649,2.176,7.045,7.045,0,0,1,.526,2.737,6.687,6.687,0,0,1-.983,3.544,6.85,6.85,0,0,1-2.877,2.562,4.581,4.581,0,0,1,.649.561,4.521,4.521,0,0,1,.509.667Z" transform="translate(39.719 39.492)" fill="rgb(22,82,240)"/>
  </g>
</svg>
