<svg xmlns="http://www.w3.org/2000/svg" viewBox="0 0 10.64 12">
  <path id="Icon_metro-gift" data-name="Icon metro-gift" d="M12.9,5.94a4.768,4.768,0,0,0,.611-.512,2.616,2.616,0,0,0,.747-1.372,1.523,1.523,0,0,0-.376-1.365,1.431,1.431,0,0,0-1.037-.4,2.479,2.479,0,0,0-1.7.775,6.693,6.693,0,0,0-1.5,2.653A5.412,5.412,0,0,0,8.386,3.173,1.9,1.9,0,0,0,7.058,2.6a1.4,1.4,0,0,0-1,.4,1.657,1.657,0,0,0,.179,2.325,3.827,3.827,0,0,0,.84.621H4.5V8.976h.76v5.312h9.12V8.976h.76V5.94ZM11.746,3.667a1.649,1.649,0,0,1,1.1-.525.607.607,0,0,1,.433.154c.309.309.136,1.023-.371,1.53A5.355,5.355,0,0,1,11.073,5.94h-.6a5.813,5.813,0,0,1,1.275-2.274Zm-5.23.387A.582.582,0,0,1,6.662,3.6a.553.553,0,0,1,.4-.147,1.05,1.05,0,0,1,.724.326,4.216,4.216,0,0,1,.958,1.848l.018.065-.065-.018a4.226,4.226,0,0,1-1.851-.957,1.079,1.079,0,0,1-.324-.661Zm2.542,9.475H6.019V8.6h3.04Zm0-5.312h-3.8V6.7h3.8V8.217Zm4.56,5.312h-3.04V8.6h3.04Zm.76-5.312h-3.8V6.7h3.8V8.217Z" transform="translate(-4.499 -2.288)" fill="current"/>
</svg>
