<svg xmlns="http://www.w3.org/2000/svg" width="93.014" height="93.014" viewBox="0 0 93.014 93.014">
  <g id="REJECT" transform="translate(-298.908 -23)">
    <path id="Subtraction_11" data-name="Subtraction 11" d="M46.507,93.014A46.519,46.519,0,0,1,28.4,3.654a46.519,46.519,0,0,1,36.2,85.705A46.221,46.221,0,0,1,46.507,93.014Zm0-36.925h0l15.5,15.5a1.605,1.605,0,0,0,.57.366,1.632,1.632,0,0,0,.562.1,1.593,1.593,0,0,0,1.128-.467l7.323-7.322a1.605,1.605,0,0,0,.365-1.689,1.577,1.577,0,0,0-.365-.57l-15.5-15.5L71.593,31a1.569,1.569,0,0,0,.365-.569,1.6,1.6,0,0,0-.365-1.687L64.27,21.421a1.584,1.584,0,0,0-1.126-.467,1.611,1.611,0,0,0-.563.1,1.641,1.641,0,0,0-.57.363l-15.5,15.506L31,21.421a1.605,1.605,0,0,0-1.133-.467,1.586,1.586,0,0,0-1.126.467l-7.323,7.323a1.6,1.6,0,0,0-.365,1.689,1.566,1.566,0,0,0,.365.567l15.5,15.506-15.5,15.5a1.577,1.577,0,0,0-.365.57,1.6,1.6,0,0,0,.365,1.689l7.323,7.322a1.593,1.593,0,0,0,2.257,0l15.506-15.5Z" transform="translate(298.908 23)" fill="#1650e9"/>
  </g>
</svg>
