<svg xmlns="http://www.w3.org/2000/svg" width="33.059" height="36" viewBox="0 0 33.059 36">
  <g id="selfie" transform="translate(-20.912 0)">
    <path id="Path_10529" data-name="Path 10529" d="M232.523,195.455h.781a.624.624,0,1,0,0-1.247h-.521v-1.219a.624.624,0,1,0-1.247,0v1.484A.986.986,0,0,0,232.523,195.455Z" transform="translate(-195.99 -179.032)" fill="#1652f0"/>
    <path id="Path_10530" data-name="Path 10530" d="M197.145,186.439a.624.624,0,0,0-.624.624v1.3a.624.624,0,0,0,1.247,0v-1.3A.624.624,0,0,0,197.145,186.439Z" transform="translate(-163.336 -173.482)" fill="#1652f0"/>
    <path id="Path_10531" data-name="Path 10531" d="M280.431,188.986a.624.624,0,0,0,.624-.624v-1.3a.624.624,0,0,0-1.247,0v1.3A.624.624,0,0,0,280.431,188.986Z" transform="translate(-240.801 -173.482)" fill="#1652f0"/>
    <path id="Path_10532" data-name="Path 10532" d="M223.458,248.187a.624.624,0,0,0-.882-.882,1.58,1.58,0,0,1-1.126.464h0a1.6,1.6,0,0,1-1.135-.471.624.624,0,1,0-.882.882,2.852,2.852,0,0,0,4.028.007Z" transform="translate(-184.712 -229.888)" fill="#1652f0"/>
    <path id="Path_10533" data-name="Path 10533" d="M130.411,82.452v-1.7h1.7a.624.624,0,0,0,0-1.247h-2.328a.624.624,0,0,0-.624.624v2.328a.624.624,0,0,0,1.247,0Z" transform="translate(-100.781 -74.004)" fill="#1652f0"/>
    <path id="Path_10534" data-name="Path 10534" d="M322.116,83.076a.624.624,0,0,0,.624-.624V80.124a.624.624,0,0,0-.624-.624h-2.328a.624.624,0,0,0,0,1.247h1.7v1.7A.624.624,0,0,0,322.116,83.076Z" transform="translate(-277.667 -74.004)" fill="#1652f0"/>
    <path id="Path_10535" data-name="Path 10535" d="M129.788,267.5a.624.624,0,0,0-.624.624v2.328a.624.624,0,0,0,.624.624h2.328a.624.624,0,0,0,0-1.247h-1.7v-1.7A.624.624,0,0,0,129.788,267.5Z" transform="translate(-100.781 -249.007)" fill="#1652f0"/>
    <circle id="Ellipse_387" data-name="Ellipse 387" cx="0.624" cy="0.624" r="0.624" transform="translate(29.619 2.079)" fill="#1652f0"/>
    <circle id="Ellipse_388" data-name="Ellipse 388" cx="0.624" cy="0.624" r="0.624" transform="translate(31.262 2.079)" fill="#1652f0"/>
    <path id="Path_10536" data-name="Path 10536" d="M204.124,25a.624.624,0,1,0,0,1.247h5.987a.624.624,0,1,0,0-1.247Z" transform="translate(-170.282 -22.921)" fill="#1652f0"/>
    <path id="Path_10537" data-name="Path 10537" d="M209.68,396.87a3.264,3.264,0,1,0-3.264-3.264A3.267,3.267,0,0,0,209.68,396.87Zm0-5.28a2.016,2.016,0,1,1-2.016,2.016A2.019,2.019,0,0,1,209.68,391.59Z" transform="translate(-172.938 -364.46)" fill="#1652f0"/>
    <path id="Path_10538" data-name="Path 10538" d="M302.24,410a.874.874,0,0,0,.873-.873v-2.162a.874.874,0,0,0-.873-.873h-2.162a.874.874,0,0,0-.873.873v2.162a.874.874,0,0,0,.873.873Zm-1.788-2.661h1.414v1.414h-1.414Z" transform="translate(-259.123 -378.897)" fill="#1652f0"/>
    <path id="Path_10539" data-name="Path 10539" d="M148.24,406.09h-2.162a.874.874,0,0,0-.873.873v2.162a.874.874,0,0,0,.873.873h2.162a.874.874,0,0,0,.873-.873v-2.162A.874.874,0,0,0,148.24,406.09Zm-.374,2.661h-1.414v-1.414h1.414Z" transform="translate(-115.731 -378.897)" fill="#1652f0"/>
    <path id="Path_10540" data-name="Path 10540" d="M53.669,30.5,51.054,27.89a6.081,6.081,0,0,0,.069-1.94.527.527,0,1,0-1.047.13,5.027,5.027,0,0,1-.083,1.729.775.775,0,0,0,.21.721l2.7,2.7-3.394,3.39-2.74-2.736V24.293a.527.527,0,0,0-.077-.274L45.038,21.3a2.464,2.464,0,0,1-.446-2.158,2.049,2.049,0,0,1,1.081-1s2.662,4.671,2.68,4.693a10.873,10.873,0,0,1,.966,1.149.527.527,0,0,0,.888-.568,6.113,6.113,0,0,0-1-1.19L46.772,17.93V11.953a.527.527,0,1,0-1.055,0v5.084a.875.875,0,0,0-.295.061,3.184,3.184,0,0,0-1.808,1.644,2.841,2.841,0,0,0,.011,2.036H42.41a.527.527,0,1,0,0,1.055h1.719l.007.013L45.65,24.33H44.459a2.29,2.29,0,0,0-2.222-1.754H39v-.983a5.335,5.335,0,0,0,3.628-4.129h.3a1.523,1.523,0,0,0,1.532-1.51v-1.19a1.523,1.523,0,0,0-1.532-1.51h-.218V10.48c0-2.929-2.184-4.609-5.993-4.609s-5.993,1.68-5.993,4.609v2.775H30.5a1.523,1.523,0,0,0-1.532,1.51v1.19a1.523,1.523,0,0,0,1.532,1.51h.3a5.335,5.335,0,0,0,3.628,4.129v.983H31.193a2.29,2.29,0,0,0-2.222,1.754h-.779a1.942,1.942,0,0,0-.48-.722V1.983a.927.927,0,0,1,.924-.928H44.793a.927.927,0,0,1,.924.928V9.422a.527.527,0,1,0,1.055,0V1.983A1.983,1.983,0,0,0,44.793,0H28.636a1.983,1.983,0,0,0-1.979,1.983V16.595H22.846a1.936,1.936,0,0,0-1.934,1.934v.428a1.936,1.936,0,0,0,1.673,1.915,1.92,1.92,0,0,0-.221.9V22.2a1.934,1.934,0,0,0,.944,1.66,1.924,1.924,0,0,0-.382,1.152v.428a1.933,1.933,0,0,0,.9,1.631,1.923,1.923,0,0,0-.4,1.181v.428a1.936,1.936,0,0,0,1.934,1.934h1.306v3.406A1.983,1.983,0,0,0,28.636,36h3.251a.527.527,0,1,0,0-1.055H28.636a.927.927,0,0,1-.924-.928v-3.6a1.936,1.936,0,0,0,1.1-1.743V28.25a1.934,1.934,0,0,0-.9-1.631,1.924,1.924,0,0,0,.4-1.181v-.052h17.4v8.632a.927.927,0,0,1-.924.928H34.418a.527.527,0,0,0,0,1.055H44.793a1.983,1.983,0,0,0,1.979-1.983v-.643l2.012,2.009a1.033,1.033,0,0,0,1.457,0l3.428-3.423a1.031,1.031,0,0,0,0-1.458ZM42.708,14.31h.218a.467.467,0,0,1,.477.455v1.19a.467.467,0,0,1-.477.456h-.218Zm-11.986,2.1H30.5a.467.467,0,0,1-.477-.456v-1.19a.467.467,0,0,1,.477-.455h.218Zm-7.876,3.425a.88.88,0,0,1-.879-.879v-.428a.88.88,0,0,1,.879-.879h3.812v2.186Zm.572,2.362v-.428a.88.88,0,0,1,.879-.879h2.361v2.186H24.3A.88.88,0,0,1,23.418,22.2Zm.562,3.24v-.428a.88.88,0,0,1,.879-.879h1.524a.88.88,0,0,1,.879.879v.428a.88.88,0,0,1-.879.879H24.858A.88.88,0,0,1,23.979,25.437Zm3.774,3.24a.88.88,0,0,1-.879.879H25.351a.88.88,0,0,1-.879-.879V28.25a.88.88,0,0,1,.879-.879h1.523a.88.88,0,0,1,.879.879ZM33.139,7.765a6.606,6.606,0,0,1,3.576-.84,6.607,6.607,0,0,1,3.576.84,2.993,2.993,0,0,1,1.362,2.687c-1-1.088-2.683-1.678-4.938-1.678s-3.938.59-4.938,1.678A2.993,2.993,0,0,1,33.139,7.765ZM31.776,16.55V13.384a3,3,0,0,1,1.363-2.715,6.606,6.606,0,0,1,3.576-.84,6.607,6.607,0,0,1,3.576.84,3,3,0,0,1,1.363,2.715V16.55a4.279,4.279,0,0,1-4.3,4.247H36.078a4.279,4.279,0,0,1-4.3-4.247Zm-1.691,7.78a1.231,1.231,0,0,1,1.108-.7h3.3a2.281,2.281,0,0,0,.3.7Zm7.859-1.237a1.229,1.229,0,1,1-2.457,0V21.818a5.43,5.43,0,0,0,.592.033h1.274a5.428,5.428,0,0,0,.592-.033v1.276Zm.691,1.237a2.28,2.28,0,0,0,.3-.7h3.3a1.231,1.231,0,0,1,1.108.7Z" transform="translate(0 0)" fill="#1652f0"/>
  </g>
</svg>
