<svg xmlns="http://www.w3.org/2000/svg" width="15.298" height="15.722" viewBox="0 0 15.298 15.722">
  <g id="Iconly_Two-tone_Setting" data-name="Iconly/Two-tone/Setting" transform="translate(0.756 0.75)">
    <g id="Setting">
      <path id="Path_33946" d="M13.586,3.955l-.482-.8a1.522,1.522,0,0,0-2.022-.521h0a1.537,1.537,0,0,1-1.12.15,1.47,1.47,0,0,1-.9-.651,1.309,1.309,0,0,1-.2-.677h0A1.381,1.381,0,0,0,8.442.429,1.518,1.518,0,0,0,7.378,0H6.406A1.512,1.512,0,0,0,5.36.415a1.377,1.377,0,0,0-.43,1h0a1.451,1.451,0,0,1-1.483,1.4,1.47,1.47,0,0,1-.709-.19h0a1.522,1.522,0,0,0-2.022.521L.2,3.955a1.381,1.381,0,0,0,.539,1.93h0a1.384,1.384,0,0,1,0,2.452h0A1.374,1.374,0,0,0,.2,10.26h0l.49.806a1.473,1.473,0,0,0,.892.675,1.545,1.545,0,0,0,1.13-.127h0a1.53,1.53,0,0,1,1.12-.143,1.461,1.461,0,0,1,.9.658,1.308,1.308,0,0,1,.2.677h0a1.45,1.45,0,0,0,1.483,1.415h.972a1.451,1.451,0,0,0,1.483-1.409h0a1.377,1.377,0,0,1,.432-1,1.512,1.512,0,0,1,1.051-.413,1.566,1.566,0,0,1,.709.19h0a1.522,1.522,0,0,0,2.022-.515h0l.511-.813a1.353,1.353,0,0,0,.151-1.072,1.419,1.419,0,0,0-.69-.858h0a1.419,1.419,0,0,1-.69-.858A1.353,1.353,0,0,1,12.508,6.4a1.423,1.423,0,0,1,.539-.515h0a1.381,1.381,0,0,0,.539-1.923h0Z" transform="translate(0 0)" fill="none" stroke="#200e32" stroke-linecap="round" stroke-linejoin="round" stroke-miterlimit="10" stroke-width="1.5"/>
      <ellipse id="Ellipse_737" cx="2.043" cy="1.95" rx="2.043" ry="1.95" transform="translate(4.853 5.161)" fill="none" stroke="#1650e9" stroke-linecap="round" stroke-linejoin="round" stroke-miterlimit="10" stroke-width="1.5"/>
    </g>
  </g>
</svg>
