<svg xmlns="http://www.w3.org/2000/svg" width="46" height="43.805" viewBox="0 0 46 43.805">
  <g id="Group_10912" data-name="Group 10912" transform="translate(17191 14987)">
    <g id="Group_10907" data-name="Group 10907" transform="translate(617 -5)">
      <g id="Group_10907-2" data-name="Group 10907">
        <path id="Rectangle_1474" data-name="Rectangle 1474" d="M1,0H39a1,1,0,0,1,1,1V27a1,1,0,0,1-1,1H0a0,0,0,0,1,0,0V1A1,1,0,0,1,1,0Z" transform="translate(-17802 -14982)" fill="#c0d0fa"/>
        <path id="Path_10556" data-name="Path 10556" d="M-17750.273-14955.672h-9.242v5.8Z" transform="translate(-42.484 1.672)" fill="#c0d0fa"/>
      </g>
      <g id="Group_10908" data-name="Group 10908" transform="translate(0 3)">
        <rect id="Rectangle_1475" data-name="Rectangle 1475" width="3" height="3" transform="translate(-17791 -14973)" fill="#c0d0fa"/>
        <rect id="Rectangle_1476" data-name="Rectangle 1476" width="3" height="3" transform="translate(-17786 -14973)" fill="#c0d0fa"/>
        <rect id="Rectangle_1477" data-name="Rectangle 1477" width="3" height="3" transform="translate(-17781 -14973)" fill="#c0d0fa"/>
        <rect id="Rectangle_1478" data-name="Rectangle 1478" width="3" height="3" transform="translate(-17776 -14973)" fill="#c0d0fa"/>
        <rect id="Rectangle_1479" data-name="Rectangle 1479" width="3" height="3" transform="translate(-17771 -14973)" fill="#c0d0fa"/>
      </g>
    </g>
    <g id="Group_10908-2" data-name="Group 10908" transform="translate(611 5)">
      <g id="Group_10907-3" data-name="Group 10907">
        <path id="Rectangle_1474-2" data-name="Rectangle 1474" d="M1,0H39a1,1,0,0,1,1,1V27a1,1,0,0,1-1,1H0a0,0,0,0,1,0,0V1A1,1,0,0,1,1,0Z" transform="translate(-17802 -14982)" fill="#1652f0"/>
        <path id="Path_10556-2" data-name="Path 10556" d="M-17750.273-14955.672h-9.242v5.8Z" transform="translate(-42.484 1.672)" fill="#1652f0"/>
      </g>
      <g id="Group_10908-3" data-name="Group 10908" transform="translate(0 3)">
        <rect id="Rectangle_1475-2" data-name="Rectangle 1475" width="3" height="3" transform="translate(-17791 -14973)" fill="#fff"/>
        <rect id="Rectangle_1476-2" data-name="Rectangle 1476" width="3" height="3" transform="translate(-17786 -14973)" fill="#fff"/>
        <rect id="Rectangle_1477-2" data-name="Rectangle 1477" width="3" height="3" transform="translate(-17781 -14973)" fill="#fff"/>
        <rect id="Rectangle_1478-2" data-name="Rectangle 1478" width="3" height="3" transform="translate(-17776 -14973)" fill="#fff"/>
        <rect id="Rectangle_1479-2" data-name="Rectangle 1479" width="3" height="3" transform="translate(-17771 -14973)" fill="#fff"/>
      </g>
    </g>
  </g>
</svg>
