<svg xmlns="http://www.w3.org/2000/svg" xmlns:xlink="http://www.w3.org/1999/xlink" viewBox="0 0 132 132">
  <defs>
    <filter id="Ellipse_379" x="0" y="0" width="132" height="132" filterUnits="userSpaceOnUse">
      <feOffset dy="3" input="SourceAlpha"/>
      <feGaussianBlur stdDeviation="3" result="blur"/>
      <feFlood flood-opacity="0.102"/>
      <feComposite operator="in" in2="blur"/>
      <feComposite in="SourceGraphic"/>
    </filter>
  </defs>
  <g id="Group_10916" data-name="Group 10916" transform="translate(-893 -287)">
    <g transform="matrix(1, 0, 0, 1, 893, 287)" filter="url(#Ellipse_379)">
      <circle id="Ellipse_379-2" data-name="Ellipse 379" cx="57" cy="57" r="57" transform="translate(9 6)" fill="#fff"/>
    </g>
    <g id="Group_10727" data-name="Group 10727" transform="translate(859.045 249.789)">
      <path id="Icon_awesome-star" data-name="Icon awesome-star" d="M6.84.4,5.364,3.4l-3.3.482a.724.724,0,0,0-.4,1.234L4.05,7.44l-.565,3.289a.723.723,0,0,0,1.049.762L7.489,9.938l2.955,1.553a.724.724,0,0,0,1.049-.762L10.928,7.44l2.39-2.329a.724.724,0,0,0-.4-1.234L9.614,3.4,8.138.4A.724.724,0,0,0,6.84.4Z" transform="translate(92.511 54.213)" fill="#c0d0fa"/>
      <path id="Icon_awesome-star-2" data-name="Icon awesome-star" d="M6.84.4,5.364,3.4l-3.3.482a.724.724,0,0,0-.4,1.234L4.05,7.44l-.565,3.289a.723.723,0,0,0,1.049.762L7.489,9.938l2.955,1.553a.724.724,0,0,0,1.049-.762L10.928,7.44l2.39-2.329a.724.724,0,0,0-.4-1.234L9.614,3.4,8.138.4A.724.724,0,0,0,6.84.4Z" transform="translate(109.866 58.174)" fill="#c0d0fa"/>
      <path id="Icon_awesome-star-3" data-name="Icon awesome-star" d="M6.84.4,5.364,3.4l-3.3.482a.724.724,0,0,0-.4,1.234L4.05,7.44l-.565,3.289a.723.723,0,0,0,1.049.762L7.489,9.938l2.955,1.553a.724.724,0,0,0,1.049-.762L10.928,7.44l2.39-2.329a.724.724,0,0,0-.4-1.234L9.614,3.4,8.138.4A.724.724,0,0,0,6.84.4Z" transform="translate(123.784 69.273)" fill="#c0d0fa"/>
      <path id="Icon_awesome-star-4" data-name="Icon awesome-star" d="M6.84.4,5.364,3.4l-3.3.482a.724.724,0,0,0-.4,1.234L4.05,7.44l-.565,3.289a.723.723,0,0,0,1.049.762L7.489,9.938l2.955,1.553a.724.724,0,0,0,1.049-.762L10.928,7.44l2.39-2.329a.724.724,0,0,0-.4-1.234L9.614,3.4,8.138.4A.724.724,0,0,0,6.84.4Z" transform="translate(131.508 85.312)" fill="#c0d0fa"/>
      <path id="Icon_awesome-star-5" data-name="Icon awesome-star" d="M6.84.4,5.364,3.4l-3.3.482a.724.724,0,0,0-.4,1.234L4.05,7.44l-.565,3.289a.723.723,0,0,0,1.049.762L7.489,9.938l2.955,1.553a.724.724,0,0,0,1.049-.762L10.928,7.44l2.39-2.329a.724.724,0,0,0-.4-1.234L9.614,3.4,8.138.4A.724.724,0,0,0,6.84.4Z" transform="translate(131.508 103.113)" fill="#c0d0fa"/>
      <path id="Icon_awesome-star-6" data-name="Icon awesome-star" d="M6.84.4,5.364,3.4l-3.3.482a.724.724,0,0,0-.4,1.234L4.05,7.44l-.565,3.289a.723.723,0,0,0,1.049.762L7.489,9.938l2.955,1.553a.724.724,0,0,0,1.049-.762L10.928,7.44l2.39-2.329a.724.724,0,0,0-.4-1.234L9.614,3.4,8.138.4A.724.724,0,0,0,6.84.4Z" transform="translate(123.784 119.152)" fill="#c0d0fa"/>
      <path id="Icon_awesome-star-7" data-name="Icon awesome-star" d="M6.84.4,5.364,3.4l-3.3.482a.724.724,0,0,0-.4,1.234L4.05,7.44l-.565,3.289a.723.723,0,0,0,1.049.762L7.489,9.938l2.955,1.553a.724.724,0,0,0,1.049-.762L10.928,7.44l2.39-2.329a.724.724,0,0,0-.4-1.234L9.614,3.4,8.138.4A.724.724,0,0,0,6.84.4Z" transform="translate(109.866 130.251)" fill="#c0d0fa"/>
      <path id="Icon_awesome-star-8" data-name="Icon awesome-star" d="M6.84.4,5.364,3.4l-3.3.482a.724.724,0,0,0-.4,1.234L4.05,7.44l-.565,3.289a.723.723,0,0,0,1.049.762L7.489,9.938l2.955,1.553a.724.724,0,0,0,1.049-.762L10.928,7.44l2.39-2.329a.724.724,0,0,0-.4-1.234L9.614,3.4,8.138.4A.724.724,0,0,0,6.84.4Z" transform="translate(92.511 134.213)" fill="#c0d0fa"/>
      <path id="Icon_awesome-star-9" data-name="Icon awesome-star" d="M6.84.4,5.364,3.4l-3.3.482a.724.724,0,0,0-.4,1.234L4.05,7.44l-.565,3.289a.723.723,0,0,0,1.049.762L7.489,9.938l2.955,1.553a.724.724,0,0,0,1.049-.762L10.928,7.44l2.39-2.329a.724.724,0,0,0-.4-1.234L9.614,3.4,8.138.4A.724.724,0,0,0,6.84.4Z" transform="translate(75.156 130.251)" fill="#c0d0fa"/>
      <path id="Icon_awesome-star-10" data-name="Icon awesome-star" d="M6.84.4,5.364,3.4l-3.3.482a.724.724,0,0,0-.4,1.234L4.05,7.44l-.565,3.289a.723.723,0,0,0,1.049.762L7.489,9.938l2.955,1.553a.724.724,0,0,0,1.049-.762L10.928,7.44l2.39-2.329a.724.724,0,0,0-.4-1.234L9.614,3.4,8.138.4A.724.724,0,0,0,6.84.4Z" transform="translate(61.238 119.152)" fill="#c0d0fa"/>
      <path id="Icon_awesome-star-11" data-name="Icon awesome-star" d="M6.84.4,5.364,3.4l-3.3.482a.724.724,0,0,0-.4,1.234L4.05,7.44l-.565,3.289a.723.723,0,0,0,1.049.762L7.489,9.938l2.955,1.553a.724.724,0,0,0,1.049-.762L10.928,7.44l2.39-2.329a.724.724,0,0,0-.4-1.234L9.614,3.4,8.138.4A.724.724,0,0,0,6.84.4Z" transform="translate(53.514 103.113)" fill="#c0d0fa"/>
      <path id="Icon_awesome-star-12" data-name="Icon awesome-star" d="M6.84.4,5.364,3.4l-3.3.482a.724.724,0,0,0-.4,1.234L4.05,7.44l-.565,3.289a.723.723,0,0,0,1.049.762L7.489,9.938l2.955,1.553a.724.724,0,0,0,1.049-.762L10.928,7.44l2.39-2.329a.724.724,0,0,0-.4-1.234L9.614,3.4,8.138.4A.724.724,0,0,0,6.84.4Z" transform="translate(53.514 85.312)" fill="#c0d0fa"/>
      <path id="Icon_awesome-star-13" data-name="Icon awesome-star" d="M6.84.4,5.364,3.4l-3.3.482a.724.724,0,0,0-.4,1.234L4.05,7.44l-.565,3.289a.723.723,0,0,0,1.049.762L7.489,9.938l2.955,1.553a.724.724,0,0,0,1.049-.762L10.928,7.44l2.39-2.329a.724.724,0,0,0-.4-1.234L9.614,3.4,8.138.4A.724.724,0,0,0,6.84.4Z" transform="translate(61.238 69.273)" fill="#c0d0fa"/>
      <path id="Icon_awesome-star-14" data-name="Icon awesome-star" d="M6.84.4,5.364,3.4l-3.3.482a.724.724,0,0,0-.4,1.234L4.05,7.44l-.565,3.289a.723.723,0,0,0,1.049.762L7.489,9.938l2.955,1.553a.724.724,0,0,0,1.049-.762L10.928,7.44l2.39-2.329a.724.724,0,0,0-.4-1.234L9.614,3.4,8.138.4A.724.724,0,0,0,6.84.4Z" transform="translate(75.156 58.174)" fill="#c0d0fa"/>
    </g>
    <path id="Icon_metro-lock" data-name="Icon metro-lock" d="M6.427,31.813V16.388H9.319v-4.82a7.712,7.712,0,0,1,7.712-7.712h.964a7.712,7.712,0,0,1,7.712,7.712v4.82H28.6V31.813H6.427ZM16.784,23.9l-.717,5.025h2.892L18.241,23.9a1.928,1.928,0,1,0-1.457,0ZM22.815,12.05a5.3,5.3,0,1,0-10.6,0v4.338h10.6Z" transform="translate(941.531 331.953)" fill="#1652f0"/>
  </g>
</svg>
