<svg xmlns="http://www.w3.org/2000/svg" width="36" height="34.72" viewBox="0 0 36 34.72">
  <g id="telephone_1_" data-name="telephone (1)" transform="translate(0 -9.1)">
    <g id="Group_10888" data-name="Group 10888" transform="translate(0 9.1)">
      <g id="Group_10887" data-name="Group 10887">
        <path id="Path_10553" data-name="Path 10553" d="M34.621,15.84a15.648,15.648,0,0,0-6.812-4.852,26.543,26.543,0,0,0-19.592-.029A15.641,15.641,0,0,0,1.389,15.79a6.225,6.225,0,0,0-1.11,5.7,2.976,2.976,0,0,0,2.852,2.065l4.5,0h0a3,3,0,0,0,2.955-3.522c0-.025-.01-.051-.017-.076l-.237-.924A18.281,18.281,0,0,1,18,17.217a18.768,18.768,0,0,1,7.666,1.858l-.24.919c-.007.026-.013.052-.018.079a3,3,0,0,0,2.95,3.53l4.5,0h0a2.976,2.976,0,0,0,2.853-2.057A6.231,6.231,0,0,0,34.621,15.84Zm-.949,5.047a.844.844,0,0,1-.809.562h0l-4.5,0a.859.859,0,0,1-.664-.31.811.811,0,0,1-.181-.639l.447-1.709a1.081,1.081,0,0,0-.5-1.206,20.73,20.73,0,0,0-9.455-2.522H17.93a20.326,20.326,0,0,0-9.393,2.485,1.081,1.081,0,0,0-.5,1.2l.438,1.712a.811.811,0,0,1-.183.64.86.86,0,0,1-.664.308h0l-4.5,0a.844.844,0,0,1-.808-.564,4.1,4.1,0,0,1,.8-3.771c2.451-3.367,8.695-5.806,14.857-5.806h.034c6.169.009,12.422,2.47,14.868,5.851A4.1,4.1,0,0,1,33.671,20.887Z" transform="translate(0 -9.1)" fill="#1652f0"/>
      </g>
    </g>
    <g id="Group_10890" data-name="Group 10890" transform="translate(3.773 21.644)">
      <g id="Group_10889" data-name="Group 10889">
        <path id="Path_10554" data-name="Path 10554" d="M77.812,195.311l-3.349-3.536a1.07,1.07,0,0,0-.777-.335H71.521v-1.471a1.073,1.073,0,1,0-2.146,0v1.471H65.939v-1.471a1.073,1.073,0,1,0-2.146,0v1.471H61.629a1.07,1.07,0,0,0-.777.335L57.5,195.311a14.826,14.826,0,0,0-4.072,10.237v4.439a1.076,1.076,0,0,0,1.073,1.079H80.811a1.076,1.076,0,0,0,1.073-1.079v-4.439A14.825,14.825,0,0,0,77.812,195.311Zm-22.236,13.6v-3.36a12.671,12.671,0,0,1,3.48-8.749l3.032-3.2H73.225l3.032,3.2a12.671,12.671,0,0,1,3.48,8.749v3.36Z" transform="translate(-53.43 -188.89)" fill="#1652f0"/>
      </g>
    </g>
    <g id="Group_10892" data-name="Group 10892" transform="translate(12.354 28.582)">
      <g id="Group_10891" data-name="Group 10891">
        <path id="Path_10555" data-name="Path 10555" d="M181.693,287.135a5.647,5.647,0,1,0,5.647,5.647A5.653,5.653,0,0,0,181.693,287.135Zm0,9.136a3.489,3.489,0,1,1,3.489-3.489A3.493,3.493,0,0,1,181.693,296.271Z" transform="translate(-176.046 -287.135)" fill="#1652f0"/>
      </g>
    </g>
  </g>
</svg>
