<svg xmlns="http://www.w3.org/2000/svg" width="15.584" height="17.498" viewBox="0 0 15.584 17.498">
  <g id="Group_14917" data-name="Group 14917" transform="translate(-1398.749 -490.966)">
    <path id="Icon_feather-message-square" data-name="Icon feather-message-square" d="M4.5,7.881A1.173,1.173,0,0,1,5.714,6.754H13L15.424,4.5v9.016a1.173,1.173,0,0,1-1.214,1.127h-8.5A1.173,1.173,0,0,1,4.5,13.516Z" transform="translate(1398.16 487.216)" fill="#fff" stroke="#1650e9" stroke-linecap="round" stroke-linejoin="round" stroke-width="1.5"/>
    <path id="Icon_feather-message-square-2" data-name="Icon feather-message-square" d="M15.766,11.474a1.21,1.21,0,0,1-1.252,1.162H7L4.5,14.961v-9.3A1.21,1.21,0,0,1,5.752,4.5h8.762a1.21,1.21,0,0,1,1.252,1.162Z" transform="translate(1394.999 492.754)" fill="#fff" stroke="#200e32" stroke-linecap="round" stroke-linejoin="round" stroke-width="1.5"/>
    <path id="Path" d="M6.45,1.191H.584A.59.59,0,0,1,0,.6.59.59,0,0,1,.584,0H6.45a.591.591,0,0,1,.584.6.59.59,0,0,1-.584.6" transform="translate(1400.921 500.86)" fill="#1650e9"/>
    <path id="Path-2" data-name="Path" d="M.584.008V0H2.82A.59.59,0,0,1,3.4.595a.592.592,0,0,1-.584.6H.584A.59.59,0,0,1,0,.6a.59.59,0,0,1,.584-.6" transform="translate(1400.921 499.178)" fill="#1650e9"/>
  </g>
</svg>
