<svg xmlns="http://www.w3.org/2000/svg" width="15" height="15" viewBox="0 0 11.997 12">
  <path id="Shape" d="M10.2,12H1.8A1.8,1.8,0,0,1,0,10.2V.6A.6.6,0,0,1,.9.08L2.7,1.112,4.5.08a.6.6,0,0,1,.6,0L6.9,1.112,8.7.08A.6.6,0,0,1,9.6.6V6h1.8a.6.6,0,0,1,.6.6v3.6A1.8,1.8,0,0,1,10.2,12ZM9.6,7.2v3a.6.6,0,0,0,1.2,0v-3ZM1.2,1.64V10.2a.6.6,0,0,0,.6.6H8.506a1.786,1.786,0,0,1-.108-.6V1.64l-1.2.683a.645.645,0,0,1-.6,0L4.8,1.292,3,2.324a.646.646,0,0,1-.6,0ZM4.8,9.6A.6.6,0,0,1,4.2,9V8.7H3.6a.6.6,0,0,1,0-1.2H5.1a.3.3,0,1,0,0-.6H4.5a1.5,1.5,0,0,1-.3-2.969V3.6a.6.6,0,0,1,1.2,0v.3H6A.6.6,0,1,1,6,5.1H4.5a.3.3,0,0,0,0,.6h.6A1.5,1.5,0,0,1,5.4,8.67V9A.6.6,0,0,1,4.8,9.6Z" fill="current"/>
</svg>
