<svg xmlns="http://www.w3.org/2000/svg" width="14.139" height="17.525" viewBox="0 0 14.139 17.525">
  <g id="Iconly_Two-tone_Unlock" data-name="Iconly/Two-tone/Unlock" transform="translate(0.75 0.75)">
    <g id="Unlock" transform="translate(0 0)">
      <path id="Stroke_1" data-name="Stroke 1" d="M7.365,2.652A3.8,3.8,0,0,0,3.794,0,3.861,3.861,0,0,0,0,3.925V5.8" transform="translate(2.534 0)" fill="none" stroke="#1650e9" stroke-linecap="round" stroke-linejoin="round" stroke-miterlimit="10" stroke-width="1.5"/>
      <path id="Stroke_3" data-name="Stroke 3" d="M9.491,10.285H3.148A3.219,3.219,0,0,1,0,7V3.286A3.219,3.219,0,0,1,3.148,0H9.491a3.219,3.219,0,0,1,3.148,3.286V7A3.219,3.219,0,0,1,9.491,10.285Z" transform="translate(0 5.74)" fill="none" stroke="#200e32" stroke-linecap="round" stroke-linejoin="round" stroke-miterlimit="10" stroke-width="1.5"/>
      <path id="Stroke_5" data-name="Stroke 5" d="M.5,0V1.925" transform="translate(5.82 9.92)" fill="none" stroke="#200e32" stroke-linecap="round" stroke-linejoin="round" stroke-miterlimit="10" stroke-width="1.5"/>
    </g>
  </g>
</svg>
