<svg xmlns="http://www.w3.org/2000/svg" width="15.912" height="15.999" viewBox="0 0 15.912 15.999">
  <g id="Group" transform="translate(0)">
    <g id="Group-2" data-name="Group" transform="translate(0 0)">
      <path id="Shape" d="M.806,16a.812.812,0,0,1-.089,0A.8.8,0,0,1,0,15.107a7.983,7.983,0,0,1,4.973-6.54,4.8,4.8,0,1,1,5.932,0,7.98,7.98,0,0,1,5,6.548.8.8,0,0,1-.7.879H15.11a.8.8,0,0,1-.794-.712,6.4,6.4,0,0,0-12.712,0A.8.8,0,0,1,.806,16ZM7.944,1.6a3.2,3.2,0,1,0,3.2,3.2A3.2,3.2,0,0,0,7.944,1.6Z" transform="translate(0 0)" fill="#788ca6"/>
    </g>
  </g>
</svg>
