<svg xmlns="http://www.w3.org/2000/svg" width="15.751" height="18.744" viewBox="0 0 15.751 18.744">
  <path fill="current" id="Icon_awesome-apple" data-name="Icon awesome-apple" d="M13.45,12.155a3.907,3.907,0,0,1,2.092-3.549A4.5,4.5,0,0,0,12,6.74c-1.486-.117-3.109.866-3.7.866-.628,0-2.067-.824-3.2-.824C2.763,6.82.281,8.644.281,12.356a10.43,10.43,0,0,0,.6,3.4c.536,1.536,2.469,5.3,4.486,5.239,1.055-.025,1.8-.749,3.172-.749,1.331,0,2.021.749,3.2.749,2.034-.029,3.783-3.452,4.293-4.992a4.148,4.148,0,0,1-2.582-3.846ZM11.082,5.284a3.941,3.941,0,0,0,1-3.034A4.437,4.437,0,0,0,9.245,3.71,4,4,0,0,0,8.174,6.719a3.515,3.515,0,0,0,2.908-1.435Z" transform="translate(-0.281 -2.25)"/>
</svg>
