<svg xmlns="http://www.w3.org/2000/svg" width="40" height="40" viewBox="0 0 40 40">
  <g id="Group_10787" data-name="Group 10787" transform="translate(8199 13343)">
    <g id="Group_10791" data-name="Group 10791">
      <circle id="Ellipse_383" data-name="Ellipse 383" cx="20" cy="20" r="20" transform="translate(-8199 -13343)" fill="#708598"/>
    </g>
    <g id="Group_10803" data-name="Group 10803" transform="translate(-3.026 -2.023)">
      <g id="Group_10790" data-name="Group 10790" transform="translate(-8188 -13328.937)">
        <path id="Path_10510" data-name="Path 10510" d="M16.224,28.39V26.426A3.926,3.926,0,0,0,12.3,22.5H5.426A3.926,3.926,0,0,0,1.5,26.426V28.39" transform="translate(-1.5 -12.405)" fill="none" stroke="#fff" stroke-linecap="round" stroke-linejoin="round" stroke-width="1"/>
        <path id="Path_10511" data-name="Path 10511" d="M14.6,8.426A3.926,3.926,0,1,1,10.676,4.5,3.926,3.926,0,0,1,14.6,8.426Z" transform="translate(-3.314 -4.5)" fill="none" stroke="#fff" stroke-linecap="round" stroke-linejoin="round" stroke-width="1"/>
        <path id="Icon_metro-file-text" data-name="Icon metro-file-text" d="M10.2,3.459A6.618,6.618,0,0,0,8.956,2.21a1.066,1.066,0,0,0-.608-.282H5.033a.535.535,0,0,0-.535.535V8.237a.535.535,0,0,0,.535.535H9.952a.535.535,0,0,0,.535-.535V4.067a1.066,1.066,0,0,0-.282-.608ZM9.32,3.1a5.833,5.833,0,0,1,.485.544H8.776V2.61A5.827,5.827,0,0,1,9.32,3.1Zm.739,5.142a.108.108,0,0,1-.107.107H5.033a.108.108,0,0,1-.107-.107V2.463a.108.108,0,0,1,.107-.107H8.348v1.5a.214.214,0,0,0,.214.214h1.5ZM8.99,7.489H6a.214.214,0,0,1,0-.428H8.99a.214.214,0,0,1,0,.428Zm0-.855H6a.214.214,0,0,1,0-.428H8.99a.214.214,0,0,1,0,.428Zm0-.855H6A.214.214,0,0,1,6,5.35H8.99a.214.214,0,0,1,0,.428Z" transform="translate(13.81 5.502)" fill="#fff"/>
      </g>
      <path id="Icon_awesome-id-card" data-name="Icon awesome-id-card" d="M6.874,2.25H.625A.625.625,0,0,0,0,2.875v.208H7.5V2.875A.625.625,0,0,0,6.874,2.25ZM0,7.458a.625.625,0,0,0,.625.625H6.874A.625.625,0,0,0,7.5,7.458V3.5H0Zm4.583-3.02a.1.1,0,0,1,.1-.1H6.562a.1.1,0,0,1,.1.1v.208a.1.1,0,0,1-.1.1H4.687a.1.1,0,0,1-.1-.1Zm0,.833a.1.1,0,0,1,.1-.1H6.562a.1.1,0,0,1,.1.1v.208a.1.1,0,0,1-.1.1H4.687a.1.1,0,0,1-.1-.1Zm0,.833a.1.1,0,0,1,.1-.1H6.562a.1.1,0,0,1,.1.1v.208a.1.1,0,0,1-.1.1H4.687a.1.1,0,0,1-.1-.1ZM2.291,4.333a.833.833,0,1,1-.833.833A.834.834,0,0,1,2.291,4.333ZM.874,6.992a.834.834,0,0,1,.793-.575h.107a1.341,1.341,0,0,0,1.036,0h.107a.834.834,0,0,1,.793.575.205.205,0,0,1-.2.258H1.077A.205.205,0,0,1,.874,6.992Z" transform="translate(-8174.037 -13331.44)" fill="#fff"/>
    </g>
  </g>
</svg>
