<svg xmlns="http://www.w3.org/2000/svg" viewBox="0 0 96.521 114">
  <g id="Group_13174" data-name="Group 13174" transform="translate(20331.144 16186)">
    <g id="Group_13172" data-name="Group 13172" transform="translate(-20331.143 -16186)">
      <g id="Group" transform="translate(17.641)" opacity="0.4">
        <g id="Group-2" data-name="Group" transform="translate(0)">
          <path id="Shape" d="M39.44,98.567a4.895,4.895,0,0,1-2.862-.914L18.586,84.834A44.446,44.446,0,0,1,0,48.7V11.971A4.9,4.9,0,0,1,1.824,8.128a4.952,4.952,0,0,1,3.1-1.1,4.823,4.823,0,0,1,1.038.111,39.393,39.393,0,0,0,8.093.839A39.234,39.234,0,0,0,36.631.879a4.929,4.929,0,0,1,5.617,0,39.227,39.227,0,0,0,22.571,7.1,39.393,39.393,0,0,0,8.093-.839,4.824,4.824,0,0,1,1.038-.111,4.959,4.959,0,0,1,3.106,1.1,4.9,4.9,0,0,1,1.824,3.842V48.7A44.446,44.446,0,0,1,60.294,84.834l-18,12.818A4.888,4.888,0,0,1,39.44,98.567ZM9.859,17.641V48.7A34.564,34.564,0,0,0,24.306,76.8L39.44,87.6,54.574,76.8A34.576,34.576,0,0,0,69.021,48.7V17.641c-1.407.119-2.823.177-4.2.177A49.307,49.307,0,0,1,39.44,10.791a49.351,49.351,0,0,1-25.379,7.028C12.642,17.819,11.228,17.759,9.859,17.641ZM33.77,62.632a4.975,4.975,0,0,1-3.5-1.46L22.38,53.283a4.949,4.949,0,1,1,7-7l4.388,4.437L47.032,37.412l.2-.053a4.951,4.951,0,0,1,7,7L37.27,61.172A4.975,4.975,0,0,1,33.77,62.632Z" transform="translate(0)" fill="#56b4fc"/>
        </g>
      </g>
      <g id="Group-3" data-name="Group" transform="translate(0 15.433)">
        <g id="Group-4" data-name="Group" transform="translate(0)">
          <path id="Shape-2" data-name="Shape" d="M39.44,98.567a4.895,4.895,0,0,1-2.862-.914L18.586,84.834A44.446,44.446,0,0,1,0,48.7V11.971A4.9,4.9,0,0,1,1.824,8.128a4.952,4.952,0,0,1,3.1-1.1,4.823,4.823,0,0,1,1.038.111,39.393,39.393,0,0,0,8.093.839A39.234,39.234,0,0,0,36.631.879a4.929,4.929,0,0,1,5.617,0,39.227,39.227,0,0,0,22.571,7.1,39.393,39.393,0,0,0,8.093-.839,4.824,4.824,0,0,1,1.038-.111,4.959,4.959,0,0,1,3.106,1.1,4.9,4.9,0,0,1,1.824,3.842V48.7A44.446,44.446,0,0,1,60.294,84.834l-18,12.818A4.888,4.888,0,0,1,39.44,98.567ZM9.859,17.641V48.7A34.564,34.564,0,0,0,24.306,76.8L39.44,87.6,54.574,76.8A34.576,34.576,0,0,0,69.021,48.7V17.641c-1.407.119-2.823.177-4.2.177A49.307,49.307,0,0,1,39.44,10.791a49.351,49.351,0,0,1-25.379,7.028C12.642,17.819,11.228,17.759,9.859,17.641ZM33.77,62.632a4.975,4.975,0,0,1-3.5-1.46L22.38,53.283a4.949,4.949,0,1,1,7-7l4.388,4.437L47.032,37.412l.2-.053a4.951,4.951,0,0,1,7,7L37.27,61.172A4.975,4.975,0,0,1,33.77,62.632Z" transform="translate(0)" fill="#1652f0"/>
        </g>
      </g>
    </g>
  </g>
</svg>
