<svg xmlns="http://www.w3.org/2000/svg" width="40" height="40" viewBox="0 0 40 40">
  <g id="Group_10802" data-name="Group 10802" transform="translate(-1034 -443)">
    <circle id="Ellipse_383" data-name="Ellipse 383" cx="20" cy="20" r="20" transform="translate(1034 443)" fill="#708598"/>
    <g id="Group_10801" data-name="Group 10801" transform="translate(-3.046 -0.425)">
      <path id="Icon_metro-file-text" data-name="Icon metro-file-text" d="M15.313,4.83a11.487,11.487,0,0,0-1.1-1.263,11.488,11.488,0,0,0-1.263-1.1,2.02,2.02,0,0,0-1.152-.534H5.512A1.014,1.014,0,0,0,4.5,2.941V13.885A1.014,1.014,0,0,0,5.512,14.9h9.322a1.014,1.014,0,0,0,1.013-1.013v-7.9a2.02,2.02,0,0,0-.534-1.152Zm-1.677-.69a11.056,11.056,0,0,1,.919,1.031h-1.95V3.221A11.044,11.044,0,0,1,13.636,4.14Zm1.4,9.745a.205.205,0,0,1-.2.2H5.512a.205.205,0,0,1-.2-.2V2.941a.205.205,0,0,1,.2-.2h6.282V5.576a.405.405,0,0,0,.405.405h2.837ZM13.01,12.467H7.336a.405.405,0,0,1,0-.811H13.01a.405.405,0,0,1,0,.811Zm0-1.621H7.336a.405.405,0,0,1,0-.811H13.01a.405.405,0,0,1,0,.811Zm0-1.621H7.336a.405.405,0,0,1,0-.811H13.01a.405.405,0,0,1,0,.811Z" transform="translate(1056.016 455.072)" fill="#fff"/>
      <path id="Icon_awesome-id-card" data-name="Icon awesome-id-card" d="M13.662,2.25H1.242A1.242,1.242,0,0,0,0,3.492v.414H14.9V3.492A1.242,1.242,0,0,0,13.662,2.25ZM0,12.6a1.242,1.242,0,0,0,1.242,1.242h12.42A1.242,1.242,0,0,0,14.9,12.6V4.734H0Zm9.108-6a.208.208,0,0,1,.207-.207h3.726a.208.208,0,0,1,.207.207v.414a.208.208,0,0,1-.207.207H9.315a.208.208,0,0,1-.207-.207Zm0,1.656a.208.208,0,0,1,.207-.207h3.726a.208.208,0,0,1,.207.207v.414a.208.208,0,0,1-.207.207H9.315a.208.208,0,0,1-.207-.207Zm0,1.656A.208.208,0,0,1,9.315,9.7h3.726a.208.208,0,0,1,.207.207v.414a.208.208,0,0,1-.207.207H9.315a.208.208,0,0,1-.207-.207ZM4.554,6.39A1.656,1.656,0,1,1,2.9,8.046,1.657,1.657,0,0,1,4.554,6.39ZM1.736,11.673A1.658,1.658,0,0,1,3.312,10.53h.212a2.665,2.665,0,0,0,2.06,0H5.8a1.658,1.658,0,0,1,1.576,1.144.407.407,0,0,1-.4.512H2.14A.408.408,0,0,1,1.736,11.673Z" transform="translate(1042.858 455.44)" fill="#fff"/>
    </g>
  </g>
</svg>
