<svg id="Layer_2" data-name="Layer 2" xmlns="http://www.w3.org/2000/svg" width="36.824" height="36.824" viewBox="0 0 36.824 36.824">
  <g id="Layer_1" data-name="Layer 1">
    <path id="Path_12377" data-name="Path 12377" d="M11.261,15.474l7.152-7.152,7.155,7.155,4.161-4.161L18.412,0,7.1,11.312l4.161,4.161M0,18.412,4.161,14.25l4.161,4.161L4.161,22.573Zm11.261,2.939L18.412,28.5l7.155-7.155,4.163,4.159,0,0L18.412,36.824,7.1,25.512l-.006-.006,4.167-4.156M28.5,18.414l4.161-4.161,4.161,4.161-4.161,4.161Z" fill="#f3ba2f"/>
    <path id="Path_12378" data-name="Path 12378" d="M971.635,967.412h0l-4.222-4.222-3.121,3.12h0l-.359.359-.739.74-.006.006.006.006,4.219,4.219,4.222-4.222,0,0,0,0" transform="translate(-949.002 -949.003)" fill="#f3ba2f"/>
  </g>
</svg>
