<svg id="icons_clock-three" data-name="icons/clock-three" xmlns="http://www.w3.org/2000/svg" width="21.538" height="21.538" viewBox="0 0 21.538 21.538">
  <g id="Group" transform="translate(0 0)">
    <g id="Group-2" data-name="Group">
      <path id="Shape" d="M10.769,21.538A10.77,10.77,0,1,1,21.538,10.769,10.781,10.781,0,0,1,10.769,21.538Zm0-19.385a8.616,8.616,0,1,0,8.616,8.616A8.625,8.625,0,0,0,10.769,2.154ZM14,11.846h-3.23a1.078,1.078,0,0,1-1.077-1.077V5.385a1.077,1.077,0,1,1,2.154,0V9.692H14a1.077,1.077,0,1,1,0,2.154Z" fill="#fff"/>
    </g>
  </g>
</svg>
