<svg xmlns="http://www.w3.org/2000/svg"  viewBox="0 0 19 19">
  <g id="Group_11934" data-name="Group 11934" transform="translate(0.001)">
    <g id="Path_12505" data-name="Path 12505" transform="translate(-0.001)" fill="#fff">
      <path d="M 9.5 18.5 C 4.537380218505859 18.5 0.5 14.46261978149414 0.5 9.5 C 0.5 8.356080055236816 0.7124900221824646 7.28879976272583 1.188989996910095 6.039430141448975 C 1.769039988517761 4.495729923248291 2.886059999465942 3.098469972610474 4.335169792175293 2.102740049362183 C 5.861090183258057 1.054219961166382 7.647059917449951 0.5 9.5 0.5 C 14.46261978149414 0.5 18.5 4.537380218505859 18.5 9.5 C 18.5 14.46261978149414 14.46261978149414 18.5 9.5 18.5 Z" stroke="none"/>
      <path d="M 9.5 1 C 7.74860954284668 1 6.060549736022949 1.523820877075195 4.618330001831055 2.514829635620117 C 3.252790451049805 3.453140258789063 2.201419830322266 4.766510009765625 1.656160354614258 6.21759033203125 C 1.202369689941406 7.407449722290039 1 8.419779777526855 1 9.5 C 1 14.18692016601563 4.813079833984375 18 9.5 18 C 14.18692016601563 18 18 14.18692016601563 18 9.5 C 18 4.813079833984375 14.18692016601563 1 9.5 1 M 9.5 0 C 14.74670028686523 0 19 4.253299713134766 19 9.5 C 19 14.74670028686523 14.74670028686523 19 9.5 19 C 4.253299713134766 19 0 14.74670028686523 0 9.5 C 0 8.319490432739258 0.2153205871582031 7.18927001953125 0.7218093872070313 5.861240386962891 C 1.964269638061523 2.55463981628418 5.433799743652344 0 9.5 0 Z" stroke="none" fill="#b7c0ca"/>
    </g>
    <g id="Group_11812" data-name="Group 11812" transform="translate(6 5.999)">
      <path id="Path_12402" data-name="Path 12402" d="M7.4,0,0,7.4" transform="translate(0 7.397) rotate(-90)" fill="none" stroke="#b7c0ca" stroke-width="1"/>
      <path id="Path_12403" data-name="Path 12403" d="M7.4,0,0,7.4" transform="translate(7.396 7.396) rotate(180)" fill="none" stroke="#b7c0ca" stroke-width="1"/>
    </g>
  </g>
</svg>
