<svg id="Group" xmlns="http://www.w3.org/2000/svg" width="16" height="12.235" viewBox="0 0 16 12.235">
  <g id="Group-2" data-name="Group">
    <path id="Shape" d="M13.6,12.235H2.4A2.427,2.427,0,0,1,0,9.788V2.447A2.426,2.426,0,0,1,2.4,0H13.6A2.426,2.426,0,0,1,16,2.447V9.788A2.427,2.427,0,0,1,13.6,12.235ZM1.6,4.894V9.788a.809.809,0,0,0,.8.816H13.6a.809.809,0,0,0,.8-.816V4.894Zm.8-3.263a.809.809,0,0,0-.8.816v.816H14.4V2.447a.809.809,0,0,0-.8-.816Zm4,6.525H4A.816.816,0,0,1,4,6.525H6.4a.816.816,0,0,1,0,1.631Z" transform="translate(0 0)" fill="#788ca6"/>
  </g>
</svg>
