<svg xmlns="http://www.w3.org/2000/svg" width="21.318" height="14.868" viewBox="0 0 21.318 14.868"><g transform="translate(0)"><path d="M20.4,55.9H.914a1.04,1.04,0,0,1,0-2.065H20.4a1.04,1.04,0,0,1,0,2.065Z" transform="translate(0 -53.833)" fill="#fff"/><path d="M16.136,55.9H.914a1.04,1.04,0,0,1,0-2.065H16.136a1.04,1.04,0,0,1,0,2.065Z" transform="translate(4.268 -41.029)" fill="#fff"/><path d="M9.513,183.4H.914a1.04,1.04,0,0,1,0-2.065h8.6a1.04,1.04,0,0,1,0,2.065Z" transform="translate(10.89 -174.658)" fill="#fff"/></g></svg>