<svg xmlns="http://www.w3.org/2000/svg" width="16.914" height="11.85" viewBox="0 0 16.914 11.85">
  <g id="Group" transform="translate(0)">
    <g id="Group-2" data-name="Group">
      <path id="Shape" d="M4.228,11.85a.851.851,0,0,1-.6-.25L.244,8.216a.851.851,0,0,1,.6-1.446H12.687a.846.846,0,0,1,0,1.692h-9.8L4.828,10.4a.845.845,0,0,1,0,1.2A.85.85,0,0,1,4.228,11.85ZM16.069,5.078H4.228a.846.846,0,1,1,0-1.691h9.8L12.086,1.45a.849.849,0,0,1,0-1.2.849.849,0,0,1,1.2,0L16.67,3.632a.851.851,0,0,1-.6,1.446Z" transform="translate(0 0)" fill="#788ca6"/>
    </g>
  </g>
</svg>
