<svg viewBox="0 0 55 55" fill="none" xmlns="http://www.w3.org/2000/svg">
<path d="M39.824 0L0 0.422998V55H39.824V0Z" fill="#56B4FC"/>
<path d="M14.1074 19L39.8254 35.575L14.1074 19Z" fill="#1652F0"/>
<path d="M29.4652 2.21958L28.6522 3.86658L26.8342 4.13158C26.7612 4.14302 26.6927 4.17448 26.6365 4.22248C26.5802 4.27048 26.5384 4.33313 26.5156 4.40348C26.4928 4.47382 26.4899 4.54911 26.5073 4.62097C26.5248 4.69284 26.5618 4.75847 26.6142 4.81058L27.9292 6.09358L27.6182 7.90358C27.6066 7.97649 27.6155 8.05118 27.6437 8.11938C27.6719 8.18759 27.7185 8.24665 27.7782 8.29003C27.838 8.3334 27.9085 8.3594 27.9821 8.36515C28.0557 8.37089 28.1295 8.35616 28.1952 8.32258L29.8222 7.46858L31.4522 8.32358C31.518 8.35716 31.5917 8.37189 31.6653 8.36615C31.7389 8.3604 31.8095 8.3344 31.8692 8.29103C31.929 8.24765 31.9755 8.18859 32.0038 8.12038C32.032 8.05218 32.0408 7.97749 32.0292 7.90458L31.7152 6.09358L33.0302 4.81158C33.0827 4.75947 33.1197 4.69384 33.1371 4.62197C33.1545 4.55011 33.1517 4.47482 33.1289 4.40448C33.1061 4.33413 33.0642 4.27148 33.008 4.22348C32.9517 4.17548 32.8833 4.14402 32.8102 4.13258L30.9922 3.86658L30.1792 2.21958C30.1459 2.15354 30.0948 2.09805 30.0318 2.05929C29.9688 2.02052 29.8962 2 29.8222 2C29.7482 2 29.6757 2.02052 29.6127 2.05929C29.5496 2.09805 29.4986 2.15354 29.4652 2.21958Z" fill="#BFE9FF"/>
<path d="M39.0184 4.39927L38.2054 6.04627L36.3874 6.31127C36.3144 6.32271 36.2459 6.35417 36.1897 6.40217C36.1334 6.45017 36.0916 6.51282 36.0688 6.58316C36.046 6.65351 36.0432 6.7288 36.0606 6.80066C36.078 6.87253 36.115 6.93816 36.1674 6.99027L37.4824 8.27327L37.1714 10.0833C37.1599 10.1562 37.1687 10.2309 37.1969 10.2991C37.2252 10.3673 37.2717 10.4263 37.3315 10.4697C37.3912 10.5131 37.4618 10.5391 37.5354 10.5448C37.609 10.5506 37.6827 10.5358 37.7484 10.5023L39.3754 9.64827L41.0054 10.5033C41.0712 10.5368 41.1449 10.5516 41.2185 10.5458C41.2921 10.5401 41.3627 10.5141 41.4224 10.4707C41.4822 10.4273 41.5287 10.3683 41.557 10.3001C41.5852 10.2319 41.594 10.1572 41.5824 10.0843L41.2684 8.27327L42.5834 6.99127C42.6359 6.93916 42.6729 6.87353 42.6903 6.80166C42.7077 6.7298 42.7049 6.65451 42.6821 6.58416C42.6593 6.51382 42.6175 6.45117 42.5612 6.40317C42.505 6.35517 42.4365 6.32371 42.3634 6.31227L40.5454 6.04627L39.7324 4.39927C39.6991 4.33323 39.648 4.27774 39.585 4.23898C39.522 4.20021 39.4494 4.17969 39.3754 4.17969C39.3015 4.17969 39.2289 4.20021 39.1659 4.23898C39.1029 4.27774 39.0518 4.33323 39.0184 4.39927Z" fill="#BFE9FF"/>
<path d="M46.6796 10.5096L45.8666 12.1566L44.0486 12.4216C43.9755 12.4331 43.9071 12.4645 43.8508 12.5125C43.7946 12.5605 43.7527 12.6232 43.7299 12.6935C43.7071 12.7639 43.7043 12.8391 43.7217 12.911C43.7391 12.9829 43.7761 13.0485 43.8286 13.1006L45.1436 14.3836L44.8326 16.1936C44.821 16.2665 44.8298 16.3412 44.858 16.4094C44.8863 16.4776 44.9329 16.5367 44.9926 16.5801C45.0523 16.6234 45.1229 16.6494 45.1965 16.6552C45.2701 16.6609 45.3438 16.6462 45.4096 16.6126L47.0366 15.7586L48.6666 16.6136C48.7323 16.6472 48.8061 16.6619 48.8797 16.6562C48.9533 16.6504 49.0238 16.6244 49.0836 16.5811C49.1433 16.5377 49.1899 16.4786 49.2181 16.4104C49.2464 16.3422 49.2552 16.2675 49.2436 16.1946L48.9296 14.3836L50.2446 13.1016C50.297 13.0495 50.334 12.9839 50.3515 12.912C50.3689 12.8401 50.366 12.7649 50.3432 12.6945C50.3204 12.6242 50.2786 12.5615 50.2223 12.5135C50.1661 12.4655 50.0976 12.4341 50.0246 12.4226L48.2066 12.1566L47.3936 10.5096C47.3602 10.4436 47.3092 10.3881 47.2461 10.3493C47.1831 10.3106 47.1106 10.29 47.0366 10.29C46.9626 10.29 46.89 10.3106 46.827 10.3493C46.764 10.3881 46.713 10.4436 46.6796 10.5096Z" fill="#BFE9FF"/>
<path d="M50.9315 19.3377L50.1185 20.9847L48.3005 21.2497C48.2275 21.2612 48.159 21.2926 48.1028 21.3406C48.0465 21.3886 48.0047 21.4513 47.9819 21.5216C47.9591 21.592 47.9562 21.6673 47.9737 21.7391C47.9911 21.811 48.0281 21.8766 48.0805 21.9287L49.3955 23.2117L49.0845 25.0217C49.0729 25.0947 49.0818 25.1693 49.11 25.2375C49.1382 25.3058 49.1848 25.3648 49.2445 25.4082C49.3043 25.4516 49.3748 25.4776 49.4484 25.4833C49.522 25.4891 49.5958 25.4743 49.6615 25.4407L51.2885 24.5867L52.9185 25.4417C52.9843 25.4753 53.058 25.4901 53.1316 25.4843C53.2052 25.4786 53.2758 25.4526 53.3355 25.4092C53.3953 25.3658 53.4418 25.3068 53.4701 25.2385C53.4983 25.1703 53.5071 25.0957 53.4955 25.0227L53.1815 23.2117L54.4965 21.9297C54.549 21.8776 54.586 21.812 54.6034 21.7401C54.6208 21.6683 54.618 21.593 54.5952 21.5226C54.5724 21.4523 54.5306 21.3896 54.4743 21.3416C54.418 21.2936 54.3496 21.2622 54.2765 21.2507L52.4585 20.9847L51.6455 19.3377C51.6122 19.2717 51.5611 19.2162 51.4981 19.1775C51.4351 19.1387 51.3625 19.1182 51.2885 19.1182C51.2145 19.1182 51.142 19.1387 51.079 19.1775C51.0159 19.2162 50.9649 19.2717 50.9315 19.3377Z" fill="#BFE9FF"/>
<path d="M50.9315 29.1366L50.1185 30.7836L48.3005 31.0486C48.2275 31.06 48.159 31.0915 48.1028 31.1395C48.0465 31.1875 48.0047 31.2501 47.9819 31.3205C47.9591 31.3908 47.9562 31.4661 47.9737 31.538C47.9911 31.6098 48.0281 31.6755 48.0805 31.7276L49.3955 33.0106L49.0845 34.8206C49.0729 34.8935 49.0818 34.9682 49.11 35.0364C49.1382 35.1046 49.1848 35.1636 49.2445 35.207C49.3043 35.2504 49.3748 35.2764 49.4484 35.2821C49.522 35.2879 49.5958 35.2732 49.6615 35.2396L51.2885 34.3856L52.9185 35.2406C52.9843 35.2742 53.058 35.2889 53.1316 35.2831C53.2052 35.2774 53.2758 35.2514 53.3355 35.208C53.3953 35.1646 53.4418 35.1056 53.4701 35.0374C53.4983 34.9692 53.5071 34.8945 53.4955 34.8216L53.1815 33.0106L54.4965 31.7286C54.549 31.6765 54.586 31.6108 54.6034 31.539C54.6208 31.4671 54.618 31.3918 54.5952 31.3215C54.5724 31.2511 54.5306 31.1885 54.4743 31.1405C54.418 31.0925 54.3496 31.061 54.2765 31.0496L52.4585 30.7836L51.6455 29.1366C51.6122 29.0705 51.5611 29.015 51.4981 28.9763C51.4351 28.9375 51.3625 28.917 51.2885 28.917C51.2145 28.917 51.142 28.9375 51.079 28.9763C51.0159 29.015 50.9649 29.0705 50.9315 29.1366Z" fill="#BFE9FF"/>
<path d="M46.6796 37.9647L45.8666 39.6117L44.0486 39.8767C43.9755 39.8881 43.9071 39.9196 43.8508 39.9676C43.7946 40.0156 43.7527 40.0782 43.7299 40.1486C43.7071 40.2189 43.7043 40.2942 43.7217 40.3661C43.7391 40.438 43.7761 40.5036 43.8286 40.5557L45.1436 41.8387L44.8326 43.6487C44.821 43.7216 44.8298 43.7963 44.858 43.8645C44.8863 43.9327 44.9329 43.9918 44.9926 44.0351C45.0523 44.0785 45.1229 44.1045 45.1965 44.1103C45.2701 44.116 45.3438 44.1013 45.4096 44.0677L47.0366 43.2137L48.6666 44.0687C48.7323 44.1023 48.8061 44.117 48.8797 44.1113C48.9533 44.1055 49.0238 44.0795 49.0836 44.0361C49.1433 43.9928 49.1899 43.9337 49.2181 43.8655C49.2464 43.7973 49.2552 43.7226 49.2436 43.6497L48.9296 41.8387L50.2446 40.5567C50.297 40.5046 50.334 40.439 50.3515 40.3671C50.3689 40.2952 50.366 40.2199 50.3432 40.1496C50.3204 40.0792 50.2786 40.0166 50.2223 39.9686C50.1661 39.9206 50.0976 39.8891 50.0246 39.8777L48.2066 39.6117L47.3936 37.9647C47.3602 37.8987 47.3092 37.8432 47.2461 37.8044C47.1831 37.7656 47.1106 37.7451 47.0366 37.7451C46.9626 37.7451 46.89 37.7656 46.827 37.8044C46.764 37.8432 46.713 37.8987 46.6796 37.9647Z" fill="#BFE9FF"/>
<path d="M39.0184 44.0731L38.2054 45.7201L36.3874 45.9851C36.3144 45.9965 36.2459 46.028 36.1897 46.076C36.1334 46.124 36.0916 46.1866 36.0688 46.257C36.046 46.3273 36.0432 46.4026 36.0606 46.4745C36.078 46.5464 36.115 46.612 36.1674 46.6641L37.4824 47.9471L37.1714 49.7571C37.1599 49.83 37.1687 49.9047 37.1969 49.9729C37.2252 50.0411 37.2717 50.1002 37.3315 50.1435C37.3912 50.1869 37.4618 50.2129 37.5354 50.2187C37.609 50.2244 37.6827 50.2097 37.7484 50.1761L39.3754 49.3221L41.0054 50.1771C41.0712 50.2107 41.1449 50.2254 41.2185 50.2197C41.2921 50.2139 41.3627 50.1879 41.4224 50.1445C41.4822 50.1012 41.5287 50.0421 41.557 49.9739C41.5852 49.9057 41.594 49.831 41.5824 49.7581L41.2684 47.9471L42.5834 46.6651C42.6359 46.613 42.6729 46.5474 42.6903 46.4755C42.7077 46.4036 42.7049 46.3283 42.6821 46.258C42.6593 46.1876 42.6175 46.125 42.5612 46.077C42.505 46.029 42.4365 45.9975 42.3634 45.9861L40.5454 45.7201L39.7324 44.0731C39.6991 44.0071 39.648 43.9516 39.585 43.9128C39.522 43.874 39.4494 43.8535 39.3754 43.8535C39.3015 43.8535 39.2289 43.874 39.1659 43.9128C39.1029 43.9516 39.0518 44.0071 39.0184 44.0731Z" fill="#BFE9FF"/>
<path d="M29.4652 46.2547L28.6522 47.9017L26.8342 48.1667C26.7612 48.1782 26.6927 48.2096 26.6365 48.2576C26.5802 48.3056 26.5384 48.3683 26.5156 48.4386C26.4928 48.509 26.4899 48.5843 26.5073 48.6561C26.5248 48.728 26.5618 48.7936 26.6142 48.8457L27.9292 50.1287L27.6182 51.9387C27.6066 52.0116 27.6155 52.0863 27.6437 52.1545C27.6719 52.2227 27.7185 52.2818 27.7782 52.3252C27.838 52.3686 27.9085 52.3946 27.9821 52.4003C28.0557 52.4061 28.1295 52.3913 28.1952 52.3577L29.8222 51.5037L31.4522 52.3587C31.518 52.3923 31.5917 52.4071 31.6653 52.4013C31.7389 52.3956 31.8095 52.3696 31.8692 52.3262C31.929 52.2828 31.9755 52.2237 32.0038 52.1555C32.032 52.0873 32.0408 52.0126 32.0292 51.9397L31.7152 50.1287L33.0302 48.8467C33.0827 48.7946 33.1197 48.729 33.1371 48.6571C33.1545 48.5853 33.1517 48.51 33.1289 48.4396C33.1061 48.3693 33.0642 48.3066 33.008 48.2586C32.9517 48.2106 32.8833 48.1792 32.8102 48.1677L30.9922 47.9017L30.1792 46.2547C30.1459 46.1887 30.0948 46.1332 30.0318 46.0944C29.9688 46.0557 29.8962 46.0352 29.8222 46.0352C29.7482 46.0352 29.6757 46.0557 29.6127 46.0944C29.5496 46.1332 29.4986 46.1887 29.4652 46.2547Z" fill="#BFE9FF"/>
<path d="M19.9125 44.0731L19.0995 45.7201L17.2815 45.9851C17.2084 45.9965 17.14 46.028 17.0837 46.076C17.0275 46.124 16.9856 46.1866 16.9628 46.257C16.94 46.3273 16.9372 46.4026 16.9546 46.4745C16.972 46.5464 17.009 46.612 17.0615 46.6641L18.3765 47.9471L18.0655 49.7571C18.0539 49.83 18.0627 49.9047 18.091 49.9729C18.1192 50.0411 18.1658 50.1002 18.2255 50.1435C18.2852 50.1869 18.3558 50.2129 18.4294 50.2187C18.503 50.2244 18.5767 50.2097 18.6425 50.1761L20.2695 49.3221L21.8995 50.1771C21.9652 50.2107 22.039 50.2254 22.1126 50.2197C22.1862 50.2139 22.2568 50.1879 22.3165 50.1445C22.3762 50.1012 22.4228 50.0421 22.451 49.9739C22.4793 49.9057 22.4881 49.831 22.4765 49.7581L22.1625 47.9471L23.4775 46.6651C23.53 46.613 23.567 46.5474 23.5844 46.4755C23.6018 46.4036 23.5989 46.3283 23.5761 46.258C23.5534 46.1876 23.5115 46.125 23.4553 46.077C23.399 46.029 23.3305 45.9975 23.2575 45.9861L21.4395 45.7201L20.6265 44.0731C20.5931 44.0071 20.5421 43.9516 20.4791 43.9128C20.416 43.874 20.3435 43.8535 20.2695 43.8535C20.1955 43.8535 20.123 43.874 20.0599 43.9128C19.9969 43.9516 19.9459 44.0071 19.9125 44.0731Z" fill="#BFE9FF"/>
<path d="M12.2514 37.9647L11.4384 39.6117L9.62036 39.8767C9.5473 39.8881 9.47885 39.9196 9.42259 39.9676C9.36634 40.0156 9.32449 40.0782 9.3017 40.1486C9.27891 40.2189 9.27606 40.2942 9.29348 40.3661C9.31089 40.438 9.34789 40.5036 9.40036 40.5557L10.7154 41.8387L10.4044 43.6487C10.3928 43.7216 10.4016 43.7963 10.4298 43.8645C10.4581 43.9327 10.5046 43.9918 10.5644 44.0351C10.6241 44.0785 10.6947 44.1045 10.7683 44.1103C10.8419 44.116 10.9156 44.1013 10.9814 44.0677L12.6084 43.2137L14.2384 44.0687C14.3041 44.1023 14.3779 44.117 14.4514 44.1113C14.525 44.1055 14.5956 44.0795 14.6554 44.0361C14.7151 43.9928 14.7616 43.9337 14.7899 43.8655C14.8181 43.7973 14.8269 43.7226 14.8154 43.6497L14.5014 41.8387L15.8164 40.5567C15.8688 40.5046 15.9058 40.439 15.9232 40.3671C15.9407 40.2952 15.9378 40.2199 15.915 40.1496C15.8922 40.0792 15.8504 40.0166 15.7941 39.9686C15.7379 39.9206 15.6694 39.8891 15.5964 39.8777L13.7784 39.6117L12.9654 37.9647C12.932 37.8987 12.8809 37.8432 12.8179 37.8044C12.7549 37.7656 12.6824 37.7451 12.6084 37.7451C12.5344 37.7451 12.4618 37.7656 12.3988 37.8044C12.3358 37.8432 12.2847 37.8987 12.2514 37.9647Z" fill="#BFE9FF"/>
<path d="M8.00038 29.1366L7.18738 30.7836L5.36938 31.0486C5.29632 31.06 5.22787 31.0915 5.17162 31.1395C5.11536 31.1875 5.07352 31.2501 5.05073 31.3205C5.02793 31.3908 5.02509 31.4661 5.0425 31.538C5.05992 31.6098 5.09691 31.6755 5.14938 31.7276L6.46438 33.0106L6.15338 34.8206C6.14179 34.8935 6.15061 34.9682 6.17885 35.0364C6.20709 35.1046 6.25366 35.1636 6.31339 35.207C6.37312 35.2504 6.44369 35.2764 6.51729 35.2821C6.59089 35.2879 6.66464 35.2732 6.73038 35.2396L8.35738 34.3856L9.98738 35.2406C10.0531 35.2742 10.1269 35.2889 10.2005 35.2831C10.2741 35.2774 10.3446 35.2514 10.4044 35.208C10.4641 35.1646 10.5107 35.1056 10.5389 35.0374C10.5672 34.9692 10.576 34.8945 10.5644 34.8216L10.2504 33.0106L11.5654 31.7286C11.6178 31.6765 11.6548 31.6108 11.6723 31.539C11.6897 31.4671 11.6868 31.3918 11.664 31.3215C11.6412 31.2511 11.5994 31.1885 11.5431 31.1405C11.4869 31.0925 11.4184 31.061 11.3454 31.0496L9.52738 30.7836L8.71438 29.1366C8.68101 29.0705 8.62997 29.015 8.56694 28.9763C8.50392 28.9375 8.43137 28.917 8.35738 28.917C8.28339 28.917 8.21085 28.9375 8.14782 28.9763C8.08479 29.015 8.03376 29.0705 8.00038 29.1366Z" fill="#BFE9FF"/>
<path d="M8.00038 19.3377L7.18738 20.9847L5.36938 21.2497C5.29632 21.2612 5.22787 21.2926 5.17162 21.3406C5.11536 21.3886 5.07352 21.4513 5.05073 21.5216C5.02793 21.592 5.02509 21.6673 5.0425 21.7391C5.05992 21.811 5.09691 21.8766 5.14938 21.9287L6.46438 23.2117L6.15338 25.0217C6.14179 25.0947 6.15061 25.1693 6.17885 25.2375C6.20709 25.3058 6.25366 25.3648 6.31339 25.4082C6.37312 25.4516 6.44369 25.4776 6.51729 25.4833C6.59089 25.4891 6.66464 25.4743 6.73038 25.4407L8.35738 24.5867L9.98738 25.4417C10.0531 25.4753 10.1269 25.4901 10.2005 25.4843C10.2741 25.4786 10.3446 25.4526 10.4044 25.4092C10.4641 25.3658 10.5107 25.3068 10.5389 25.2385C10.5672 25.1703 10.576 25.0957 10.5644 25.0227L10.2504 23.2117L11.5654 21.9297C11.6178 21.8776 11.6548 21.812 11.6723 21.7401C11.6897 21.6683 11.6868 21.593 11.664 21.5226C11.6412 21.4523 11.5994 21.3896 11.5431 21.3416C11.4869 21.2936 11.4184 21.2622 11.3454 21.2507L9.52738 20.9847L8.71438 19.3377C8.68101 19.2717 8.62997 19.2162 8.56694 19.1775C8.50392 19.1387 8.43137 19.1182 8.35738 19.1182C8.28339 19.1182 8.21085 19.1387 8.14782 19.1775C8.08479 19.2162 8.03376 19.2717 8.00038 19.3377Z" fill="#BFE9FF"/>
<path d="M12.2514 10.5096L11.4384 12.1566L9.62036 12.4216C9.5473 12.4331 9.47885 12.4645 9.42259 12.5125C9.36634 12.5605 9.32449 12.6232 9.3017 12.6935C9.27891 12.7639 9.27606 12.8391 9.29348 12.911C9.31089 12.9829 9.34789 13.0485 9.40036 13.1006L10.7154 14.3836L10.4044 16.1936C10.3928 16.2665 10.4016 16.3412 10.4298 16.4094C10.4581 16.4776 10.5046 16.5367 10.5644 16.5801C10.6241 16.6234 10.6947 16.6494 10.7683 16.6552C10.8419 16.6609 10.9156 16.6462 10.9814 16.6126L12.6084 15.7586L14.2384 16.6136C14.3041 16.6472 14.3779 16.6619 14.4514 16.6562C14.525 16.6504 14.5956 16.6244 14.6554 16.5811C14.7151 16.5377 14.7616 16.4786 14.7899 16.4104C14.8181 16.3422 14.8269 16.2675 14.8154 16.1946L14.5014 14.3836L15.8164 13.1016C15.8688 13.0495 15.9058 12.9839 15.9232 12.912C15.9407 12.8401 15.9378 12.7649 15.915 12.6945C15.8922 12.6242 15.8504 12.5615 15.7941 12.5135C15.7379 12.4655 15.6694 12.4341 15.5964 12.4226L13.7784 12.1566L12.9654 10.5096C12.932 10.4436 12.8809 10.3881 12.8179 10.3493C12.7549 10.3106 12.6824 10.29 12.6084 10.29C12.5344 10.29 12.4618 10.3106 12.3988 10.3493C12.3358 10.3881 12.2847 10.4436 12.2514 10.5096Z" fill="#BFE9FF"/>
<path d="M19.9125 4.39927L19.0995 6.04627L17.2815 6.31127C17.2084 6.32271 17.14 6.35417 17.0837 6.40217C17.0275 6.45017 16.9856 6.51282 16.9628 6.58316C16.94 6.65351 16.9372 6.7288 16.9546 6.80066C16.972 6.87253 17.009 6.93816 17.0615 6.99027L18.3765 8.27327L18.0655 10.0833C18.0539 10.1562 18.0627 10.2309 18.091 10.2991C18.1192 10.3673 18.1658 10.4263 18.2255 10.4697C18.2852 10.5131 18.3558 10.5391 18.4294 10.5448C18.503 10.5506 18.5767 10.5358 18.6425 10.5023L20.2695 9.64827L21.8995 10.5033C21.9652 10.5368 22.039 10.5516 22.1126 10.5458C22.1862 10.5401 22.2568 10.5141 22.3165 10.4707C22.3762 10.4273 22.4228 10.3683 22.451 10.3001C22.4793 10.2319 22.4881 10.1572 22.4765 10.0843L22.1625 8.27327L23.4775 6.99127C23.53 6.93916 23.567 6.87353 23.5844 6.80166C23.6018 6.7298 23.5989 6.65451 23.5761 6.58416C23.5534 6.51382 23.5115 6.45117 23.4553 6.40317C23.399 6.35517 23.3305 6.32371 23.2575 6.31227L21.4395 6.04627L20.6265 4.39927C20.5931 4.33323 20.5421 4.27774 20.4791 4.23898C20.416 4.20021 20.3435 4.17969 20.2695 4.17969C20.1955 4.17969 20.123 4.20021 20.0599 4.23898C19.9969 4.27774 19.9459 4.33323 19.9125 4.39927Z" fill="#BFE9FF"/>
<path d="M21.3281 34.221V26.375H22.8011V23.923C22.8011 22.8826 23.2144 21.8847 23.9501 21.149C24.6858 20.4133 25.6837 20 26.7241 20H27.2141C27.7293 20 28.2394 20.1015 28.7154 20.2986C29.1914 20.4958 29.6238 20.7847 29.9881 21.149C30.3524 21.5133 30.6414 21.9458 30.8385 22.4217C31.0357 22.8977 31.1371 23.4078 31.1371 23.923V26.375H32.6081V34.221H21.3281ZM26.6011 30.194L26.2361 32.75H27.7011L27.3361 30.194C27.5467 30.1081 27.7209 29.9517 27.8289 29.7516C27.9369 29.5515 27.9721 29.32 27.9283 29.0969C27.8845 28.8737 27.7646 28.6727 27.589 28.5282C27.4134 28.3837 27.193 28.3047 26.9656 28.3047C26.7382 28.3047 26.5179 28.3837 26.3423 28.5282C26.1667 28.6727 26.0467 28.8737 26.003 29.0969C25.9592 29.32 25.9943 29.5515 26.1023 29.7516C26.2104 29.9517 26.3846 30.1081 26.5951 30.194H26.6011ZM29.6691 24.169C29.6863 23.8041 29.6293 23.4395 29.5016 23.0973C29.3738 22.7551 29.1779 22.4424 28.9258 22.1781C28.6736 21.9138 28.3705 21.7034 28.0347 21.5596C27.6989 21.4159 27.3374 21.3418 26.9721 21.3418C26.6068 21.3418 26.2454 21.4159 25.9096 21.5596C25.5737 21.7034 25.2706 21.9138 25.0185 22.1781C24.7663 22.4424 24.5705 22.7551 24.4427 23.0973C24.3149 23.4395 24.2579 23.8041 24.2751 24.169V26.376H29.6691V24.169Z" fill="#1652F0"/>
</svg>
