<svg xmlns="http://www.w3.org/2000/svg" viewBox="0 0 64.171 55.5">
  <g id="Group_13051" data-name="Group 13051" transform="translate(23977.338 1537.5)">
    <rect id="Rectangle_1795" data-name="Rectangle 1795" width="64.171" height="39.104" transform="translate(-23977.338 -1521.104)" fill="#56b4fc"/>
    <g id="Group_13053" data-name="Group 13053" transform="translate(-0.463)">
      <path id="Intersection_1" data-name="Intersection 1" d="M34.159,16.14a1.324,1.324,0,0,1-.283-.3C32.467,13.8,28.192,7.594,18.158,7.594c-9.8,0-14.224,5.713-15.67,8.163a1.287,1.287,0,0,1-.33.384H.516a1.317,1.317,0,0,1-.337-1.708c1.684-2.838,6.8-9.466,17.979-9.466a21.143,21.143,0,0,1,12.616,3.82,21.438,21.438,0,0,1,5.306,5.57A1.314,1.314,0,0,1,35.8,16.14Zm-6.593,0a13.974,13.974,0,0,0-9.408-3.609A13.863,13.863,0,0,0,9.193,15.69q-.262.218-.515.45H5.049A16.506,16.506,0,0,1,18.158,9.893,16.76,16.76,0,0,1,28.911,13.8a19.183,19.183,0,0,1,2.371,2.342Zm-14.972,0a12.473,12.473,0,0,1,5.565-1.179,11.115,11.115,0,0,1,5.148,1.179ZM29.242,5.164l-.018.018.008.01c-.038-.019-3.432-2.553-11.074-2.553S7.122,5.164,7.084,5.192l.008-.01a1.347,1.347,0,0,1-.775.246,1.313,1.313,0,0,1-.89-2.3.03.03,0,0,0,.019-.01A1.007,1.007,0,0,1,5.609,3c.87-.605,4.8-3,12.55-3,7.377,0,11.3,2.166,12.408,2.894a1.323,1.323,0,1,1-1.324,2.27Z" transform="translate(-23962.875 -1537)" fill="#bfe9ff" stroke="#bfe9ff" stroke-width="1"/>
      <path id="Exclusion_1" data-name="Exclusion 1" d="M23.265,26.307a1.338,1.338,0,0,1-.33-.038,15.477,15.477,0,0,1-8.62-5.917A19.1,19.1,0,0,1,11.68,15.7l-.019-.075,0-.016c-.275-.984-1.528-6.048.809-9.13a6.127,6.127,0,0,1,5.182-2.27,5.535,5.535,0,0,1,4.738,2.062,10.279,10.279,0,0,1,1.557,3.872l0,.015c.71,2.81,1.218,4.284,4.17,4.435q.08,0,.157,0a3.066,3.066,0,0,0,2.472-1.356,7.915,7.915,0,0,0,.548-7.235A15.914,15.914,0,0,0,27.046.078h3.714a17.392,17.392,0,0,1,3.022,4.978,10.451,10.451,0,0,1-.889,9.723,5.7,5.7,0,0,1-4.634,2.446c-.095,0-.19,0-.285-.007-5.051-.255-5.958-3.82-6.62-6.422-.681-2.669-1.123-3.952-3.716-3.952a3.558,3.558,0,0,0-3.054,1.22,6.438,6.438,0,0,0-.823,4.161,13.6,13.6,0,0,0,.444,2.629c.29.738,3.018,7.262,9.391,8.861a1.322,1.322,0,0,1,.821.608,1.3,1.3,0,0,1,.144.991A1.345,1.345,0,0,1,23.265,26.307Zm-10.4-.605a1.344,1.344,0,0,1-.974-.416A21.245,21.245,0,0,1,6.119,13.18v-.028c-.388-3.192.186-7.706,2.961-10.8A9.844,9.844,0,0,1,12.074.078H22.787L22.768.071l.013,0,.006,0a11.07,11.07,0,0,1,4.6,4.638,16.243,16.243,0,0,1,1.834,5.627,1.327,1.327,0,0,1-1.191,1.448,1.354,1.354,0,0,1-.138.007,1.34,1.34,0,0,1-1.328-1.18,13.724,13.724,0,0,0-1.56-4.7,7.981,7.981,0,0,0-7.377-4.379A8.385,8.385,0,0,0,11.065,4.1c-2.193,2.45-2.619,6.228-2.317,8.72a18.651,18.651,0,0,0,5.079,10.668,1.308,1.308,0,0,1-.067,1.863A1.34,1.34,0,0,1,12.863,25.7ZM27.8,21.909a11,11,0,0,1-7.177-2.374A13.125,13.125,0,0,1,16.3,11.014a1.3,1.3,0,0,1,.312-.955,1.333,1.333,0,0,1,.917-.464q.054,0,.107,0a1.312,1.312,0,0,1,1.322,1.215v.012c.048.443.546,4.394,3.385,6.693a8.486,8.486,0,0,0,5.484,1.756,13.864,13.864,0,0,0,1.561-.092,1.352,1.352,0,0,1,.156-.009,1.328,1.328,0,0,1,1.32,1.172A1.313,1.313,0,0,1,29.687,21.8,16.045,16.045,0,0,1,27.8,21.909ZM3.376,19.817a1.34,1.34,0,0,1-1.295-.982l0-.018C1.726,17.46.058,10.44,1.637,5.435A16.808,16.808,0,0,1,4.53.078H8.158L8.209.032,8.244,0A14.628,14.628,0,0,0,4.191,6.229c-1.447,4.588.452,11.863.472,11.935a1.292,1.292,0,0,1-.134,1,1.306,1.306,0,0,1-.812.612A1.33,1.33,0,0,1,3.376,19.817ZM34.463.356A1.355,1.355,0,0,1,33.64.078h1.638L35.27.086l-.059.042A1.336,1.336,0,0,1,34.463.356ZM.815.355A1.316,1.316,0,0,1,.143.176,1.331,1.331,0,0,1,0,.08l1.639,0A1.344,1.344,0,0,1,.815.355Z" transform="translate(-23962.338 -1520.938)" fill="#1652f0" stroke="#1652f0" stroke-width="1"/>
    </g>
    <g id="Group_13052" data-name="Group 13052" transform="translate(2.586 4.452)">
      <circle id="Ellipse_3306" data-name="Ellipse 3306" cx="1" cy="1" r="1" transform="translate(-23946.262 -1490.599)" fill="#fff"/>
      <circle id="Ellipse_3307" data-name="Ellipse 3307" cx="1" cy="1" r="1" transform="translate(-23949.262 -1490.599)" fill="#fff"/>
      <circle id="Ellipse_3308" data-name="Ellipse 3308" cx="1" cy="1" r="1" transform="translate(-23952.262 -1490.599)" fill="#fff"/>
    </g>
  </g>
</svg>
