<svg id="Icon_ionic-ios-gift" data-name="Icon ionic-ios-gift" xmlns="http://www.w3.org/2000/svg" width="14.857" height="16" viewBox="0 0 14.857 16">
  <path id="Path_10574" data-name="Path 10574" d="M17.089,5.964H14.079A2.1,2.1,0,0,0,14.8,4.393,2.2,2.2,0,0,0,12.55,2.25a1.993,1.993,0,0,0-1.746.979A1.993,1.993,0,0,0,9.057,2.25,2.2,2.2,0,0,0,6.8,4.393a2.086,2.086,0,0,0,.725,1.571H4.518A1.142,1.142,0,0,0,3.375,7.107v.714a.143.143,0,0,0,.143.143H18.089a.143.143,0,0,0,.143-.143V7.107A1.142,1.142,0,0,0,17.089,5.964ZM12.55,3.25a1.174,1.174,0,0,1,1.2,1.143,1.174,1.174,0,0,1-1.2,1.143h-1.2C11.346,3.821,11.886,3.25,12.55,3.25Zm-3.493,0c.664,0,1.2.571,1.2,2.286h-1.2a1.174,1.174,0,0,1-1.2-1.143A1.174,1.174,0,0,1,9.057,3.25Z" transform="translate(-3.375 -2.25)" fill="#788ca6"/>
  <path id="Path_10575" data-name="Path 10575" d="M4.5,15.614v7.929a1.146,1.146,0,0,0,1.143,1.143h5.214V15.328H4.786A.287.287,0,0,0,4.5,15.614Z" transform="translate(-3.929 -8.685)" fill="#788ca6"/>
  <path id="Path_10576" data-name="Path 10576" d="M25.056,15.328H18.984v9.357H24.2a1.146,1.146,0,0,0,1.143-1.143V15.614A.287.287,0,0,0,25.056,15.328Z" transform="translate(-11.056 -8.685)" fill="#788ca6"/>
</svg>
