<svg id="Icon_ionic-ios-gift" data-name="Icon ionic-ios-gift" xmlns="http://www.w3.org/2000/svg" width="29.099" height="31.338" viewBox="0 0 29.099 31.338">
  <path id="Path_10574" data-name="Path 10574" d="M30.236,9.525h-5.9a4.11,4.11,0,0,0,1.42-3.078,4.313,4.313,0,0,0-4.414-4.2,3.9,3.9,0,0,0-3.421,1.917A3.9,3.9,0,0,0,14.5,2.25a4.313,4.313,0,0,0-4.414,4.2,4.086,4.086,0,0,0,1.42,3.078h-5.9a2.236,2.236,0,0,0-2.238,2.238v1.4a.281.281,0,0,0,.28.28h28.54a.281.281,0,0,0,.28-.28v-1.4A2.236,2.236,0,0,0,30.236,9.525ZM21.345,4.209A2.3,2.3,0,0,1,23.7,6.447a2.3,2.3,0,0,1-2.357,2.238H18.988C18.988,5.328,20.044,4.209,21.345,4.209Zm-6.841,0c1.3,0,2.357,1.119,2.357,4.477H14.5a2.3,2.3,0,0,1-2.357-2.238A2.3,2.3,0,0,1,14.5,4.209Z" transform="translate(-3.375 -2.25)" fill="#1652f0"/>
  <path id="Path_10575" data-name="Path 10575" d="M4.5,15.888V31.417a2.245,2.245,0,0,0,2.238,2.238H16.951V15.328H5.06A.561.561,0,0,0,4.5,15.888Z" transform="translate(-3.381 -2.317)" fill="#1652f0"/>
  <path id="Path_10576" data-name="Path 10576" d="M30.876,15.328H18.984V33.655H29.2a2.245,2.245,0,0,0,2.238-2.238V15.888A.561.561,0,0,0,30.876,15.328Z" transform="translate(-3.455 -2.317)" fill="#1652f0"/>
</svg>
