<svg xmlns="http://www.w3.org/2000/svg" width="33.07" height="33.077" viewBox="0 0 33.07 33.077">
    <defs>
        <style>
            .cls-1{fill:none}.cls-2{clip-path:url(#clip-path)}.cls-3{fill:#fff}
        </style>
        <clipPath id="clip-path">
            <path d="M0 0h33.07v33.077H0z" class="cls-1"/>
        </clipPath>
    </defs>
    <g id="icons_bill" class="cls-2" data-name="icons/bill">
        <g id="Group">
            <g id="Group-2" data-name="Group">
                <path id="Shape" d="M28.11 33.077H4.96A4.966 4.966 0 0 1 0 28.116V1.661A1.654 1.654 0 0 1 2.481.222l4.96 2.844L12.4.222a1.652 1.652 0 0 1 1.653 0l4.961 2.844L23.976.222a1.654 1.654 0 0 1 2.481 1.439v14.881h4.96A1.655 1.655 0 0 1 33.07 18.2v9.92a4.966 4.966 0 0 1-4.96 4.957zm-1.654-13.228v8.267a1.653 1.653 0 1 0 3.307 0v-8.267zM3.307 4.521v23.595a1.655 1.655 0 0 0 1.653 1.653h18.487a4.922 4.922 0 0 1-.3-1.653V4.521L19.841 6.4a1.778 1.778 0 0 1-1.653 0l-4.96-2.844L8.268 6.4a1.781 1.781 0 0 1-1.655 0zm9.921 21.941a1.655 1.655 0 0 1-1.653-1.653v-.826H9.921a1.654 1.654 0 0 1 0-3.308h4.133a.827.827 0 1 0 0-1.653h-1.659a4.134 4.134 0 0 1-.82-8.185v-.91a1.653 1.653 0 1 1 3.307 0v.827h1.653a1.653 1.653 0 0 1 0 3.307H12.4a.827.827 0 0 0 0 1.653h1.656a4.134 4.134 0 0 1 .824 8.185v.909a1.655 1.655 0 0 1-1.652 1.654z" class="cls-3"/>
            </g>
        </g>
    </g>
</svg>
