<svg xmlns="http://www.w3.org/2000/svg" width="26.104" height="26.104" viewBox="0 0 26.104 26.104">
  <g id="Icon_feather-copy" data-name="Icon feather-copy" transform="translate(1.5 1.5)">
    <path id="Path_10318" data-name="Path 10318" d="M15.81,13.5h10.4a2.31,2.31,0,0,1,2.31,2.31v10.4a2.31,2.31,0,0,1-2.31,2.31H15.81a2.31,2.31,0,0,1-2.31-2.31V15.81A2.31,2.31,0,0,1,15.81,13.5Z" transform="translate(-5.414 -5.414)" fill="none" stroke="rgb(22,82,240)" stroke-linecap="round" stroke-linejoin="round" stroke-width="3"/>
    <path id="Path_10319" data-name="Path 10319" d="M6.466,18.017H5.31A2.31,2.31,0,0,1,3,15.707V5.31A2.31,2.31,0,0,1,5.31,3h10.4a2.31,2.31,0,0,1,2.31,2.31V6.466" transform="translate(-3 -3)" fill="none" stroke="rgb(22,82,240)" stroke-linecap="round" stroke-linejoin="round" stroke-width="3"/>
  </g>
</svg>
