<svg width="17" height="16" viewBox="0 0 17 16" fill="none" xmlns="http://www.w3.org/2000/svg">
<path d="M0.804291 6.90742H7.35429V0.357422H0.804291V6.90742ZM2.98729 2.54042H5.17129V4.72442H2.98729V2.54042ZM9.53729 0.357422V6.90742H16.0873V0.357422H9.53729ZM13.9043 4.72442H11.7213V2.54042H13.9043V4.72442ZM0.804291 15.6404H7.35429V9.09042H0.804291V15.6404ZM2.98729 11.2734H5.17129V13.4574H2.98729V11.2734ZM14.9953 9.09042H16.0873V13.4574H12.8123V12.3654H11.7213V15.6404H9.53729V9.09042H12.8123V10.1824H14.9953V9.09042ZM14.9953 14.5484H16.0873V15.6404H14.9963L14.9953 14.5484ZM12.8123 14.5484H13.9043V15.6404H12.8123V14.5484Z" fill="#7E8B9A"/>
</svg>
