<svg id="Group_11952" data-name="Group 11952" xmlns="http://www.w3.org/2000/svg" width="18" height="18" viewBox="0 0 15 15">
  <rect id="Rectangle_1620" data-name="Rectangle 1620" width="18" height="18" rx="2" fill="#708599"/>
  <path id="Path_12419" data-name="Path 12419" d="M-1.4-8.024q0,.637-.02,1.161t-.053.988q-.033.464-.073.889t-.093.862h-.823q-.04-.438-.093-.856t-.093-.882q-.04-.464-.066-.995t-.027-1.167V-9.7H-1.4Zm-.637,6.368a.877.877,0,0,1-.6-.186.773.773,0,0,1-.212-.61.773.773,0,0,1,.212-.61.877.877,0,0,1,.6-.186.862.862,0,0,1,.577.186.76.76,0,0,1,.219.61.76.76,0,0,1-.219.61A.862.862,0,0,1-2.039-1.657Z" transform="translate(9.557 13.013)" fill="#fff"/>
</svg>
