<svg xmlns="http://www.w3.org/2000/svg" width="2.966" height="14.82" viewBox="0 0 2.966 14.82">
  <path id="Path_4853" data-name="Path 4853" d="M1.483,2.95a1.5,1.5,0,0,1-.563-.11,1.7,1.7,0,0,1-.489-.311A1.492,1.492,0,0,1,0,1.477,1.245,1.245,0,0,1,.119.912,1.657,1.657,0,0,1,.431.424,1.466,1.466,0,0,1,.92.111a1.479,1.479,0,0,1,1.125,0,1.458,1.458,0,0,1,.491.313,1.555,1.555,0,0,1,.43,1.053A1.481,1.481,0,0,1,1.483,2.95Zm0,11.87A1.484,1.484,0,0,1,0,13.338V7.406a1.483,1.483,0,1,1,2.965,0v5.932A1.485,1.485,0,0,1,1.483,14.82Z" transform="translate(2.966 14.82) rotate(-180)" fill="#fff"/>
</svg>
