<svg xmlns="http://www.w3.org/2000/svg" width="100" height="100" viewBox="0 0 100 100">
  <g id="Group_11940" data-name="Group 11940" transform="translate(0.404)">
    <g id="Ellipse_3290" data-name="Ellipse 3290" transform="translate(-0.404)" fill="none" stroke="#1652f0" stroke-width="2" stroke-dasharray="3 3">
      <circle cx="50" cy="50" r="50" stroke="none"/>
      <circle cx="50" cy="50" r="49" fill="none"/>
    </g>
    <g id="Group_11818" data-name="Group 11818" transform="translate(8 8)">
      <g id="Group" transform="translate(0 0)">
        <path id="Shape" d="M42.5,85A42.5,42.5,0,1,1,85,42.5,42.548,42.548,0,0,1,42.5,85Zm0-46.75a4.254,4.254,0,0,0-4.25,4.25v17a4.25,4.25,0,0,0,8.5,0v-17A4.254,4.254,0,0,0,42.5,38.25Zm0-16.979a4.458,4.458,0,0,0-3.018,1.213,4.877,4.877,0,0,0-.891,1.4,3.591,3.591,0,0,0-.34,1.618,4.277,4.277,0,0,0,1.232,3.018,4.842,4.842,0,0,0,1.4.891A4.249,4.249,0,0,0,46.75,25.5a4.449,4.449,0,0,0-1.232-3.018A4.458,4.458,0,0,0,42.5,21.271Z" transform="translate(-0.404)" fill="#1652f0"/>
      </g>
    </g>
  </g>
</svg>
