<svg id="Group_11190" data-name="Group 11190" xmlns="http://www.w3.org/2000/svg" width="13.609" height="13.609" viewBox="0 0 13.609 13.609">
  <ellipse id="Ellipse_3266" data-name="Ellipse 3266" cx="6.805" cy="6.805" rx="6.805" ry="6.805" fill="#788ca6"/>
  <path id="Path_10596" data-name="Path 10596" d="M-10.163-26.483q-.039-.294-.069-.546t-.046-.49q-.016-.239-.023-.484t-.007-.526v-.752h1.183v.752q0,.281-.007.526t-.023.484q-.016.239-.046.49t-.069.546Zm1.072.791a.542.542,0,0,1-.167.448.694.694,0,0,1-.448.134.691.691,0,0,1-.451-.134.548.548,0,0,1-.163-.448.508.508,0,0,1,.163-.435.744.744,0,0,1,.451-.121.747.747,0,0,1,.448.121A.5.5,0,0,1-9.091-25.692Z" transform="translate(16.198 33.715)" fill="#f5f7f7"/>
</svg>
