<svg xmlns="http://www.w3.org/2000/svg" width="16.283" height="12.103" viewBox="0 0 16.283 12.103">
  <path id="Path_10587" data-name="Path 10587" d="M4.56,0H.893V-12.1H4.56Zm6.232-6.726a1.476,1.476,0,0,0,1.188-.418,1.6,1.6,0,0,0,.351-1.064,1.253,1.253,0,0,0-.37-.969,1.684,1.684,0,0,0-1.169-.342h-.57v2.793ZM17.176,0H14.06a1.477,1.477,0,0,1-1.406-.665l-1.9-3.325.019.019a1.294,1.294,0,0,0-.162-.219.3.3,0,0,0-.219-.066h-.171V0H6.555V-12.1h4.237a8.823,8.823,0,0,1,2.366.276,4.364,4.364,0,0,1,1.586.769,2.981,2.981,0,0,1,.893,1.178A3.815,3.815,0,0,1,15.922-8.4a3.621,3.621,0,0,1-.532,1.919,3.709,3.709,0,0,1-1.558,1.387,2.481,2.481,0,0,1,.351.3,2.448,2.448,0,0,1,.275.361Z" transform="translate(-0.893 12.103)" fill="#788ca6"/>
</svg>
