<svg id="icons_padlock" data-name="icons/padlock" xmlns="http://www.w3.org/2000/svg" width="12.8" height="16" viewBox="0 0 12.8 16">
  <g id="Group" transform="translate(0 0)">
    <g id="Group-2" data-name="Group">
      <path id="Shape" d="M10.4,16h-8A2.4,2.4,0,0,1,0,13.6V8A2.4,2.4,0,0,1,2.4,5.6V4a4,4,0,1,1,8,0V5.6A2.4,2.4,0,0,1,12.8,8v5.6A2.4,2.4,0,0,1,10.4,16Zm-8-8.8a.8.8,0,0,0-.8.8v5.6a.8.8,0,0,0,.8.8h8a.8.8,0,0,0,.8-.8V8a.8.8,0,0,0-.8-.8Zm4-5.6A2.4,2.4,0,0,0,4,4V5.6H8.8V4A2.4,2.4,0,0,0,6.4,1.6Zm0,11.2a.8.8,0,0,1-.8-.8V10.888A1.192,1.192,0,0,1,6.386,8.8h.027A1.192,1.192,0,0,1,7.2,10.888V12A.8.8,0,0,1,6.4,12.8Z" fill="#1652f0"/>
    </g>
  </g>
</svg>
