<svg xmlns="http://www.w3.org/2000/svg" viewBox="0 0 33 33">
  <g id="Group_13720" data-name="Group 13720" transform="translate(-1582 -16)">
    <rect id="Rectangle_1502" data-name="Rectangle 1502" width="33" height="33" rx="7" transform="translate(1582 16)" fill="#fff"/>
    <path id="Path_10571" data-name="Path 10571" d="M-13.081-14.57a1.946,1.946,0,0,0,1.565-.551,2.1,2.1,0,0,0,.463-1.4,1.652,1.652,0,0,0-.488-1.277,2.219,2.219,0,0,0-1.54-.451h-.751v3.682ZM-4.666-5.7H-8.773a1.947,1.947,0,0,1-1.853-.877l-2.5-4.383.025.025a1.705,1.705,0,0,0-.213-.288.4.4,0,0,0-.288-.088h-.225V-5.7h-4.834V-21.658h5.585a11.63,11.63,0,0,1,3.118.363,5.753,5.753,0,0,1,2.091,1.014,3.93,3.93,0,0,1,1.177,1.553,5.028,5.028,0,0,1,.376,1.953,4.773,4.773,0,0,1-.7,2.53,4.889,4.889,0,0,1-2.054,1.828,3.27,3.27,0,0,1,.463.4,3.227,3.227,0,0,1,.363.476Z" transform="translate(1611.165 46.511)" fill="#1652f0"/>
  </g>
</svg>
