<svg xmlns="http://www.w3.org/2000/svg" viewBox="0 0 98.358 37.433">
  <path id="Path_13723" data-name="Path 13723" d="M-42.517-7.913a.872.872,0,0,1,.431.1.737.737,0,0,1,.287.471,5.819,5.819,0,0,1,.144,1.148q.041.779.041,2.132,0,1.435-.041,2.255A6.89,6.89,0,0,1-41.8-.574q-.1.41-.287.492A1.052,1.052,0,0,1-42.517,0h-6.765a1.052,1.052,0,0,1-.431-.082Q-49.9-.164-50-.553a6.235,6.235,0,0,1-.144-1.169q-.041-.779-.041-2.132,0-1.435.041-2.255A6.452,6.452,0,0,1-50-7.319a.757.757,0,0,1,.287-.492.872.872,0,0,1,.431-.1Zm6.765,0a.872.872,0,0,1,.431.1.737.737,0,0,1,.287.471,5.819,5.819,0,0,1,.144,1.148q.041.779.041,2.132,0,1.435-.041,2.255a6.89,6.89,0,0,1-.144,1.23q-.1.41-.287.492A1.052,1.052,0,0,1-35.752,0h-6.765a1.052,1.052,0,0,1-.431-.082q-.185-.082-.287-.471a6.235,6.235,0,0,1-.144-1.169q-.041-.779-.041-2.132,0-1.435.041-2.255a6.452,6.452,0,0,1,.144-1.21.757.757,0,0,1,.287-.492.872.872,0,0,1,.431-.1Zm1.558,0A.71.71,0,0,0-33.7-8.1a.606.606,0,0,0,.205-.472v-6.109h7.216v6.109a.606.606,0,0,0,.2.472.71.71,0,0,0,.492.184.66.66,0,0,0,.451-.184.606.606,0,0,0,.205-.472v-6.109h7.216v6.109a.606.606,0,0,0,.2.472.71.71,0,0,0,.492.184.66.66,0,0,0,.451-.184.606.606,0,0,0,.2-.472v-6.109h7.216v6.109a.606.606,0,0,0,.2.472.66.66,0,0,0,.451.184h1.6a.872.872,0,0,1,.43.1.737.737,0,0,1,.287.471,5.819,5.819,0,0,1,.143,1.148q.041.779.041,2.132,0,1.435-.041,2.255A6.891,6.891,0,0,1-6.17-.574q-.1.41-.287.492A1.052,1.052,0,0,1-6.888,0H-8.2a10.735,10.735,0,0,1-2.44-.246,3.965,3.965,0,0,1-1.906-1.107A5,5,0,0,1-14.7-.246,10.836,10.836,0,0,1-17.015,0a10.338,10.338,0,0,1-2.05-.246,3.76,3.76,0,0,1-2.009-1.107A5.55,5.55,0,0,1-23.062-.246,5.974,5.974,0,0,1-24.477,0h-1.107a10.338,10.338,0,0,1-2.05-.246,3.981,3.981,0,0,1-2.05-1.107A4.851,4.851,0,0,1-31.611-.246,6.219,6.219,0,0,1-33.046,0h-2.706a1.052,1.052,0,0,1-.431-.082q-.185-.082-.287-.471a6.235,6.235,0,0,1-.144-1.169q-.041-.779-.041-2.132,0-1.435.041-2.255a6.452,6.452,0,0,1,.144-1.21.757.757,0,0,1,.287-.492.872.872,0,0,1,.431-.1Zm35.424,0q.7,0,.7-.533a1.376,1.376,0,0,0-.451-.82l-7.462-7.421V-22.1l16.031-5.863,1.8,7.421L3.936-17.589l3.157,3.157q2.214,2.214,3.67,3.505a24.683,24.683,0,0,0,2.46,1.968,5.994,5.994,0,0,0,1.7.861,5.428,5.428,0,0,0,1.394.184h.7a.76.76,0,0,1,.41.1.87.87,0,0,1,.287.471,4.711,4.711,0,0,1,.164,1.148q.041.779.041,2.132,0,1.435-.041,2.255a5.557,5.557,0,0,1-.164,1.23q-.123.41-.287.492a.913.913,0,0,1-.41.082h-.7q-1.435,0-2.481-.062a9.433,9.433,0,0,1-1.886-.287,5.67,5.67,0,0,1-1.558-.676,8.742,8.742,0,0,1-1.5-1.23A6.194,6.194,0,0,1,6.355-.533,9.73,9.73,0,0,1,3.034,0H-6.888a1.052,1.052,0,0,1-.431-.082Q-7.5-.164-7.605-.553a6.235,6.235,0,0,1-.143-1.169Q-7.79-2.5-7.79-3.854q0-1.435.041-2.255a6.452,6.452,0,0,1,.143-1.21.757.757,0,0,1,.287-.492.872.872,0,0,1,.431-.1Zm18.286,0a.66.66,0,0,0,.451-.184.606.606,0,0,0,.2-.472v-6.109h7.421v6.765a9.788,9.788,0,0,1-.553,3.444A6.8,6.8,0,0,1,25.5-2.009a6.5,6.5,0,0,1-2.357,1.5A8.436,8.436,0,0,1,20.172,0H17.015a1.052,1.052,0,0,1-.431-.082Q16.4-.164,16.3-.553a6.235,6.235,0,0,1-.143-1.169q-.041-.779-.041-2.132,0-1.435.041-2.255a6.452,6.452,0,0,1,.143-1.21.757.757,0,0,1,.287-.492.872.872,0,0,1,.431-.1ZM26.281,7.872H18.819V2.214h7.462ZM30.094-25.01h7.462V0H30.094ZM48.175-1.8A12.131,12.131,0,0,1,47.4,2.542,11.209,11.209,0,0,1,45.223,6.13a10.3,10.3,0,0,1-3.341,2.439,10.169,10.169,0,0,1-4.326.9h-4.51l-.7-7.872h4.305A4.411,4.411,0,0,0,39.791.7a3.024,3.024,0,0,0,.923-2.255v-13.12h7.462Z" transform="translate(50.184 27.962)" fill="#fff"/>
</svg>
