<svg xmlns="http://www.w3.org/2000/svg" xmlns:xlink="http://www.w3.org/1999/xlink" version="1.1" enable-background="new 0 0 1000 1000" xml:space="preserve" width="1000" height="1000"><rect id="backgroundrect" width="100%" height="100%" x="0" y="0" fill="none" stroke="none"/>
<metadata> Svg Vector Icons : http://www.onlinewebfonts.com/icon </metadata>

<g class="currentLayer" style=""><title>Layer 1</title><g id="svg_1" class="selected" stroke="#ffffff" stroke-opacity="1" fill="#ffffff" fill-opacity="1"><path d="M930.7,217c-2.1-0.9-4.5-1.7-7.1-2.2c-157-30.6-285.5-104.9-411.9-200.2c-7.9-6-23.7-6.2-31.6-0.2c-57.8,44-117.4,86.9-180.9,122.5c-69.5,38.9-154.5,57.2-231.2,77.3c-20.3,5.3-25.5,24.2-20.4,39.7c6.4,144.3,30.2,295.7,91,427.1C202.9,819.6,354.1,923.4,489,986.6c4.9,2.3,9.7,3.2,14.3,3.2c5.5,0.5,11.3-0.3,17.3-3.2C655.7,920.9,794.4,817.4,862.8,681c65.1-129.9,85.5-290.4,91.3-434.4C954.8,229.3,943.8,219.5,930.7,217z M808.7,649.3C752,771.8,624,864.2,504.5,924.7c-119.5-58.4-241.3-145.2-305.3-262.6c-62.6-114.9-81.7-263.3-88.2-394.5c67.8-17.9,135.6-37.1,199.9-65.2c66.4-29.1,127.6-75.2,185.5-119.5c121.1,86.8,245.7,157.3,393.8,189.4C883.3,399.6,862,534,808.7,649.3z" id="svg_2" stroke="#ffffff" stroke-opacity="1" fill="#ffffff" fill-opacity="1"/><path d="M703.7,341.6c-82,82-163.9,163.9-245.9,245.9c-43.5-43.5-86.9-86.9-130.4-130.4c-28.6-28.6-73,15.7-44.3,44.3c50,50,100,100,150.1,150.1c0.6,0.6,1.2,0.9,1.8,1.4c11,11.8,29.7,16.3,44.4,1.7c89.6-89.6,179.1-179.1,268.7-268.7C776.7,357.3,732.3,313,703.7,341.6z" id="svg_3" stroke="#ffffff" stroke-opacity="1" fill="#ffffff" fill-opacity="1"/></g></g></svg>