<svg xmlns="http://www.w3.org/2000/svg"  viewBox="0 0 41 68">
  <g id="Group_10978" data-name="Group 10978" transform="translate(-1222.549 -295.5)">
    <g id="Rectangle_1482" data-name="Rectangle 1482" transform="translate(1222.549 295.5)" fill="none" stroke="#b5c0ca" stroke-width="2">
      <rect width="41" height="68" rx="6" stroke="none"/>
      <rect x="1" y="1" width="39" height="66" rx="5" fill="none"/>
    </g>
    <g id="Ellipse_389" data-name="Ellipse 389" transform="translate(1239.549 352.5)" fill="none" stroke="#b5c0ca" stroke-width="1.5">
      <circle cx="3.5" cy="3.5" r="3.5" stroke="none"/>
      <circle cx="3.5" cy="3.5" r="2.75" fill="none"/>
    </g>
    <path id="Path_10559" data-name="Path 10559" d="M-19883.822-13279.092h-37.631" transform="translate(21145.822 13629.5)" fill="none" stroke="#b5c0ca" stroke-width="2"/>
    <path id="Path_10560" data-name="Path 10560" d="M-19910.986-13304.209v6.41" transform="translate(21163.521 13629.5)" fill="none" stroke="#b5c0ca" stroke-width="2"/>
    <path id="Path_10561" data-name="Path 10561" d="M-19910.986-13304.209v6.41" transform="translate(21158.521 13629.5)" fill="none" stroke="#b5c0ca" stroke-width="2"/>
    <path id="Path_10562" data-name="Path 10562" d="M-19910.986-13304.209v6.41" transform="translate(21153.521 13629.5)" fill="none" stroke="#b5c0ca" stroke-width="2"/>
    <path id="Path_10563" data-name="Path 10563" d="M-19910.986-13304.209v6.41" transform="translate(21148.521 13629.5)" fill="none" stroke="#b5c0ca" stroke-width="2"/>
    <path id="Path_10564" data-name="Path 10564" d="M-19910.986-13304.209v6.41" transform="translate(21143.521 13629.5)" fill="none" stroke="#b5c0ca" stroke-width="2"/>
    <path id="Path_10565" data-name="Path 10565" d="M-19893.1-13326.217h-18.3" transform="translate(21145.037 13628.5)" fill="none" stroke="#b5c0ca" stroke-linecap="round" stroke-width="2"/>
    <path id="Path_10566" data-name="Path 10566" d="M-19883.746-13321.4h-37.8" transform="translate(21145.846 13629.5)" fill="none" stroke="#b5c0ca" stroke-width="3"/>
  </g>
</svg>
