<svg xmlns="http://www.w3.org/2000/svg" width="83.123" height="84.735" viewBox="0 0 83.123 84.735">
  <g id="Group_11397" data-name="Group 11397" transform="translate(8120 16942.559)">
    <g id="Rectangle_1529" data-name="Rectangle 1529" transform="translate(-8120 -16938.535)" fill="none" stroke="#050f19" stroke-width="2">
      <rect width="66.256" height="80.712" stroke="none"/>
      <rect x="1" y="1" width="64.256" height="78.712" fill="none"/>
    </g>
    <line id="Line_301" data-name="Line 301" y2="9.254" transform="translate(-8106.749 -16942.559)" fill="none" stroke="#050f19" stroke-width="2"/>
    <line id="Line_302" data-name="Line 302" y2="9.254" transform="translate(-8093.498 -16942.559)" fill="none" stroke="#050f19" stroke-width="2"/>
    <line id="Line_303" data-name="Line 303" y2="9.254" transform="translate(-8080.246 -16942.559)" fill="none" stroke="#050f19" stroke-width="2"/>
    <line id="Line_304" data-name="Line 304" y2="9.254" transform="translate(-8066.995 -16942.559)" fill="none" stroke="#050f19" stroke-width="2"/>
    <g id="Group_11360" data-name="Group 11360" transform="translate(-8115.182 -16919.262)">
      <g id="Rectangle_1530" data-name="Rectangle 1530" fill="#050f19" stroke="#050f19" stroke-width="1">
        <rect width="2.409" height="2.409" stroke="none"/>
        <rect x="0.5" y="0.5" width="1.409" height="1.409" fill="none"/>
      </g>
      <g id="Rectangle_1531" data-name="Rectangle 1531" transform="translate(4.819)" fill="#050f19" stroke="#050f19" stroke-width="1">
        <rect width="2.409" height="2.409" stroke="none"/>
        <rect x="0.5" y="0.5" width="1.409" height="1.409" fill="none"/>
      </g>
      <g id="Rectangle_1540" data-name="Rectangle 1540" transform="translate(28.912)" fill="#050f19" stroke="#050f19" stroke-width="1">
        <rect width="2.409" height="2.409" stroke="none"/>
        <rect x="0.5" y="0.5" width="1.409" height="1.409" fill="none"/>
      </g>
      <g id="Rectangle_1532" data-name="Rectangle 1532" transform="translate(9.637)" fill="#050f19" stroke="#050f19" stroke-width="1">
        <rect width="2.409" height="2.409" stroke="none"/>
        <rect x="0.5" y="0.5" width="1.409" height="1.409" fill="none"/>
      </g>
      <g id="Rectangle_1539" data-name="Rectangle 1539" transform="translate(33.73)" fill="#050f19" stroke="#050f19" stroke-width="1">
        <rect width="2.409" height="2.409" stroke="none"/>
        <rect x="0.5" y="0.5" width="1.409" height="1.409" fill="none"/>
      </g>
      <g id="Rectangle_1533" data-name="Rectangle 1533" transform="translate(14.456)" fill="#050f19" stroke="#050f19" stroke-width="1">
        <rect width="2.409" height="2.409" stroke="none"/>
        <rect x="0.5" y="0.5" width="1.409" height="1.409" fill="none"/>
      </g>
      <g id="Rectangle_1538" data-name="Rectangle 1538" transform="translate(38.549)" fill="#050f19" stroke="#050f19" stroke-width="1">
        <rect width="2.409" height="2.409" stroke="none"/>
        <rect x="0.5" y="0.5" width="1.409" height="1.409" fill="none"/>
      </g>
      <g id="Rectangle_1534" data-name="Rectangle 1534" transform="translate(19.274)" fill="#050f19" stroke="#050f19" stroke-width="1">
        <rect width="2.409" height="2.409" stroke="none"/>
        <rect x="0.5" y="0.5" width="1.409" height="1.409" fill="none"/>
      </g>
      <g id="Rectangle_1537" data-name="Rectangle 1537" transform="translate(43.367)" fill="#050f19" stroke="#050f19" stroke-width="1">
        <rect width="2.409" height="2.409" stroke="none"/>
        <rect x="0.5" y="0.5" width="1.409" height="1.409" fill="none"/>
      </g>
      <g id="Rectangle_1535" data-name="Rectangle 1535" transform="translate(24.093)" fill="#050f19" stroke="#050f19" stroke-width="1">
        <rect width="2.409" height="2.409" stroke="none"/>
        <rect x="0.5" y="0.5" width="1.409" height="1.409" fill="none"/>
      </g>
      <g id="Rectangle_1536" data-name="Rectangle 1536" transform="translate(48.186)" fill="#050f19" stroke="#050f19" stroke-width="1">
        <rect width="2.409" height="2.409" stroke="none"/>
        <rect x="0.5" y="0.5" width="1.409" height="1.409" fill="none"/>
      </g>
      <g id="Rectangle_1541" data-name="Rectangle 1541" transform="translate(53.005)" fill="#050f19" stroke="#050f19" stroke-width="1">
        <rect width="2.409" height="2.409" stroke="none"/>
        <rect x="0.5" y="0.5" width="1.409" height="1.409" fill="none"/>
      </g>
    </g>
    <line id="Line_305" data-name="Line 305" x2="49.391" transform="translate(-8112.17 -16902.998)" fill="none" stroke="#050f19" stroke-width="2"/>
    <line id="Line_306" data-name="Line 306" x2="32.526" transform="translate(-8112.17 -16889.746)" fill="none" stroke="#050f19" stroke-width="2"/>
    <line id="Line_307" data-name="Line 307" x2="25.298" transform="translate(-8112.17 -16876.494)" fill="none" stroke="#050f19" stroke-width="2"/>
    <path id="Icon_awesome-pen" data-name="Icon awesome-pen" d="M24.626,7.9,35.47,18.741,11.924,42.287,2.256,43.355A2.033,2.033,0,0,1,.012,41.109l1.076-9.675L24.626,7.9Zm17.55-1.614L37.085,1.192a4.068,4.068,0,0,0-5.752,0l-4.79,4.79L37.387,16.825l4.79-4.79a4.068,4.068,0,0,0,0-5.752Z" transform="translate(-8080.246 -16921.066)"/>
  </g>
</svg>
