<svg id="Group_11467" data-name="Group 11467" xmlns="http://www.w3.org/2000/svg" width="83.383" height="85" viewBox="0 0 83.383 85">
  <g id="Rectangle_1529" data-name="Rectangle 1529" transform="translate(0 4.035)" fill="none" stroke="#1652f0" stroke-width="2">
    <rect width="66.463" height="80.965" stroke="none"/>
    <rect x="1" y="1" width="64.463" height="78.965" fill="none"/>
  </g>
  <line id="Line_301" data-name="Line 301" y2="9.283" transform="translate(13.293)" fill="none" stroke="#1652f0" stroke-width="2"/>
  <line id="Line_302" data-name="Line 302" y2="9.283" transform="translate(26.585)" fill="none" stroke="#1652f0" stroke-width="2"/>
  <line id="Line_303" data-name="Line 303" y2="9.283" transform="translate(39.878)" fill="none" stroke="#1652f0" stroke-width="2"/>
  <line id="Line_304" data-name="Line 304" y2="9.283" transform="translate(53.171)" fill="none" stroke="#1652f0" stroke-width="2"/>
  <g id="Group_11360" data-name="Group 11360" transform="translate(4.833 23.369)">
    <g id="Rectangle_1530" data-name="Rectangle 1530" fill="#c0d0fa" stroke="#c0d0fa" stroke-width="1">
      <rect width="2.417" height="2.417" stroke="none"/>
      <rect x="0.5" y="0.5" width="1.417" height="1.417" fill="none"/>
    </g>
    <g id="Rectangle_1531" data-name="Rectangle 1531" transform="translate(4.834)" fill="#c0d0fa" stroke="#c0d0fa" stroke-width="1">
      <rect width="2.417" height="2.417" stroke="none"/>
      <rect x="0.5" y="0.5" width="1.417" height="1.417" fill="none"/>
    </g>
    <g id="Rectangle_1540" data-name="Rectangle 1540" transform="translate(29.002)" fill="#c0d0fa" stroke="#c0d0fa" stroke-width="1">
      <rect width="2.417" height="2.417" stroke="none"/>
      <rect x="0.5" y="0.5" width="1.417" height="1.417" fill="none"/>
    </g>
    <g id="Rectangle_1532" data-name="Rectangle 1532" transform="translate(9.667)" fill="#c0d0fa" stroke="#c0d0fa" stroke-width="1">
      <rect width="2.417" height="2.417" stroke="none"/>
      <rect x="0.5" y="0.5" width="1.417" height="1.417" fill="none"/>
    </g>
    <g id="Rectangle_1539" data-name="Rectangle 1539" transform="translate(33.836)" fill="#c0d0fa" stroke="#c0d0fa" stroke-width="1">
      <rect width="2.417" height="2.417" stroke="none"/>
      <rect x="0.5" y="0.5" width="1.417" height="1.417" fill="none"/>
    </g>
    <g id="Rectangle_1533" data-name="Rectangle 1533" transform="translate(14.501)" fill="#c0d0fa" stroke="#c0d0fa" stroke-width="1">
      <rect width="2.417" height="2.417" stroke="none"/>
      <rect x="0.5" y="0.5" width="1.417" height="1.417" fill="none"/>
    </g>
    <g id="Rectangle_1538" data-name="Rectangle 1538" transform="translate(38.67)" fill="#c0d0fa" stroke="#c0d0fa" stroke-width="1">
      <rect width="2.417" height="2.417" stroke="none"/>
      <rect x="0.5" y="0.5" width="1.417" height="1.417" fill="none"/>
    </g>
    <g id="Rectangle_1534" data-name="Rectangle 1534" transform="translate(19.335)" fill="#c0d0fa" stroke="#c0d0fa" stroke-width="1">
      <rect width="2.417" height="2.417" stroke="none"/>
      <rect x="0.5" y="0.5" width="1.417" height="1.417" fill="none"/>
    </g>
    <g id="Rectangle_1537" data-name="Rectangle 1537" transform="translate(43.503)" fill="#c0d0fa" stroke="#c0d0fa" stroke-width="1">
      <rect width="2.417" height="2.417" stroke="none"/>
      <rect x="0.5" y="0.5" width="1.417" height="1.417" fill="none"/>
    </g>
    <g id="Rectangle_1535" data-name="Rectangle 1535" transform="translate(24.169)" fill="#c0d0fa" stroke="#c0d0fa" stroke-width="1">
      <rect width="2.417" height="2.417" stroke="none"/>
      <rect x="0.5" y="0.5" width="1.417" height="1.417" fill="none"/>
    </g>
    <g id="Rectangle_1536" data-name="Rectangle 1536" transform="translate(48.337)" fill="#c0d0fa" stroke="#c0d0fa" stroke-width="1">
      <rect width="2.417" height="2.417" stroke="none"/>
      <rect x="0.5" y="0.5" width="1.417" height="1.417" fill="none"/>
    </g>
    <g id="Rectangle_1541" data-name="Rectangle 1541" transform="translate(53.171)" fill="#c0d0fa" stroke="#c0d0fa" stroke-width="1">
      <rect width="2.417" height="2.417" stroke="none"/>
      <rect x="0.5" y="0.5" width="1.417" height="1.417" fill="none"/>
    </g>
  </g>
  <line id="Line_305" data-name="Line 305" x2="49.545" transform="translate(7.854 39.684)" fill="none" stroke="#c0d0fa" stroke-width="2"/>
  <line id="Line_306" data-name="Line 306" x2="32.627" transform="translate(7.854 52.979)" fill="none" stroke="#c0d0fa" stroke-width="2"/>
  <line id="Line_307" data-name="Line 307" x2="25.377" transform="translate(7.854 66.271)" fill="none" stroke="#c0d0fa" stroke-width="2"/>
  <path id="Icon_awesome-pen" data-name="Icon awesome-pen" d="M24.7,7.922,35.581,18.8,11.961,42.42l-9.7,1.071A2.039,2.039,0,0,1,.012,41.238l1.079-9.7L24.7,7.922ZM42.309,6.3,37.2,1.2a4.081,4.081,0,0,0-5.77,0L26.626,6,37.5,16.878l4.8-4.8a4.081,4.081,0,0,0,0-5.77Z" transform="translate(39.879 21.559)" fill="#1652f0"/>
</svg>
