<svg xmlns="http://www.w3.org/2000/svg" xmlns:xlink="http://www.w3.org/1999/xlink" width="132" height="132" viewBox="0 0 132 132">
  <defs>
    <filter id="Ellipse_379" x="0" y="0" width="132" height="132" filterUnits="userSpaceOnUse">
      <feOffset dy="3" input="SourceAlpha"/>
      <feGaussianBlur stdDeviation="3" result="blur"/>
      <feFlood flood-opacity="0.102"/>
      <feComposite operator="in" in2="blur"/>
      <feComposite in="SourceGraphic"/>
    </filter>
  </defs>
  <g id="Group_11433" data-name="Group 11433" transform="translate(8.561 6)">
    <g transform="matrix(1, 0, 0, 1, -8.56, -6)" filter="url(#Ellipse_379)">
      <circle id="Ellipse_379-2" data-name="Ellipse 379" cx="57" cy="57" r="57" transform="translate(9 6)" fill="#fff"/>
    </g>
    <g id="Group_10727" data-name="Group 10727" transform="translate(12.349 11)">
      <path id="Icon_awesome-star" data-name="Icon awesome-star" d="M6.84.4,5.364,3.4l-3.3.482a.724.724,0,0,0-.4,1.234L4.05,7.44l-.565,3.289a.723.723,0,0,0,1.049.762L7.489,9.938l2.955,1.553a.724.724,0,0,0,1.049-.762L10.928,7.44l2.39-2.329a.724.724,0,0,0-.4-1.234L9.614,3.4,8.138.4A.724.724,0,0,0,6.84.4Z" transform="translate(37.556 0.001)" fill="#c0d0fa"/>
      <path id="Icon_awesome-star-2" data-name="Icon awesome-star" d="M6.84.4,5.364,3.4l-3.3.482a.724.724,0,0,0-.4,1.234L4.05,7.44l-.565,3.289a.723.723,0,0,0,1.049.762L7.489,9.938l2.955,1.553a.724.724,0,0,0,1.049-.762L10.928,7.44l2.39-2.329a.724.724,0,0,0-.4-1.234L9.614,3.4,8.138.4A.724.724,0,0,0,6.84.4Z" transform="translate(54.911 3.962)" fill="#c0d0fa"/>
      <path id="Icon_awesome-star-3" data-name="Icon awesome-star" d="M6.84.4,5.364,3.4l-3.3.482a.724.724,0,0,0-.4,1.234L4.05,7.44l-.565,3.289a.723.723,0,0,0,1.049.762L7.489,9.938l2.955,1.553a.724.724,0,0,0,1.049-.762L10.928,7.44l2.39-2.329a.724.724,0,0,0-.4-1.234L9.614,3.4,8.138.4A.724.724,0,0,0,6.84.4Z" transform="translate(68.829 15.061)" fill="#c0d0fa"/>
      <path id="Icon_awesome-star-4" data-name="Icon awesome-star" d="M6.84.4,5.364,3.4l-3.3.482a.724.724,0,0,0-.4,1.234L4.05,7.44l-.565,3.289a.723.723,0,0,0,1.049.762L7.489,9.938l2.955,1.553a.724.724,0,0,0,1.049-.762L10.928,7.44l2.39-2.329a.724.724,0,0,0-.4-1.234L9.614,3.4,8.138.4A.724.724,0,0,0,6.84.4Z" transform="translate(76.553 31.1)" fill="#c0d0fa"/>
      <path id="Icon_awesome-star-5" data-name="Icon awesome-star" d="M6.84.4,5.364,3.4l-3.3.482a.724.724,0,0,0-.4,1.234L4.05,7.44l-.565,3.289a.723.723,0,0,0,1.049.762L7.489,9.938l2.955,1.553a.724.724,0,0,0,1.049-.762L10.928,7.44l2.39-2.329a.724.724,0,0,0-.4-1.234L9.614,3.4,8.138.4A.724.724,0,0,0,6.84.4Z" transform="translate(76.553 48.902)" fill="#c0d0fa"/>
      <path id="Icon_awesome-star-6" data-name="Icon awesome-star" d="M6.84.4,5.364,3.4l-3.3.482a.724.724,0,0,0-.4,1.234L4.05,7.44l-.565,3.289a.723.723,0,0,0,1.049.762L7.489,9.938l2.955,1.553a.724.724,0,0,0,1.049-.762L10.928,7.44l2.39-2.329a.724.724,0,0,0-.4-1.234L9.614,3.4,8.138.4A.724.724,0,0,0,6.84.4Z" transform="translate(68.829 64.94)" fill="#c0d0fa"/>
      <path id="Icon_awesome-star-7" data-name="Icon awesome-star" d="M6.84.4,5.364,3.4l-3.3.482a.724.724,0,0,0-.4,1.234L4.05,7.44l-.565,3.289a.723.723,0,0,0,1.049.762L7.489,9.938l2.955,1.553a.724.724,0,0,0,1.049-.762L10.928,7.44l2.39-2.329a.724.724,0,0,0-.4-1.234L9.614,3.4,8.138.4A.724.724,0,0,0,6.84.4Z" transform="translate(54.911 76.04)" fill="#c0d0fa"/>
      <path id="Icon_awesome-star-8" data-name="Icon awesome-star" d="M6.84.4,5.364,3.4l-3.3.482a.724.724,0,0,0-.4,1.234L4.05,7.44l-.565,3.289a.723.723,0,0,0,1.049.762L7.489,9.938l2.955,1.553a.724.724,0,0,0,1.049-.762L10.928,7.44l2.39-2.329a.724.724,0,0,0-.4-1.234L9.614,3.4,8.138.4A.724.724,0,0,0,6.84.4Z" transform="translate(37.556 80.001)" fill="#c0d0fa"/>
      <path id="Icon_awesome-star-9" data-name="Icon awesome-star" d="M6.84.4,5.364,3.4l-3.3.482a.724.724,0,0,0-.4,1.234L4.05,7.44l-.565,3.289a.723.723,0,0,0,1.049.762L7.489,9.938l2.955,1.553a.724.724,0,0,0,1.049-.762L10.928,7.44l2.39-2.329a.724.724,0,0,0-.4-1.234L9.614,3.4,8.138.4A.724.724,0,0,0,6.84.4Z" transform="translate(20.2 76.04)" fill="#c0d0fa"/>
      <path id="Icon_awesome-star-10" data-name="Icon awesome-star" d="M6.84.4,5.364,3.4l-3.3.482a.724.724,0,0,0-.4,1.234L4.05,7.44l-.565,3.289a.723.723,0,0,0,1.049.762L7.489,9.938l2.955,1.553a.724.724,0,0,0,1.049-.762L10.928,7.44l2.39-2.329a.724.724,0,0,0-.4-1.234L9.614,3.4,8.138.4A.724.724,0,0,0,6.84.4Z" transform="translate(6.282 64.94)" fill="#c0d0fa"/>
      <path id="Icon_awesome-star-11" data-name="Icon awesome-star" d="M6.84.4,5.364,3.4l-3.3.482a.724.724,0,0,0-.4,1.234L4.05,7.44l-.565,3.289a.723.723,0,0,0,1.049.762L7.489,9.938l2.955,1.553a.724.724,0,0,0,1.049-.762L10.928,7.44l2.39-2.329a.724.724,0,0,0-.4-1.234L9.614,3.4,8.138.4A.724.724,0,0,0,6.84.4Z" transform="translate(-1.441 48.902)" fill="#c0d0fa"/>
      <path id="Icon_awesome-star-12" data-name="Icon awesome-star" d="M6.84.4,5.364,3.4l-3.3.482a.724.724,0,0,0-.4,1.234L4.05,7.44l-.565,3.289a.723.723,0,0,0,1.049.762L7.489,9.938l2.955,1.553a.724.724,0,0,0,1.049-.762L10.928,7.44l2.39-2.329a.724.724,0,0,0-.4-1.234L9.614,3.4,8.138.4A.724.724,0,0,0,6.84.4Z" transform="translate(-1.441 31.1)" fill="#c0d0fa"/>
      <path id="Icon_awesome-star-13" data-name="Icon awesome-star" d="M6.84.4,5.364,3.4l-3.3.482a.724.724,0,0,0-.4,1.234L4.05,7.44l-.565,3.289a.723.723,0,0,0,1.049.762L7.489,9.938l2.955,1.553a.724.724,0,0,0,1.049-.762L10.928,7.44l2.39-2.329a.724.724,0,0,0-.4-1.234L9.614,3.4,8.138.4A.724.724,0,0,0,6.84.4Z" transform="translate(6.282 15.061)" fill="#c0d0fa"/>
      <path id="Icon_awesome-star-14" data-name="Icon awesome-star" d="M6.84.4,5.364,3.4l-3.3.482a.724.724,0,0,0-.4,1.234L4.05,7.44l-.565,3.289a.723.723,0,0,0,1.049.762L7.489,9.938l2.955,1.553a.724.724,0,0,0,1.049-.762L10.928,7.44l2.39-2.329a.724.724,0,0,0-.4-1.234L9.614,3.4,8.138.4A.724.724,0,0,0,6.84.4Z" transform="translate(20.2 3.962)" fill="#c0d0fa"/>
    </g>
    <path id="Icon_awesome-wallet" data-name="Icon awesome-wallet" d="M28.78,8.241H4.992a1,1,0,0,1,0-2H28.954a1,1,0,0,0,1-1,3,3,0,0,0-3-3H3.994A3.993,3.993,0,0,0,0,6.244V26.212a3.993,3.993,0,0,0,3.994,3.994H28.78a3.089,3.089,0,0,0,3.17-3V11.236A3.089,3.089,0,0,0,28.78,8.241ZM25.959,21.22a2,2,0,1,1,2-2A2,2,0,0,1,25.959,21.22Z" transform="translate(42.374 40.56)" fill="#1652f0"/>
  </g>
</svg>
