<svg id="Group" xmlns="http://www.w3.org/2000/svg" width="16.097" height="20.121" viewBox="0 0 16.097 20.121">
  <g id="Group-2" data-name="Group" transform="translate(0 0)">
    <path id="Shape" d="M13.078,20.121H3.018A3.021,3.021,0,0,1,0,17.1V10.061A3.021,3.021,0,0,1,3.018,7.043V5.031a5.03,5.03,0,1,1,10.061,0V7.043A3.022,3.022,0,0,1,16.1,10.061V17.1A3.022,3.022,0,0,1,13.078,20.121ZM3.018,9.055a1.007,1.007,0,0,0-1.006,1.006V17.1a1.007,1.007,0,0,0,1.006,1.006H13.078A1.008,1.008,0,0,0,14.085,17.1V10.061a1.008,1.008,0,0,0-1.007-1.006ZM8.049,2.012A3.022,3.022,0,0,0,5.031,5.031V7.043h6.036V5.031A3.022,3.022,0,0,0,8.049,2.012Zm0,14.085a1.007,1.007,0,0,1-1.006-1.006v-1.4a1.5,1.5,0,0,1,.989-2.626h.034a1.5,1.5,0,0,1,.989,2.626v1.4A1.007,1.007,0,0,1,8.049,16.1Z" fill="#fff"/>
  </g>
</svg>
