<svg id="Group_11765" data-name="Group 11765" xmlns="http://www.w3.org/2000/svg" width="37.001" height="37.001" viewBox="0 0 37.001 37.001">
  <path id="Subtraction_1" data-name="Subtraction 1" d="M18.5,37A18.505,18.505,0,0,1,11.3,1.454,18.505,18.505,0,0,1,25.7,35.547,18.385,18.385,0,0,1,18.5,37ZM9.637,9.1v4.191h6.291v2.748a31.345,31.345,0,0,0-6.4.863,7.47,7.47,0,0,0-1.88.734c-.451.276-.68.566-.68.863s.229.587.681.863a7.481,7.481,0,0,0,1.881.734,31.413,31.413,0,0,0,6.394.865v8.81h4.548V20.96A31.241,31.241,0,0,0,26.86,20.1a7.448,7.448,0,0,0,1.877-.734c.451-.276.679-.567.679-.863s-.229-.586-.679-.862A7.463,7.463,0,0,0,26.86,16.9a31.209,31.209,0,0,0-6.385-.864l0,0V13.289h6.291V9.1Zm8.578,11.154c-1.3,0-2.136-.04-2.29-.048v0a31.477,31.477,0,0,1-5.638-.685,7.107,7.107,0,0,1-1.653-.572c-.4-.215-.6-.44-.6-.671s.2-.455.6-.67a7.127,7.127,0,0,1,1.653-.572,31.441,31.441,0,0,1,5.637-.686v3.073c.233.017,1.09.071,2.311.071,1.339,0,2.05-.055,2.236-.071v-3.07a31.458,31.458,0,0,1,5.626.687,7.1,7.1,0,0,1,1.648.571c.4.214.6.439.6.669s-.2.455-.6.669a7.1,7.1,0,0,1-1.649.571,31.449,31.449,0,0,1-5.625.687V20.2C20.305,20.216,19.648,20.252,18.215,20.252Z" fill="#26a17b"/>
</svg>
