<svg xmlns="http://www.w3.org/2000/svg" width="28" height="24.5" viewBox="0 0 28 24.5">
  <path id="Icon_awesome-wallet" data-name="Icon awesome-wallet" d="M25.222,7.5H4.375a.875.875,0,0,1,0-1.75h21a.875.875,0,0,0,.875-.875A2.625,2.625,0,0,0,23.625,2.25H3.5A3.5,3.5,0,0,0,0,5.75v17.5a3.5,3.5,0,0,0,3.5,3.5H25.222A2.707,2.707,0,0,0,28,24.125v-14A2.707,2.707,0,0,0,25.222,7.5ZM22.75,18.875a1.75,1.75,0,1,1,1.75-1.75A1.75,1.75,0,0,1,22.75,18.875Z" transform="translate(0 -2.25)" fill="#1652f0"/>
</svg>
