<svg xmlns="http://www.w3.org/2000/svg" width="8.5" height="15.5" viewBox="0 0 8.5 15.5">
  <g id="Arrow_-_Left_2"  transform="translate(0 15.5) rotate(-90)">
    <path id="Stroke_1"  d="M7.75,8.5a.748.748,0,0,1-.53-.22l-7-7A.75.75,0,0,1,1.28.22l6.47,6.47L14.22.22A.75.75,0,0,1,15.28,1.28l-7,7A.748.748,0,0,1,7.75,8.5Z" transform="translate(0 0)" fill="#fff"/>
    <path id="Stroke_1-2"  d="M7.75,8.5a.748.748,0,0,1-.53-.22l-7-7A.75.75,0,0,1,1.28.22l6.47,6.47L14.22.22A.75.75,0,0,1,15.28,1.28l-7,7A.748.748,0,0,1,7.75,8.5Z" transform="translate(0 0)" fill="#fff"/>
  </g>
</svg>
