<svg id="icons_calendar-alt" data-name="icons/calendar-alt" xmlns="http://www.w3.org/2000/svg" width="20" height="22" viewBox="0 0 20 22">
  <g id="Group">
    <g id="Group-2" data-name="Group">
      <path id="Shape" d="M17,22H3a3,3,0,0,1-3-3V5A3,3,0,0,1,3,2H4V1A1,1,0,0,1,6,1V2h8V1a1,1,0,0,1,2,0V2h1a3,3,0,0,1,3,3V19A3,3,0,0,1,17,22ZM2,10v9a1,1,0,0,0,1,1H17a1,1,0,0,0,1-1V10ZM3,4A1,1,0,0,0,2,5V8H18V5a1,1,0,0,0-1-1H16V5a1,1,0,1,1-2,0V4H6V5A1,1,0,0,1,4,5V4ZM15,18a1,1,0,1,1,1-1A1,1,0,0,1,15,18Zm-5,0a1,1,0,1,1,1-1A1,1,0,0,1,10,18ZM5,18a1,1,0,1,1,1-1A1,1,0,0,1,5,18Zm10-4a1,1,0,1,1,1-1A1,1,0,0,1,15,14Zm-5,0a1,1,0,1,1,1-1A1,1,0,0,1,10,14ZM5,14a1,1,0,1,1,1-1A1,1,0,0,1,5,14Z" fill="#1652f0"/>
    </g>
  </g>
</svg>
