<svg id="dialpad_black_24dp" xmlns="http://www.w3.org/2000/svg" width="48.997" height="48.997" viewBox="0 0 48.997 48.997">
  <path id="Path_13204" data-name="Path 13204" d="M0,0H49V49H0Z" fill="none"/>
  <path id="Path_13205" data-name="Path 13205" d="M20.332,37.748a4.083,4.083,0,1,0,4.083,4.083A4.1,4.1,0,0,0,20.332,37.748ZM8.083,1a4.083,4.083,0,1,0,4.083,4.083A4.1,4.1,0,0,0,8.083,1Zm0,12.249a4.083,4.083,0,1,0,4.083,4.083A4.1,4.1,0,0,0,8.083,13.249Zm0,12.249a4.083,4.083,0,1,0,4.083,4.083A4.1,4.1,0,0,0,8.083,25.5Zm24.5-16.332A4.083,4.083,0,1,0,28.5,5.083,4.1,4.1,0,0,0,32.582,9.166ZM20.332,25.5a4.083,4.083,0,1,0,4.083,4.083A4.1,4.1,0,0,0,20.332,25.5Zm12.249,0a4.083,4.083,0,1,0,4.083,4.083A4.1,4.1,0,0,0,32.582,25.5Zm0-12.249a4.083,4.083,0,1,0,4.083,4.083A4.1,4.1,0,0,0,32.582,13.249Zm-12.249,0a4.083,4.083,0,1,0,4.083,4.083A4.1,4.1,0,0,0,20.332,13.249ZM20.332,1a4.083,4.083,0,1,0,4.083,4.083A4.1,4.1,0,0,0,20.332,1Z" transform="translate(4.166 1.042)" fill="#1652f0"/>
</svg>
