<svg xmlns="http://www.w3.org/2000/svg" xmlns:xlink="http://www.w3.org/1999/xlink" width="current" height="current" viewBox="0 0 104.876 125.093">
  <defs>
    <filter id="Path_13120" x="0" y="0"  filterUnits="userSpaceOnUse">
      <feOffset dy="3" />
      <feGaussianBlur stdDeviation="3" result="blur"/>
      <feFlood flood-opacity="0.478"/>
      <feComposite operator="in" in2="blur"/>
      <feComposite in="SourceGraphic"/>
    </filter>
    <filter id="Path_13121" x="41.881" y="13.645" width="62.995" height="111.448" filterUnits="userSpaceOnUse">
      <feOffset />
      <feGaussianBlur stdDeviation="4" result="blur-2"/>
      <feFlood flood-opacity="0.522"/>
      <feComposite operator="in" in2="blur-2"/>
      <feComposite in="SourceGraphic"/>
    </filter>
  </defs>
  <g id="Group_18440"  transform="translate(-707.197 -61.074)">
    <g transform="matrix(1, 0, 0, 1, 707.2, 61.07)" filter="url(#Path_13120)">
      <path id="Path_13120-2"  d="M137.544,205.372V182.938l19.5-10.682V128.411l19.5-10.673v66.279Z" transform="translate(-128.54 -111.74)" fill="#fff" opacity="0.1"/>
    </g>
    <g transform="matrix(1, 0, 0, 1, 707.2, 61.07)" filter="url(#Path_13121)">
      <path id="Path_13121-2"  d="M218.154,174.379l38.995-21.36v22.434l-19.5,10.678v43.654l-19.5,10.682Z" transform="translate(-164.27 -127.37)" fill="#fff" opacity="0.21"/>
    </g>
    <g id="Group_15575"  transform="translate(38.197 47.31)">
      <circle id="Ellipse_3460"  cx="29.973" cy="29.973" r="29.973" transform="translate(689.965 42.763)" fill="#4B83FF"/>
      <path id="finger-print-outline" d="M75.091,20.692a.827.827,0,0,1-.421-.114,20.731,20.731,0,0,0-20.386,0,.909.909,0,0,1-1.244-.383.982.982,0,0,1,.367-1.292,22.542,22.542,0,0,1,22.106-.016A.95.95,0,0,1,75.9,20.16.9.9,0,0,1,75.091,20.692ZM48.9,30.667a.929.929,0,0,1-.53-.171.971.971,0,0,1-.22-1.33,19.147,19.147,0,0,1,6.863-6.213,20.438,20.438,0,0,1,18.867-.019,19.22,19.22,0,0,1,6.863,6.175.973.973,0,0,1-.22,1.33.891.891,0,0,1-1.281-.228,17.379,17.379,0,0,0-6.2-5.586,18.649,18.649,0,0,0-17.2.019,17.587,17.587,0,0,0-6.222,5.621.792.792,0,0,1-.714.4ZM60.341,53.6a.844.844,0,0,1-.64-.285A19.2,19.2,0,0,1,56.023,48.3,17.339,17.339,0,0,1,54.1,40.052a10.36,10.36,0,0,1,20.719,0,.915.915,0,1,1-1.83,0,8.532,8.532,0,0,0-17.059,0,15.343,15.343,0,0,0,1.7,7.315,17.988,17.988,0,0,0,3.386,4.6,1,1,0,0,1,0,1.346.985.985,0,0,1-.678.291Zm13.122-3.515A9.593,9.593,0,0,1,67.79,48.4a10.22,10.22,0,0,1-4.354-8.341.916.916,0,1,1,1.83,0,8.255,8.255,0,0,0,3.55,6.764,7.806,7.806,0,0,0,4.649,1.346,11.67,11.67,0,0,0,1.9-.19.915.915,0,0,1,1.061.779.944.944,0,0,1-.75,1.1,12.056,12.056,0,0,1-2.213.228ZM69.784,54a1.029,1.029,0,0,1-.237-.038A14.352,14.352,0,0,1,58.767,40.052a5.636,5.636,0,0,1,11.272,0,3.808,3.808,0,0,0,7.613,0A13.132,13.132,0,0,0,64.385,27.076a13.312,13.312,0,0,0-12.1,7.657,12.638,12.638,0,0,0-1.08,5.32,19.524,19.524,0,0,0,1.225,6.859.937.937,0,0,1-.53,1.216.9.9,0,0,1-1.171-.554A21.88,21.88,0,0,1,49.4,40.052,14.731,14.731,0,0,1,50.642,33.9a15.129,15.129,0,0,1,28.841,6.137,5.637,5.637,0,0,1-11.273,0,3.808,3.808,0,0,0-7.612,0A12.206,12.206,0,0,0,64.02,48.6,12.379,12.379,0,0,0,70,52.114a.947.947,0,0,1,.64,1.159A.9.9,0,0,1,69.784,54Z" transform="translate(655.482 37.296)" fill="#fff"/>
    </g>
  </g>
</svg>
