<svg xmlns="http://www.w3.org/2000/svg" width="117.339" height="64.5" viewBox="0 0 117.339 64.5">
  <g id="Group_15531" data-name="Group 15531" transform="translate(-1162.146 -34.5)">
    <g id="Group_15519" data-name="Group 15519" transform="translate(1162.146 34.5)">
      <path id="Path_13120" data-name="Path 13120" d="M137.544,167.332v-12.7l11.035-6.045V123.778l11.033-6.04v37.509Z" transform="translate(-137.544 -117.737)" fill="#fff"/>
      <path id="Path_13121" data-name="Path 13121" d="M218.154,165.108l22.068-12.088v12.7l-11.033,6.043v24.705l-11.035,6.045Z" transform="translate(-192.754 -141.902)" fill="#fff"/>
    </g>
    <g id="Group_15520" data-name="Group 15520" transform="translate(1209.613 65.958)">
      <path id="Path_13122" data-name="Path 13122" d="M288.066,243.9l.9-1.085a1.525,1.525,0,0,0-.294-.031h-.294a6.225,6.225,0,0,0-3.563,1.022,5.436,5.436,0,0,0-2.138,3.037v-3.687h-1.3v15.957h1.3V250.14a8.02,8.02,0,0,1,.341-2.359,6.052,6.052,0,0,1,1.022-1.988,5,5,0,0,1,1.689-1.382A5.1,5.1,0,0,1,288.066,243.9Z" transform="translate(-281.373 -236.805)" fill="#fff"/>
      <path id="Path_13123" data-name="Path 13123" d="M312.025,245.635a5.3,5.3,0,0,0-2.246-2.122,6.809,6.809,0,0,0-3.114-.728,7.432,7.432,0,0,0-3.331.7,6.962,6.962,0,0,0-2.371,1.89,7.969,7.969,0,0,0-1.425,2.758,11.541,11.541,0,0,0-.465,3.3,9.64,9.64,0,0,0,.5,3.129,7.806,7.806,0,0,0,1.425,2.556,6.645,6.645,0,0,0,2.278,1.735,7.153,7.153,0,0,0,3.083.635,6.832,6.832,0,0,0,3.408-.821,5.679,5.679,0,0,0,2.262-2.34v2.789h1.3V243.156h-1.3Zm0,7.911a4.425,4.425,0,0,1-.449,2.01,4.658,4.658,0,0,1-1.224,1.531,5.431,5.431,0,0,1-1.767.959,6.629,6.629,0,0,1-2.076.324,6.031,6.031,0,0,1-2.664-.556,5.542,5.542,0,0,1-1.921-1.515,6.533,6.533,0,0,1-1.162-2.226,9.03,9.03,0,0,1-.388-2.659,11.349,11.349,0,0,1,.325-2.674,7.075,7.075,0,0,1,1.085-2.427,5.668,5.668,0,0,1,2-1.747,6.36,6.36,0,0,1,3.037-.665,5.608,5.608,0,0,1,1.859.325,5.934,5.934,0,0,1,1.674.9,4.751,4.751,0,0,1,1.208,1.361,3.262,3.262,0,0,1,.465,1.685Z" transform="translate(-292.752 -236.805)" fill="#fff"/>
      <path id="Path_13124" data-name="Path 13124" d="M363.011,237.332a7.8,7.8,0,0,0-1.425-2.742,7.009,7.009,0,0,0-2.386-1.875,7.457,7.457,0,0,0-3.315-.7,6.81,6.81,0,0,0-3.114.728,5.3,5.3,0,0,0-2.246,2.122v-8.831h-1.3v22.31h1.3v-2.789a5.676,5.676,0,0,0,2.262,2.34,6.831,6.831,0,0,0,3.408.821,7.186,7.186,0,0,0,3.068-.635,6.612,6.612,0,0,0,2.293-1.735,7.806,7.806,0,0,0,1.425-2.556,9.65,9.65,0,0,0,.5-3.129A11.641,11.641,0,0,0,363.011,237.332Zm-1.224,5.974a6.562,6.562,0,0,1-1.162,2.226,5.558,5.558,0,0,1-1.922,1.515,6.031,6.031,0,0,1-2.664.556,6.626,6.626,0,0,1-2.076-.324,5.417,5.417,0,0,1-1.766-.959,4.64,4.64,0,0,1-1.224-1.531,4.421,4.421,0,0,1-.449-2.01V237.37a3.181,3.181,0,0,1,.465-1.669,4.831,4.831,0,0,1,1.208-1.345,5.927,5.927,0,0,1,1.673-.9,5.612,5.612,0,0,1,1.86-.325,6.36,6.36,0,0,1,3.036.665,5.676,5.676,0,0,1,2,1.747,7.082,7.082,0,0,1,1.085,2.427,11.352,11.352,0,0,1,.325,2.674A9.044,9.044,0,0,1,361.787,243.306Z" transform="translate(-324.992 -226.038)" fill="#fff"/>
      <path id="Path_13125" data-name="Path 13125" d="M409.064,253.536a5.53,5.53,0,0,1-.527,2,4.8,4.8,0,0,1-1.162,1.518,5.189,5.189,0,0,1-1.674.976,5.926,5.926,0,0,1-2.029.341,5.832,5.832,0,0,1-2.339-.449,5.244,5.244,0,0,1-1.766-1.221,6.27,6.27,0,0,1-1.177-1.794,8,8,0,0,1-.6-2.2l12.549-4.577a6.351,6.351,0,0,0-.7-2.242,5.425,5.425,0,0,0-1.394-1.685,6.4,6.4,0,0,0-1.937-1.051,7.126,7.126,0,0,0-2.324-.371,7.455,7.455,0,0,0-3.315.7,6.8,6.8,0,0,0-2.366,1.875,8.042,8.042,0,0,0-1.41,2.742,11.521,11.521,0,0,0-.47,3.331,9.734,9.734,0,0,0,.485,3.1,7.7,7.7,0,0,0,1.41,2.556,6.776,6.776,0,0,0,2.273,1.751,7,7,0,0,0,3.083.651,6.705,6.705,0,0,0,4.571-1.58,6.385,6.385,0,0,0,2.091-4.369Zm-11.341-2.324a9.78,9.78,0,0,1,.387-2.773,7.181,7.181,0,0,1,1.147-2.324,5.563,5.563,0,0,1,1.937-1.611,6.106,6.106,0,0,1,2.819-.6,5.129,5.129,0,0,1,3.176.992,4.74,4.74,0,0,1,1.751,2.758l-11.217,4.09Z" transform="translate(-355.335 -236.805)" fill="#fff"/>
      <path id="Path_13126" data-name="Path 13126" d="M452.928,259.782l-5.95-7.963,5.95-7.994H451.41l-5.175,6.91-5.175-6.91h-1.518l5.949,7.994-5.949,7.963h1.518l5.175-6.91,5.175,6.91Z" transform="translate(-383.057 -237.473)" fill="#fff"/>
    </g>
    <text id="HOME_OF_DIGITAL_ASSETS" data-name="HOME OF DIGITAL ASSETS" transform="translate(1209 98)" fill="#fff" font-size="5.5" font-family="SegoeUI-Bold, Segoe UI" font-weight="700" letter-spacing="-0.013em"><tspan x="0" y="0">HOME OF DIGITAL ASSETS</tspan></text>
  </g>
</svg>
