<svg xmlns="http://www.w3.org/2000/svg" width="54.256" height="46.505" viewBox="0 0 54.256 46.505">
  <path id="image_13_" data-name="image (13)" d="M78.5,64H39.751A7.759,7.759,0,0,0,32,71.751v31a7.759,7.759,0,0,0,7.751,7.751H78.5a7.759,7.759,0,0,0,7.751-7.751v-31A7.759,7.759,0,0,0,78.5,64Zm-9.688,7.751A5.813,5.813,0,1,1,63,77.564,5.813,5.813,0,0,1,68.816,71.751ZM39.751,106.629a3.875,3.875,0,0,1-3.875-3.875v-8.19L47.361,84.354a5.82,5.82,0,0,1,7.969.23L63.2,92.433,49,106.629Zm42.629-3.875a3.875,3.875,0,0,1-3.875,3.875H54.481l14.7-14.7a5.779,5.779,0,0,1,7.465-.019l5.73,4.774Z" transform="translate(-32 -64)" fill="#b7c0ca"/>
</svg>
