<svg xmlns="http://www.w3.org/2000/svg" width="38.526" height="48.142" viewBox="0 0 38.526 48.142">
  <g id="Group_15511" transform="translate(6194 6999)">
    <path id="Subtraction_1" d="M19.263,48.142a2.391,2.391,0,0,1-1.4-.447l-8.789-6.26A21.708,21.708,0,0,1,0,23.786V5.847a2.405,2.405,0,0,1,2.913-2.36,19.3,19.3,0,0,0,3.95.41A19.174,19.174,0,0,0,17.89.429a2.409,2.409,0,0,1,2.745,0A19.174,19.174,0,0,0,31.662,3.9a19.3,19.3,0,0,0,3.95-.41,2.4,2.4,0,0,1,2.914,2.36V23.786a21.712,21.712,0,0,1-9.078,17.649L20.659,47.7A2.394,2.394,0,0,1,19.263,48.142ZM4.816,8.616V23.785A16.888,16.888,0,0,0,11.871,37.51l7.392,5.273,7.393-5.273A16.888,16.888,0,0,0,33.71,23.785V8.616c-.684.059-1.376.088-2.054.088A24.082,24.082,0,0,1,19.263,5.269,24.079,24.079,0,0,1,6.87,8.7C6.187,8.7,5.5,8.674,4.816,8.616Z" transform="translate(-6194 -6999)" fill="#e91e63"/>
    <g id="Group_15510" transform="translate(-51.237 -10.429)">
      <line id="Line_585" x2="10" y2="10" transform="translate(-6128.5 -6969.5)" fill="none" stroke="#e91e63" stroke-linecap="round" stroke-width="2.5"/>
      <line id="Line_586" x1="10" y2="10" transform="translate(-6128.5 -6969.5)" fill="none" stroke="#e91e63" stroke-linecap="round" stroke-width="2.5"/>
    </g>
  </g>
</svg>
